%TF.GenerationSoftware,KiCad,Pcbnew,7.0.1*%
%TF.CreationDate,2023-04-04T13:23:45+02:00*%
%TF.ProjectId,weit_generator,77656974-5f67-4656-9e65-7261746f722e,rev?*%
%TF.SameCoordinates,Original*%
%TF.FileFunction,Legend,Top*%
%TF.FilePolarity,Positive*%
%FSLAX46Y46*%
G04 Gerber Fmt 4.6, Leading zero omitted, Abs format (unit mm)*
G04 Created by KiCad (PCBNEW 7.0.1) date 2023-04-04 13:23:45*
%MOMM*%
%LPD*%
G01*
G04 APERTURE LIST*
%ADD10C,0.150000*%
%ADD11C,0.120000*%
G04 APERTURE END LIST*
D10*
%TO.C,C3*%
X168033333Y-81767380D02*
X167985714Y-81815000D01*
X167985714Y-81815000D02*
X167842857Y-81862619D01*
X167842857Y-81862619D02*
X167747619Y-81862619D01*
X167747619Y-81862619D02*
X167604762Y-81815000D01*
X167604762Y-81815000D02*
X167509524Y-81719761D01*
X167509524Y-81719761D02*
X167461905Y-81624523D01*
X167461905Y-81624523D02*
X167414286Y-81434047D01*
X167414286Y-81434047D02*
X167414286Y-81291190D01*
X167414286Y-81291190D02*
X167461905Y-81100714D01*
X167461905Y-81100714D02*
X167509524Y-81005476D01*
X167509524Y-81005476D02*
X167604762Y-80910238D01*
X167604762Y-80910238D02*
X167747619Y-80862619D01*
X167747619Y-80862619D02*
X167842857Y-80862619D01*
X167842857Y-80862619D02*
X167985714Y-80910238D01*
X167985714Y-80910238D02*
X168033333Y-80957857D01*
X168366667Y-80862619D02*
X168985714Y-80862619D01*
X168985714Y-80862619D02*
X168652381Y-81243571D01*
X168652381Y-81243571D02*
X168795238Y-81243571D01*
X168795238Y-81243571D02*
X168890476Y-81291190D01*
X168890476Y-81291190D02*
X168938095Y-81338809D01*
X168938095Y-81338809D02*
X168985714Y-81434047D01*
X168985714Y-81434047D02*
X168985714Y-81672142D01*
X168985714Y-81672142D02*
X168938095Y-81767380D01*
X168938095Y-81767380D02*
X168890476Y-81815000D01*
X168890476Y-81815000D02*
X168795238Y-81862619D01*
X168795238Y-81862619D02*
X168509524Y-81862619D01*
X168509524Y-81862619D02*
X168414286Y-81815000D01*
X168414286Y-81815000D02*
X168366667Y-81767380D01*
%TO.C,C2*%
X146767380Y-130166666D02*
X146815000Y-130214285D01*
X146815000Y-130214285D02*
X146862619Y-130357142D01*
X146862619Y-130357142D02*
X146862619Y-130452380D01*
X146862619Y-130452380D02*
X146815000Y-130595237D01*
X146815000Y-130595237D02*
X146719761Y-130690475D01*
X146719761Y-130690475D02*
X146624523Y-130738094D01*
X146624523Y-130738094D02*
X146434047Y-130785713D01*
X146434047Y-130785713D02*
X146291190Y-130785713D01*
X146291190Y-130785713D02*
X146100714Y-130738094D01*
X146100714Y-130738094D02*
X146005476Y-130690475D01*
X146005476Y-130690475D02*
X145910238Y-130595237D01*
X145910238Y-130595237D02*
X145862619Y-130452380D01*
X145862619Y-130452380D02*
X145862619Y-130357142D01*
X145862619Y-130357142D02*
X145910238Y-130214285D01*
X145910238Y-130214285D02*
X145957857Y-130166666D01*
X145957857Y-129785713D02*
X145910238Y-129738094D01*
X145910238Y-129738094D02*
X145862619Y-129642856D01*
X145862619Y-129642856D02*
X145862619Y-129404761D01*
X145862619Y-129404761D02*
X145910238Y-129309523D01*
X145910238Y-129309523D02*
X145957857Y-129261904D01*
X145957857Y-129261904D02*
X146053095Y-129214285D01*
X146053095Y-129214285D02*
X146148333Y-129214285D01*
X146148333Y-129214285D02*
X146291190Y-129261904D01*
X146291190Y-129261904D02*
X146862619Y-129833332D01*
X146862619Y-129833332D02*
X146862619Y-129214285D01*
%TO.C,D2*%
X162861905Y-129262619D02*
X162861905Y-128262619D01*
X162861905Y-128262619D02*
X163100000Y-128262619D01*
X163100000Y-128262619D02*
X163242857Y-128310238D01*
X163242857Y-128310238D02*
X163338095Y-128405476D01*
X163338095Y-128405476D02*
X163385714Y-128500714D01*
X163385714Y-128500714D02*
X163433333Y-128691190D01*
X163433333Y-128691190D02*
X163433333Y-128834047D01*
X163433333Y-128834047D02*
X163385714Y-129024523D01*
X163385714Y-129024523D02*
X163338095Y-129119761D01*
X163338095Y-129119761D02*
X163242857Y-129215000D01*
X163242857Y-129215000D02*
X163100000Y-129262619D01*
X163100000Y-129262619D02*
X162861905Y-129262619D01*
X163814286Y-128357857D02*
X163861905Y-128310238D01*
X163861905Y-128310238D02*
X163957143Y-128262619D01*
X163957143Y-128262619D02*
X164195238Y-128262619D01*
X164195238Y-128262619D02*
X164290476Y-128310238D01*
X164290476Y-128310238D02*
X164338095Y-128357857D01*
X164338095Y-128357857D02*
X164385714Y-128453095D01*
X164385714Y-128453095D02*
X164385714Y-128548333D01*
X164385714Y-128548333D02*
X164338095Y-128691190D01*
X164338095Y-128691190D02*
X163766667Y-129262619D01*
X163766667Y-129262619D02*
X164385714Y-129262619D01*
X155761905Y-128901219D02*
X156238095Y-128901219D01*
X155666667Y-129186934D02*
X156000000Y-128186934D01*
X156000000Y-128186934D02*
X156333333Y-129186934D01*
%TO.C,J3*%
X154066666Y-139462619D02*
X154066666Y-140176904D01*
X154066666Y-140176904D02*
X154019047Y-140319761D01*
X154019047Y-140319761D02*
X153923809Y-140415000D01*
X153923809Y-140415000D02*
X153780952Y-140462619D01*
X153780952Y-140462619D02*
X153685714Y-140462619D01*
X154447619Y-139462619D02*
X155066666Y-139462619D01*
X155066666Y-139462619D02*
X154733333Y-139843571D01*
X154733333Y-139843571D02*
X154876190Y-139843571D01*
X154876190Y-139843571D02*
X154971428Y-139891190D01*
X154971428Y-139891190D02*
X155019047Y-139938809D01*
X155019047Y-139938809D02*
X155066666Y-140034047D01*
X155066666Y-140034047D02*
X155066666Y-140272142D01*
X155066666Y-140272142D02*
X155019047Y-140367380D01*
X155019047Y-140367380D02*
X154971428Y-140415000D01*
X154971428Y-140415000D02*
X154876190Y-140462619D01*
X154876190Y-140462619D02*
X154590476Y-140462619D01*
X154590476Y-140462619D02*
X154495238Y-140415000D01*
X154495238Y-140415000D02*
X154447619Y-140367380D01*
%TO.C,D1*%
X166172619Y-95983094D02*
X165172619Y-95983094D01*
X165172619Y-95983094D02*
X165172619Y-95744999D01*
X165172619Y-95744999D02*
X165220238Y-95602142D01*
X165220238Y-95602142D02*
X165315476Y-95506904D01*
X165315476Y-95506904D02*
X165410714Y-95459285D01*
X165410714Y-95459285D02*
X165601190Y-95411666D01*
X165601190Y-95411666D02*
X165744047Y-95411666D01*
X165744047Y-95411666D02*
X165934523Y-95459285D01*
X165934523Y-95459285D02*
X166029761Y-95506904D01*
X166029761Y-95506904D02*
X166125000Y-95602142D01*
X166125000Y-95602142D02*
X166172619Y-95744999D01*
X166172619Y-95744999D02*
X166172619Y-95983094D01*
X166172619Y-94459285D02*
X166172619Y-95030713D01*
X166172619Y-94744999D02*
X165172619Y-94744999D01*
X165172619Y-94744999D02*
X165315476Y-94840237D01*
X165315476Y-94840237D02*
X165410714Y-94935475D01*
X165410714Y-94935475D02*
X165458333Y-95030713D01*
%TO.C,C8*%
X137767380Y-121566666D02*
X137815000Y-121614285D01*
X137815000Y-121614285D02*
X137862619Y-121757142D01*
X137862619Y-121757142D02*
X137862619Y-121852380D01*
X137862619Y-121852380D02*
X137815000Y-121995237D01*
X137815000Y-121995237D02*
X137719761Y-122090475D01*
X137719761Y-122090475D02*
X137624523Y-122138094D01*
X137624523Y-122138094D02*
X137434047Y-122185713D01*
X137434047Y-122185713D02*
X137291190Y-122185713D01*
X137291190Y-122185713D02*
X137100714Y-122138094D01*
X137100714Y-122138094D02*
X137005476Y-122090475D01*
X137005476Y-122090475D02*
X136910238Y-121995237D01*
X136910238Y-121995237D02*
X136862619Y-121852380D01*
X136862619Y-121852380D02*
X136862619Y-121757142D01*
X136862619Y-121757142D02*
X136910238Y-121614285D01*
X136910238Y-121614285D02*
X136957857Y-121566666D01*
X137291190Y-120995237D02*
X137243571Y-121090475D01*
X137243571Y-121090475D02*
X137195952Y-121138094D01*
X137195952Y-121138094D02*
X137100714Y-121185713D01*
X137100714Y-121185713D02*
X137053095Y-121185713D01*
X137053095Y-121185713D02*
X136957857Y-121138094D01*
X136957857Y-121138094D02*
X136910238Y-121090475D01*
X136910238Y-121090475D02*
X136862619Y-120995237D01*
X136862619Y-120995237D02*
X136862619Y-120804761D01*
X136862619Y-120804761D02*
X136910238Y-120709523D01*
X136910238Y-120709523D02*
X136957857Y-120661904D01*
X136957857Y-120661904D02*
X137053095Y-120614285D01*
X137053095Y-120614285D02*
X137100714Y-120614285D01*
X137100714Y-120614285D02*
X137195952Y-120661904D01*
X137195952Y-120661904D02*
X137243571Y-120709523D01*
X137243571Y-120709523D02*
X137291190Y-120804761D01*
X137291190Y-120804761D02*
X137291190Y-120995237D01*
X137291190Y-120995237D02*
X137338809Y-121090475D01*
X137338809Y-121090475D02*
X137386428Y-121138094D01*
X137386428Y-121138094D02*
X137481666Y-121185713D01*
X137481666Y-121185713D02*
X137672142Y-121185713D01*
X137672142Y-121185713D02*
X137767380Y-121138094D01*
X137767380Y-121138094D02*
X137815000Y-121090475D01*
X137815000Y-121090475D02*
X137862619Y-120995237D01*
X137862619Y-120995237D02*
X137862619Y-120804761D01*
X137862619Y-120804761D02*
X137815000Y-120709523D01*
X137815000Y-120709523D02*
X137767380Y-120661904D01*
X137767380Y-120661904D02*
X137672142Y-120614285D01*
X137672142Y-120614285D02*
X137481666Y-120614285D01*
X137481666Y-120614285D02*
X137386428Y-120661904D01*
X137386428Y-120661904D02*
X137338809Y-120709523D01*
X137338809Y-120709523D02*
X137291190Y-120804761D01*
%TO.C,J1*%
X166066666Y-83262619D02*
X166066666Y-83976904D01*
X166066666Y-83976904D02*
X166019047Y-84119761D01*
X166019047Y-84119761D02*
X165923809Y-84215000D01*
X165923809Y-84215000D02*
X165780952Y-84262619D01*
X165780952Y-84262619D02*
X165685714Y-84262619D01*
X167066666Y-84262619D02*
X166495238Y-84262619D01*
X166780952Y-84262619D02*
X166780952Y-83262619D01*
X166780952Y-83262619D02*
X166685714Y-83405476D01*
X166685714Y-83405476D02*
X166590476Y-83500714D01*
X166590476Y-83500714D02*
X166495238Y-83548333D01*
%TO.C,R20*%
X147357142Y-113062619D02*
X147023809Y-112586428D01*
X146785714Y-113062619D02*
X146785714Y-112062619D01*
X146785714Y-112062619D02*
X147166666Y-112062619D01*
X147166666Y-112062619D02*
X147261904Y-112110238D01*
X147261904Y-112110238D02*
X147309523Y-112157857D01*
X147309523Y-112157857D02*
X147357142Y-112253095D01*
X147357142Y-112253095D02*
X147357142Y-112395952D01*
X147357142Y-112395952D02*
X147309523Y-112491190D01*
X147309523Y-112491190D02*
X147261904Y-112538809D01*
X147261904Y-112538809D02*
X147166666Y-112586428D01*
X147166666Y-112586428D02*
X146785714Y-112586428D01*
X147738095Y-112157857D02*
X147785714Y-112110238D01*
X147785714Y-112110238D02*
X147880952Y-112062619D01*
X147880952Y-112062619D02*
X148119047Y-112062619D01*
X148119047Y-112062619D02*
X148214285Y-112110238D01*
X148214285Y-112110238D02*
X148261904Y-112157857D01*
X148261904Y-112157857D02*
X148309523Y-112253095D01*
X148309523Y-112253095D02*
X148309523Y-112348333D01*
X148309523Y-112348333D02*
X148261904Y-112491190D01*
X148261904Y-112491190D02*
X147690476Y-113062619D01*
X147690476Y-113062619D02*
X148309523Y-113062619D01*
X148928571Y-112062619D02*
X149023809Y-112062619D01*
X149023809Y-112062619D02*
X149119047Y-112110238D01*
X149119047Y-112110238D02*
X149166666Y-112157857D01*
X149166666Y-112157857D02*
X149214285Y-112253095D01*
X149214285Y-112253095D02*
X149261904Y-112443571D01*
X149261904Y-112443571D02*
X149261904Y-112681666D01*
X149261904Y-112681666D02*
X149214285Y-112872142D01*
X149214285Y-112872142D02*
X149166666Y-112967380D01*
X149166666Y-112967380D02*
X149119047Y-113015000D01*
X149119047Y-113015000D02*
X149023809Y-113062619D01*
X149023809Y-113062619D02*
X148928571Y-113062619D01*
X148928571Y-113062619D02*
X148833333Y-113015000D01*
X148833333Y-113015000D02*
X148785714Y-112967380D01*
X148785714Y-112967380D02*
X148738095Y-112872142D01*
X148738095Y-112872142D02*
X148690476Y-112681666D01*
X148690476Y-112681666D02*
X148690476Y-112443571D01*
X148690476Y-112443571D02*
X148738095Y-112253095D01*
X148738095Y-112253095D02*
X148785714Y-112157857D01*
X148785714Y-112157857D02*
X148833333Y-112110238D01*
X148833333Y-112110238D02*
X148928571Y-112062619D01*
%TO.C,C5*%
X150333333Y-108867380D02*
X150285714Y-108915000D01*
X150285714Y-108915000D02*
X150142857Y-108962619D01*
X150142857Y-108962619D02*
X150047619Y-108962619D01*
X150047619Y-108962619D02*
X149904762Y-108915000D01*
X149904762Y-108915000D02*
X149809524Y-108819761D01*
X149809524Y-108819761D02*
X149761905Y-108724523D01*
X149761905Y-108724523D02*
X149714286Y-108534047D01*
X149714286Y-108534047D02*
X149714286Y-108391190D01*
X149714286Y-108391190D02*
X149761905Y-108200714D01*
X149761905Y-108200714D02*
X149809524Y-108105476D01*
X149809524Y-108105476D02*
X149904762Y-108010238D01*
X149904762Y-108010238D02*
X150047619Y-107962619D01*
X150047619Y-107962619D02*
X150142857Y-107962619D01*
X150142857Y-107962619D02*
X150285714Y-108010238D01*
X150285714Y-108010238D02*
X150333333Y-108057857D01*
X151238095Y-107962619D02*
X150761905Y-107962619D01*
X150761905Y-107962619D02*
X150714286Y-108438809D01*
X150714286Y-108438809D02*
X150761905Y-108391190D01*
X150761905Y-108391190D02*
X150857143Y-108343571D01*
X150857143Y-108343571D02*
X151095238Y-108343571D01*
X151095238Y-108343571D02*
X151190476Y-108391190D01*
X151190476Y-108391190D02*
X151238095Y-108438809D01*
X151238095Y-108438809D02*
X151285714Y-108534047D01*
X151285714Y-108534047D02*
X151285714Y-108772142D01*
X151285714Y-108772142D02*
X151238095Y-108867380D01*
X151238095Y-108867380D02*
X151190476Y-108915000D01*
X151190476Y-108915000D02*
X151095238Y-108962619D01*
X151095238Y-108962619D02*
X150857143Y-108962619D01*
X150857143Y-108962619D02*
X150761905Y-108915000D01*
X150761905Y-108915000D02*
X150714286Y-108867380D01*
%TO.C,U1*%
X162838095Y-120862619D02*
X162838095Y-121672142D01*
X162838095Y-121672142D02*
X162885714Y-121767380D01*
X162885714Y-121767380D02*
X162933333Y-121815000D01*
X162933333Y-121815000D02*
X163028571Y-121862619D01*
X163028571Y-121862619D02*
X163219047Y-121862619D01*
X163219047Y-121862619D02*
X163314285Y-121815000D01*
X163314285Y-121815000D02*
X163361904Y-121767380D01*
X163361904Y-121767380D02*
X163409523Y-121672142D01*
X163409523Y-121672142D02*
X163409523Y-120862619D01*
X164409523Y-121862619D02*
X163838095Y-121862619D01*
X164123809Y-121862619D02*
X164123809Y-120862619D01*
X164123809Y-120862619D02*
X164028571Y-121005476D01*
X164028571Y-121005476D02*
X163933333Y-121100714D01*
X163933333Y-121100714D02*
X163838095Y-121148333D01*
%TO.C,C11*%
X143957142Y-140767380D02*
X143909523Y-140815000D01*
X143909523Y-140815000D02*
X143766666Y-140862619D01*
X143766666Y-140862619D02*
X143671428Y-140862619D01*
X143671428Y-140862619D02*
X143528571Y-140815000D01*
X143528571Y-140815000D02*
X143433333Y-140719761D01*
X143433333Y-140719761D02*
X143385714Y-140624523D01*
X143385714Y-140624523D02*
X143338095Y-140434047D01*
X143338095Y-140434047D02*
X143338095Y-140291190D01*
X143338095Y-140291190D02*
X143385714Y-140100714D01*
X143385714Y-140100714D02*
X143433333Y-140005476D01*
X143433333Y-140005476D02*
X143528571Y-139910238D01*
X143528571Y-139910238D02*
X143671428Y-139862619D01*
X143671428Y-139862619D02*
X143766666Y-139862619D01*
X143766666Y-139862619D02*
X143909523Y-139910238D01*
X143909523Y-139910238D02*
X143957142Y-139957857D01*
X144909523Y-140862619D02*
X144338095Y-140862619D01*
X144623809Y-140862619D02*
X144623809Y-139862619D01*
X144623809Y-139862619D02*
X144528571Y-140005476D01*
X144528571Y-140005476D02*
X144433333Y-140100714D01*
X144433333Y-140100714D02*
X144338095Y-140148333D01*
X145861904Y-140862619D02*
X145290476Y-140862619D01*
X145576190Y-140862619D02*
X145576190Y-139862619D01*
X145576190Y-139862619D02*
X145480952Y-140005476D01*
X145480952Y-140005476D02*
X145385714Y-140100714D01*
X145385714Y-140100714D02*
X145290476Y-140148333D01*
%TO.C,J2*%
X150852619Y-89383333D02*
X151566904Y-89383333D01*
X151566904Y-89383333D02*
X151709761Y-89430952D01*
X151709761Y-89430952D02*
X151805000Y-89526190D01*
X151805000Y-89526190D02*
X151852619Y-89669047D01*
X151852619Y-89669047D02*
X151852619Y-89764285D01*
X150947857Y-88954761D02*
X150900238Y-88907142D01*
X150900238Y-88907142D02*
X150852619Y-88811904D01*
X150852619Y-88811904D02*
X150852619Y-88573809D01*
X150852619Y-88573809D02*
X150900238Y-88478571D01*
X150900238Y-88478571D02*
X150947857Y-88430952D01*
X150947857Y-88430952D02*
X151043095Y-88383333D01*
X151043095Y-88383333D02*
X151138333Y-88383333D01*
X151138333Y-88383333D02*
X151281190Y-88430952D01*
X151281190Y-88430952D02*
X151852619Y-89002380D01*
X151852619Y-89002380D02*
X151852619Y-88383333D01*
%TO.C,C12*%
X162757142Y-114467380D02*
X162709523Y-114515000D01*
X162709523Y-114515000D02*
X162566666Y-114562619D01*
X162566666Y-114562619D02*
X162471428Y-114562619D01*
X162471428Y-114562619D02*
X162328571Y-114515000D01*
X162328571Y-114515000D02*
X162233333Y-114419761D01*
X162233333Y-114419761D02*
X162185714Y-114324523D01*
X162185714Y-114324523D02*
X162138095Y-114134047D01*
X162138095Y-114134047D02*
X162138095Y-113991190D01*
X162138095Y-113991190D02*
X162185714Y-113800714D01*
X162185714Y-113800714D02*
X162233333Y-113705476D01*
X162233333Y-113705476D02*
X162328571Y-113610238D01*
X162328571Y-113610238D02*
X162471428Y-113562619D01*
X162471428Y-113562619D02*
X162566666Y-113562619D01*
X162566666Y-113562619D02*
X162709523Y-113610238D01*
X162709523Y-113610238D02*
X162757142Y-113657857D01*
X163709523Y-114562619D02*
X163138095Y-114562619D01*
X163423809Y-114562619D02*
X163423809Y-113562619D01*
X163423809Y-113562619D02*
X163328571Y-113705476D01*
X163328571Y-113705476D02*
X163233333Y-113800714D01*
X163233333Y-113800714D02*
X163138095Y-113848333D01*
X164090476Y-113657857D02*
X164138095Y-113610238D01*
X164138095Y-113610238D02*
X164233333Y-113562619D01*
X164233333Y-113562619D02*
X164471428Y-113562619D01*
X164471428Y-113562619D02*
X164566666Y-113610238D01*
X164566666Y-113610238D02*
X164614285Y-113657857D01*
X164614285Y-113657857D02*
X164661904Y-113753095D01*
X164661904Y-113753095D02*
X164661904Y-113848333D01*
X164661904Y-113848333D02*
X164614285Y-113991190D01*
X164614285Y-113991190D02*
X164042857Y-114562619D01*
X164042857Y-114562619D02*
X164661904Y-114562619D01*
%TO.C,C13*%
X148794642Y-121967380D02*
X148747023Y-122015000D01*
X148747023Y-122015000D02*
X148604166Y-122062619D01*
X148604166Y-122062619D02*
X148508928Y-122062619D01*
X148508928Y-122062619D02*
X148366071Y-122015000D01*
X148366071Y-122015000D02*
X148270833Y-121919761D01*
X148270833Y-121919761D02*
X148223214Y-121824523D01*
X148223214Y-121824523D02*
X148175595Y-121634047D01*
X148175595Y-121634047D02*
X148175595Y-121491190D01*
X148175595Y-121491190D02*
X148223214Y-121300714D01*
X148223214Y-121300714D02*
X148270833Y-121205476D01*
X148270833Y-121205476D02*
X148366071Y-121110238D01*
X148366071Y-121110238D02*
X148508928Y-121062619D01*
X148508928Y-121062619D02*
X148604166Y-121062619D01*
X148604166Y-121062619D02*
X148747023Y-121110238D01*
X148747023Y-121110238D02*
X148794642Y-121157857D01*
X149747023Y-122062619D02*
X149175595Y-122062619D01*
X149461309Y-122062619D02*
X149461309Y-121062619D01*
X149461309Y-121062619D02*
X149366071Y-121205476D01*
X149366071Y-121205476D02*
X149270833Y-121300714D01*
X149270833Y-121300714D02*
X149175595Y-121348333D01*
X150080357Y-121062619D02*
X150699404Y-121062619D01*
X150699404Y-121062619D02*
X150366071Y-121443571D01*
X150366071Y-121443571D02*
X150508928Y-121443571D01*
X150508928Y-121443571D02*
X150604166Y-121491190D01*
X150604166Y-121491190D02*
X150651785Y-121538809D01*
X150651785Y-121538809D02*
X150699404Y-121634047D01*
X150699404Y-121634047D02*
X150699404Y-121872142D01*
X150699404Y-121872142D02*
X150651785Y-121967380D01*
X150651785Y-121967380D02*
X150604166Y-122015000D01*
X150604166Y-122015000D02*
X150508928Y-122062619D01*
X150508928Y-122062619D02*
X150223214Y-122062619D01*
X150223214Y-122062619D02*
X150127976Y-122015000D01*
X150127976Y-122015000D02*
X150080357Y-121967380D01*
%TO.C,R24*%
X163472142Y-132386934D02*
X163138809Y-131910743D01*
X162900714Y-132386934D02*
X162900714Y-131386934D01*
X162900714Y-131386934D02*
X163281666Y-131386934D01*
X163281666Y-131386934D02*
X163376904Y-131434553D01*
X163376904Y-131434553D02*
X163424523Y-131482172D01*
X163424523Y-131482172D02*
X163472142Y-131577410D01*
X163472142Y-131577410D02*
X163472142Y-131720267D01*
X163472142Y-131720267D02*
X163424523Y-131815505D01*
X163424523Y-131815505D02*
X163376904Y-131863124D01*
X163376904Y-131863124D02*
X163281666Y-131910743D01*
X163281666Y-131910743D02*
X162900714Y-131910743D01*
X163853095Y-131482172D02*
X163900714Y-131434553D01*
X163900714Y-131434553D02*
X163995952Y-131386934D01*
X163995952Y-131386934D02*
X164234047Y-131386934D01*
X164234047Y-131386934D02*
X164329285Y-131434553D01*
X164329285Y-131434553D02*
X164376904Y-131482172D01*
X164376904Y-131482172D02*
X164424523Y-131577410D01*
X164424523Y-131577410D02*
X164424523Y-131672648D01*
X164424523Y-131672648D02*
X164376904Y-131815505D01*
X164376904Y-131815505D02*
X163805476Y-132386934D01*
X163805476Y-132386934D02*
X164424523Y-132386934D01*
X165281666Y-131720267D02*
X165281666Y-132386934D01*
X165043571Y-131339315D02*
X164805476Y-132053600D01*
X164805476Y-132053600D02*
X165424523Y-132053600D01*
%TO.C,RV1*%
X165849761Y-111687619D02*
X165516428Y-111211428D01*
X165278333Y-111687619D02*
X165278333Y-110687619D01*
X165278333Y-110687619D02*
X165659285Y-110687619D01*
X165659285Y-110687619D02*
X165754523Y-110735238D01*
X165754523Y-110735238D02*
X165802142Y-110782857D01*
X165802142Y-110782857D02*
X165849761Y-110878095D01*
X165849761Y-110878095D02*
X165849761Y-111020952D01*
X165849761Y-111020952D02*
X165802142Y-111116190D01*
X165802142Y-111116190D02*
X165754523Y-111163809D01*
X165754523Y-111163809D02*
X165659285Y-111211428D01*
X165659285Y-111211428D02*
X165278333Y-111211428D01*
X166135476Y-110687619D02*
X166468809Y-111687619D01*
X166468809Y-111687619D02*
X166802142Y-110687619D01*
X167659285Y-111687619D02*
X167087857Y-111687619D01*
X167373571Y-111687619D02*
X167373571Y-110687619D01*
X167373571Y-110687619D02*
X167278333Y-110830476D01*
X167278333Y-110830476D02*
X167183095Y-110925714D01*
X167183095Y-110925714D02*
X167087857Y-110973333D01*
%TO.C,C6*%
X150433333Y-103617380D02*
X150385714Y-103665000D01*
X150385714Y-103665000D02*
X150242857Y-103712619D01*
X150242857Y-103712619D02*
X150147619Y-103712619D01*
X150147619Y-103712619D02*
X150004762Y-103665000D01*
X150004762Y-103665000D02*
X149909524Y-103569761D01*
X149909524Y-103569761D02*
X149861905Y-103474523D01*
X149861905Y-103474523D02*
X149814286Y-103284047D01*
X149814286Y-103284047D02*
X149814286Y-103141190D01*
X149814286Y-103141190D02*
X149861905Y-102950714D01*
X149861905Y-102950714D02*
X149909524Y-102855476D01*
X149909524Y-102855476D02*
X150004762Y-102760238D01*
X150004762Y-102760238D02*
X150147619Y-102712619D01*
X150147619Y-102712619D02*
X150242857Y-102712619D01*
X150242857Y-102712619D02*
X150385714Y-102760238D01*
X150385714Y-102760238D02*
X150433333Y-102807857D01*
X151290476Y-102712619D02*
X151100000Y-102712619D01*
X151100000Y-102712619D02*
X151004762Y-102760238D01*
X151004762Y-102760238D02*
X150957143Y-102807857D01*
X150957143Y-102807857D02*
X150861905Y-102950714D01*
X150861905Y-102950714D02*
X150814286Y-103141190D01*
X150814286Y-103141190D02*
X150814286Y-103522142D01*
X150814286Y-103522142D02*
X150861905Y-103617380D01*
X150861905Y-103617380D02*
X150909524Y-103665000D01*
X150909524Y-103665000D02*
X151004762Y-103712619D01*
X151004762Y-103712619D02*
X151195238Y-103712619D01*
X151195238Y-103712619D02*
X151290476Y-103665000D01*
X151290476Y-103665000D02*
X151338095Y-103617380D01*
X151338095Y-103617380D02*
X151385714Y-103522142D01*
X151385714Y-103522142D02*
X151385714Y-103284047D01*
X151385714Y-103284047D02*
X151338095Y-103188809D01*
X151338095Y-103188809D02*
X151290476Y-103141190D01*
X151290476Y-103141190D02*
X151195238Y-103093571D01*
X151195238Y-103093571D02*
X151004762Y-103093571D01*
X151004762Y-103093571D02*
X150909524Y-103141190D01*
X150909524Y-103141190D02*
X150861905Y-103188809D01*
X150861905Y-103188809D02*
X150814286Y-103284047D01*
%TO.C,R25*%
X161662619Y-102247857D02*
X161186428Y-102581190D01*
X161662619Y-102819285D02*
X160662619Y-102819285D01*
X160662619Y-102819285D02*
X160662619Y-102438333D01*
X160662619Y-102438333D02*
X160710238Y-102343095D01*
X160710238Y-102343095D02*
X160757857Y-102295476D01*
X160757857Y-102295476D02*
X160853095Y-102247857D01*
X160853095Y-102247857D02*
X160995952Y-102247857D01*
X160995952Y-102247857D02*
X161091190Y-102295476D01*
X161091190Y-102295476D02*
X161138809Y-102343095D01*
X161138809Y-102343095D02*
X161186428Y-102438333D01*
X161186428Y-102438333D02*
X161186428Y-102819285D01*
X160757857Y-101866904D02*
X160710238Y-101819285D01*
X160710238Y-101819285D02*
X160662619Y-101724047D01*
X160662619Y-101724047D02*
X160662619Y-101485952D01*
X160662619Y-101485952D02*
X160710238Y-101390714D01*
X160710238Y-101390714D02*
X160757857Y-101343095D01*
X160757857Y-101343095D02*
X160853095Y-101295476D01*
X160853095Y-101295476D02*
X160948333Y-101295476D01*
X160948333Y-101295476D02*
X161091190Y-101343095D01*
X161091190Y-101343095D02*
X161662619Y-101914523D01*
X161662619Y-101914523D02*
X161662619Y-101295476D01*
X160662619Y-100390714D02*
X160662619Y-100866904D01*
X160662619Y-100866904D02*
X161138809Y-100914523D01*
X161138809Y-100914523D02*
X161091190Y-100866904D01*
X161091190Y-100866904D02*
X161043571Y-100771666D01*
X161043571Y-100771666D02*
X161043571Y-100533571D01*
X161043571Y-100533571D02*
X161091190Y-100438333D01*
X161091190Y-100438333D02*
X161138809Y-100390714D01*
X161138809Y-100390714D02*
X161234047Y-100343095D01*
X161234047Y-100343095D02*
X161472142Y-100343095D01*
X161472142Y-100343095D02*
X161567380Y-100390714D01*
X161567380Y-100390714D02*
X161615000Y-100438333D01*
X161615000Y-100438333D02*
X161662619Y-100533571D01*
X161662619Y-100533571D02*
X161662619Y-100771666D01*
X161662619Y-100771666D02*
X161615000Y-100866904D01*
X161615000Y-100866904D02*
X161567380Y-100914523D01*
%TO.C,C9*%
X162173333Y-140507380D02*
X162125714Y-140555000D01*
X162125714Y-140555000D02*
X161982857Y-140602619D01*
X161982857Y-140602619D02*
X161887619Y-140602619D01*
X161887619Y-140602619D02*
X161744762Y-140555000D01*
X161744762Y-140555000D02*
X161649524Y-140459761D01*
X161649524Y-140459761D02*
X161601905Y-140364523D01*
X161601905Y-140364523D02*
X161554286Y-140174047D01*
X161554286Y-140174047D02*
X161554286Y-140031190D01*
X161554286Y-140031190D02*
X161601905Y-139840714D01*
X161601905Y-139840714D02*
X161649524Y-139745476D01*
X161649524Y-139745476D02*
X161744762Y-139650238D01*
X161744762Y-139650238D02*
X161887619Y-139602619D01*
X161887619Y-139602619D02*
X161982857Y-139602619D01*
X161982857Y-139602619D02*
X162125714Y-139650238D01*
X162125714Y-139650238D02*
X162173333Y-139697857D01*
X162649524Y-140602619D02*
X162840000Y-140602619D01*
X162840000Y-140602619D02*
X162935238Y-140555000D01*
X162935238Y-140555000D02*
X162982857Y-140507380D01*
X162982857Y-140507380D02*
X163078095Y-140364523D01*
X163078095Y-140364523D02*
X163125714Y-140174047D01*
X163125714Y-140174047D02*
X163125714Y-139793095D01*
X163125714Y-139793095D02*
X163078095Y-139697857D01*
X163078095Y-139697857D02*
X163030476Y-139650238D01*
X163030476Y-139650238D02*
X162935238Y-139602619D01*
X162935238Y-139602619D02*
X162744762Y-139602619D01*
X162744762Y-139602619D02*
X162649524Y-139650238D01*
X162649524Y-139650238D02*
X162601905Y-139697857D01*
X162601905Y-139697857D02*
X162554286Y-139793095D01*
X162554286Y-139793095D02*
X162554286Y-140031190D01*
X162554286Y-140031190D02*
X162601905Y-140126428D01*
X162601905Y-140126428D02*
X162649524Y-140174047D01*
X162649524Y-140174047D02*
X162744762Y-140221666D01*
X162744762Y-140221666D02*
X162935238Y-140221666D01*
X162935238Y-140221666D02*
X163030476Y-140174047D01*
X163030476Y-140174047D02*
X163078095Y-140126428D01*
X163078095Y-140126428D02*
X163125714Y-140031190D01*
%TO.C,C7*%
X150933333Y-131567380D02*
X150885714Y-131615000D01*
X150885714Y-131615000D02*
X150742857Y-131662619D01*
X150742857Y-131662619D02*
X150647619Y-131662619D01*
X150647619Y-131662619D02*
X150504762Y-131615000D01*
X150504762Y-131615000D02*
X150409524Y-131519761D01*
X150409524Y-131519761D02*
X150361905Y-131424523D01*
X150361905Y-131424523D02*
X150314286Y-131234047D01*
X150314286Y-131234047D02*
X150314286Y-131091190D01*
X150314286Y-131091190D02*
X150361905Y-130900714D01*
X150361905Y-130900714D02*
X150409524Y-130805476D01*
X150409524Y-130805476D02*
X150504762Y-130710238D01*
X150504762Y-130710238D02*
X150647619Y-130662619D01*
X150647619Y-130662619D02*
X150742857Y-130662619D01*
X150742857Y-130662619D02*
X150885714Y-130710238D01*
X150885714Y-130710238D02*
X150933333Y-130757857D01*
X151266667Y-130662619D02*
X151933333Y-130662619D01*
X151933333Y-130662619D02*
X151504762Y-131662619D01*
%TO.C,U2*%
X155043095Y-66157619D02*
X155043095Y-66967142D01*
X155043095Y-66967142D02*
X155090714Y-67062380D01*
X155090714Y-67062380D02*
X155138333Y-67110000D01*
X155138333Y-67110000D02*
X155233571Y-67157619D01*
X155233571Y-67157619D02*
X155424047Y-67157619D01*
X155424047Y-67157619D02*
X155519285Y-67110000D01*
X155519285Y-67110000D02*
X155566904Y-67062380D01*
X155566904Y-67062380D02*
X155614523Y-66967142D01*
X155614523Y-66967142D02*
X155614523Y-66157619D01*
X156043095Y-66252857D02*
X156090714Y-66205238D01*
X156090714Y-66205238D02*
X156185952Y-66157619D01*
X156185952Y-66157619D02*
X156424047Y-66157619D01*
X156424047Y-66157619D02*
X156519285Y-66205238D01*
X156519285Y-66205238D02*
X156566904Y-66252857D01*
X156566904Y-66252857D02*
X156614523Y-66348095D01*
X156614523Y-66348095D02*
X156614523Y-66443333D01*
X156614523Y-66443333D02*
X156566904Y-66586190D01*
X156566904Y-66586190D02*
X155995476Y-67157619D01*
X155995476Y-67157619D02*
X156614523Y-67157619D01*
%TO.C,R22*%
X139212619Y-114142857D02*
X138736428Y-114476190D01*
X139212619Y-114714285D02*
X138212619Y-114714285D01*
X138212619Y-114714285D02*
X138212619Y-114333333D01*
X138212619Y-114333333D02*
X138260238Y-114238095D01*
X138260238Y-114238095D02*
X138307857Y-114190476D01*
X138307857Y-114190476D02*
X138403095Y-114142857D01*
X138403095Y-114142857D02*
X138545952Y-114142857D01*
X138545952Y-114142857D02*
X138641190Y-114190476D01*
X138641190Y-114190476D02*
X138688809Y-114238095D01*
X138688809Y-114238095D02*
X138736428Y-114333333D01*
X138736428Y-114333333D02*
X138736428Y-114714285D01*
X138307857Y-113761904D02*
X138260238Y-113714285D01*
X138260238Y-113714285D02*
X138212619Y-113619047D01*
X138212619Y-113619047D02*
X138212619Y-113380952D01*
X138212619Y-113380952D02*
X138260238Y-113285714D01*
X138260238Y-113285714D02*
X138307857Y-113238095D01*
X138307857Y-113238095D02*
X138403095Y-113190476D01*
X138403095Y-113190476D02*
X138498333Y-113190476D01*
X138498333Y-113190476D02*
X138641190Y-113238095D01*
X138641190Y-113238095D02*
X139212619Y-113809523D01*
X139212619Y-113809523D02*
X139212619Y-113190476D01*
X138307857Y-112809523D02*
X138260238Y-112761904D01*
X138260238Y-112761904D02*
X138212619Y-112666666D01*
X138212619Y-112666666D02*
X138212619Y-112428571D01*
X138212619Y-112428571D02*
X138260238Y-112333333D01*
X138260238Y-112333333D02*
X138307857Y-112285714D01*
X138307857Y-112285714D02*
X138403095Y-112238095D01*
X138403095Y-112238095D02*
X138498333Y-112238095D01*
X138498333Y-112238095D02*
X138641190Y-112285714D01*
X138641190Y-112285714D02*
X139212619Y-112857142D01*
X139212619Y-112857142D02*
X139212619Y-112238095D01*
%TO.C,R21*%
X140962619Y-114142857D02*
X140486428Y-114476190D01*
X140962619Y-114714285D02*
X139962619Y-114714285D01*
X139962619Y-114714285D02*
X139962619Y-114333333D01*
X139962619Y-114333333D02*
X140010238Y-114238095D01*
X140010238Y-114238095D02*
X140057857Y-114190476D01*
X140057857Y-114190476D02*
X140153095Y-114142857D01*
X140153095Y-114142857D02*
X140295952Y-114142857D01*
X140295952Y-114142857D02*
X140391190Y-114190476D01*
X140391190Y-114190476D02*
X140438809Y-114238095D01*
X140438809Y-114238095D02*
X140486428Y-114333333D01*
X140486428Y-114333333D02*
X140486428Y-114714285D01*
X140057857Y-113761904D02*
X140010238Y-113714285D01*
X140010238Y-113714285D02*
X139962619Y-113619047D01*
X139962619Y-113619047D02*
X139962619Y-113380952D01*
X139962619Y-113380952D02*
X140010238Y-113285714D01*
X140010238Y-113285714D02*
X140057857Y-113238095D01*
X140057857Y-113238095D02*
X140153095Y-113190476D01*
X140153095Y-113190476D02*
X140248333Y-113190476D01*
X140248333Y-113190476D02*
X140391190Y-113238095D01*
X140391190Y-113238095D02*
X140962619Y-113809523D01*
X140962619Y-113809523D02*
X140962619Y-113190476D01*
X140962619Y-112238095D02*
X140962619Y-112809523D01*
X140962619Y-112523809D02*
X139962619Y-112523809D01*
X139962619Y-112523809D02*
X140105476Y-112619047D01*
X140105476Y-112619047D02*
X140200714Y-112714285D01*
X140200714Y-112714285D02*
X140248333Y-112809523D01*
%TO.C,R23*%
X154757142Y-110262619D02*
X154423809Y-109786428D01*
X154185714Y-110262619D02*
X154185714Y-109262619D01*
X154185714Y-109262619D02*
X154566666Y-109262619D01*
X154566666Y-109262619D02*
X154661904Y-109310238D01*
X154661904Y-109310238D02*
X154709523Y-109357857D01*
X154709523Y-109357857D02*
X154757142Y-109453095D01*
X154757142Y-109453095D02*
X154757142Y-109595952D01*
X154757142Y-109595952D02*
X154709523Y-109691190D01*
X154709523Y-109691190D02*
X154661904Y-109738809D01*
X154661904Y-109738809D02*
X154566666Y-109786428D01*
X154566666Y-109786428D02*
X154185714Y-109786428D01*
X155138095Y-109357857D02*
X155185714Y-109310238D01*
X155185714Y-109310238D02*
X155280952Y-109262619D01*
X155280952Y-109262619D02*
X155519047Y-109262619D01*
X155519047Y-109262619D02*
X155614285Y-109310238D01*
X155614285Y-109310238D02*
X155661904Y-109357857D01*
X155661904Y-109357857D02*
X155709523Y-109453095D01*
X155709523Y-109453095D02*
X155709523Y-109548333D01*
X155709523Y-109548333D02*
X155661904Y-109691190D01*
X155661904Y-109691190D02*
X155090476Y-110262619D01*
X155090476Y-110262619D02*
X155709523Y-110262619D01*
X156042857Y-109262619D02*
X156661904Y-109262619D01*
X156661904Y-109262619D02*
X156328571Y-109643571D01*
X156328571Y-109643571D02*
X156471428Y-109643571D01*
X156471428Y-109643571D02*
X156566666Y-109691190D01*
X156566666Y-109691190D02*
X156614285Y-109738809D01*
X156614285Y-109738809D02*
X156661904Y-109834047D01*
X156661904Y-109834047D02*
X156661904Y-110072142D01*
X156661904Y-110072142D02*
X156614285Y-110167380D01*
X156614285Y-110167380D02*
X156566666Y-110215000D01*
X156566666Y-110215000D02*
X156471428Y-110262619D01*
X156471428Y-110262619D02*
X156185714Y-110262619D01*
X156185714Y-110262619D02*
X156090476Y-110215000D01*
X156090476Y-110215000D02*
X156042857Y-110167380D01*
%TO.C,R2*%
X140462619Y-95166666D02*
X139986428Y-95499999D01*
X140462619Y-95738094D02*
X139462619Y-95738094D01*
X139462619Y-95738094D02*
X139462619Y-95357142D01*
X139462619Y-95357142D02*
X139510238Y-95261904D01*
X139510238Y-95261904D02*
X139557857Y-95214285D01*
X139557857Y-95214285D02*
X139653095Y-95166666D01*
X139653095Y-95166666D02*
X139795952Y-95166666D01*
X139795952Y-95166666D02*
X139891190Y-95214285D01*
X139891190Y-95214285D02*
X139938809Y-95261904D01*
X139938809Y-95261904D02*
X139986428Y-95357142D01*
X139986428Y-95357142D02*
X139986428Y-95738094D01*
X139557857Y-94785713D02*
X139510238Y-94738094D01*
X139510238Y-94738094D02*
X139462619Y-94642856D01*
X139462619Y-94642856D02*
X139462619Y-94404761D01*
X139462619Y-94404761D02*
X139510238Y-94309523D01*
X139510238Y-94309523D02*
X139557857Y-94261904D01*
X139557857Y-94261904D02*
X139653095Y-94214285D01*
X139653095Y-94214285D02*
X139748333Y-94214285D01*
X139748333Y-94214285D02*
X139891190Y-94261904D01*
X139891190Y-94261904D02*
X140462619Y-94833332D01*
X140462619Y-94833332D02*
X140462619Y-94214285D01*
%TO.C,X1*%
X164640476Y-72682619D02*
X165307142Y-73682619D01*
X165307142Y-72682619D02*
X164640476Y-73682619D01*
X166211904Y-73682619D02*
X165640476Y-73682619D01*
X165926190Y-73682619D02*
X165926190Y-72682619D01*
X165926190Y-72682619D02*
X165830952Y-72825476D01*
X165830952Y-72825476D02*
X165735714Y-72920714D01*
X165735714Y-72920714D02*
X165640476Y-72968333D01*
%TO.C,C1*%
X163404880Y-90666666D02*
X163452500Y-90714285D01*
X163452500Y-90714285D02*
X163500119Y-90857142D01*
X163500119Y-90857142D02*
X163500119Y-90952380D01*
X163500119Y-90952380D02*
X163452500Y-91095237D01*
X163452500Y-91095237D02*
X163357261Y-91190475D01*
X163357261Y-91190475D02*
X163262023Y-91238094D01*
X163262023Y-91238094D02*
X163071547Y-91285713D01*
X163071547Y-91285713D02*
X162928690Y-91285713D01*
X162928690Y-91285713D02*
X162738214Y-91238094D01*
X162738214Y-91238094D02*
X162642976Y-91190475D01*
X162642976Y-91190475D02*
X162547738Y-91095237D01*
X162547738Y-91095237D02*
X162500119Y-90952380D01*
X162500119Y-90952380D02*
X162500119Y-90857142D01*
X162500119Y-90857142D02*
X162547738Y-90714285D01*
X162547738Y-90714285D02*
X162595357Y-90666666D01*
X163500119Y-89714285D02*
X163500119Y-90285713D01*
X163500119Y-89999999D02*
X162500119Y-89999999D01*
X162500119Y-89999999D02*
X162642976Y-90095237D01*
X162642976Y-90095237D02*
X162738214Y-90190475D01*
X162738214Y-90190475D02*
X162785833Y-90285713D01*
%TO.C,C10*%
X165819642Y-106077380D02*
X165772023Y-106125000D01*
X165772023Y-106125000D02*
X165629166Y-106172619D01*
X165629166Y-106172619D02*
X165533928Y-106172619D01*
X165533928Y-106172619D02*
X165391071Y-106125000D01*
X165391071Y-106125000D02*
X165295833Y-106029761D01*
X165295833Y-106029761D02*
X165248214Y-105934523D01*
X165248214Y-105934523D02*
X165200595Y-105744047D01*
X165200595Y-105744047D02*
X165200595Y-105601190D01*
X165200595Y-105601190D02*
X165248214Y-105410714D01*
X165248214Y-105410714D02*
X165295833Y-105315476D01*
X165295833Y-105315476D02*
X165391071Y-105220238D01*
X165391071Y-105220238D02*
X165533928Y-105172619D01*
X165533928Y-105172619D02*
X165629166Y-105172619D01*
X165629166Y-105172619D02*
X165772023Y-105220238D01*
X165772023Y-105220238D02*
X165819642Y-105267857D01*
X166772023Y-106172619D02*
X166200595Y-106172619D01*
X166486309Y-106172619D02*
X166486309Y-105172619D01*
X166486309Y-105172619D02*
X166391071Y-105315476D01*
X166391071Y-105315476D02*
X166295833Y-105410714D01*
X166295833Y-105410714D02*
X166200595Y-105458333D01*
X167391071Y-105172619D02*
X167486309Y-105172619D01*
X167486309Y-105172619D02*
X167581547Y-105220238D01*
X167581547Y-105220238D02*
X167629166Y-105267857D01*
X167629166Y-105267857D02*
X167676785Y-105363095D01*
X167676785Y-105363095D02*
X167724404Y-105553571D01*
X167724404Y-105553571D02*
X167724404Y-105791666D01*
X167724404Y-105791666D02*
X167676785Y-105982142D01*
X167676785Y-105982142D02*
X167629166Y-106077380D01*
X167629166Y-106077380D02*
X167581547Y-106125000D01*
X167581547Y-106125000D02*
X167486309Y-106172619D01*
X167486309Y-106172619D02*
X167391071Y-106172619D01*
X167391071Y-106172619D02*
X167295833Y-106125000D01*
X167295833Y-106125000D02*
X167248214Y-106077380D01*
X167248214Y-106077380D02*
X167200595Y-105982142D01*
X167200595Y-105982142D02*
X167152976Y-105791666D01*
X167152976Y-105791666D02*
X167152976Y-105553571D01*
X167152976Y-105553571D02*
X167200595Y-105363095D01*
X167200595Y-105363095D02*
X167248214Y-105267857D01*
X167248214Y-105267857D02*
X167295833Y-105220238D01*
X167295833Y-105220238D02*
X167391071Y-105172619D01*
%TO.C,U4*%
X136062619Y-130961904D02*
X136872142Y-130961904D01*
X136872142Y-130961904D02*
X136967380Y-130914285D01*
X136967380Y-130914285D02*
X137015000Y-130866666D01*
X137015000Y-130866666D02*
X137062619Y-130771428D01*
X137062619Y-130771428D02*
X137062619Y-130580952D01*
X137062619Y-130580952D02*
X137015000Y-130485714D01*
X137015000Y-130485714D02*
X136967380Y-130438095D01*
X136967380Y-130438095D02*
X136872142Y-130390476D01*
X136872142Y-130390476D02*
X136062619Y-130390476D01*
X136395952Y-129485714D02*
X137062619Y-129485714D01*
X136015000Y-129723809D02*
X136729285Y-129961904D01*
X136729285Y-129961904D02*
X136729285Y-129342857D01*
%TO.C,R19*%
X147357142Y-114962619D02*
X147023809Y-114486428D01*
X146785714Y-114962619D02*
X146785714Y-113962619D01*
X146785714Y-113962619D02*
X147166666Y-113962619D01*
X147166666Y-113962619D02*
X147261904Y-114010238D01*
X147261904Y-114010238D02*
X147309523Y-114057857D01*
X147309523Y-114057857D02*
X147357142Y-114153095D01*
X147357142Y-114153095D02*
X147357142Y-114295952D01*
X147357142Y-114295952D02*
X147309523Y-114391190D01*
X147309523Y-114391190D02*
X147261904Y-114438809D01*
X147261904Y-114438809D02*
X147166666Y-114486428D01*
X147166666Y-114486428D02*
X146785714Y-114486428D01*
X148309523Y-114962619D02*
X147738095Y-114962619D01*
X148023809Y-114962619D02*
X148023809Y-113962619D01*
X148023809Y-113962619D02*
X147928571Y-114105476D01*
X147928571Y-114105476D02*
X147833333Y-114200714D01*
X147833333Y-114200714D02*
X147738095Y-114248333D01*
X148785714Y-114962619D02*
X148976190Y-114962619D01*
X148976190Y-114962619D02*
X149071428Y-114915000D01*
X149071428Y-114915000D02*
X149119047Y-114867380D01*
X149119047Y-114867380D02*
X149214285Y-114724523D01*
X149214285Y-114724523D02*
X149261904Y-114534047D01*
X149261904Y-114534047D02*
X149261904Y-114153095D01*
X149261904Y-114153095D02*
X149214285Y-114057857D01*
X149214285Y-114057857D02*
X149166666Y-114010238D01*
X149166666Y-114010238D02*
X149071428Y-113962619D01*
X149071428Y-113962619D02*
X148880952Y-113962619D01*
X148880952Y-113962619D02*
X148785714Y-114010238D01*
X148785714Y-114010238D02*
X148738095Y-114057857D01*
X148738095Y-114057857D02*
X148690476Y-114153095D01*
X148690476Y-114153095D02*
X148690476Y-114391190D01*
X148690476Y-114391190D02*
X148738095Y-114486428D01*
X148738095Y-114486428D02*
X148785714Y-114534047D01*
X148785714Y-114534047D02*
X148880952Y-114581666D01*
X148880952Y-114581666D02*
X149071428Y-114581666D01*
X149071428Y-114581666D02*
X149166666Y-114534047D01*
X149166666Y-114534047D02*
X149214285Y-114486428D01*
X149214285Y-114486428D02*
X149261904Y-114391190D01*
%TO.C,R1*%
X139683333Y-98662619D02*
X139350000Y-98186428D01*
X139111905Y-98662619D02*
X139111905Y-97662619D01*
X139111905Y-97662619D02*
X139492857Y-97662619D01*
X139492857Y-97662619D02*
X139588095Y-97710238D01*
X139588095Y-97710238D02*
X139635714Y-97757857D01*
X139635714Y-97757857D02*
X139683333Y-97853095D01*
X139683333Y-97853095D02*
X139683333Y-97995952D01*
X139683333Y-97995952D02*
X139635714Y-98091190D01*
X139635714Y-98091190D02*
X139588095Y-98138809D01*
X139588095Y-98138809D02*
X139492857Y-98186428D01*
X139492857Y-98186428D02*
X139111905Y-98186428D01*
X140635714Y-98662619D02*
X140064286Y-98662619D01*
X140350000Y-98662619D02*
X140350000Y-97662619D01*
X140350000Y-97662619D02*
X140254762Y-97805476D01*
X140254762Y-97805476D02*
X140159524Y-97900714D01*
X140159524Y-97900714D02*
X140064286Y-97948333D01*
%TO.C,U3*%
X157638095Y-104262619D02*
X157638095Y-105072142D01*
X157638095Y-105072142D02*
X157685714Y-105167380D01*
X157685714Y-105167380D02*
X157733333Y-105215000D01*
X157733333Y-105215000D02*
X157828571Y-105262619D01*
X157828571Y-105262619D02*
X158019047Y-105262619D01*
X158019047Y-105262619D02*
X158114285Y-105215000D01*
X158114285Y-105215000D02*
X158161904Y-105167380D01*
X158161904Y-105167380D02*
X158209523Y-105072142D01*
X158209523Y-105072142D02*
X158209523Y-104262619D01*
X158590476Y-104262619D02*
X159209523Y-104262619D01*
X159209523Y-104262619D02*
X158876190Y-104643571D01*
X158876190Y-104643571D02*
X159019047Y-104643571D01*
X159019047Y-104643571D02*
X159114285Y-104691190D01*
X159114285Y-104691190D02*
X159161904Y-104738809D01*
X159161904Y-104738809D02*
X159209523Y-104834047D01*
X159209523Y-104834047D02*
X159209523Y-105072142D01*
X159209523Y-105072142D02*
X159161904Y-105167380D01*
X159161904Y-105167380D02*
X159114285Y-105215000D01*
X159114285Y-105215000D02*
X159019047Y-105262619D01*
X159019047Y-105262619D02*
X158733333Y-105262619D01*
X158733333Y-105262619D02*
X158638095Y-105215000D01*
X158638095Y-105215000D02*
X158590476Y-105167380D01*
D11*
%TO.C,C3*%
X164988748Y-80725000D02*
X165511252Y-80725000D01*
X164988748Y-82195000D02*
X165511252Y-82195000D01*
%TO.C,R4*%
X144382064Y-87115000D02*
X143927936Y-87115000D01*
X144382064Y-85645000D02*
X143927936Y-85645000D01*
%TO.C,R14*%
X139382064Y-81115000D02*
X138927936Y-81115000D01*
X139382064Y-79645000D02*
X138927936Y-79645000D01*
%TO.C,C2*%
X145035000Y-129638748D02*
X145035000Y-130161252D01*
X143565000Y-129638748D02*
X143565000Y-130161252D01*
%TO.C,D2*%
X159782056Y-128724315D02*
X159895685Y-128724315D01*
X159782056Y-128724315D02*
G75*
G03*
X159782056Y-128724315I-1326371J0D01*
G01*
%TO.C,J3*%
X153170000Y-133470000D02*
X154500000Y-133470000D01*
X153170000Y-134800000D02*
X153170000Y-133470000D01*
X153170000Y-136070000D02*
X153170000Y-138670000D01*
X153170000Y-136070000D02*
X155830000Y-136070000D01*
X153170000Y-138670000D02*
X155830000Y-138670000D01*
X155830000Y-136070000D02*
X155830000Y-138670000D01*
%TO.C,D1*%
X160000000Y-92685000D02*
X153840000Y-92685000D01*
X160000000Y-92685000D02*
X160000000Y-97805000D01*
X162670000Y-93975000D02*
X162670000Y-93975000D01*
X162670000Y-93975000D02*
X160000000Y-93975000D01*
X160000000Y-93975000D02*
X162670000Y-93975000D01*
X160000000Y-93975000D02*
X160000000Y-93975000D01*
X162670000Y-96515000D02*
X162670000Y-96515000D01*
X162670000Y-96515000D02*
X160000000Y-96515000D01*
X160000000Y-96515000D02*
X162670000Y-96515000D01*
X160000000Y-96515000D02*
X160000000Y-96515000D01*
X160000000Y-97805000D02*
X153840000Y-97805000D01*
X160000000Y-97805000D02*
X160000000Y-98205000D01*
X158880000Y-97805000D02*
X160000000Y-97805000D01*
X160000000Y-98205000D02*
X158880000Y-98205000D01*
X158880000Y-98205000D02*
X158880000Y-97805000D01*
X153840000Y-92685000D02*
G75*
G03*
X153840000Y-97805000I0J-2560000D01*
G01*
%TO.C,R7*%
X144382064Y-78115000D02*
X143927936Y-78115000D01*
X144382064Y-76645000D02*
X143927936Y-76645000D01*
%TO.C,R6*%
X144382064Y-81115000D02*
X143927936Y-81115000D01*
X144382064Y-79645000D02*
X143927936Y-79645000D01*
%TO.C,C8*%
X142820000Y-116380000D02*
X141365000Y-116380000D01*
X142820000Y-116380000D02*
X142820000Y-125620000D01*
X140035000Y-116380000D02*
X138580000Y-116380000D01*
X138580000Y-116380000D02*
X138580000Y-125620000D01*
X142820000Y-125620000D02*
X141365000Y-125620000D01*
X140035000Y-125620000D02*
X138580000Y-125620000D01*
%TO.C,J1*%
X163895000Y-88080000D02*
X163895000Y-86750000D01*
X165225000Y-88080000D02*
X163895000Y-88080000D01*
X166495000Y-88080000D02*
X169095000Y-88080000D01*
X166495000Y-88080000D02*
X166495000Y-85420000D01*
X169095000Y-88080000D02*
X169095000Y-85420000D01*
X166495000Y-85420000D02*
X169095000Y-85420000D01*
%TO.C,R20*%
X152127064Y-112635000D02*
X151672936Y-112635000D01*
X152127064Y-111165000D02*
X151672936Y-111165000D01*
%TO.C,C5*%
X149320000Y-110920000D02*
X149320000Y-106180000D01*
X149320000Y-110920000D02*
X141880000Y-110920000D01*
X149320000Y-106180000D02*
X141880000Y-106180000D01*
X141880000Y-110920000D02*
X141880000Y-106180000D01*
%TO.C,U1*%
X162165000Y-116110000D02*
X144145000Y-116110000D01*
X144145000Y-116110000D02*
X144145000Y-126610000D01*
X162105000Y-119110000D02*
X144205000Y-119110000D01*
X144205000Y-119110000D02*
X144205000Y-123610000D01*
X162105000Y-120360000D02*
X162105000Y-119110000D01*
X162105000Y-123610000D02*
X162105000Y-122360000D01*
X144205000Y-123610000D02*
X162105000Y-123610000D01*
X162165000Y-126610000D02*
X162165000Y-116110000D01*
X144145000Y-126610000D02*
X162165000Y-126610000D01*
X162105000Y-120360000D02*
G75*
G03*
X162105000Y-122360000I0J-1000000D01*
G01*
%TO.C,R17*%
X139382064Y-72115000D02*
X138927936Y-72115000D01*
X139382064Y-70645000D02*
X138927936Y-70645000D01*
%TO.C,C11*%
X138480000Y-133280000D02*
X138480000Y-139520000D01*
X138480000Y-133280000D02*
X151720000Y-133280000D01*
X138480000Y-139520000D02*
X151720000Y-139520000D01*
X151720000Y-133280000D02*
X151720000Y-139520000D01*
%TO.C,J2*%
X152390000Y-90380000D02*
X152390000Y-89050000D01*
X153720000Y-90380000D02*
X152390000Y-90380000D01*
X154990000Y-90380000D02*
X160130000Y-90380000D01*
X154990000Y-90380000D02*
X154990000Y-87720000D01*
X160130000Y-90380000D02*
X160130000Y-87720000D01*
X154990000Y-87720000D02*
X160130000Y-87720000D01*
%TO.C,R15*%
X139382064Y-78115000D02*
X138927936Y-78115000D01*
X139382064Y-76645000D02*
X138927936Y-76645000D01*
%TO.C,C12*%
X159911252Y-114835000D02*
X159388748Y-114835000D01*
X159911252Y-113365000D02*
X159388748Y-113365000D01*
%TO.C,C13*%
X152676248Y-120615000D02*
X153198752Y-120615000D01*
X152676248Y-122085000D02*
X153198752Y-122085000D01*
%TO.C,R24*%
X159540000Y-131924315D02*
X159470000Y-131924315D01*
X162280000Y-131924315D02*
G75*
G03*
X162280000Y-131924315I-1370000J0D01*
G01*
%TO.C,RV1*%
X157760000Y-107645000D02*
X157760000Y-109431000D01*
X157760000Y-107645000D02*
X164710000Y-107645000D01*
X157760000Y-110421000D02*
X157760000Y-112385000D01*
X157760000Y-112385000D02*
X164710000Y-112385000D01*
X164710000Y-107645000D02*
X164710000Y-109431000D01*
X164710000Y-110421000D02*
X164710000Y-112385000D01*
%TO.C,R12*%
X139382064Y-87115000D02*
X138927936Y-87115000D01*
X139382064Y-85645000D02*
X138927936Y-85645000D01*
%TO.C,R13*%
X139382064Y-84115000D02*
X138927936Y-84115000D01*
X139382064Y-82645000D02*
X138927936Y-82645000D01*
%TO.C,R11*%
X139382064Y-90115000D02*
X138927936Y-90115000D01*
X139382064Y-88645000D02*
X138927936Y-88645000D01*
%TO.C,C6*%
X149320000Y-105620000D02*
X149320000Y-100880000D01*
X149320000Y-105620000D02*
X141880000Y-105620000D01*
X149320000Y-100880000D02*
X141880000Y-100880000D01*
X141880000Y-105620000D02*
X141880000Y-100880000D01*
%TO.C,R3*%
X144382064Y-90115000D02*
X143927936Y-90115000D01*
X144382064Y-88645000D02*
X143927936Y-88645000D01*
%TO.C,R8*%
X144382064Y-75115000D02*
X143927936Y-75115000D01*
X144382064Y-73645000D02*
X143927936Y-73645000D01*
%TO.C,R5*%
X144382064Y-84115000D02*
X143927936Y-84115000D01*
X144382064Y-82645000D02*
X143927936Y-82645000D01*
%TO.C,R18*%
X139382064Y-69115000D02*
X138927936Y-69115000D01*
X139382064Y-67645000D02*
X138927936Y-67645000D01*
%TO.C,R25*%
X165170000Y-102600000D02*
G75*
G03*
X165170000Y-102600000I-1370000J0D01*
G01*
X163800000Y-101230000D02*
X163800000Y-101160000D01*
%TO.C,R10*%
X144382064Y-69115000D02*
X143927936Y-69115000D01*
X144382064Y-67645000D02*
X143927936Y-67645000D01*
%TO.C,C9*%
X166710000Y-138510000D02*
X166710000Y-137055000D01*
X166710000Y-138510000D02*
X157470000Y-138510000D01*
X166710000Y-135725000D02*
X166710000Y-134270000D01*
X166710000Y-134270000D02*
X157470000Y-134270000D01*
X157470000Y-138510000D02*
X157470000Y-137055000D01*
X157470000Y-135725000D02*
X157470000Y-134270000D01*
%TO.C,C7*%
X154920000Y-132070000D02*
X154920000Y-127330000D01*
X154920000Y-132070000D02*
X147480000Y-132070000D01*
X154920000Y-127330000D02*
X147480000Y-127330000D01*
X147480000Y-132070000D02*
X147480000Y-127330000D01*
%TO.C,U2*%
X151945000Y-67535000D02*
X151945000Y-67780000D01*
X151945000Y-67780000D02*
X150130000Y-67780000D01*
X151945000Y-85655000D02*
X151945000Y-85410000D01*
X155805000Y-67535000D02*
X151945000Y-67535000D01*
X155805000Y-67535000D02*
X159665000Y-67535000D01*
X155805000Y-85655000D02*
X151945000Y-85655000D01*
X155805000Y-85655000D02*
X159665000Y-85655000D01*
X159665000Y-67535000D02*
X159665000Y-67780000D01*
X159665000Y-85655000D02*
X159665000Y-85410000D01*
%TO.C,R16*%
X139382064Y-75115000D02*
X138927936Y-75115000D01*
X139382064Y-73645000D02*
X138927936Y-73645000D01*
%TO.C,R22*%
X143235000Y-113172936D02*
X143235000Y-113627064D01*
X141765000Y-113172936D02*
X141765000Y-113627064D01*
%TO.C,R21*%
X144465000Y-113627064D02*
X144465000Y-113172936D01*
X145935000Y-113627064D02*
X145935000Y-113172936D01*
%TO.C,R23*%
X155985000Y-112977064D02*
X155985000Y-112522936D01*
X154515000Y-112977064D02*
X154515000Y-112522936D01*
%TO.C,R9*%
X144382064Y-72115000D02*
X143927936Y-72115000D01*
X144382064Y-70645000D02*
X143927936Y-70645000D01*
%TO.C,R2*%
X141420000Y-92670000D02*
X142750000Y-92670000D01*
X141420000Y-94000000D02*
X141420000Y-92670000D01*
X141420000Y-95270000D02*
X141420000Y-97870000D01*
X141420000Y-95270000D02*
X144080000Y-95270000D01*
X141420000Y-97870000D02*
X144080000Y-97870000D01*
X144080000Y-95270000D02*
X144080000Y-97870000D01*
%TO.C,X1*%
X163800000Y-79900000D02*
X163800000Y-79470000D01*
X167400000Y-79900000D02*
X163800000Y-79900000D01*
X167400000Y-79470000D02*
X167400000Y-79900000D01*
X167650000Y-79470000D02*
X167400000Y-79470000D01*
X163800000Y-77470000D02*
X163800000Y-76930000D01*
X167400000Y-77470000D02*
X167650000Y-77470000D01*
X167400000Y-76930000D02*
X167400000Y-77470000D01*
X163800000Y-74930000D02*
X163800000Y-74500000D01*
X163800000Y-74500000D02*
X167400000Y-74500000D01*
X167400000Y-74500000D02*
X167400000Y-74930000D01*
%TO.C,C1*%
X165988748Y-89265000D02*
X166511252Y-89265000D01*
X165988748Y-90735000D02*
X166511252Y-90735000D01*
%TO.C,C10*%
X162451248Y-105015000D02*
X162973752Y-105015000D01*
X162451248Y-106485000D02*
X162973752Y-106485000D01*
%TO.C,U4*%
X138850000Y-131560000D02*
X140650000Y-131560000D01*
X140650000Y-128340000D02*
X138200000Y-128340000D01*
%TO.C,R19*%
X152127064Y-115135000D02*
X151672936Y-115135000D01*
X152127064Y-113665000D02*
X151672936Y-113665000D01*
%TO.C,R1*%
X139600000Y-102030000D02*
X139600000Y-102100000D01*
X140970000Y-100660000D02*
G75*
G03*
X140970000Y-100660000I-1370000J0D01*
G01*
%TO.C,U3*%
X157088478Y-102911522D02*
G75*
G03*
X152650000Y-104750000I-1838478J-1838478D01*
G01*
X152650000Y-104750000D02*
G75*
G03*
X157088478Y-106588478I2600000J0D01*
G01*
X157100000Y-106550000D02*
X157100000Y-102950000D01*
%TD*%
M02*
