M48
; DRILL file {KiCad 7.0.1} date Tue Apr  4 13:23:30 2023
; FORMAT={-:-/ absolute / inch / decimal}
; #@! TF.CreationDate,2023-04-04T13:23:30+02:00
; #@! TF.GenerationSoftware,Kicad,Pcbnew,7.0.1
; #@! TF.FileFunction,Plated,1,2,PTH
FMAT,2
INCH
; #@! TA.AperFunction,Plated,PTH,ComponentDrill
T1C0.0295
; #@! TA.AperFunction,Plated,PTH,ComponentDrill
T2C0.0315
; #@! TA.AperFunction,Plated,PTH,ComponentDrill
T3C0.0354
; #@! TA.AperFunction,Plated,PTH,ComponentDrill
T4C0.0394
%
G90
G05
T1
X6.1122Y-4.074
X6.1122Y-4.124
X6.1122Y-4.174
T2
X5.4961Y-3.963
X5.4961Y-4.063
X5.5394Y-4.6161
X5.5394Y-4.9114
X5.6339Y-4.065
X5.6339Y-4.2736
X5.7297Y-4.628
X5.7297Y-4.928
X5.8297Y-4.628
X5.8297Y-4.928
X5.8307Y-4.065
X5.8307Y-4.2736
X5.8543Y-5.1063
X5.9297Y-4.628
X5.9297Y-4.928
X6.0297Y-4.628
X6.0297Y-4.928
X6.0512Y-5.1063
X6.1297Y-4.628
X6.1297Y-4.928
X6.2297Y-4.628
X6.2297Y-4.928
X6.2339Y-5.3697
X6.235Y-5.1939
X6.2384Y-5.0679
X6.2478Y-4.3278
X6.3297Y-4.628
X6.3297Y-4.928
X6.335Y-5.1939
X6.3384Y-5.0679
X6.3478Y-4.3278
X6.4478Y-4.3278
X6.4488Y-3.9394
X6.4488Y-4.0394
X6.5291Y-5.3697
T3
X6.4469Y-3.6998
X6.4469Y-3.7998
T4
X5.5157Y-5.3701
X5.6201Y-3.7008
X5.6201Y-3.8008
X5.9094Y-5.3701
X6.052Y-3.5059
X6.0827Y-5.3071
X6.0827Y-5.4071
X6.152Y-3.5059
X6.252Y-3.5059
X6.5049Y-3.4154
X6.6049Y-3.4154
T0
M30
