M48
; DRILL file {KiCad 7.0.1} date Sat Apr 15 09:26:18 2023
; FORMAT={-:-/ absolute / inch / decimal}
; #@! TF.CreationDate,2023-04-15T09:26:18+02:00
; #@! TF.GenerationSoftware,Kicad,Pcbnew,7.0.1
; #@! TF.FileFunction,Plated,1,2,PTH
FMAT,2
INCH
; #@! TA.AperFunction,Plated,PTH,ComponentDrill
T1C0.0295
; #@! TA.AperFunction,Plated,PTH,ComponentDrill
T2C0.0315
; #@! TA.AperFunction,Plated,PTH,ComponentDrill
T3C0.0354
; #@! TA.AperFunction,Plated,PTH,ComponentDrill
T4C0.0394
; #@! TA.AperFunction,Plated,PTH,ComponentDrill
T5C0.0866
%
G90
G05
T1
X4.3683Y-4.6758
X4.3683Y-4.7258
X4.3683Y-4.7758
X4.4669Y-5.126
X4.5169Y-5.126
X4.5669Y-5.126
T2
X4.3386Y-4.9254
X4.3386Y-5.0254
X4.5118Y-4.9449
X4.5394Y-3.1909
X4.5667Y-4.6283
X4.5667Y-4.8252
X4.6118Y-4.9449
X4.7352Y-4.9433
X4.7362Y-3.1909
X4.7795Y-5.0873
X4.7795Y-5.1857
X4.7872Y-4.6244
X4.7872Y-4.7244
X4.7872Y-4.8244
X4.8352Y-4.9433
X4.988Y-4.0829
X4.988Y-4.1829
X5.0156Y-4.7453
X5.0156Y-4.8453
X5.0156Y-4.9453
X5.0175Y-3.6209
X5.0256Y-3.7492
X5.0322Y-3.189
X5.0785Y-4.4394
X5.0785Y-4.6362
X5.1256Y-3.7492
X5.1306Y-3.189
X5.1732Y-5.0877
X5.1732Y-5.1861
X5.1947Y-4.8843
X5.2144Y-3.6209
X5.2222Y-4.4039
X5.2222Y-4.7039
X5.2266Y-3.811
X5.3222Y-4.4039
X5.3222Y-4.7039
X5.3266Y-3.811
X5.3837Y-5.0478
X5.3837Y-5.1478
X5.3915Y-4.8843
X5.4222Y-4.4039
X5.4222Y-4.7039
X5.5118Y-4.8425
X5.5118Y-4.9811
X5.5222Y-4.4039
X5.5222Y-4.7039
X5.6118Y-4.8425
X5.6118Y-4.9811
X5.6222Y-4.4039
X5.6222Y-4.7039
X5.7222Y-4.4039
X5.7222Y-4.7039
X5.7276Y-4.8331
X5.799Y-4.1077
X5.799Y-4.2077
X5.8222Y-4.4039
X5.8222Y-4.7039
X5.8276Y-4.8331
X5.9608Y-4.1039
X5.9608Y-4.2039
T3
X4.051Y-4.3862
X4.051Y-4.4862
T4
X4.8543Y-3.3764
X4.8543Y-3.4764
X4.8543Y-3.5764
X4.9004Y-4.3738
X4.9004Y-4.4738
X5.0285Y-3.4094
X5.1285Y-3.4094
X5.2146Y-3.9906
X5.2146Y-4.1913
X5.4396Y-3.3083
X5.4396Y-3.5657
X5.5274Y-5.1677
X5.6083Y-3.9906
X5.6083Y-4.1913
X5.8333Y-3.3083
X5.8333Y-3.5657
X5.8457Y-3.8409
X5.9211Y-5.1677
X5.9457Y-3.8409
T5
X3.9685Y-5.2677
X3.9764Y-3.063
X6.0315Y-3.063
X6.0394Y-5.2677
T0
M30
