%TF.GenerationSoftware,KiCad,Pcbnew,7.0.1*%
%TF.CreationDate,2023-04-15T09:26:19+02:00*%
%TF.ProjectId,weit_generator,77656974-5f67-4656-9e65-7261746f722e,rev?*%
%TF.SameCoordinates,Original*%
%TF.FileFunction,Drillmap*%
%TF.FilePolarity,Positive*%
%FSLAX45Y45*%
G04 Gerber Fmt 4.5, Leading zero omitted, Abs format (unit mm)*
G04 Created by KiCad (PCBNEW 7.0.1) date 2023-04-15 09:26:19*
%MOMM*%
%LPD*%
G01*
G04 APERTURE LIST*
%ADD10C,0.100000*%
%ADD11C,0.200000*%
%ADD12C,0.075000*%
%ADD13C,0.080000*%
%ADD14C,0.090000*%
%ADD15C,0.220000*%
G04 APERTURE END LIST*
D10*
X9884000Y-7567000D02*
X15534000Y-7567000D01*
X15534000Y-13586000D01*
X9884000Y-13586000D01*
X9884000Y-7567000D01*
D11*
D12*
X11058000Y-11839000D02*
X11133000Y-11914000D01*
X11133000Y-11839000D02*
X11058000Y-11914000D01*
X11058000Y-11966000D02*
X11133000Y-12041000D01*
X11133000Y-11966000D02*
X11058000Y-12041000D01*
X11058000Y-12093000D02*
X11133000Y-12168000D01*
X11133000Y-12093000D02*
X11058000Y-12168000D01*
X11308500Y-12982500D02*
X11383500Y-13057500D01*
X11383500Y-12982500D02*
X11308500Y-13057500D01*
X11435500Y-12982500D02*
X11510500Y-13057500D01*
X11510500Y-12982500D02*
X11435500Y-13057500D01*
X11562500Y-12982500D02*
X11637500Y-13057500D01*
X11637500Y-12982500D02*
X11562500Y-13057500D01*
D13*
X11060000Y-12510500D02*
G75*
G03*
X11060000Y-12510500I-40000J0D01*
G01*
X11060000Y-12764500D02*
G75*
G03*
X11060000Y-12764500I-40000J0D01*
G01*
X11500000Y-12560000D02*
G75*
G03*
X11500000Y-12560000I-40000J0D01*
G01*
X11570000Y-8105000D02*
G75*
G03*
X11570000Y-8105000I-40000J0D01*
G01*
X11639500Y-11756000D02*
G75*
G03*
X11639500Y-11756000I-40000J0D01*
G01*
X11639500Y-12256000D02*
G75*
G03*
X11639500Y-12256000I-40000J0D01*
G01*
X11754000Y-12560000D02*
G75*
G03*
X11754000Y-12560000I-40000J0D01*
G01*
X12067500Y-12556000D02*
G75*
G03*
X12067500Y-12556000I-40000J0D01*
G01*
X12070000Y-8105000D02*
G75*
G03*
X12070000Y-8105000I-40000J0D01*
G01*
X12180000Y-12921762D02*
G75*
G03*
X12180000Y-12921762I-40000J0D01*
G01*
X12180000Y-13171762D02*
G75*
G03*
X12180000Y-13171762I-40000J0D01*
G01*
X12199500Y-11746000D02*
G75*
G03*
X12199500Y-11746000I-40000J0D01*
G01*
X12199500Y-12000000D02*
G75*
G03*
X12199500Y-12000000I-40000J0D01*
G01*
X12199500Y-12254000D02*
G75*
G03*
X12199500Y-12254000I-40000J0D01*
G01*
X12321500Y-12556000D02*
G75*
G03*
X12321500Y-12556000I-40000J0D01*
G01*
X12709500Y-10370500D02*
G75*
G03*
X12709500Y-10370500I-40000J0D01*
G01*
X12709500Y-10624500D02*
G75*
G03*
X12709500Y-10624500I-40000J0D01*
G01*
X12779500Y-12053000D02*
G75*
G03*
X12779500Y-12053000I-40000J0D01*
G01*
X12779500Y-12307000D02*
G75*
G03*
X12779500Y-12307000I-40000J0D01*
G01*
X12779500Y-12561000D02*
G75*
G03*
X12779500Y-12561000I-40000J0D01*
G01*
X12784500Y-9197000D02*
G75*
G03*
X12784500Y-9197000I-40000J0D01*
G01*
X12805000Y-9523000D02*
G75*
G03*
X12805000Y-9523000I-40000J0D01*
G01*
X12821762Y-8100000D02*
G75*
G03*
X12821762Y-8100000I-40000J0D01*
G01*
X12939500Y-11276000D02*
G75*
G03*
X12939500Y-11276000I-40000J0D01*
G01*
X12939500Y-11776000D02*
G75*
G03*
X12939500Y-11776000I-40000J0D01*
G01*
X13059000Y-9523000D02*
G75*
G03*
X13059000Y-9523000I-40000J0D01*
G01*
X13071762Y-8100000D02*
G75*
G03*
X13071762Y-8100000I-40000J0D01*
G01*
X13180000Y-12922762D02*
G75*
G03*
X13180000Y-12922762I-40000J0D01*
G01*
X13180000Y-13172762D02*
G75*
G03*
X13180000Y-13172762I-40000J0D01*
G01*
X13234500Y-12406000D02*
G75*
G03*
X13234500Y-12406000I-40000J0D01*
G01*
X13284500Y-9197000D02*
G75*
G03*
X13284500Y-9197000I-40000J0D01*
G01*
X13304500Y-11186000D02*
G75*
G03*
X13304500Y-11186000I-40000J0D01*
G01*
X13304500Y-11948000D02*
G75*
G03*
X13304500Y-11948000I-40000J0D01*
G01*
X13315500Y-9680000D02*
G75*
G03*
X13315500Y-9680000I-40000J0D01*
G01*
X13558500Y-11186000D02*
G75*
G03*
X13558500Y-11186000I-40000J0D01*
G01*
X13558500Y-11948000D02*
G75*
G03*
X13558500Y-11948000I-40000J0D01*
G01*
X13569500Y-9680000D02*
G75*
G03*
X13569500Y-9680000I-40000J0D01*
G01*
X13714500Y-12821500D02*
G75*
G03*
X13714500Y-12821500I-40000J0D01*
G01*
X13714500Y-13075500D02*
G75*
G03*
X13714500Y-13075500I-40000J0D01*
G01*
X13734500Y-12406000D02*
G75*
G03*
X13734500Y-12406000I-40000J0D01*
G01*
X13812500Y-11186000D02*
G75*
G03*
X13812500Y-11186000I-40000J0D01*
G01*
X13812500Y-11948000D02*
G75*
G03*
X13812500Y-11948000I-40000J0D01*
G01*
X14040000Y-12300000D02*
G75*
G03*
X14040000Y-12300000I-40000J0D01*
G01*
X14040000Y-12652000D02*
G75*
G03*
X14040000Y-12652000I-40000J0D01*
G01*
X14066500Y-11186000D02*
G75*
G03*
X14066500Y-11186000I-40000J0D01*
G01*
X14066500Y-11948000D02*
G75*
G03*
X14066500Y-11948000I-40000J0D01*
G01*
X14294000Y-12300000D02*
G75*
G03*
X14294000Y-12300000I-40000J0D01*
G01*
X14294000Y-12652000D02*
G75*
G03*
X14294000Y-12652000I-40000J0D01*
G01*
X14320500Y-11186000D02*
G75*
G03*
X14320500Y-11186000I-40000J0D01*
G01*
X14320500Y-11948000D02*
G75*
G03*
X14320500Y-11948000I-40000J0D01*
G01*
X14574500Y-11186000D02*
G75*
G03*
X14574500Y-11186000I-40000J0D01*
G01*
X14574500Y-11948000D02*
G75*
G03*
X14574500Y-11948000I-40000J0D01*
G01*
X14588069Y-12276000D02*
G75*
G03*
X14588069Y-12276000I-40000J0D01*
G01*
X14769500Y-10433500D02*
G75*
G03*
X14769500Y-10433500I-40000J0D01*
G01*
X14769500Y-10687500D02*
G75*
G03*
X14769500Y-10687500I-40000J0D01*
G01*
X14828500Y-11186000D02*
G75*
G03*
X14828500Y-11186000I-40000J0D01*
G01*
X14828500Y-11948000D02*
G75*
G03*
X14828500Y-11948000I-40000J0D01*
G01*
X14842069Y-12276000D02*
G75*
G03*
X14842069Y-12276000I-40000J0D01*
G01*
X15180500Y-10424000D02*
G75*
G03*
X15180500Y-10424000I-40000J0D01*
G01*
X15180500Y-10678000D02*
G75*
G03*
X15180500Y-10678000I-40000J0D01*
G01*
D14*
X10289500Y-11096000D02*
X10289500Y-11186000D01*
X10244500Y-11141000D02*
X10334500Y-11141000D01*
X10289500Y-11350000D02*
X10289500Y-11440000D01*
X10244500Y-11395000D02*
X10334500Y-11395000D01*
D10*
X12365356Y-8611356D02*
X12365356Y-8540644D01*
X12294644Y-8540644D01*
X12294644Y-8611356D01*
X12365356Y-8611356D01*
X12365356Y-8865356D02*
X12365356Y-8794644D01*
X12294644Y-8794644D01*
X12294644Y-8865356D01*
X12365356Y-8865356D01*
X12365356Y-9119356D02*
X12365356Y-9048644D01*
X12294644Y-9048644D01*
X12294644Y-9119356D01*
X12365356Y-9119356D01*
X12482356Y-11144856D02*
X12482356Y-11074144D01*
X12411644Y-11074144D01*
X12411644Y-11144856D01*
X12482356Y-11144856D01*
X12482356Y-11398856D02*
X12482356Y-11328144D01*
X12411644Y-11328144D01*
X12411644Y-11398856D01*
X12482356Y-11398856D01*
X12807856Y-8695356D02*
X12807856Y-8624644D01*
X12737144Y-8624644D01*
X12737144Y-8695356D01*
X12807856Y-8695356D01*
X13061856Y-8695356D02*
X13061856Y-8624644D01*
X12991144Y-8624644D01*
X12991144Y-8695356D01*
X13061856Y-8695356D01*
X13280356Y-10171356D02*
X13280356Y-10100644D01*
X13209644Y-10100644D01*
X13209644Y-10171356D01*
X13280356Y-10171356D01*
X13280356Y-10681356D02*
X13280356Y-10610644D01*
X13209644Y-10610644D01*
X13209644Y-10681356D01*
X13280356Y-10681356D01*
X13851856Y-8438356D02*
X13851856Y-8367644D01*
X13781144Y-8367644D01*
X13781144Y-8438356D01*
X13851856Y-8438356D01*
X13851856Y-9092356D02*
X13851856Y-9021644D01*
X13781144Y-9021644D01*
X13781144Y-9092356D01*
X13851856Y-9092356D01*
X14074856Y-13161356D02*
X14074856Y-13090644D01*
X14004144Y-13090644D01*
X14004144Y-13161356D01*
X14074856Y-13161356D01*
X14280356Y-10171356D02*
X14280356Y-10100644D01*
X14209644Y-10100644D01*
X14209644Y-10171356D01*
X14280356Y-10171356D01*
X14280356Y-10681356D02*
X14280356Y-10610644D01*
X14209644Y-10610644D01*
X14209644Y-10681356D01*
X14280356Y-10681356D01*
X14851856Y-8438356D02*
X14851856Y-8367644D01*
X14781144Y-8367644D01*
X14781144Y-8438356D01*
X14851856Y-8438356D01*
X14851856Y-9092356D02*
X14851856Y-9021644D01*
X14781144Y-9021644D01*
X14781144Y-9092356D01*
X14851856Y-9092356D01*
X14883356Y-9791356D02*
X14883356Y-9720644D01*
X14812644Y-9720644D01*
X14812644Y-9791356D01*
X14883356Y-9791356D01*
X15074856Y-13161356D02*
X15074856Y-13090644D01*
X15004144Y-13090644D01*
X15004144Y-13161356D01*
X15074856Y-13161356D01*
X15137356Y-9791356D02*
X15137356Y-9720644D01*
X15066644Y-9720644D01*
X15066644Y-9791356D01*
X15137356Y-9791356D01*
D15*
X10080000Y-13490000D02*
X10190000Y-13380000D01*
X10080000Y-13270000D01*
X9970000Y-13380000D01*
X10080000Y-13490000D01*
X10100000Y-7890000D02*
X10210000Y-7780000D01*
X10100000Y-7670000D01*
X9990000Y-7780000D01*
X10100000Y-7890000D01*
X15320000Y-7890000D02*
X15430000Y-7780000D01*
X15320000Y-7670000D01*
X15210000Y-7780000D01*
X15320000Y-7890000D01*
X15340000Y-13490000D02*
X15450000Y-13380000D01*
X15340000Y-13270000D01*
X15230000Y-13380000D01*
X15340000Y-13490000D01*
D11*
X10126619Y-13903524D02*
X10126619Y-13703524D01*
X10126619Y-13703524D02*
X10174238Y-13703524D01*
X10174238Y-13703524D02*
X10202810Y-13713048D01*
X10202810Y-13713048D02*
X10221857Y-13732095D01*
X10221857Y-13732095D02*
X10231381Y-13751143D01*
X10231381Y-13751143D02*
X10240905Y-13789238D01*
X10240905Y-13789238D02*
X10240905Y-13817809D01*
X10240905Y-13817809D02*
X10231381Y-13855905D01*
X10231381Y-13855905D02*
X10221857Y-13874952D01*
X10221857Y-13874952D02*
X10202810Y-13894000D01*
X10202810Y-13894000D02*
X10174238Y-13903524D01*
X10174238Y-13903524D02*
X10126619Y-13903524D01*
X10326619Y-13903524D02*
X10326619Y-13770190D01*
X10326619Y-13808286D02*
X10336143Y-13789238D01*
X10336143Y-13789238D02*
X10345667Y-13779714D01*
X10345667Y-13779714D02*
X10364714Y-13770190D01*
X10364714Y-13770190D02*
X10383762Y-13770190D01*
X10450429Y-13903524D02*
X10450429Y-13770190D01*
X10450429Y-13703524D02*
X10440905Y-13713048D01*
X10440905Y-13713048D02*
X10450429Y-13722571D01*
X10450429Y-13722571D02*
X10459952Y-13713048D01*
X10459952Y-13713048D02*
X10450429Y-13703524D01*
X10450429Y-13703524D02*
X10450429Y-13722571D01*
X10574238Y-13903524D02*
X10555190Y-13894000D01*
X10555190Y-13894000D02*
X10545667Y-13874952D01*
X10545667Y-13874952D02*
X10545667Y-13703524D01*
X10679000Y-13903524D02*
X10659952Y-13894000D01*
X10659952Y-13894000D02*
X10650429Y-13874952D01*
X10650429Y-13874952D02*
X10650429Y-13703524D01*
X10907571Y-13903524D02*
X10907571Y-13703524D01*
X10907571Y-13703524D02*
X10974238Y-13846381D01*
X10974238Y-13846381D02*
X11040905Y-13703524D01*
X11040905Y-13703524D02*
X11040905Y-13903524D01*
X11221857Y-13903524D02*
X11221857Y-13798762D01*
X11221857Y-13798762D02*
X11212333Y-13779714D01*
X11212333Y-13779714D02*
X11193286Y-13770190D01*
X11193286Y-13770190D02*
X11155190Y-13770190D01*
X11155190Y-13770190D02*
X11136143Y-13779714D01*
X11221857Y-13894000D02*
X11202809Y-13903524D01*
X11202809Y-13903524D02*
X11155190Y-13903524D01*
X11155190Y-13903524D02*
X11136143Y-13894000D01*
X11136143Y-13894000D02*
X11126619Y-13874952D01*
X11126619Y-13874952D02*
X11126619Y-13855905D01*
X11126619Y-13855905D02*
X11136143Y-13836857D01*
X11136143Y-13836857D02*
X11155190Y-13827333D01*
X11155190Y-13827333D02*
X11202809Y-13827333D01*
X11202809Y-13827333D02*
X11221857Y-13817809D01*
X11317095Y-13770190D02*
X11317095Y-13970190D01*
X11317095Y-13779714D02*
X11336143Y-13770190D01*
X11336143Y-13770190D02*
X11374238Y-13770190D01*
X11374238Y-13770190D02*
X11393286Y-13779714D01*
X11393286Y-13779714D02*
X11402809Y-13789238D01*
X11402809Y-13789238D02*
X11412333Y-13808286D01*
X11412333Y-13808286D02*
X11412333Y-13865428D01*
X11412333Y-13865428D02*
X11402809Y-13884476D01*
X11402809Y-13884476D02*
X11393286Y-13894000D01*
X11393286Y-13894000D02*
X11374238Y-13903524D01*
X11374238Y-13903524D02*
X11336143Y-13903524D01*
X11336143Y-13903524D02*
X11317095Y-13894000D01*
X11498048Y-13884476D02*
X11507571Y-13894000D01*
X11507571Y-13894000D02*
X11498048Y-13903524D01*
X11498048Y-13903524D02*
X11488524Y-13894000D01*
X11488524Y-13894000D02*
X11498048Y-13884476D01*
X11498048Y-13884476D02*
X11498048Y-13903524D01*
X11498048Y-13779714D02*
X11507571Y-13789238D01*
X11507571Y-13789238D02*
X11498048Y-13798762D01*
X11498048Y-13798762D02*
X11488524Y-13789238D01*
X11488524Y-13789238D02*
X11498048Y-13779714D01*
X11498048Y-13779714D02*
X11498048Y-13798762D01*
D12*
X9804000Y-14193500D02*
X9879000Y-14268500D01*
X9879000Y-14193500D02*
X9804000Y-14268500D01*
D11*
X10164714Y-14123524D02*
X10183762Y-14123524D01*
X10183762Y-14123524D02*
X10202810Y-14133048D01*
X10202810Y-14133048D02*
X10212333Y-14142571D01*
X10212333Y-14142571D02*
X10221857Y-14161619D01*
X10221857Y-14161619D02*
X10231381Y-14199714D01*
X10231381Y-14199714D02*
X10231381Y-14247333D01*
X10231381Y-14247333D02*
X10221857Y-14285428D01*
X10221857Y-14285428D02*
X10212333Y-14304476D01*
X10212333Y-14304476D02*
X10202810Y-14314000D01*
X10202810Y-14314000D02*
X10183762Y-14323524D01*
X10183762Y-14323524D02*
X10164714Y-14323524D01*
X10164714Y-14323524D02*
X10145667Y-14314000D01*
X10145667Y-14314000D02*
X10136143Y-14304476D01*
X10136143Y-14304476D02*
X10126619Y-14285428D01*
X10126619Y-14285428D02*
X10117095Y-14247333D01*
X10117095Y-14247333D02*
X10117095Y-14199714D01*
X10117095Y-14199714D02*
X10126619Y-14161619D01*
X10126619Y-14161619D02*
X10136143Y-14142571D01*
X10136143Y-14142571D02*
X10145667Y-14133048D01*
X10145667Y-14133048D02*
X10164714Y-14123524D01*
X10317095Y-14304476D02*
X10326619Y-14314000D01*
X10326619Y-14314000D02*
X10317095Y-14323524D01*
X10317095Y-14323524D02*
X10307571Y-14314000D01*
X10307571Y-14314000D02*
X10317095Y-14304476D01*
X10317095Y-14304476D02*
X10317095Y-14323524D01*
X10393286Y-14123524D02*
X10526619Y-14123524D01*
X10526619Y-14123524D02*
X10440905Y-14323524D01*
X10698048Y-14123524D02*
X10602810Y-14123524D01*
X10602810Y-14123524D02*
X10593286Y-14218762D01*
X10593286Y-14218762D02*
X10602810Y-14209238D01*
X10602810Y-14209238D02*
X10621857Y-14199714D01*
X10621857Y-14199714D02*
X10669476Y-14199714D01*
X10669476Y-14199714D02*
X10688524Y-14209238D01*
X10688524Y-14209238D02*
X10698048Y-14218762D01*
X10698048Y-14218762D02*
X10707571Y-14237809D01*
X10707571Y-14237809D02*
X10707571Y-14285428D01*
X10707571Y-14285428D02*
X10698048Y-14304476D01*
X10698048Y-14304476D02*
X10688524Y-14314000D01*
X10688524Y-14314000D02*
X10669476Y-14323524D01*
X10669476Y-14323524D02*
X10621857Y-14323524D01*
X10621857Y-14323524D02*
X10602810Y-14314000D01*
X10602810Y-14314000D02*
X10593286Y-14304476D01*
X10831381Y-14123524D02*
X10850429Y-14123524D01*
X10850429Y-14123524D02*
X10869476Y-14133048D01*
X10869476Y-14133048D02*
X10879000Y-14142571D01*
X10879000Y-14142571D02*
X10888524Y-14161619D01*
X10888524Y-14161619D02*
X10898048Y-14199714D01*
X10898048Y-14199714D02*
X10898048Y-14247333D01*
X10898048Y-14247333D02*
X10888524Y-14285428D01*
X10888524Y-14285428D02*
X10879000Y-14304476D01*
X10879000Y-14304476D02*
X10869476Y-14314000D01*
X10869476Y-14314000D02*
X10850429Y-14323524D01*
X10850429Y-14323524D02*
X10831381Y-14323524D01*
X10831381Y-14323524D02*
X10812333Y-14314000D01*
X10812333Y-14314000D02*
X10802810Y-14304476D01*
X10802810Y-14304476D02*
X10793286Y-14285428D01*
X10793286Y-14285428D02*
X10783762Y-14247333D01*
X10783762Y-14247333D02*
X10783762Y-14199714D01*
X10783762Y-14199714D02*
X10793286Y-14161619D01*
X10793286Y-14161619D02*
X10802810Y-14142571D01*
X10802810Y-14142571D02*
X10812333Y-14133048D01*
X10812333Y-14133048D02*
X10831381Y-14123524D01*
X10983762Y-14323524D02*
X10983762Y-14190190D01*
X10983762Y-14209238D02*
X10993286Y-14199714D01*
X10993286Y-14199714D02*
X11012333Y-14190190D01*
X11012333Y-14190190D02*
X11040905Y-14190190D01*
X11040905Y-14190190D02*
X11059952Y-14199714D01*
X11059952Y-14199714D02*
X11069476Y-14218762D01*
X11069476Y-14218762D02*
X11069476Y-14323524D01*
X11069476Y-14218762D02*
X11079000Y-14199714D01*
X11079000Y-14199714D02*
X11098048Y-14190190D01*
X11098048Y-14190190D02*
X11126619Y-14190190D01*
X11126619Y-14190190D02*
X11145667Y-14199714D01*
X11145667Y-14199714D02*
X11155191Y-14218762D01*
X11155191Y-14218762D02*
X11155191Y-14323524D01*
X11250429Y-14323524D02*
X11250429Y-14190190D01*
X11250429Y-14209238D02*
X11259952Y-14199714D01*
X11259952Y-14199714D02*
X11279000Y-14190190D01*
X11279000Y-14190190D02*
X11307571Y-14190190D01*
X11307571Y-14190190D02*
X11326619Y-14199714D01*
X11326619Y-14199714D02*
X11336143Y-14218762D01*
X11336143Y-14218762D02*
X11336143Y-14323524D01*
X11336143Y-14218762D02*
X11345667Y-14199714D01*
X11345667Y-14199714D02*
X11364714Y-14190190D01*
X11364714Y-14190190D02*
X11393286Y-14190190D01*
X11393286Y-14190190D02*
X11412333Y-14199714D01*
X11412333Y-14199714D02*
X11421857Y-14218762D01*
X11421857Y-14218762D02*
X11421857Y-14323524D01*
X11812333Y-14114000D02*
X11640905Y-14371143D01*
X12069476Y-14123524D02*
X12088524Y-14123524D01*
X12088524Y-14123524D02*
X12107572Y-14133048D01*
X12107572Y-14133048D02*
X12117095Y-14142571D01*
X12117095Y-14142571D02*
X12126619Y-14161619D01*
X12126619Y-14161619D02*
X12136143Y-14199714D01*
X12136143Y-14199714D02*
X12136143Y-14247333D01*
X12136143Y-14247333D02*
X12126619Y-14285428D01*
X12126619Y-14285428D02*
X12117095Y-14304476D01*
X12117095Y-14304476D02*
X12107572Y-14314000D01*
X12107572Y-14314000D02*
X12088524Y-14323524D01*
X12088524Y-14323524D02*
X12069476Y-14323524D01*
X12069476Y-14323524D02*
X12050429Y-14314000D01*
X12050429Y-14314000D02*
X12040905Y-14304476D01*
X12040905Y-14304476D02*
X12031381Y-14285428D01*
X12031381Y-14285428D02*
X12021857Y-14247333D01*
X12021857Y-14247333D02*
X12021857Y-14199714D01*
X12021857Y-14199714D02*
X12031381Y-14161619D01*
X12031381Y-14161619D02*
X12040905Y-14142571D01*
X12040905Y-14142571D02*
X12050429Y-14133048D01*
X12050429Y-14133048D02*
X12069476Y-14123524D01*
X12221857Y-14304476D02*
X12231381Y-14314000D01*
X12231381Y-14314000D02*
X12221857Y-14323524D01*
X12221857Y-14323524D02*
X12212333Y-14314000D01*
X12212333Y-14314000D02*
X12221857Y-14304476D01*
X12221857Y-14304476D02*
X12221857Y-14323524D01*
X12355191Y-14123524D02*
X12374238Y-14123524D01*
X12374238Y-14123524D02*
X12393286Y-14133048D01*
X12393286Y-14133048D02*
X12402810Y-14142571D01*
X12402810Y-14142571D02*
X12412333Y-14161619D01*
X12412333Y-14161619D02*
X12421857Y-14199714D01*
X12421857Y-14199714D02*
X12421857Y-14247333D01*
X12421857Y-14247333D02*
X12412333Y-14285428D01*
X12412333Y-14285428D02*
X12402810Y-14304476D01*
X12402810Y-14304476D02*
X12393286Y-14314000D01*
X12393286Y-14314000D02*
X12374238Y-14323524D01*
X12374238Y-14323524D02*
X12355191Y-14323524D01*
X12355191Y-14323524D02*
X12336143Y-14314000D01*
X12336143Y-14314000D02*
X12326619Y-14304476D01*
X12326619Y-14304476D02*
X12317095Y-14285428D01*
X12317095Y-14285428D02*
X12307572Y-14247333D01*
X12307572Y-14247333D02*
X12307572Y-14199714D01*
X12307572Y-14199714D02*
X12317095Y-14161619D01*
X12317095Y-14161619D02*
X12326619Y-14142571D01*
X12326619Y-14142571D02*
X12336143Y-14133048D01*
X12336143Y-14133048D02*
X12355191Y-14123524D01*
X12498048Y-14142571D02*
X12507572Y-14133048D01*
X12507572Y-14133048D02*
X12526619Y-14123524D01*
X12526619Y-14123524D02*
X12574238Y-14123524D01*
X12574238Y-14123524D02*
X12593286Y-14133048D01*
X12593286Y-14133048D02*
X12602810Y-14142571D01*
X12602810Y-14142571D02*
X12612333Y-14161619D01*
X12612333Y-14161619D02*
X12612333Y-14180667D01*
X12612333Y-14180667D02*
X12602810Y-14209238D01*
X12602810Y-14209238D02*
X12488524Y-14323524D01*
X12488524Y-14323524D02*
X12612333Y-14323524D01*
X12707572Y-14323524D02*
X12745667Y-14323524D01*
X12745667Y-14323524D02*
X12764714Y-14314000D01*
X12764714Y-14314000D02*
X12774238Y-14304476D01*
X12774238Y-14304476D02*
X12793286Y-14275905D01*
X12793286Y-14275905D02*
X12802810Y-14237809D01*
X12802810Y-14237809D02*
X12802810Y-14161619D01*
X12802810Y-14161619D02*
X12793286Y-14142571D01*
X12793286Y-14142571D02*
X12783762Y-14133048D01*
X12783762Y-14133048D02*
X12764714Y-14123524D01*
X12764714Y-14123524D02*
X12726619Y-14123524D01*
X12726619Y-14123524D02*
X12707572Y-14133048D01*
X12707572Y-14133048D02*
X12698048Y-14142571D01*
X12698048Y-14142571D02*
X12688524Y-14161619D01*
X12688524Y-14161619D02*
X12688524Y-14209238D01*
X12688524Y-14209238D02*
X12698048Y-14228286D01*
X12698048Y-14228286D02*
X12707572Y-14237809D01*
X12707572Y-14237809D02*
X12726619Y-14247333D01*
X12726619Y-14247333D02*
X12764714Y-14247333D01*
X12764714Y-14247333D02*
X12783762Y-14237809D01*
X12783762Y-14237809D02*
X12793286Y-14228286D01*
X12793286Y-14228286D02*
X12802810Y-14209238D01*
X12983762Y-14123524D02*
X12888524Y-14123524D01*
X12888524Y-14123524D02*
X12879000Y-14218762D01*
X12879000Y-14218762D02*
X12888524Y-14209238D01*
X12888524Y-14209238D02*
X12907572Y-14199714D01*
X12907572Y-14199714D02*
X12955191Y-14199714D01*
X12955191Y-14199714D02*
X12974238Y-14209238D01*
X12974238Y-14209238D02*
X12983762Y-14218762D01*
X12983762Y-14218762D02*
X12993286Y-14237809D01*
X12993286Y-14237809D02*
X12993286Y-14285428D01*
X12993286Y-14285428D02*
X12983762Y-14304476D01*
X12983762Y-14304476D02*
X12974238Y-14314000D01*
X12974238Y-14314000D02*
X12955191Y-14323524D01*
X12955191Y-14323524D02*
X12907572Y-14323524D01*
X12907572Y-14323524D02*
X12888524Y-14314000D01*
X12888524Y-14314000D02*
X12879000Y-14304476D01*
X13069476Y-14123524D02*
X13069476Y-14161619D01*
X13145667Y-14123524D02*
X13145667Y-14161619D01*
X13440905Y-14399714D02*
X13431381Y-14390190D01*
X13431381Y-14390190D02*
X13412334Y-14361619D01*
X13412334Y-14361619D02*
X13402810Y-14342571D01*
X13402810Y-14342571D02*
X13393286Y-14314000D01*
X13393286Y-14314000D02*
X13383762Y-14266381D01*
X13383762Y-14266381D02*
X13383762Y-14228286D01*
X13383762Y-14228286D02*
X13393286Y-14180667D01*
X13393286Y-14180667D02*
X13402810Y-14152095D01*
X13402810Y-14152095D02*
X13412334Y-14133048D01*
X13412334Y-14133048D02*
X13431381Y-14104476D01*
X13431381Y-14104476D02*
X13440905Y-14094952D01*
X13602810Y-14123524D02*
X13564714Y-14123524D01*
X13564714Y-14123524D02*
X13545667Y-14133048D01*
X13545667Y-14133048D02*
X13536143Y-14142571D01*
X13536143Y-14142571D02*
X13517095Y-14171143D01*
X13517095Y-14171143D02*
X13507572Y-14209238D01*
X13507572Y-14209238D02*
X13507572Y-14285428D01*
X13507572Y-14285428D02*
X13517095Y-14304476D01*
X13517095Y-14304476D02*
X13526619Y-14314000D01*
X13526619Y-14314000D02*
X13545667Y-14323524D01*
X13545667Y-14323524D02*
X13583762Y-14323524D01*
X13583762Y-14323524D02*
X13602810Y-14314000D01*
X13602810Y-14314000D02*
X13612334Y-14304476D01*
X13612334Y-14304476D02*
X13621857Y-14285428D01*
X13621857Y-14285428D02*
X13621857Y-14237809D01*
X13621857Y-14237809D02*
X13612334Y-14218762D01*
X13612334Y-14218762D02*
X13602810Y-14209238D01*
X13602810Y-14209238D02*
X13583762Y-14199714D01*
X13583762Y-14199714D02*
X13545667Y-14199714D01*
X13545667Y-14199714D02*
X13526619Y-14209238D01*
X13526619Y-14209238D02*
X13517095Y-14218762D01*
X13517095Y-14218762D02*
X13507572Y-14237809D01*
X13859953Y-14323524D02*
X13859953Y-14123524D01*
X13945667Y-14323524D02*
X13945667Y-14218762D01*
X13945667Y-14218762D02*
X13936143Y-14199714D01*
X13936143Y-14199714D02*
X13917096Y-14190190D01*
X13917096Y-14190190D02*
X13888524Y-14190190D01*
X13888524Y-14190190D02*
X13869476Y-14199714D01*
X13869476Y-14199714D02*
X13859953Y-14209238D01*
X14069476Y-14323524D02*
X14050429Y-14314000D01*
X14050429Y-14314000D02*
X14040905Y-14304476D01*
X14040905Y-14304476D02*
X14031381Y-14285428D01*
X14031381Y-14285428D02*
X14031381Y-14228286D01*
X14031381Y-14228286D02*
X14040905Y-14209238D01*
X14040905Y-14209238D02*
X14050429Y-14199714D01*
X14050429Y-14199714D02*
X14069476Y-14190190D01*
X14069476Y-14190190D02*
X14098048Y-14190190D01*
X14098048Y-14190190D02*
X14117096Y-14199714D01*
X14117096Y-14199714D02*
X14126619Y-14209238D01*
X14126619Y-14209238D02*
X14136143Y-14228286D01*
X14136143Y-14228286D02*
X14136143Y-14285428D01*
X14136143Y-14285428D02*
X14126619Y-14304476D01*
X14126619Y-14304476D02*
X14117096Y-14314000D01*
X14117096Y-14314000D02*
X14098048Y-14323524D01*
X14098048Y-14323524D02*
X14069476Y-14323524D01*
X14250429Y-14323524D02*
X14231381Y-14314000D01*
X14231381Y-14314000D02*
X14221857Y-14294952D01*
X14221857Y-14294952D02*
X14221857Y-14123524D01*
X14402810Y-14314000D02*
X14383762Y-14323524D01*
X14383762Y-14323524D02*
X14345667Y-14323524D01*
X14345667Y-14323524D02*
X14326619Y-14314000D01*
X14326619Y-14314000D02*
X14317096Y-14294952D01*
X14317096Y-14294952D02*
X14317096Y-14218762D01*
X14317096Y-14218762D02*
X14326619Y-14199714D01*
X14326619Y-14199714D02*
X14345667Y-14190190D01*
X14345667Y-14190190D02*
X14383762Y-14190190D01*
X14383762Y-14190190D02*
X14402810Y-14199714D01*
X14402810Y-14199714D02*
X14412334Y-14218762D01*
X14412334Y-14218762D02*
X14412334Y-14237809D01*
X14412334Y-14237809D02*
X14317096Y-14256857D01*
X14488524Y-14314000D02*
X14507572Y-14323524D01*
X14507572Y-14323524D02*
X14545667Y-14323524D01*
X14545667Y-14323524D02*
X14564715Y-14314000D01*
X14564715Y-14314000D02*
X14574238Y-14294952D01*
X14574238Y-14294952D02*
X14574238Y-14285428D01*
X14574238Y-14285428D02*
X14564715Y-14266381D01*
X14564715Y-14266381D02*
X14545667Y-14256857D01*
X14545667Y-14256857D02*
X14517096Y-14256857D01*
X14517096Y-14256857D02*
X14498048Y-14247333D01*
X14498048Y-14247333D02*
X14488524Y-14228286D01*
X14488524Y-14228286D02*
X14488524Y-14218762D01*
X14488524Y-14218762D02*
X14498048Y-14199714D01*
X14498048Y-14199714D02*
X14517096Y-14190190D01*
X14517096Y-14190190D02*
X14545667Y-14190190D01*
X14545667Y-14190190D02*
X14564715Y-14199714D01*
X14640905Y-14399714D02*
X14650429Y-14390190D01*
X14650429Y-14390190D02*
X14669477Y-14361619D01*
X14669477Y-14361619D02*
X14679000Y-14342571D01*
X14679000Y-14342571D02*
X14688524Y-14314000D01*
X14688524Y-14314000D02*
X14698048Y-14266381D01*
X14698048Y-14266381D02*
X14698048Y-14228286D01*
X14698048Y-14228286D02*
X14688524Y-14180667D01*
X14688524Y-14180667D02*
X14679000Y-14152095D01*
X14679000Y-14152095D02*
X14669477Y-14133048D01*
X14669477Y-14133048D02*
X14650429Y-14104476D01*
X14650429Y-14104476D02*
X14640905Y-14094952D01*
D13*
X9879000Y-14495000D02*
G75*
G03*
X9879000Y-14495000I-40000J0D01*
G01*
D11*
X10164714Y-14387524D02*
X10183762Y-14387524D01*
X10183762Y-14387524D02*
X10202810Y-14397048D01*
X10202810Y-14397048D02*
X10212333Y-14406571D01*
X10212333Y-14406571D02*
X10221857Y-14425619D01*
X10221857Y-14425619D02*
X10231381Y-14463714D01*
X10231381Y-14463714D02*
X10231381Y-14511333D01*
X10231381Y-14511333D02*
X10221857Y-14549428D01*
X10221857Y-14549428D02*
X10212333Y-14568476D01*
X10212333Y-14568476D02*
X10202810Y-14578000D01*
X10202810Y-14578000D02*
X10183762Y-14587524D01*
X10183762Y-14587524D02*
X10164714Y-14587524D01*
X10164714Y-14587524D02*
X10145667Y-14578000D01*
X10145667Y-14578000D02*
X10136143Y-14568476D01*
X10136143Y-14568476D02*
X10126619Y-14549428D01*
X10126619Y-14549428D02*
X10117095Y-14511333D01*
X10117095Y-14511333D02*
X10117095Y-14463714D01*
X10117095Y-14463714D02*
X10126619Y-14425619D01*
X10126619Y-14425619D02*
X10136143Y-14406571D01*
X10136143Y-14406571D02*
X10145667Y-14397048D01*
X10145667Y-14397048D02*
X10164714Y-14387524D01*
X10317095Y-14568476D02*
X10326619Y-14578000D01*
X10326619Y-14578000D02*
X10317095Y-14587524D01*
X10317095Y-14587524D02*
X10307571Y-14578000D01*
X10307571Y-14578000D02*
X10317095Y-14568476D01*
X10317095Y-14568476D02*
X10317095Y-14587524D01*
X10440905Y-14473238D02*
X10421857Y-14463714D01*
X10421857Y-14463714D02*
X10412333Y-14454190D01*
X10412333Y-14454190D02*
X10402810Y-14435143D01*
X10402810Y-14435143D02*
X10402810Y-14425619D01*
X10402810Y-14425619D02*
X10412333Y-14406571D01*
X10412333Y-14406571D02*
X10421857Y-14397048D01*
X10421857Y-14397048D02*
X10440905Y-14387524D01*
X10440905Y-14387524D02*
X10479000Y-14387524D01*
X10479000Y-14387524D02*
X10498048Y-14397048D01*
X10498048Y-14397048D02*
X10507571Y-14406571D01*
X10507571Y-14406571D02*
X10517095Y-14425619D01*
X10517095Y-14425619D02*
X10517095Y-14435143D01*
X10517095Y-14435143D02*
X10507571Y-14454190D01*
X10507571Y-14454190D02*
X10498048Y-14463714D01*
X10498048Y-14463714D02*
X10479000Y-14473238D01*
X10479000Y-14473238D02*
X10440905Y-14473238D01*
X10440905Y-14473238D02*
X10421857Y-14482762D01*
X10421857Y-14482762D02*
X10412333Y-14492286D01*
X10412333Y-14492286D02*
X10402810Y-14511333D01*
X10402810Y-14511333D02*
X10402810Y-14549428D01*
X10402810Y-14549428D02*
X10412333Y-14568476D01*
X10412333Y-14568476D02*
X10421857Y-14578000D01*
X10421857Y-14578000D02*
X10440905Y-14587524D01*
X10440905Y-14587524D02*
X10479000Y-14587524D01*
X10479000Y-14587524D02*
X10498048Y-14578000D01*
X10498048Y-14578000D02*
X10507571Y-14568476D01*
X10507571Y-14568476D02*
X10517095Y-14549428D01*
X10517095Y-14549428D02*
X10517095Y-14511333D01*
X10517095Y-14511333D02*
X10507571Y-14492286D01*
X10507571Y-14492286D02*
X10498048Y-14482762D01*
X10498048Y-14482762D02*
X10479000Y-14473238D01*
X10640905Y-14387524D02*
X10659952Y-14387524D01*
X10659952Y-14387524D02*
X10679000Y-14397048D01*
X10679000Y-14397048D02*
X10688524Y-14406571D01*
X10688524Y-14406571D02*
X10698048Y-14425619D01*
X10698048Y-14425619D02*
X10707571Y-14463714D01*
X10707571Y-14463714D02*
X10707571Y-14511333D01*
X10707571Y-14511333D02*
X10698048Y-14549428D01*
X10698048Y-14549428D02*
X10688524Y-14568476D01*
X10688524Y-14568476D02*
X10679000Y-14578000D01*
X10679000Y-14578000D02*
X10659952Y-14587524D01*
X10659952Y-14587524D02*
X10640905Y-14587524D01*
X10640905Y-14587524D02*
X10621857Y-14578000D01*
X10621857Y-14578000D02*
X10612333Y-14568476D01*
X10612333Y-14568476D02*
X10602810Y-14549428D01*
X10602810Y-14549428D02*
X10593286Y-14511333D01*
X10593286Y-14511333D02*
X10593286Y-14463714D01*
X10593286Y-14463714D02*
X10602810Y-14425619D01*
X10602810Y-14425619D02*
X10612333Y-14406571D01*
X10612333Y-14406571D02*
X10621857Y-14397048D01*
X10621857Y-14397048D02*
X10640905Y-14387524D01*
X10831381Y-14387524D02*
X10850429Y-14387524D01*
X10850429Y-14387524D02*
X10869476Y-14397048D01*
X10869476Y-14397048D02*
X10879000Y-14406571D01*
X10879000Y-14406571D02*
X10888524Y-14425619D01*
X10888524Y-14425619D02*
X10898048Y-14463714D01*
X10898048Y-14463714D02*
X10898048Y-14511333D01*
X10898048Y-14511333D02*
X10888524Y-14549428D01*
X10888524Y-14549428D02*
X10879000Y-14568476D01*
X10879000Y-14568476D02*
X10869476Y-14578000D01*
X10869476Y-14578000D02*
X10850429Y-14587524D01*
X10850429Y-14587524D02*
X10831381Y-14587524D01*
X10831381Y-14587524D02*
X10812333Y-14578000D01*
X10812333Y-14578000D02*
X10802810Y-14568476D01*
X10802810Y-14568476D02*
X10793286Y-14549428D01*
X10793286Y-14549428D02*
X10783762Y-14511333D01*
X10783762Y-14511333D02*
X10783762Y-14463714D01*
X10783762Y-14463714D02*
X10793286Y-14425619D01*
X10793286Y-14425619D02*
X10802810Y-14406571D01*
X10802810Y-14406571D02*
X10812333Y-14397048D01*
X10812333Y-14397048D02*
X10831381Y-14387524D01*
X10983762Y-14587524D02*
X10983762Y-14454190D01*
X10983762Y-14473238D02*
X10993286Y-14463714D01*
X10993286Y-14463714D02*
X11012333Y-14454190D01*
X11012333Y-14454190D02*
X11040905Y-14454190D01*
X11040905Y-14454190D02*
X11059952Y-14463714D01*
X11059952Y-14463714D02*
X11069476Y-14482762D01*
X11069476Y-14482762D02*
X11069476Y-14587524D01*
X11069476Y-14482762D02*
X11079000Y-14463714D01*
X11079000Y-14463714D02*
X11098048Y-14454190D01*
X11098048Y-14454190D02*
X11126619Y-14454190D01*
X11126619Y-14454190D02*
X11145667Y-14463714D01*
X11145667Y-14463714D02*
X11155191Y-14482762D01*
X11155191Y-14482762D02*
X11155191Y-14587524D01*
X11250429Y-14587524D02*
X11250429Y-14454190D01*
X11250429Y-14473238D02*
X11259952Y-14463714D01*
X11259952Y-14463714D02*
X11279000Y-14454190D01*
X11279000Y-14454190D02*
X11307571Y-14454190D01*
X11307571Y-14454190D02*
X11326619Y-14463714D01*
X11326619Y-14463714D02*
X11336143Y-14482762D01*
X11336143Y-14482762D02*
X11336143Y-14587524D01*
X11336143Y-14482762D02*
X11345667Y-14463714D01*
X11345667Y-14463714D02*
X11364714Y-14454190D01*
X11364714Y-14454190D02*
X11393286Y-14454190D01*
X11393286Y-14454190D02*
X11412333Y-14463714D01*
X11412333Y-14463714D02*
X11421857Y-14482762D01*
X11421857Y-14482762D02*
X11421857Y-14587524D01*
X11812333Y-14378000D02*
X11640905Y-14635143D01*
X12069476Y-14387524D02*
X12088524Y-14387524D01*
X12088524Y-14387524D02*
X12107572Y-14397048D01*
X12107572Y-14397048D02*
X12117095Y-14406571D01*
X12117095Y-14406571D02*
X12126619Y-14425619D01*
X12126619Y-14425619D02*
X12136143Y-14463714D01*
X12136143Y-14463714D02*
X12136143Y-14511333D01*
X12136143Y-14511333D02*
X12126619Y-14549428D01*
X12126619Y-14549428D02*
X12117095Y-14568476D01*
X12117095Y-14568476D02*
X12107572Y-14578000D01*
X12107572Y-14578000D02*
X12088524Y-14587524D01*
X12088524Y-14587524D02*
X12069476Y-14587524D01*
X12069476Y-14587524D02*
X12050429Y-14578000D01*
X12050429Y-14578000D02*
X12040905Y-14568476D01*
X12040905Y-14568476D02*
X12031381Y-14549428D01*
X12031381Y-14549428D02*
X12021857Y-14511333D01*
X12021857Y-14511333D02*
X12021857Y-14463714D01*
X12021857Y-14463714D02*
X12031381Y-14425619D01*
X12031381Y-14425619D02*
X12040905Y-14406571D01*
X12040905Y-14406571D02*
X12050429Y-14397048D01*
X12050429Y-14397048D02*
X12069476Y-14387524D01*
X12221857Y-14568476D02*
X12231381Y-14578000D01*
X12231381Y-14578000D02*
X12221857Y-14587524D01*
X12221857Y-14587524D02*
X12212333Y-14578000D01*
X12212333Y-14578000D02*
X12221857Y-14568476D01*
X12221857Y-14568476D02*
X12221857Y-14587524D01*
X12355191Y-14387524D02*
X12374238Y-14387524D01*
X12374238Y-14387524D02*
X12393286Y-14397048D01*
X12393286Y-14397048D02*
X12402810Y-14406571D01*
X12402810Y-14406571D02*
X12412333Y-14425619D01*
X12412333Y-14425619D02*
X12421857Y-14463714D01*
X12421857Y-14463714D02*
X12421857Y-14511333D01*
X12421857Y-14511333D02*
X12412333Y-14549428D01*
X12412333Y-14549428D02*
X12402810Y-14568476D01*
X12402810Y-14568476D02*
X12393286Y-14578000D01*
X12393286Y-14578000D02*
X12374238Y-14587524D01*
X12374238Y-14587524D02*
X12355191Y-14587524D01*
X12355191Y-14587524D02*
X12336143Y-14578000D01*
X12336143Y-14578000D02*
X12326619Y-14568476D01*
X12326619Y-14568476D02*
X12317095Y-14549428D01*
X12317095Y-14549428D02*
X12307572Y-14511333D01*
X12307572Y-14511333D02*
X12307572Y-14463714D01*
X12307572Y-14463714D02*
X12317095Y-14425619D01*
X12317095Y-14425619D02*
X12326619Y-14406571D01*
X12326619Y-14406571D02*
X12336143Y-14397048D01*
X12336143Y-14397048D02*
X12355191Y-14387524D01*
X12488524Y-14387524D02*
X12612333Y-14387524D01*
X12612333Y-14387524D02*
X12545667Y-14463714D01*
X12545667Y-14463714D02*
X12574238Y-14463714D01*
X12574238Y-14463714D02*
X12593286Y-14473238D01*
X12593286Y-14473238D02*
X12602810Y-14482762D01*
X12602810Y-14482762D02*
X12612333Y-14501809D01*
X12612333Y-14501809D02*
X12612333Y-14549428D01*
X12612333Y-14549428D02*
X12602810Y-14568476D01*
X12602810Y-14568476D02*
X12593286Y-14578000D01*
X12593286Y-14578000D02*
X12574238Y-14587524D01*
X12574238Y-14587524D02*
X12517095Y-14587524D01*
X12517095Y-14587524D02*
X12498048Y-14578000D01*
X12498048Y-14578000D02*
X12488524Y-14568476D01*
X12802810Y-14587524D02*
X12688524Y-14587524D01*
X12745667Y-14587524D02*
X12745667Y-14387524D01*
X12745667Y-14387524D02*
X12726619Y-14416095D01*
X12726619Y-14416095D02*
X12707572Y-14435143D01*
X12707572Y-14435143D02*
X12688524Y-14444667D01*
X12983762Y-14387524D02*
X12888524Y-14387524D01*
X12888524Y-14387524D02*
X12879000Y-14482762D01*
X12879000Y-14482762D02*
X12888524Y-14473238D01*
X12888524Y-14473238D02*
X12907572Y-14463714D01*
X12907572Y-14463714D02*
X12955191Y-14463714D01*
X12955191Y-14463714D02*
X12974238Y-14473238D01*
X12974238Y-14473238D02*
X12983762Y-14482762D01*
X12983762Y-14482762D02*
X12993286Y-14501809D01*
X12993286Y-14501809D02*
X12993286Y-14549428D01*
X12993286Y-14549428D02*
X12983762Y-14568476D01*
X12983762Y-14568476D02*
X12974238Y-14578000D01*
X12974238Y-14578000D02*
X12955191Y-14587524D01*
X12955191Y-14587524D02*
X12907572Y-14587524D01*
X12907572Y-14587524D02*
X12888524Y-14578000D01*
X12888524Y-14578000D02*
X12879000Y-14568476D01*
X13069476Y-14387524D02*
X13069476Y-14425619D01*
X13145667Y-14387524D02*
X13145667Y-14425619D01*
X13440905Y-14663714D02*
X13431381Y-14654190D01*
X13431381Y-14654190D02*
X13412334Y-14625619D01*
X13412334Y-14625619D02*
X13402810Y-14606571D01*
X13402810Y-14606571D02*
X13393286Y-14578000D01*
X13393286Y-14578000D02*
X13383762Y-14530381D01*
X13383762Y-14530381D02*
X13383762Y-14492286D01*
X13383762Y-14492286D02*
X13393286Y-14444667D01*
X13393286Y-14444667D02*
X13402810Y-14416095D01*
X13402810Y-14416095D02*
X13412334Y-14397048D01*
X13412334Y-14397048D02*
X13431381Y-14368476D01*
X13431381Y-14368476D02*
X13440905Y-14358952D01*
X13602810Y-14387524D02*
X13564714Y-14387524D01*
X13564714Y-14387524D02*
X13545667Y-14397048D01*
X13545667Y-14397048D02*
X13536143Y-14406571D01*
X13536143Y-14406571D02*
X13517095Y-14435143D01*
X13517095Y-14435143D02*
X13507572Y-14473238D01*
X13507572Y-14473238D02*
X13507572Y-14549428D01*
X13507572Y-14549428D02*
X13517095Y-14568476D01*
X13517095Y-14568476D02*
X13526619Y-14578000D01*
X13526619Y-14578000D02*
X13545667Y-14587524D01*
X13545667Y-14587524D02*
X13583762Y-14587524D01*
X13583762Y-14587524D02*
X13602810Y-14578000D01*
X13602810Y-14578000D02*
X13612334Y-14568476D01*
X13612334Y-14568476D02*
X13621857Y-14549428D01*
X13621857Y-14549428D02*
X13621857Y-14501809D01*
X13621857Y-14501809D02*
X13612334Y-14482762D01*
X13612334Y-14482762D02*
X13602810Y-14473238D01*
X13602810Y-14473238D02*
X13583762Y-14463714D01*
X13583762Y-14463714D02*
X13545667Y-14463714D01*
X13545667Y-14463714D02*
X13526619Y-14473238D01*
X13526619Y-14473238D02*
X13517095Y-14482762D01*
X13517095Y-14482762D02*
X13507572Y-14501809D01*
X13745667Y-14387524D02*
X13764715Y-14387524D01*
X13764715Y-14387524D02*
X13783762Y-14397048D01*
X13783762Y-14397048D02*
X13793286Y-14406571D01*
X13793286Y-14406571D02*
X13802810Y-14425619D01*
X13802810Y-14425619D02*
X13812334Y-14463714D01*
X13812334Y-14463714D02*
X13812334Y-14511333D01*
X13812334Y-14511333D02*
X13802810Y-14549428D01*
X13802810Y-14549428D02*
X13793286Y-14568476D01*
X13793286Y-14568476D02*
X13783762Y-14578000D01*
X13783762Y-14578000D02*
X13764715Y-14587524D01*
X13764715Y-14587524D02*
X13745667Y-14587524D01*
X13745667Y-14587524D02*
X13726619Y-14578000D01*
X13726619Y-14578000D02*
X13717095Y-14568476D01*
X13717095Y-14568476D02*
X13707572Y-14549428D01*
X13707572Y-14549428D02*
X13698048Y-14511333D01*
X13698048Y-14511333D02*
X13698048Y-14463714D01*
X13698048Y-14463714D02*
X13707572Y-14425619D01*
X13707572Y-14425619D02*
X13717095Y-14406571D01*
X13717095Y-14406571D02*
X13726619Y-14397048D01*
X13726619Y-14397048D02*
X13745667Y-14387524D01*
X14050429Y-14587524D02*
X14050429Y-14387524D01*
X14136143Y-14587524D02*
X14136143Y-14482762D01*
X14136143Y-14482762D02*
X14126619Y-14463714D01*
X14126619Y-14463714D02*
X14107572Y-14454190D01*
X14107572Y-14454190D02*
X14079000Y-14454190D01*
X14079000Y-14454190D02*
X14059953Y-14463714D01*
X14059953Y-14463714D02*
X14050429Y-14473238D01*
X14259953Y-14587524D02*
X14240905Y-14578000D01*
X14240905Y-14578000D02*
X14231381Y-14568476D01*
X14231381Y-14568476D02*
X14221857Y-14549428D01*
X14221857Y-14549428D02*
X14221857Y-14492286D01*
X14221857Y-14492286D02*
X14231381Y-14473238D01*
X14231381Y-14473238D02*
X14240905Y-14463714D01*
X14240905Y-14463714D02*
X14259953Y-14454190D01*
X14259953Y-14454190D02*
X14288524Y-14454190D01*
X14288524Y-14454190D02*
X14307572Y-14463714D01*
X14307572Y-14463714D02*
X14317096Y-14473238D01*
X14317096Y-14473238D02*
X14326619Y-14492286D01*
X14326619Y-14492286D02*
X14326619Y-14549428D01*
X14326619Y-14549428D02*
X14317096Y-14568476D01*
X14317096Y-14568476D02*
X14307572Y-14578000D01*
X14307572Y-14578000D02*
X14288524Y-14587524D01*
X14288524Y-14587524D02*
X14259953Y-14587524D01*
X14440905Y-14587524D02*
X14421857Y-14578000D01*
X14421857Y-14578000D02*
X14412334Y-14558952D01*
X14412334Y-14558952D02*
X14412334Y-14387524D01*
X14593286Y-14578000D02*
X14574238Y-14587524D01*
X14574238Y-14587524D02*
X14536143Y-14587524D01*
X14536143Y-14587524D02*
X14517096Y-14578000D01*
X14517096Y-14578000D02*
X14507572Y-14558952D01*
X14507572Y-14558952D02*
X14507572Y-14482762D01*
X14507572Y-14482762D02*
X14517096Y-14463714D01*
X14517096Y-14463714D02*
X14536143Y-14454190D01*
X14536143Y-14454190D02*
X14574238Y-14454190D01*
X14574238Y-14454190D02*
X14593286Y-14463714D01*
X14593286Y-14463714D02*
X14602810Y-14482762D01*
X14602810Y-14482762D02*
X14602810Y-14501809D01*
X14602810Y-14501809D02*
X14507572Y-14520857D01*
X14679000Y-14578000D02*
X14698048Y-14587524D01*
X14698048Y-14587524D02*
X14736143Y-14587524D01*
X14736143Y-14587524D02*
X14755191Y-14578000D01*
X14755191Y-14578000D02*
X14764715Y-14558952D01*
X14764715Y-14558952D02*
X14764715Y-14549428D01*
X14764715Y-14549428D02*
X14755191Y-14530381D01*
X14755191Y-14530381D02*
X14736143Y-14520857D01*
X14736143Y-14520857D02*
X14707572Y-14520857D01*
X14707572Y-14520857D02*
X14688524Y-14511333D01*
X14688524Y-14511333D02*
X14679000Y-14492286D01*
X14679000Y-14492286D02*
X14679000Y-14482762D01*
X14679000Y-14482762D02*
X14688524Y-14463714D01*
X14688524Y-14463714D02*
X14707572Y-14454190D01*
X14707572Y-14454190D02*
X14736143Y-14454190D01*
X14736143Y-14454190D02*
X14755191Y-14463714D01*
X14831381Y-14663714D02*
X14840905Y-14654190D01*
X14840905Y-14654190D02*
X14859953Y-14625619D01*
X14859953Y-14625619D02*
X14869477Y-14606571D01*
X14869477Y-14606571D02*
X14879000Y-14578000D01*
X14879000Y-14578000D02*
X14888524Y-14530381D01*
X14888524Y-14530381D02*
X14888524Y-14492286D01*
X14888524Y-14492286D02*
X14879000Y-14444667D01*
X14879000Y-14444667D02*
X14869477Y-14416095D01*
X14869477Y-14416095D02*
X14859953Y-14397048D01*
X14859953Y-14397048D02*
X14840905Y-14368476D01*
X14840905Y-14368476D02*
X14831381Y-14358952D01*
D14*
X9834000Y-14714000D02*
X9834000Y-14804000D01*
X9789000Y-14759000D02*
X9879000Y-14759000D01*
D11*
X10164714Y-14651524D02*
X10183762Y-14651524D01*
X10183762Y-14651524D02*
X10202810Y-14661048D01*
X10202810Y-14661048D02*
X10212333Y-14670571D01*
X10212333Y-14670571D02*
X10221857Y-14689619D01*
X10221857Y-14689619D02*
X10231381Y-14727714D01*
X10231381Y-14727714D02*
X10231381Y-14775333D01*
X10231381Y-14775333D02*
X10221857Y-14813428D01*
X10221857Y-14813428D02*
X10212333Y-14832476D01*
X10212333Y-14832476D02*
X10202810Y-14842000D01*
X10202810Y-14842000D02*
X10183762Y-14851524D01*
X10183762Y-14851524D02*
X10164714Y-14851524D01*
X10164714Y-14851524D02*
X10145667Y-14842000D01*
X10145667Y-14842000D02*
X10136143Y-14832476D01*
X10136143Y-14832476D02*
X10126619Y-14813428D01*
X10126619Y-14813428D02*
X10117095Y-14775333D01*
X10117095Y-14775333D02*
X10117095Y-14727714D01*
X10117095Y-14727714D02*
X10126619Y-14689619D01*
X10126619Y-14689619D02*
X10136143Y-14670571D01*
X10136143Y-14670571D02*
X10145667Y-14661048D01*
X10145667Y-14661048D02*
X10164714Y-14651524D01*
X10317095Y-14832476D02*
X10326619Y-14842000D01*
X10326619Y-14842000D02*
X10317095Y-14851524D01*
X10317095Y-14851524D02*
X10307571Y-14842000D01*
X10307571Y-14842000D02*
X10317095Y-14832476D01*
X10317095Y-14832476D02*
X10317095Y-14851524D01*
X10421857Y-14851524D02*
X10459952Y-14851524D01*
X10459952Y-14851524D02*
X10479000Y-14842000D01*
X10479000Y-14842000D02*
X10488524Y-14832476D01*
X10488524Y-14832476D02*
X10507571Y-14803905D01*
X10507571Y-14803905D02*
X10517095Y-14765809D01*
X10517095Y-14765809D02*
X10517095Y-14689619D01*
X10517095Y-14689619D02*
X10507571Y-14670571D01*
X10507571Y-14670571D02*
X10498048Y-14661048D01*
X10498048Y-14661048D02*
X10479000Y-14651524D01*
X10479000Y-14651524D02*
X10440905Y-14651524D01*
X10440905Y-14651524D02*
X10421857Y-14661048D01*
X10421857Y-14661048D02*
X10412333Y-14670571D01*
X10412333Y-14670571D02*
X10402810Y-14689619D01*
X10402810Y-14689619D02*
X10402810Y-14737238D01*
X10402810Y-14737238D02*
X10412333Y-14756286D01*
X10412333Y-14756286D02*
X10421857Y-14765809D01*
X10421857Y-14765809D02*
X10440905Y-14775333D01*
X10440905Y-14775333D02*
X10479000Y-14775333D01*
X10479000Y-14775333D02*
X10498048Y-14765809D01*
X10498048Y-14765809D02*
X10507571Y-14756286D01*
X10507571Y-14756286D02*
X10517095Y-14737238D01*
X10640905Y-14651524D02*
X10659952Y-14651524D01*
X10659952Y-14651524D02*
X10679000Y-14661048D01*
X10679000Y-14661048D02*
X10688524Y-14670571D01*
X10688524Y-14670571D02*
X10698048Y-14689619D01*
X10698048Y-14689619D02*
X10707571Y-14727714D01*
X10707571Y-14727714D02*
X10707571Y-14775333D01*
X10707571Y-14775333D02*
X10698048Y-14813428D01*
X10698048Y-14813428D02*
X10688524Y-14832476D01*
X10688524Y-14832476D02*
X10679000Y-14842000D01*
X10679000Y-14842000D02*
X10659952Y-14851524D01*
X10659952Y-14851524D02*
X10640905Y-14851524D01*
X10640905Y-14851524D02*
X10621857Y-14842000D01*
X10621857Y-14842000D02*
X10612333Y-14832476D01*
X10612333Y-14832476D02*
X10602810Y-14813428D01*
X10602810Y-14813428D02*
X10593286Y-14775333D01*
X10593286Y-14775333D02*
X10593286Y-14727714D01*
X10593286Y-14727714D02*
X10602810Y-14689619D01*
X10602810Y-14689619D02*
X10612333Y-14670571D01*
X10612333Y-14670571D02*
X10621857Y-14661048D01*
X10621857Y-14661048D02*
X10640905Y-14651524D01*
X10831381Y-14651524D02*
X10850429Y-14651524D01*
X10850429Y-14651524D02*
X10869476Y-14661048D01*
X10869476Y-14661048D02*
X10879000Y-14670571D01*
X10879000Y-14670571D02*
X10888524Y-14689619D01*
X10888524Y-14689619D02*
X10898048Y-14727714D01*
X10898048Y-14727714D02*
X10898048Y-14775333D01*
X10898048Y-14775333D02*
X10888524Y-14813428D01*
X10888524Y-14813428D02*
X10879000Y-14832476D01*
X10879000Y-14832476D02*
X10869476Y-14842000D01*
X10869476Y-14842000D02*
X10850429Y-14851524D01*
X10850429Y-14851524D02*
X10831381Y-14851524D01*
X10831381Y-14851524D02*
X10812333Y-14842000D01*
X10812333Y-14842000D02*
X10802810Y-14832476D01*
X10802810Y-14832476D02*
X10793286Y-14813428D01*
X10793286Y-14813428D02*
X10783762Y-14775333D01*
X10783762Y-14775333D02*
X10783762Y-14727714D01*
X10783762Y-14727714D02*
X10793286Y-14689619D01*
X10793286Y-14689619D02*
X10802810Y-14670571D01*
X10802810Y-14670571D02*
X10812333Y-14661048D01*
X10812333Y-14661048D02*
X10831381Y-14651524D01*
X10983762Y-14851524D02*
X10983762Y-14718190D01*
X10983762Y-14737238D02*
X10993286Y-14727714D01*
X10993286Y-14727714D02*
X11012333Y-14718190D01*
X11012333Y-14718190D02*
X11040905Y-14718190D01*
X11040905Y-14718190D02*
X11059952Y-14727714D01*
X11059952Y-14727714D02*
X11069476Y-14746762D01*
X11069476Y-14746762D02*
X11069476Y-14851524D01*
X11069476Y-14746762D02*
X11079000Y-14727714D01*
X11079000Y-14727714D02*
X11098048Y-14718190D01*
X11098048Y-14718190D02*
X11126619Y-14718190D01*
X11126619Y-14718190D02*
X11145667Y-14727714D01*
X11145667Y-14727714D02*
X11155191Y-14746762D01*
X11155191Y-14746762D02*
X11155191Y-14851524D01*
X11250429Y-14851524D02*
X11250429Y-14718190D01*
X11250429Y-14737238D02*
X11259952Y-14727714D01*
X11259952Y-14727714D02*
X11279000Y-14718190D01*
X11279000Y-14718190D02*
X11307571Y-14718190D01*
X11307571Y-14718190D02*
X11326619Y-14727714D01*
X11326619Y-14727714D02*
X11336143Y-14746762D01*
X11336143Y-14746762D02*
X11336143Y-14851524D01*
X11336143Y-14746762D02*
X11345667Y-14727714D01*
X11345667Y-14727714D02*
X11364714Y-14718190D01*
X11364714Y-14718190D02*
X11393286Y-14718190D01*
X11393286Y-14718190D02*
X11412333Y-14727714D01*
X11412333Y-14727714D02*
X11421857Y-14746762D01*
X11421857Y-14746762D02*
X11421857Y-14851524D01*
X11812333Y-14642000D02*
X11640905Y-14899143D01*
X12069476Y-14651524D02*
X12088524Y-14651524D01*
X12088524Y-14651524D02*
X12107572Y-14661048D01*
X12107572Y-14661048D02*
X12117095Y-14670571D01*
X12117095Y-14670571D02*
X12126619Y-14689619D01*
X12126619Y-14689619D02*
X12136143Y-14727714D01*
X12136143Y-14727714D02*
X12136143Y-14775333D01*
X12136143Y-14775333D02*
X12126619Y-14813428D01*
X12126619Y-14813428D02*
X12117095Y-14832476D01*
X12117095Y-14832476D02*
X12107572Y-14842000D01*
X12107572Y-14842000D02*
X12088524Y-14851524D01*
X12088524Y-14851524D02*
X12069476Y-14851524D01*
X12069476Y-14851524D02*
X12050429Y-14842000D01*
X12050429Y-14842000D02*
X12040905Y-14832476D01*
X12040905Y-14832476D02*
X12031381Y-14813428D01*
X12031381Y-14813428D02*
X12021857Y-14775333D01*
X12021857Y-14775333D02*
X12021857Y-14727714D01*
X12021857Y-14727714D02*
X12031381Y-14689619D01*
X12031381Y-14689619D02*
X12040905Y-14670571D01*
X12040905Y-14670571D02*
X12050429Y-14661048D01*
X12050429Y-14661048D02*
X12069476Y-14651524D01*
X12221857Y-14832476D02*
X12231381Y-14842000D01*
X12231381Y-14842000D02*
X12221857Y-14851524D01*
X12221857Y-14851524D02*
X12212333Y-14842000D01*
X12212333Y-14842000D02*
X12221857Y-14832476D01*
X12221857Y-14832476D02*
X12221857Y-14851524D01*
X12355191Y-14651524D02*
X12374238Y-14651524D01*
X12374238Y-14651524D02*
X12393286Y-14661048D01*
X12393286Y-14661048D02*
X12402810Y-14670571D01*
X12402810Y-14670571D02*
X12412333Y-14689619D01*
X12412333Y-14689619D02*
X12421857Y-14727714D01*
X12421857Y-14727714D02*
X12421857Y-14775333D01*
X12421857Y-14775333D02*
X12412333Y-14813428D01*
X12412333Y-14813428D02*
X12402810Y-14832476D01*
X12402810Y-14832476D02*
X12393286Y-14842000D01*
X12393286Y-14842000D02*
X12374238Y-14851524D01*
X12374238Y-14851524D02*
X12355191Y-14851524D01*
X12355191Y-14851524D02*
X12336143Y-14842000D01*
X12336143Y-14842000D02*
X12326619Y-14832476D01*
X12326619Y-14832476D02*
X12317095Y-14813428D01*
X12317095Y-14813428D02*
X12307572Y-14775333D01*
X12307572Y-14775333D02*
X12307572Y-14727714D01*
X12307572Y-14727714D02*
X12317095Y-14689619D01*
X12317095Y-14689619D02*
X12326619Y-14670571D01*
X12326619Y-14670571D02*
X12336143Y-14661048D01*
X12336143Y-14661048D02*
X12355191Y-14651524D01*
X12488524Y-14651524D02*
X12612333Y-14651524D01*
X12612333Y-14651524D02*
X12545667Y-14727714D01*
X12545667Y-14727714D02*
X12574238Y-14727714D01*
X12574238Y-14727714D02*
X12593286Y-14737238D01*
X12593286Y-14737238D02*
X12602810Y-14746762D01*
X12602810Y-14746762D02*
X12612333Y-14765809D01*
X12612333Y-14765809D02*
X12612333Y-14813428D01*
X12612333Y-14813428D02*
X12602810Y-14832476D01*
X12602810Y-14832476D02*
X12593286Y-14842000D01*
X12593286Y-14842000D02*
X12574238Y-14851524D01*
X12574238Y-14851524D02*
X12517095Y-14851524D01*
X12517095Y-14851524D02*
X12498048Y-14842000D01*
X12498048Y-14842000D02*
X12488524Y-14832476D01*
X12793286Y-14651524D02*
X12698048Y-14651524D01*
X12698048Y-14651524D02*
X12688524Y-14746762D01*
X12688524Y-14746762D02*
X12698048Y-14737238D01*
X12698048Y-14737238D02*
X12717095Y-14727714D01*
X12717095Y-14727714D02*
X12764714Y-14727714D01*
X12764714Y-14727714D02*
X12783762Y-14737238D01*
X12783762Y-14737238D02*
X12793286Y-14746762D01*
X12793286Y-14746762D02*
X12802810Y-14765809D01*
X12802810Y-14765809D02*
X12802810Y-14813428D01*
X12802810Y-14813428D02*
X12793286Y-14832476D01*
X12793286Y-14832476D02*
X12783762Y-14842000D01*
X12783762Y-14842000D02*
X12764714Y-14851524D01*
X12764714Y-14851524D02*
X12717095Y-14851524D01*
X12717095Y-14851524D02*
X12698048Y-14842000D01*
X12698048Y-14842000D02*
X12688524Y-14832476D01*
X12974238Y-14718190D02*
X12974238Y-14851524D01*
X12926619Y-14642000D02*
X12879000Y-14784857D01*
X12879000Y-14784857D02*
X13002810Y-14784857D01*
X13069476Y-14651524D02*
X13069476Y-14689619D01*
X13145667Y-14651524D02*
X13145667Y-14689619D01*
X13440905Y-14927714D02*
X13431381Y-14918190D01*
X13431381Y-14918190D02*
X13412334Y-14889619D01*
X13412334Y-14889619D02*
X13402810Y-14870571D01*
X13402810Y-14870571D02*
X13393286Y-14842000D01*
X13393286Y-14842000D02*
X13383762Y-14794381D01*
X13383762Y-14794381D02*
X13383762Y-14756286D01*
X13383762Y-14756286D02*
X13393286Y-14708667D01*
X13393286Y-14708667D02*
X13402810Y-14680095D01*
X13402810Y-14680095D02*
X13412334Y-14661048D01*
X13412334Y-14661048D02*
X13431381Y-14632476D01*
X13431381Y-14632476D02*
X13440905Y-14622952D01*
X13507572Y-14670571D02*
X13517095Y-14661048D01*
X13517095Y-14661048D02*
X13536143Y-14651524D01*
X13536143Y-14651524D02*
X13583762Y-14651524D01*
X13583762Y-14651524D02*
X13602810Y-14661048D01*
X13602810Y-14661048D02*
X13612334Y-14670571D01*
X13612334Y-14670571D02*
X13621857Y-14689619D01*
X13621857Y-14689619D02*
X13621857Y-14708667D01*
X13621857Y-14708667D02*
X13612334Y-14737238D01*
X13612334Y-14737238D02*
X13498048Y-14851524D01*
X13498048Y-14851524D02*
X13621857Y-14851524D01*
X13859953Y-14851524D02*
X13859953Y-14651524D01*
X13945667Y-14851524D02*
X13945667Y-14746762D01*
X13945667Y-14746762D02*
X13936143Y-14727714D01*
X13936143Y-14727714D02*
X13917096Y-14718190D01*
X13917096Y-14718190D02*
X13888524Y-14718190D01*
X13888524Y-14718190D02*
X13869476Y-14727714D01*
X13869476Y-14727714D02*
X13859953Y-14737238D01*
X14069476Y-14851524D02*
X14050429Y-14842000D01*
X14050429Y-14842000D02*
X14040905Y-14832476D01*
X14040905Y-14832476D02*
X14031381Y-14813428D01*
X14031381Y-14813428D02*
X14031381Y-14756286D01*
X14031381Y-14756286D02*
X14040905Y-14737238D01*
X14040905Y-14737238D02*
X14050429Y-14727714D01*
X14050429Y-14727714D02*
X14069476Y-14718190D01*
X14069476Y-14718190D02*
X14098048Y-14718190D01*
X14098048Y-14718190D02*
X14117096Y-14727714D01*
X14117096Y-14727714D02*
X14126619Y-14737238D01*
X14126619Y-14737238D02*
X14136143Y-14756286D01*
X14136143Y-14756286D02*
X14136143Y-14813428D01*
X14136143Y-14813428D02*
X14126619Y-14832476D01*
X14126619Y-14832476D02*
X14117096Y-14842000D01*
X14117096Y-14842000D02*
X14098048Y-14851524D01*
X14098048Y-14851524D02*
X14069476Y-14851524D01*
X14250429Y-14851524D02*
X14231381Y-14842000D01*
X14231381Y-14842000D02*
X14221857Y-14822952D01*
X14221857Y-14822952D02*
X14221857Y-14651524D01*
X14402810Y-14842000D02*
X14383762Y-14851524D01*
X14383762Y-14851524D02*
X14345667Y-14851524D01*
X14345667Y-14851524D02*
X14326619Y-14842000D01*
X14326619Y-14842000D02*
X14317096Y-14822952D01*
X14317096Y-14822952D02*
X14317096Y-14746762D01*
X14317096Y-14746762D02*
X14326619Y-14727714D01*
X14326619Y-14727714D02*
X14345667Y-14718190D01*
X14345667Y-14718190D02*
X14383762Y-14718190D01*
X14383762Y-14718190D02*
X14402810Y-14727714D01*
X14402810Y-14727714D02*
X14412334Y-14746762D01*
X14412334Y-14746762D02*
X14412334Y-14765809D01*
X14412334Y-14765809D02*
X14317096Y-14784857D01*
X14488524Y-14842000D02*
X14507572Y-14851524D01*
X14507572Y-14851524D02*
X14545667Y-14851524D01*
X14545667Y-14851524D02*
X14564715Y-14842000D01*
X14564715Y-14842000D02*
X14574238Y-14822952D01*
X14574238Y-14822952D02*
X14574238Y-14813428D01*
X14574238Y-14813428D02*
X14564715Y-14794381D01*
X14564715Y-14794381D02*
X14545667Y-14784857D01*
X14545667Y-14784857D02*
X14517096Y-14784857D01*
X14517096Y-14784857D02*
X14498048Y-14775333D01*
X14498048Y-14775333D02*
X14488524Y-14756286D01*
X14488524Y-14756286D02*
X14488524Y-14746762D01*
X14488524Y-14746762D02*
X14498048Y-14727714D01*
X14498048Y-14727714D02*
X14517096Y-14718190D01*
X14517096Y-14718190D02*
X14545667Y-14718190D01*
X14545667Y-14718190D02*
X14564715Y-14727714D01*
X14640905Y-14927714D02*
X14650429Y-14918190D01*
X14650429Y-14918190D02*
X14669477Y-14889619D01*
X14669477Y-14889619D02*
X14679000Y-14870571D01*
X14679000Y-14870571D02*
X14688524Y-14842000D01*
X14688524Y-14842000D02*
X14698048Y-14794381D01*
X14698048Y-14794381D02*
X14698048Y-14756286D01*
X14698048Y-14756286D02*
X14688524Y-14708667D01*
X14688524Y-14708667D02*
X14679000Y-14680095D01*
X14679000Y-14680095D02*
X14669477Y-14661048D01*
X14669477Y-14661048D02*
X14650429Y-14632476D01*
X14650429Y-14632476D02*
X14640905Y-14622952D01*
D10*
X9864356Y-15058356D02*
X9864356Y-14987644D01*
X9793644Y-14987644D01*
X9793644Y-15058356D01*
X9864356Y-15058356D01*
D11*
X10231381Y-15115524D02*
X10117095Y-15115524D01*
X10174238Y-15115524D02*
X10174238Y-14915524D01*
X10174238Y-14915524D02*
X10155190Y-14944095D01*
X10155190Y-14944095D02*
X10136143Y-14963143D01*
X10136143Y-14963143D02*
X10117095Y-14972667D01*
X10317095Y-15096476D02*
X10326619Y-15106000D01*
X10326619Y-15106000D02*
X10317095Y-15115524D01*
X10317095Y-15115524D02*
X10307571Y-15106000D01*
X10307571Y-15106000D02*
X10317095Y-15096476D01*
X10317095Y-15096476D02*
X10317095Y-15115524D01*
X10450429Y-14915524D02*
X10469476Y-14915524D01*
X10469476Y-14915524D02*
X10488524Y-14925048D01*
X10488524Y-14925048D02*
X10498048Y-14934571D01*
X10498048Y-14934571D02*
X10507571Y-14953619D01*
X10507571Y-14953619D02*
X10517095Y-14991714D01*
X10517095Y-14991714D02*
X10517095Y-15039333D01*
X10517095Y-15039333D02*
X10507571Y-15077428D01*
X10507571Y-15077428D02*
X10498048Y-15096476D01*
X10498048Y-15096476D02*
X10488524Y-15106000D01*
X10488524Y-15106000D02*
X10469476Y-15115524D01*
X10469476Y-15115524D02*
X10450429Y-15115524D01*
X10450429Y-15115524D02*
X10431381Y-15106000D01*
X10431381Y-15106000D02*
X10421857Y-15096476D01*
X10421857Y-15096476D02*
X10412333Y-15077428D01*
X10412333Y-15077428D02*
X10402810Y-15039333D01*
X10402810Y-15039333D02*
X10402810Y-14991714D01*
X10402810Y-14991714D02*
X10412333Y-14953619D01*
X10412333Y-14953619D02*
X10421857Y-14934571D01*
X10421857Y-14934571D02*
X10431381Y-14925048D01*
X10431381Y-14925048D02*
X10450429Y-14915524D01*
X10640905Y-14915524D02*
X10659952Y-14915524D01*
X10659952Y-14915524D02*
X10679000Y-14925048D01*
X10679000Y-14925048D02*
X10688524Y-14934571D01*
X10688524Y-14934571D02*
X10698048Y-14953619D01*
X10698048Y-14953619D02*
X10707571Y-14991714D01*
X10707571Y-14991714D02*
X10707571Y-15039333D01*
X10707571Y-15039333D02*
X10698048Y-15077428D01*
X10698048Y-15077428D02*
X10688524Y-15096476D01*
X10688524Y-15096476D02*
X10679000Y-15106000D01*
X10679000Y-15106000D02*
X10659952Y-15115524D01*
X10659952Y-15115524D02*
X10640905Y-15115524D01*
X10640905Y-15115524D02*
X10621857Y-15106000D01*
X10621857Y-15106000D02*
X10612333Y-15096476D01*
X10612333Y-15096476D02*
X10602810Y-15077428D01*
X10602810Y-15077428D02*
X10593286Y-15039333D01*
X10593286Y-15039333D02*
X10593286Y-14991714D01*
X10593286Y-14991714D02*
X10602810Y-14953619D01*
X10602810Y-14953619D02*
X10612333Y-14934571D01*
X10612333Y-14934571D02*
X10621857Y-14925048D01*
X10621857Y-14925048D02*
X10640905Y-14915524D01*
X10831381Y-14915524D02*
X10850429Y-14915524D01*
X10850429Y-14915524D02*
X10869476Y-14925048D01*
X10869476Y-14925048D02*
X10879000Y-14934571D01*
X10879000Y-14934571D02*
X10888524Y-14953619D01*
X10888524Y-14953619D02*
X10898048Y-14991714D01*
X10898048Y-14991714D02*
X10898048Y-15039333D01*
X10898048Y-15039333D02*
X10888524Y-15077428D01*
X10888524Y-15077428D02*
X10879000Y-15096476D01*
X10879000Y-15096476D02*
X10869476Y-15106000D01*
X10869476Y-15106000D02*
X10850429Y-15115524D01*
X10850429Y-15115524D02*
X10831381Y-15115524D01*
X10831381Y-15115524D02*
X10812333Y-15106000D01*
X10812333Y-15106000D02*
X10802810Y-15096476D01*
X10802810Y-15096476D02*
X10793286Y-15077428D01*
X10793286Y-15077428D02*
X10783762Y-15039333D01*
X10783762Y-15039333D02*
X10783762Y-14991714D01*
X10783762Y-14991714D02*
X10793286Y-14953619D01*
X10793286Y-14953619D02*
X10802810Y-14934571D01*
X10802810Y-14934571D02*
X10812333Y-14925048D01*
X10812333Y-14925048D02*
X10831381Y-14915524D01*
X10983762Y-15115524D02*
X10983762Y-14982190D01*
X10983762Y-15001238D02*
X10993286Y-14991714D01*
X10993286Y-14991714D02*
X11012333Y-14982190D01*
X11012333Y-14982190D02*
X11040905Y-14982190D01*
X11040905Y-14982190D02*
X11059952Y-14991714D01*
X11059952Y-14991714D02*
X11069476Y-15010762D01*
X11069476Y-15010762D02*
X11069476Y-15115524D01*
X11069476Y-15010762D02*
X11079000Y-14991714D01*
X11079000Y-14991714D02*
X11098048Y-14982190D01*
X11098048Y-14982190D02*
X11126619Y-14982190D01*
X11126619Y-14982190D02*
X11145667Y-14991714D01*
X11145667Y-14991714D02*
X11155191Y-15010762D01*
X11155191Y-15010762D02*
X11155191Y-15115524D01*
X11250429Y-15115524D02*
X11250429Y-14982190D01*
X11250429Y-15001238D02*
X11259952Y-14991714D01*
X11259952Y-14991714D02*
X11279000Y-14982190D01*
X11279000Y-14982190D02*
X11307571Y-14982190D01*
X11307571Y-14982190D02*
X11326619Y-14991714D01*
X11326619Y-14991714D02*
X11336143Y-15010762D01*
X11336143Y-15010762D02*
X11336143Y-15115524D01*
X11336143Y-15010762D02*
X11345667Y-14991714D01*
X11345667Y-14991714D02*
X11364714Y-14982190D01*
X11364714Y-14982190D02*
X11393286Y-14982190D01*
X11393286Y-14982190D02*
X11412333Y-14991714D01*
X11412333Y-14991714D02*
X11421857Y-15010762D01*
X11421857Y-15010762D02*
X11421857Y-15115524D01*
X11812333Y-14906000D02*
X11640905Y-15163143D01*
X12069476Y-14915524D02*
X12088524Y-14915524D01*
X12088524Y-14915524D02*
X12107572Y-14925048D01*
X12107572Y-14925048D02*
X12117095Y-14934571D01*
X12117095Y-14934571D02*
X12126619Y-14953619D01*
X12126619Y-14953619D02*
X12136143Y-14991714D01*
X12136143Y-14991714D02*
X12136143Y-15039333D01*
X12136143Y-15039333D02*
X12126619Y-15077428D01*
X12126619Y-15077428D02*
X12117095Y-15096476D01*
X12117095Y-15096476D02*
X12107572Y-15106000D01*
X12107572Y-15106000D02*
X12088524Y-15115524D01*
X12088524Y-15115524D02*
X12069476Y-15115524D01*
X12069476Y-15115524D02*
X12050429Y-15106000D01*
X12050429Y-15106000D02*
X12040905Y-15096476D01*
X12040905Y-15096476D02*
X12031381Y-15077428D01*
X12031381Y-15077428D02*
X12021857Y-15039333D01*
X12021857Y-15039333D02*
X12021857Y-14991714D01*
X12021857Y-14991714D02*
X12031381Y-14953619D01*
X12031381Y-14953619D02*
X12040905Y-14934571D01*
X12040905Y-14934571D02*
X12050429Y-14925048D01*
X12050429Y-14925048D02*
X12069476Y-14915524D01*
X12221857Y-15096476D02*
X12231381Y-15106000D01*
X12231381Y-15106000D02*
X12221857Y-15115524D01*
X12221857Y-15115524D02*
X12212333Y-15106000D01*
X12212333Y-15106000D02*
X12221857Y-15096476D01*
X12221857Y-15096476D02*
X12221857Y-15115524D01*
X12355191Y-14915524D02*
X12374238Y-14915524D01*
X12374238Y-14915524D02*
X12393286Y-14925048D01*
X12393286Y-14925048D02*
X12402810Y-14934571D01*
X12402810Y-14934571D02*
X12412333Y-14953619D01*
X12412333Y-14953619D02*
X12421857Y-14991714D01*
X12421857Y-14991714D02*
X12421857Y-15039333D01*
X12421857Y-15039333D02*
X12412333Y-15077428D01*
X12412333Y-15077428D02*
X12402810Y-15096476D01*
X12402810Y-15096476D02*
X12393286Y-15106000D01*
X12393286Y-15106000D02*
X12374238Y-15115524D01*
X12374238Y-15115524D02*
X12355191Y-15115524D01*
X12355191Y-15115524D02*
X12336143Y-15106000D01*
X12336143Y-15106000D02*
X12326619Y-15096476D01*
X12326619Y-15096476D02*
X12317095Y-15077428D01*
X12317095Y-15077428D02*
X12307572Y-15039333D01*
X12307572Y-15039333D02*
X12307572Y-14991714D01*
X12307572Y-14991714D02*
X12317095Y-14953619D01*
X12317095Y-14953619D02*
X12326619Y-14934571D01*
X12326619Y-14934571D02*
X12336143Y-14925048D01*
X12336143Y-14925048D02*
X12355191Y-14915524D01*
X12488524Y-14915524D02*
X12612333Y-14915524D01*
X12612333Y-14915524D02*
X12545667Y-14991714D01*
X12545667Y-14991714D02*
X12574238Y-14991714D01*
X12574238Y-14991714D02*
X12593286Y-15001238D01*
X12593286Y-15001238D02*
X12602810Y-15010762D01*
X12602810Y-15010762D02*
X12612333Y-15029809D01*
X12612333Y-15029809D02*
X12612333Y-15077428D01*
X12612333Y-15077428D02*
X12602810Y-15096476D01*
X12602810Y-15096476D02*
X12593286Y-15106000D01*
X12593286Y-15106000D02*
X12574238Y-15115524D01*
X12574238Y-15115524D02*
X12517095Y-15115524D01*
X12517095Y-15115524D02*
X12498048Y-15106000D01*
X12498048Y-15106000D02*
X12488524Y-15096476D01*
X12707572Y-15115524D02*
X12745667Y-15115524D01*
X12745667Y-15115524D02*
X12764714Y-15106000D01*
X12764714Y-15106000D02*
X12774238Y-15096476D01*
X12774238Y-15096476D02*
X12793286Y-15067905D01*
X12793286Y-15067905D02*
X12802810Y-15029809D01*
X12802810Y-15029809D02*
X12802810Y-14953619D01*
X12802810Y-14953619D02*
X12793286Y-14934571D01*
X12793286Y-14934571D02*
X12783762Y-14925048D01*
X12783762Y-14925048D02*
X12764714Y-14915524D01*
X12764714Y-14915524D02*
X12726619Y-14915524D01*
X12726619Y-14915524D02*
X12707572Y-14925048D01*
X12707572Y-14925048D02*
X12698048Y-14934571D01*
X12698048Y-14934571D02*
X12688524Y-14953619D01*
X12688524Y-14953619D02*
X12688524Y-15001238D01*
X12688524Y-15001238D02*
X12698048Y-15020286D01*
X12698048Y-15020286D02*
X12707572Y-15029809D01*
X12707572Y-15029809D02*
X12726619Y-15039333D01*
X12726619Y-15039333D02*
X12764714Y-15039333D01*
X12764714Y-15039333D02*
X12783762Y-15029809D01*
X12783762Y-15029809D02*
X12793286Y-15020286D01*
X12793286Y-15020286D02*
X12802810Y-15001238D01*
X12974238Y-14982190D02*
X12974238Y-15115524D01*
X12926619Y-14906000D02*
X12879000Y-15048857D01*
X12879000Y-15048857D02*
X13002810Y-15048857D01*
X13069476Y-14915524D02*
X13069476Y-14953619D01*
X13145667Y-14915524D02*
X13145667Y-14953619D01*
X13440905Y-15191714D02*
X13431381Y-15182190D01*
X13431381Y-15182190D02*
X13412334Y-15153619D01*
X13412334Y-15153619D02*
X13402810Y-15134571D01*
X13402810Y-15134571D02*
X13393286Y-15106000D01*
X13393286Y-15106000D02*
X13383762Y-15058381D01*
X13383762Y-15058381D02*
X13383762Y-15020286D01*
X13383762Y-15020286D02*
X13393286Y-14972667D01*
X13393286Y-14972667D02*
X13402810Y-14944095D01*
X13402810Y-14944095D02*
X13412334Y-14925048D01*
X13412334Y-14925048D02*
X13431381Y-14896476D01*
X13431381Y-14896476D02*
X13440905Y-14886952D01*
X13621857Y-15115524D02*
X13507572Y-15115524D01*
X13564714Y-15115524D02*
X13564714Y-14915524D01*
X13564714Y-14915524D02*
X13545667Y-14944095D01*
X13545667Y-14944095D02*
X13526619Y-14963143D01*
X13526619Y-14963143D02*
X13507572Y-14972667D01*
X13717095Y-15115524D02*
X13755191Y-15115524D01*
X13755191Y-15115524D02*
X13774238Y-15106000D01*
X13774238Y-15106000D02*
X13783762Y-15096476D01*
X13783762Y-15096476D02*
X13802810Y-15067905D01*
X13802810Y-15067905D02*
X13812334Y-15029809D01*
X13812334Y-15029809D02*
X13812334Y-14953619D01*
X13812334Y-14953619D02*
X13802810Y-14934571D01*
X13802810Y-14934571D02*
X13793286Y-14925048D01*
X13793286Y-14925048D02*
X13774238Y-14915524D01*
X13774238Y-14915524D02*
X13736143Y-14915524D01*
X13736143Y-14915524D02*
X13717095Y-14925048D01*
X13717095Y-14925048D02*
X13707572Y-14934571D01*
X13707572Y-14934571D02*
X13698048Y-14953619D01*
X13698048Y-14953619D02*
X13698048Y-15001238D01*
X13698048Y-15001238D02*
X13707572Y-15020286D01*
X13707572Y-15020286D02*
X13717095Y-15029809D01*
X13717095Y-15029809D02*
X13736143Y-15039333D01*
X13736143Y-15039333D02*
X13774238Y-15039333D01*
X13774238Y-15039333D02*
X13793286Y-15029809D01*
X13793286Y-15029809D02*
X13802810Y-15020286D01*
X13802810Y-15020286D02*
X13812334Y-15001238D01*
X14050429Y-15115524D02*
X14050429Y-14915524D01*
X14136143Y-15115524D02*
X14136143Y-15010762D01*
X14136143Y-15010762D02*
X14126619Y-14991714D01*
X14126619Y-14991714D02*
X14107572Y-14982190D01*
X14107572Y-14982190D02*
X14079000Y-14982190D01*
X14079000Y-14982190D02*
X14059953Y-14991714D01*
X14059953Y-14991714D02*
X14050429Y-15001238D01*
X14259953Y-15115524D02*
X14240905Y-15106000D01*
X14240905Y-15106000D02*
X14231381Y-15096476D01*
X14231381Y-15096476D02*
X14221857Y-15077428D01*
X14221857Y-15077428D02*
X14221857Y-15020286D01*
X14221857Y-15020286D02*
X14231381Y-15001238D01*
X14231381Y-15001238D02*
X14240905Y-14991714D01*
X14240905Y-14991714D02*
X14259953Y-14982190D01*
X14259953Y-14982190D02*
X14288524Y-14982190D01*
X14288524Y-14982190D02*
X14307572Y-14991714D01*
X14307572Y-14991714D02*
X14317096Y-15001238D01*
X14317096Y-15001238D02*
X14326619Y-15020286D01*
X14326619Y-15020286D02*
X14326619Y-15077428D01*
X14326619Y-15077428D02*
X14317096Y-15096476D01*
X14317096Y-15096476D02*
X14307572Y-15106000D01*
X14307572Y-15106000D02*
X14288524Y-15115524D01*
X14288524Y-15115524D02*
X14259953Y-15115524D01*
X14440905Y-15115524D02*
X14421857Y-15106000D01*
X14421857Y-15106000D02*
X14412334Y-15086952D01*
X14412334Y-15086952D02*
X14412334Y-14915524D01*
X14593286Y-15106000D02*
X14574238Y-15115524D01*
X14574238Y-15115524D02*
X14536143Y-15115524D01*
X14536143Y-15115524D02*
X14517096Y-15106000D01*
X14517096Y-15106000D02*
X14507572Y-15086952D01*
X14507572Y-15086952D02*
X14507572Y-15010762D01*
X14507572Y-15010762D02*
X14517096Y-14991714D01*
X14517096Y-14991714D02*
X14536143Y-14982190D01*
X14536143Y-14982190D02*
X14574238Y-14982190D01*
X14574238Y-14982190D02*
X14593286Y-14991714D01*
X14593286Y-14991714D02*
X14602810Y-15010762D01*
X14602810Y-15010762D02*
X14602810Y-15029809D01*
X14602810Y-15029809D02*
X14507572Y-15048857D01*
X14679000Y-15106000D02*
X14698048Y-15115524D01*
X14698048Y-15115524D02*
X14736143Y-15115524D01*
X14736143Y-15115524D02*
X14755191Y-15106000D01*
X14755191Y-15106000D02*
X14764715Y-15086952D01*
X14764715Y-15086952D02*
X14764715Y-15077428D01*
X14764715Y-15077428D02*
X14755191Y-15058381D01*
X14755191Y-15058381D02*
X14736143Y-15048857D01*
X14736143Y-15048857D02*
X14707572Y-15048857D01*
X14707572Y-15048857D02*
X14688524Y-15039333D01*
X14688524Y-15039333D02*
X14679000Y-15020286D01*
X14679000Y-15020286D02*
X14679000Y-15010762D01*
X14679000Y-15010762D02*
X14688524Y-14991714D01*
X14688524Y-14991714D02*
X14707572Y-14982190D01*
X14707572Y-14982190D02*
X14736143Y-14982190D01*
X14736143Y-14982190D02*
X14755191Y-14991714D01*
X14831381Y-15191714D02*
X14840905Y-15182190D01*
X14840905Y-15182190D02*
X14859953Y-15153619D01*
X14859953Y-15153619D02*
X14869477Y-15134571D01*
X14869477Y-15134571D02*
X14879000Y-15106000D01*
X14879000Y-15106000D02*
X14888524Y-15058381D01*
X14888524Y-15058381D02*
X14888524Y-15020286D01*
X14888524Y-15020286D02*
X14879000Y-14972667D01*
X14879000Y-14972667D02*
X14869477Y-14944095D01*
X14869477Y-14944095D02*
X14859953Y-14925048D01*
X14859953Y-14925048D02*
X14840905Y-14896476D01*
X14840905Y-14896476D02*
X14831381Y-14886952D01*
X9779000Y-15387000D02*
X9879000Y-15287000D01*
X9779000Y-15187000D01*
X9679000Y-15287000D01*
X9779000Y-15387000D01*
X10117095Y-15198571D02*
X10126619Y-15189048D01*
X10126619Y-15189048D02*
X10145667Y-15179524D01*
X10145667Y-15179524D02*
X10193286Y-15179524D01*
X10193286Y-15179524D02*
X10212333Y-15189048D01*
X10212333Y-15189048D02*
X10221857Y-15198571D01*
X10221857Y-15198571D02*
X10231381Y-15217619D01*
X10231381Y-15217619D02*
X10231381Y-15236667D01*
X10231381Y-15236667D02*
X10221857Y-15265238D01*
X10221857Y-15265238D02*
X10107571Y-15379524D01*
X10107571Y-15379524D02*
X10231381Y-15379524D01*
X10317095Y-15360476D02*
X10326619Y-15370000D01*
X10326619Y-15370000D02*
X10317095Y-15379524D01*
X10317095Y-15379524D02*
X10307571Y-15370000D01*
X10307571Y-15370000D02*
X10317095Y-15360476D01*
X10317095Y-15360476D02*
X10317095Y-15379524D01*
X10402810Y-15198571D02*
X10412333Y-15189048D01*
X10412333Y-15189048D02*
X10431381Y-15179524D01*
X10431381Y-15179524D02*
X10479000Y-15179524D01*
X10479000Y-15179524D02*
X10498048Y-15189048D01*
X10498048Y-15189048D02*
X10507571Y-15198571D01*
X10507571Y-15198571D02*
X10517095Y-15217619D01*
X10517095Y-15217619D02*
X10517095Y-15236667D01*
X10517095Y-15236667D02*
X10507571Y-15265238D01*
X10507571Y-15265238D02*
X10393286Y-15379524D01*
X10393286Y-15379524D02*
X10517095Y-15379524D01*
X10640905Y-15179524D02*
X10659952Y-15179524D01*
X10659952Y-15179524D02*
X10679000Y-15189048D01*
X10679000Y-15189048D02*
X10688524Y-15198571D01*
X10688524Y-15198571D02*
X10698048Y-15217619D01*
X10698048Y-15217619D02*
X10707571Y-15255714D01*
X10707571Y-15255714D02*
X10707571Y-15303333D01*
X10707571Y-15303333D02*
X10698048Y-15341428D01*
X10698048Y-15341428D02*
X10688524Y-15360476D01*
X10688524Y-15360476D02*
X10679000Y-15370000D01*
X10679000Y-15370000D02*
X10659952Y-15379524D01*
X10659952Y-15379524D02*
X10640905Y-15379524D01*
X10640905Y-15379524D02*
X10621857Y-15370000D01*
X10621857Y-15370000D02*
X10612333Y-15360476D01*
X10612333Y-15360476D02*
X10602810Y-15341428D01*
X10602810Y-15341428D02*
X10593286Y-15303333D01*
X10593286Y-15303333D02*
X10593286Y-15255714D01*
X10593286Y-15255714D02*
X10602810Y-15217619D01*
X10602810Y-15217619D02*
X10612333Y-15198571D01*
X10612333Y-15198571D02*
X10621857Y-15189048D01*
X10621857Y-15189048D02*
X10640905Y-15179524D01*
X10831381Y-15179524D02*
X10850429Y-15179524D01*
X10850429Y-15179524D02*
X10869476Y-15189048D01*
X10869476Y-15189048D02*
X10879000Y-15198571D01*
X10879000Y-15198571D02*
X10888524Y-15217619D01*
X10888524Y-15217619D02*
X10898048Y-15255714D01*
X10898048Y-15255714D02*
X10898048Y-15303333D01*
X10898048Y-15303333D02*
X10888524Y-15341428D01*
X10888524Y-15341428D02*
X10879000Y-15360476D01*
X10879000Y-15360476D02*
X10869476Y-15370000D01*
X10869476Y-15370000D02*
X10850429Y-15379524D01*
X10850429Y-15379524D02*
X10831381Y-15379524D01*
X10831381Y-15379524D02*
X10812333Y-15370000D01*
X10812333Y-15370000D02*
X10802810Y-15360476D01*
X10802810Y-15360476D02*
X10793286Y-15341428D01*
X10793286Y-15341428D02*
X10783762Y-15303333D01*
X10783762Y-15303333D02*
X10783762Y-15255714D01*
X10783762Y-15255714D02*
X10793286Y-15217619D01*
X10793286Y-15217619D02*
X10802810Y-15198571D01*
X10802810Y-15198571D02*
X10812333Y-15189048D01*
X10812333Y-15189048D02*
X10831381Y-15179524D01*
X10983762Y-15379524D02*
X10983762Y-15246190D01*
X10983762Y-15265238D02*
X10993286Y-15255714D01*
X10993286Y-15255714D02*
X11012333Y-15246190D01*
X11012333Y-15246190D02*
X11040905Y-15246190D01*
X11040905Y-15246190D02*
X11059952Y-15255714D01*
X11059952Y-15255714D02*
X11069476Y-15274762D01*
X11069476Y-15274762D02*
X11069476Y-15379524D01*
X11069476Y-15274762D02*
X11079000Y-15255714D01*
X11079000Y-15255714D02*
X11098048Y-15246190D01*
X11098048Y-15246190D02*
X11126619Y-15246190D01*
X11126619Y-15246190D02*
X11145667Y-15255714D01*
X11145667Y-15255714D02*
X11155191Y-15274762D01*
X11155191Y-15274762D02*
X11155191Y-15379524D01*
X11250429Y-15379524D02*
X11250429Y-15246190D01*
X11250429Y-15265238D02*
X11259952Y-15255714D01*
X11259952Y-15255714D02*
X11279000Y-15246190D01*
X11279000Y-15246190D02*
X11307571Y-15246190D01*
X11307571Y-15246190D02*
X11326619Y-15255714D01*
X11326619Y-15255714D02*
X11336143Y-15274762D01*
X11336143Y-15274762D02*
X11336143Y-15379524D01*
X11336143Y-15274762D02*
X11345667Y-15255714D01*
X11345667Y-15255714D02*
X11364714Y-15246190D01*
X11364714Y-15246190D02*
X11393286Y-15246190D01*
X11393286Y-15246190D02*
X11412333Y-15255714D01*
X11412333Y-15255714D02*
X11421857Y-15274762D01*
X11421857Y-15274762D02*
X11421857Y-15379524D01*
X11812333Y-15170000D02*
X11640905Y-15427143D01*
X12069476Y-15179524D02*
X12088524Y-15179524D01*
X12088524Y-15179524D02*
X12107572Y-15189048D01*
X12107572Y-15189048D02*
X12117095Y-15198571D01*
X12117095Y-15198571D02*
X12126619Y-15217619D01*
X12126619Y-15217619D02*
X12136143Y-15255714D01*
X12136143Y-15255714D02*
X12136143Y-15303333D01*
X12136143Y-15303333D02*
X12126619Y-15341428D01*
X12126619Y-15341428D02*
X12117095Y-15360476D01*
X12117095Y-15360476D02*
X12107572Y-15370000D01*
X12107572Y-15370000D02*
X12088524Y-15379524D01*
X12088524Y-15379524D02*
X12069476Y-15379524D01*
X12069476Y-15379524D02*
X12050429Y-15370000D01*
X12050429Y-15370000D02*
X12040905Y-15360476D01*
X12040905Y-15360476D02*
X12031381Y-15341428D01*
X12031381Y-15341428D02*
X12021857Y-15303333D01*
X12021857Y-15303333D02*
X12021857Y-15255714D01*
X12021857Y-15255714D02*
X12031381Y-15217619D01*
X12031381Y-15217619D02*
X12040905Y-15198571D01*
X12040905Y-15198571D02*
X12050429Y-15189048D01*
X12050429Y-15189048D02*
X12069476Y-15179524D01*
X12221857Y-15360476D02*
X12231381Y-15370000D01*
X12231381Y-15370000D02*
X12221857Y-15379524D01*
X12221857Y-15379524D02*
X12212333Y-15370000D01*
X12212333Y-15370000D02*
X12221857Y-15360476D01*
X12221857Y-15360476D02*
X12221857Y-15379524D01*
X12355191Y-15179524D02*
X12374238Y-15179524D01*
X12374238Y-15179524D02*
X12393286Y-15189048D01*
X12393286Y-15189048D02*
X12402810Y-15198571D01*
X12402810Y-15198571D02*
X12412333Y-15217619D01*
X12412333Y-15217619D02*
X12421857Y-15255714D01*
X12421857Y-15255714D02*
X12421857Y-15303333D01*
X12421857Y-15303333D02*
X12412333Y-15341428D01*
X12412333Y-15341428D02*
X12402810Y-15360476D01*
X12402810Y-15360476D02*
X12393286Y-15370000D01*
X12393286Y-15370000D02*
X12374238Y-15379524D01*
X12374238Y-15379524D02*
X12355191Y-15379524D01*
X12355191Y-15379524D02*
X12336143Y-15370000D01*
X12336143Y-15370000D02*
X12326619Y-15360476D01*
X12326619Y-15360476D02*
X12317095Y-15341428D01*
X12317095Y-15341428D02*
X12307572Y-15303333D01*
X12307572Y-15303333D02*
X12307572Y-15255714D01*
X12307572Y-15255714D02*
X12317095Y-15217619D01*
X12317095Y-15217619D02*
X12326619Y-15198571D01*
X12326619Y-15198571D02*
X12336143Y-15189048D01*
X12336143Y-15189048D02*
X12355191Y-15179524D01*
X12536143Y-15265238D02*
X12517095Y-15255714D01*
X12517095Y-15255714D02*
X12507572Y-15246190D01*
X12507572Y-15246190D02*
X12498048Y-15227143D01*
X12498048Y-15227143D02*
X12498048Y-15217619D01*
X12498048Y-15217619D02*
X12507572Y-15198571D01*
X12507572Y-15198571D02*
X12517095Y-15189048D01*
X12517095Y-15189048D02*
X12536143Y-15179524D01*
X12536143Y-15179524D02*
X12574238Y-15179524D01*
X12574238Y-15179524D02*
X12593286Y-15189048D01*
X12593286Y-15189048D02*
X12602810Y-15198571D01*
X12602810Y-15198571D02*
X12612333Y-15217619D01*
X12612333Y-15217619D02*
X12612333Y-15227143D01*
X12612333Y-15227143D02*
X12602810Y-15246190D01*
X12602810Y-15246190D02*
X12593286Y-15255714D01*
X12593286Y-15255714D02*
X12574238Y-15265238D01*
X12574238Y-15265238D02*
X12536143Y-15265238D01*
X12536143Y-15265238D02*
X12517095Y-15274762D01*
X12517095Y-15274762D02*
X12507572Y-15284286D01*
X12507572Y-15284286D02*
X12498048Y-15303333D01*
X12498048Y-15303333D02*
X12498048Y-15341428D01*
X12498048Y-15341428D02*
X12507572Y-15360476D01*
X12507572Y-15360476D02*
X12517095Y-15370000D01*
X12517095Y-15370000D02*
X12536143Y-15379524D01*
X12536143Y-15379524D02*
X12574238Y-15379524D01*
X12574238Y-15379524D02*
X12593286Y-15370000D01*
X12593286Y-15370000D02*
X12602810Y-15360476D01*
X12602810Y-15360476D02*
X12612333Y-15341428D01*
X12612333Y-15341428D02*
X12612333Y-15303333D01*
X12612333Y-15303333D02*
X12602810Y-15284286D01*
X12602810Y-15284286D02*
X12593286Y-15274762D01*
X12593286Y-15274762D02*
X12574238Y-15265238D01*
X12783762Y-15179524D02*
X12745667Y-15179524D01*
X12745667Y-15179524D02*
X12726619Y-15189048D01*
X12726619Y-15189048D02*
X12717095Y-15198571D01*
X12717095Y-15198571D02*
X12698048Y-15227143D01*
X12698048Y-15227143D02*
X12688524Y-15265238D01*
X12688524Y-15265238D02*
X12688524Y-15341428D01*
X12688524Y-15341428D02*
X12698048Y-15360476D01*
X12698048Y-15360476D02*
X12707572Y-15370000D01*
X12707572Y-15370000D02*
X12726619Y-15379524D01*
X12726619Y-15379524D02*
X12764714Y-15379524D01*
X12764714Y-15379524D02*
X12783762Y-15370000D01*
X12783762Y-15370000D02*
X12793286Y-15360476D01*
X12793286Y-15360476D02*
X12802810Y-15341428D01*
X12802810Y-15341428D02*
X12802810Y-15293809D01*
X12802810Y-15293809D02*
X12793286Y-15274762D01*
X12793286Y-15274762D02*
X12783762Y-15265238D01*
X12783762Y-15265238D02*
X12764714Y-15255714D01*
X12764714Y-15255714D02*
X12726619Y-15255714D01*
X12726619Y-15255714D02*
X12707572Y-15265238D01*
X12707572Y-15265238D02*
X12698048Y-15274762D01*
X12698048Y-15274762D02*
X12688524Y-15293809D01*
X12974238Y-15179524D02*
X12936143Y-15179524D01*
X12936143Y-15179524D02*
X12917095Y-15189048D01*
X12917095Y-15189048D02*
X12907572Y-15198571D01*
X12907572Y-15198571D02*
X12888524Y-15227143D01*
X12888524Y-15227143D02*
X12879000Y-15265238D01*
X12879000Y-15265238D02*
X12879000Y-15341428D01*
X12879000Y-15341428D02*
X12888524Y-15360476D01*
X12888524Y-15360476D02*
X12898048Y-15370000D01*
X12898048Y-15370000D02*
X12917095Y-15379524D01*
X12917095Y-15379524D02*
X12955191Y-15379524D01*
X12955191Y-15379524D02*
X12974238Y-15370000D01*
X12974238Y-15370000D02*
X12983762Y-15360476D01*
X12983762Y-15360476D02*
X12993286Y-15341428D01*
X12993286Y-15341428D02*
X12993286Y-15293809D01*
X12993286Y-15293809D02*
X12983762Y-15274762D01*
X12983762Y-15274762D02*
X12974238Y-15265238D01*
X12974238Y-15265238D02*
X12955191Y-15255714D01*
X12955191Y-15255714D02*
X12917095Y-15255714D01*
X12917095Y-15255714D02*
X12898048Y-15265238D01*
X12898048Y-15265238D02*
X12888524Y-15274762D01*
X12888524Y-15274762D02*
X12879000Y-15293809D01*
X13069476Y-15179524D02*
X13069476Y-15217619D01*
X13145667Y-15179524D02*
X13145667Y-15217619D01*
X13440905Y-15455714D02*
X13431381Y-15446190D01*
X13431381Y-15446190D02*
X13412334Y-15417619D01*
X13412334Y-15417619D02*
X13402810Y-15398571D01*
X13402810Y-15398571D02*
X13393286Y-15370000D01*
X13393286Y-15370000D02*
X13383762Y-15322381D01*
X13383762Y-15322381D02*
X13383762Y-15284286D01*
X13383762Y-15284286D02*
X13393286Y-15236667D01*
X13393286Y-15236667D02*
X13402810Y-15208095D01*
X13402810Y-15208095D02*
X13412334Y-15189048D01*
X13412334Y-15189048D02*
X13431381Y-15160476D01*
X13431381Y-15160476D02*
X13440905Y-15150952D01*
X13602810Y-15246190D02*
X13602810Y-15379524D01*
X13555191Y-15170000D02*
X13507572Y-15312857D01*
X13507572Y-15312857D02*
X13631381Y-15312857D01*
X13859953Y-15379524D02*
X13859953Y-15179524D01*
X13945667Y-15379524D02*
X13945667Y-15274762D01*
X13945667Y-15274762D02*
X13936143Y-15255714D01*
X13936143Y-15255714D02*
X13917096Y-15246190D01*
X13917096Y-15246190D02*
X13888524Y-15246190D01*
X13888524Y-15246190D02*
X13869476Y-15255714D01*
X13869476Y-15255714D02*
X13859953Y-15265238D01*
X14069476Y-15379524D02*
X14050429Y-15370000D01*
X14050429Y-15370000D02*
X14040905Y-15360476D01*
X14040905Y-15360476D02*
X14031381Y-15341428D01*
X14031381Y-15341428D02*
X14031381Y-15284286D01*
X14031381Y-15284286D02*
X14040905Y-15265238D01*
X14040905Y-15265238D02*
X14050429Y-15255714D01*
X14050429Y-15255714D02*
X14069476Y-15246190D01*
X14069476Y-15246190D02*
X14098048Y-15246190D01*
X14098048Y-15246190D02*
X14117096Y-15255714D01*
X14117096Y-15255714D02*
X14126619Y-15265238D01*
X14126619Y-15265238D02*
X14136143Y-15284286D01*
X14136143Y-15284286D02*
X14136143Y-15341428D01*
X14136143Y-15341428D02*
X14126619Y-15360476D01*
X14126619Y-15360476D02*
X14117096Y-15370000D01*
X14117096Y-15370000D02*
X14098048Y-15379524D01*
X14098048Y-15379524D02*
X14069476Y-15379524D01*
X14250429Y-15379524D02*
X14231381Y-15370000D01*
X14231381Y-15370000D02*
X14221857Y-15350952D01*
X14221857Y-15350952D02*
X14221857Y-15179524D01*
X14402810Y-15370000D02*
X14383762Y-15379524D01*
X14383762Y-15379524D02*
X14345667Y-15379524D01*
X14345667Y-15379524D02*
X14326619Y-15370000D01*
X14326619Y-15370000D02*
X14317096Y-15350952D01*
X14317096Y-15350952D02*
X14317096Y-15274762D01*
X14317096Y-15274762D02*
X14326619Y-15255714D01*
X14326619Y-15255714D02*
X14345667Y-15246190D01*
X14345667Y-15246190D02*
X14383762Y-15246190D01*
X14383762Y-15246190D02*
X14402810Y-15255714D01*
X14402810Y-15255714D02*
X14412334Y-15274762D01*
X14412334Y-15274762D02*
X14412334Y-15293809D01*
X14412334Y-15293809D02*
X14317096Y-15312857D01*
X14488524Y-15370000D02*
X14507572Y-15379524D01*
X14507572Y-15379524D02*
X14545667Y-15379524D01*
X14545667Y-15379524D02*
X14564715Y-15370000D01*
X14564715Y-15370000D02*
X14574238Y-15350952D01*
X14574238Y-15350952D02*
X14574238Y-15341428D01*
X14574238Y-15341428D02*
X14564715Y-15322381D01*
X14564715Y-15322381D02*
X14545667Y-15312857D01*
X14545667Y-15312857D02*
X14517096Y-15312857D01*
X14517096Y-15312857D02*
X14498048Y-15303333D01*
X14498048Y-15303333D02*
X14488524Y-15284286D01*
X14488524Y-15284286D02*
X14488524Y-15274762D01*
X14488524Y-15274762D02*
X14498048Y-15255714D01*
X14498048Y-15255714D02*
X14517096Y-15246190D01*
X14517096Y-15246190D02*
X14545667Y-15246190D01*
X14545667Y-15246190D02*
X14564715Y-15255714D01*
X14640905Y-15455714D02*
X14650429Y-15446190D01*
X14650429Y-15446190D02*
X14669477Y-15417619D01*
X14669477Y-15417619D02*
X14679000Y-15398571D01*
X14679000Y-15398571D02*
X14688524Y-15370000D01*
X14688524Y-15370000D02*
X14698048Y-15322381D01*
X14698048Y-15322381D02*
X14698048Y-15284286D01*
X14698048Y-15284286D02*
X14688524Y-15236667D01*
X14688524Y-15236667D02*
X14679000Y-15208095D01*
X14679000Y-15208095D02*
X14669477Y-15189048D01*
X14669477Y-15189048D02*
X14650429Y-15160476D01*
X14650429Y-15160476D02*
X14640905Y-15150952D01*
M02*
