%TF.GenerationSoftware,KiCad,Pcbnew,7.0.1*%
%TF.CreationDate,2023-04-04T13:23:45+02:00*%
%TF.ProjectId,weit_generator,77656974-5f67-4656-9e65-7261746f722e,rev?*%
%TF.SameCoordinates,Original*%
%TF.FileFunction,Soldermask,Top*%
%TF.FilePolarity,Negative*%
%FSLAX46Y46*%
G04 Gerber Fmt 4.6, Leading zero omitted, Abs format (unit mm)*
G04 Created by KiCad (PCBNEW 7.0.1) date 2023-04-04 13:23:45*
%MOMM*%
%LPD*%
G01*
G04 APERTURE LIST*
G04 Aperture macros list*
%AMRoundRect*
0 Rectangle with rounded corners*
0 $1 Rounding radius*
0 $2 $3 $4 $5 $6 $7 $8 $9 X,Y pos of 4 corners*
0 Add a 4 corners polygon primitive as box body*
4,1,4,$2,$3,$4,$5,$6,$7,$8,$9,$2,$3,0*
0 Add four circle primitives for the rounded corners*
1,1,$1+$1,$2,$3*
1,1,$1+$1,$4,$5*
1,1,$1+$1,$6,$7*
1,1,$1+$1,$8,$9*
0 Add four rect primitives between the rounded corners*
20,1,$1+$1,$2,$3,$4,$5,0*
20,1,$1+$1,$4,$5,$6,$7,0*
20,1,$1+$1,$6,$7,$8,$9,0*
20,1,$1+$1,$8,$9,$2,$3,0*%
G04 Aperture macros list end*
%ADD10RoundRect,0.250000X-0.337500X-0.475000X0.337500X-0.475000X0.337500X0.475000X-0.337500X0.475000X0*%
%ADD11RoundRect,0.250000X0.350000X0.450000X-0.350000X0.450000X-0.350000X-0.450000X0.350000X-0.450000X0*%
%ADD12RoundRect,0.250000X-0.475000X0.337500X-0.475000X-0.337500X0.475000X-0.337500X0.475000X0.337500X0*%
%ADD13R,1.600000X1.600000*%
%ADD14O,1.600000X1.600000*%
%ADD15R,1.700000X1.700000*%
%ADD16O,1.700000X1.700000*%
%ADD17R,1.800000X1.800000*%
%ADD18C,1.800000*%
%ADD19C,1.600000*%
%ADD20R,1.600000X2.400000*%
%ADD21O,1.600000X2.400000*%
%ADD22C,2.000000*%
%ADD23RoundRect,0.250000X0.337500X0.475000X-0.337500X0.475000X-0.337500X-0.475000X0.337500X-0.475000X0*%
%ADD24C,1.440000*%
%ADD25RoundRect,0.150000X-0.875000X-0.150000X0.875000X-0.150000X0.875000X0.150000X-0.875000X0.150000X0*%
%ADD26RoundRect,0.250000X-0.450000X0.350000X-0.450000X-0.350000X0.450000X-0.350000X0.450000X0.350000X0*%
%ADD27RoundRect,0.250000X0.450000X-0.350000X0.450000X0.350000X-0.450000X0.350000X-0.450000X-0.350000X0*%
%ADD28R,1.500000X1.600000*%
%ADD29R,1.560000X0.650000*%
%ADD30O,1.500000X1.050000*%
%ADD31R,1.500000X1.050000*%
G04 APERTURE END LIST*
D10*
%TO.C,C3*%
X164212500Y-81460000D03*
X166287500Y-81460000D03*
%TD*%
D11*
%TO.C,R4*%
X145155000Y-86380000D03*
X143155000Y-86380000D03*
%TD*%
%TO.C,R14*%
X140155000Y-80380000D03*
X138155000Y-80380000D03*
%TD*%
D12*
%TO.C,C2*%
X144300000Y-128862500D03*
X144300000Y-130937500D03*
%TD*%
D13*
%TO.C,D2*%
X158455685Y-128724315D03*
D14*
X160995685Y-128724315D03*
%TD*%
D15*
%TO.C,J3*%
X154500000Y-134800000D03*
D16*
X154500000Y-137340000D03*
%TD*%
D17*
%TO.C,D1*%
X163750000Y-93975000D03*
D18*
X163750000Y-96515000D03*
%TD*%
D11*
%TO.C,R7*%
X145155000Y-77380000D03*
X143155000Y-77380000D03*
%TD*%
%TO.C,R6*%
X145155000Y-80380000D03*
X143155000Y-80380000D03*
%TD*%
D19*
%TO.C,C8*%
X140700000Y-117250000D03*
X140700000Y-124750000D03*
%TD*%
D15*
%TO.C,J1*%
X165225000Y-86750000D03*
D16*
X167765000Y-86750000D03*
%TD*%
D11*
%TO.C,R20*%
X152900000Y-111900000D03*
X150900000Y-111900000D03*
%TD*%
D19*
%TO.C,C5*%
X148100000Y-108550000D03*
X143100000Y-108550000D03*
%TD*%
D20*
%TO.C,U1*%
X160775000Y-117550000D03*
D21*
X158235000Y-117550000D03*
X155695000Y-117550000D03*
X153155000Y-117550000D03*
X150615000Y-117550000D03*
X148075000Y-117550000D03*
X145535000Y-117550000D03*
X145535000Y-125170000D03*
X148075000Y-125170000D03*
X150615000Y-125170000D03*
X153155000Y-125170000D03*
X155695000Y-125170000D03*
X158235000Y-125170000D03*
X160775000Y-125170000D03*
%TD*%
D11*
%TO.C,R17*%
X140155000Y-71380000D03*
X138155000Y-71380000D03*
%TD*%
D22*
%TO.C,C11*%
X140100000Y-136400000D03*
X150100000Y-136400000D03*
%TD*%
D15*
%TO.C,J2*%
X153720000Y-89050000D03*
D16*
X156260000Y-89050000D03*
X158800000Y-89050000D03*
%TD*%
D11*
%TO.C,R15*%
X140155000Y-77380000D03*
X138155000Y-77380000D03*
%TD*%
D23*
%TO.C,C12*%
X160687500Y-114100000D03*
X158612500Y-114100000D03*
%TD*%
D10*
%TO.C,C13*%
X151900000Y-121350000D03*
X153975000Y-121350000D03*
%TD*%
D19*
%TO.C,R24*%
X160910000Y-131924315D03*
D14*
X158370000Y-131924315D03*
%TD*%
D24*
%TO.C,RV1*%
X163775000Y-109925000D03*
X161235000Y-109925000D03*
X158695000Y-109925000D03*
%TD*%
D11*
%TO.C,R12*%
X140155000Y-86380000D03*
X138155000Y-86380000D03*
%TD*%
%TO.C,R13*%
X140155000Y-83380000D03*
X138155000Y-83380000D03*
%TD*%
%TO.C,R11*%
X140155000Y-89380000D03*
X138155000Y-89380000D03*
%TD*%
D19*
%TO.C,C6*%
X148100000Y-103250000D03*
X143100000Y-103250000D03*
%TD*%
D11*
%TO.C,R3*%
X145155000Y-89380000D03*
X143155000Y-89380000D03*
%TD*%
%TO.C,R8*%
X145155000Y-74380000D03*
X143155000Y-74380000D03*
%TD*%
%TO.C,R5*%
X145155000Y-83380000D03*
X143155000Y-83380000D03*
%TD*%
%TO.C,R18*%
X140155000Y-68380000D03*
X138155000Y-68380000D03*
%TD*%
D14*
%TO.C,R25*%
X163800000Y-100060000D03*
D19*
X163800000Y-102600000D03*
%TD*%
D11*
%TO.C,R10*%
X145155000Y-68380000D03*
X143155000Y-68380000D03*
%TD*%
D19*
%TO.C,C9*%
X165840000Y-136390000D03*
X158340000Y-136390000D03*
%TD*%
%TO.C,C7*%
X153700000Y-129700000D03*
X148700000Y-129700000D03*
%TD*%
D25*
%TO.C,U2*%
X151155000Y-68340000D03*
X151155000Y-69610000D03*
X151155000Y-70880000D03*
X151155000Y-72150000D03*
X151155000Y-73420000D03*
X151155000Y-74690000D03*
X151155000Y-75960000D03*
X151155000Y-77230000D03*
X151155000Y-78500000D03*
X151155000Y-79770000D03*
X151155000Y-81040000D03*
X151155000Y-82310000D03*
X151155000Y-83580000D03*
X151155000Y-84850000D03*
X160455000Y-84850000D03*
X160455000Y-83580000D03*
X160455000Y-82310000D03*
X160455000Y-81040000D03*
X160455000Y-79770000D03*
X160455000Y-78500000D03*
X160455000Y-77230000D03*
X160455000Y-75960000D03*
X160455000Y-74690000D03*
X160455000Y-73420000D03*
X160455000Y-72150000D03*
X160455000Y-70880000D03*
X160455000Y-69610000D03*
X160455000Y-68340000D03*
%TD*%
D11*
%TO.C,R16*%
X140155000Y-74380000D03*
X138155000Y-74380000D03*
%TD*%
D26*
%TO.C,R22*%
X142500000Y-112400000D03*
X142500000Y-114400000D03*
%TD*%
D27*
%TO.C,R21*%
X145200000Y-114400000D03*
X145200000Y-112400000D03*
%TD*%
%TO.C,R23*%
X155250000Y-111750000D03*
X155250000Y-113750000D03*
%TD*%
D11*
%TO.C,R9*%
X145155000Y-71380000D03*
X143155000Y-71380000D03*
%TD*%
D15*
%TO.C,R2*%
X142750000Y-94000000D03*
D16*
X142750000Y-96540000D03*
%TD*%
D28*
%TO.C,X1*%
X166700000Y-78470000D03*
X166700000Y-75930000D03*
X164500000Y-75930000D03*
X164500000Y-78470000D03*
%TD*%
D10*
%TO.C,C1*%
X165212500Y-90000000D03*
X167287500Y-90000000D03*
%TD*%
%TO.C,C10*%
X161675000Y-105750000D03*
X163750000Y-105750000D03*
%TD*%
D29*
%TO.C,U4*%
X138400000Y-129000000D03*
X138400000Y-129950000D03*
X138400000Y-130900000D03*
X141100000Y-130900000D03*
X141100000Y-129000000D03*
%TD*%
D11*
%TO.C,R19*%
X152900000Y-114400000D03*
X150900000Y-114400000D03*
%TD*%
D19*
%TO.C,R1*%
X139600000Y-100660000D03*
D14*
X139600000Y-103200000D03*
%TD*%
D30*
%TO.C,U3*%
X155250000Y-103480000D03*
X155250000Y-104750000D03*
D31*
X155250000Y-106020000D03*
%TD*%
M02*
