%TF.GenerationSoftware,KiCad,Pcbnew,7.0.1*%
%TF.CreationDate,2023-04-15T09:26:22+02:00*%
%TF.ProjectId,weit_generator,77656974-5f67-4656-9e65-7261746f722e,rev?*%
%TF.SameCoordinates,Original*%
%TF.FileFunction,Paste,Top*%
%TF.FilePolarity,Positive*%
%FSLAX46Y46*%
G04 Gerber Fmt 4.6, Leading zero omitted, Abs format (unit mm)*
G04 Created by KiCad (PCBNEW 7.0.1) date 2023-04-15 09:26:22*
%MOMM*%
%LPD*%
G01*
G04 APERTURE LIST*
G04 Aperture macros list*
%AMRoundRect*
0 Rectangle with rounded corners*
0 $1 Rounding radius*
0 $2 $3 $4 $5 $6 $7 $8 $9 X,Y pos of 4 corners*
0 Add a 4 corners polygon primitive as box body*
4,1,4,$2,$3,$4,$5,$6,$7,$8,$9,$2,$3,0*
0 Add four circle primitives for the rounded corners*
1,1,$1+$1,$2,$3*
1,1,$1+$1,$4,$5*
1,1,$1+$1,$6,$7*
1,1,$1+$1,$8,$9*
0 Add four rect primitives between the rounded corners*
20,1,$1+$1,$2,$3,$4,$5,0*
20,1,$1+$1,$4,$5,$6,$7,0*
20,1,$1+$1,$6,$7,$8,$9,0*
20,1,$1+$1,$8,$9,$2,$3,0*%
G04 Aperture macros list end*
%ADD10RoundRect,0.250000X-0.450000X0.350000X-0.450000X-0.350000X0.450000X-0.350000X0.450000X0.350000X0*%
%ADD11RoundRect,0.150000X0.150000X-0.875000X0.150000X0.875000X-0.150000X0.875000X-0.150000X-0.875000X0*%
%ADD12R,1.600000X1.500000*%
G04 APERTURE END LIST*
D10*
%TO.C,R5*%
X119800000Y-99800000D03*
X119800000Y-101800000D03*
%TD*%
%TO.C,R15*%
X113800000Y-104800000D03*
X113800000Y-106800000D03*
%TD*%
%TO.C,R8*%
X110800000Y-99800000D03*
X110800000Y-101800000D03*
%TD*%
%TO.C,R7*%
X113800000Y-99800000D03*
X113800000Y-101800000D03*
%TD*%
%TO.C,R18*%
X104800000Y-104800000D03*
X104800000Y-106800000D03*
%TD*%
%TO.C,R16*%
X110800000Y-104800000D03*
X110800000Y-106800000D03*
%TD*%
%TO.C,R1*%
X105995000Y-119185000D03*
X105995000Y-121185000D03*
%TD*%
%TO.C,R13*%
X119800000Y-104800000D03*
X119800000Y-106800000D03*
%TD*%
%TO.C,R14*%
X116800000Y-104800000D03*
X116800000Y-106800000D03*
%TD*%
%TO.C,R12*%
X122800000Y-104800000D03*
X122800000Y-106800000D03*
%TD*%
%TO.C,R4*%
X122800000Y-99800000D03*
X122800000Y-101800000D03*
%TD*%
%TO.C,R9*%
X107800000Y-99800000D03*
X107800000Y-101800000D03*
%TD*%
%TO.C,R6*%
X116800000Y-99800000D03*
X116800000Y-101800000D03*
%TD*%
%TO.C,R19*%
X101800000Y-104800000D03*
X101800000Y-106800000D03*
%TD*%
%TO.C,R11*%
X101800000Y-99800000D03*
X101800000Y-101800000D03*
%TD*%
D11*
%TO.C,U2*%
X101760000Y-93800000D03*
X103030000Y-93800000D03*
X104300000Y-93800000D03*
X105570000Y-93800000D03*
X106840000Y-93800000D03*
X108110000Y-93800000D03*
X109380000Y-93800000D03*
X110650000Y-93800000D03*
X111920000Y-93800000D03*
X113190000Y-93800000D03*
X114460000Y-93800000D03*
X115730000Y-93800000D03*
X117000000Y-93800000D03*
X118270000Y-93800000D03*
X118270000Y-84500000D03*
X117000000Y-84500000D03*
X115730000Y-84500000D03*
X114460000Y-84500000D03*
X113190000Y-84500000D03*
X111920000Y-84500000D03*
X110650000Y-84500000D03*
X109380000Y-84500000D03*
X108110000Y-84500000D03*
X106840000Y-84500000D03*
X105570000Y-84500000D03*
X104300000Y-84500000D03*
X103030000Y-84500000D03*
X101760000Y-84500000D03*
%TD*%
D10*
%TO.C,R17*%
X107800000Y-104800000D03*
X107800000Y-106800000D03*
%TD*%
%TO.C,R10*%
X104800000Y-99800000D03*
X104800000Y-101800000D03*
%TD*%
D12*
%TO.C,X1*%
X111890000Y-78255000D03*
X109350000Y-78255000D03*
X109350000Y-80455000D03*
X111890000Y-80455000D03*
%TD*%
M02*
