%TF.GenerationSoftware,KiCad,Pcbnew,7.0.1*%
%TF.CreationDate,2023-04-15T09:26:22+02:00*%
%TF.ProjectId,weit_generator,77656974-5f67-4656-9e65-7261746f722e,rev?*%
%TF.SameCoordinates,Original*%
%TF.FileFunction,Legend,Top*%
%TF.FilePolarity,Positive*%
%FSLAX46Y46*%
G04 Gerber Fmt 4.6, Leading zero omitted, Abs format (unit mm)*
G04 Created by KiCad (PCBNEW 7.0.1) date 2023-04-15 09:26:22*
%MOMM*%
%LPD*%
G01*
G04 APERTURE LIST*
%ADD10C,0.150000*%
%ADD11C,0.120000*%
G04 APERTURE END LIST*
D10*
%TO.C,RV2*%
X125399761Y-118722619D02*
X125066428Y-118246428D01*
X124828333Y-118722619D02*
X124828333Y-117722619D01*
X124828333Y-117722619D02*
X125209285Y-117722619D01*
X125209285Y-117722619D02*
X125304523Y-117770238D01*
X125304523Y-117770238D02*
X125352142Y-117817857D01*
X125352142Y-117817857D02*
X125399761Y-117913095D01*
X125399761Y-117913095D02*
X125399761Y-118055952D01*
X125399761Y-118055952D02*
X125352142Y-118151190D01*
X125352142Y-118151190D02*
X125304523Y-118198809D01*
X125304523Y-118198809D02*
X125209285Y-118246428D01*
X125209285Y-118246428D02*
X124828333Y-118246428D01*
X125685476Y-117722619D02*
X126018809Y-118722619D01*
X126018809Y-118722619D02*
X126352142Y-117722619D01*
X126637857Y-117817857D02*
X126685476Y-117770238D01*
X126685476Y-117770238D02*
X126780714Y-117722619D01*
X126780714Y-117722619D02*
X127018809Y-117722619D01*
X127018809Y-117722619D02*
X127114047Y-117770238D01*
X127114047Y-117770238D02*
X127161666Y-117817857D01*
X127161666Y-117817857D02*
X127209285Y-117913095D01*
X127209285Y-117913095D02*
X127209285Y-118008333D01*
X127209285Y-118008333D02*
X127161666Y-118151190D01*
X127161666Y-118151190D02*
X126590238Y-118722619D01*
X126590238Y-118722619D02*
X127209285Y-118722619D01*
%TO.C,TP3*%
X149138095Y-126462619D02*
X149709523Y-126462619D01*
X149423809Y-127462619D02*
X149423809Y-126462619D01*
X150042857Y-127462619D02*
X150042857Y-126462619D01*
X150042857Y-126462619D02*
X150423809Y-126462619D01*
X150423809Y-126462619D02*
X150519047Y-126510238D01*
X150519047Y-126510238D02*
X150566666Y-126557857D01*
X150566666Y-126557857D02*
X150614285Y-126653095D01*
X150614285Y-126653095D02*
X150614285Y-126795952D01*
X150614285Y-126795952D02*
X150566666Y-126891190D01*
X150566666Y-126891190D02*
X150519047Y-126938809D01*
X150519047Y-126938809D02*
X150423809Y-126986428D01*
X150423809Y-126986428D02*
X150042857Y-126986428D01*
X150947619Y-126462619D02*
X151566666Y-126462619D01*
X151566666Y-126462619D02*
X151233333Y-126843571D01*
X151233333Y-126843571D02*
X151376190Y-126843571D01*
X151376190Y-126843571D02*
X151471428Y-126891190D01*
X151471428Y-126891190D02*
X151519047Y-126938809D01*
X151519047Y-126938809D02*
X151566666Y-127034047D01*
X151566666Y-127034047D02*
X151566666Y-127272142D01*
X151566666Y-127272142D02*
X151519047Y-127367380D01*
X151519047Y-127367380D02*
X151471428Y-127415000D01*
X151471428Y-127415000D02*
X151376190Y-127462619D01*
X151376190Y-127462619D02*
X151090476Y-127462619D01*
X151090476Y-127462619D02*
X150995238Y-127415000D01*
X150995238Y-127415000D02*
X150947619Y-127367380D01*
%TO.C,TP2*%
X125138095Y-131464619D02*
X125709523Y-131464619D01*
X125423809Y-132464619D02*
X125423809Y-131464619D01*
X126042857Y-132464619D02*
X126042857Y-131464619D01*
X126042857Y-131464619D02*
X126423809Y-131464619D01*
X126423809Y-131464619D02*
X126519047Y-131512238D01*
X126519047Y-131512238D02*
X126566666Y-131559857D01*
X126566666Y-131559857D02*
X126614285Y-131655095D01*
X126614285Y-131655095D02*
X126614285Y-131797952D01*
X126614285Y-131797952D02*
X126566666Y-131893190D01*
X126566666Y-131893190D02*
X126519047Y-131940809D01*
X126519047Y-131940809D02*
X126423809Y-131988428D01*
X126423809Y-131988428D02*
X126042857Y-131988428D01*
X126995238Y-131559857D02*
X127042857Y-131512238D01*
X127042857Y-131512238D02*
X127138095Y-131464619D01*
X127138095Y-131464619D02*
X127376190Y-131464619D01*
X127376190Y-131464619D02*
X127471428Y-131512238D01*
X127471428Y-131512238D02*
X127519047Y-131559857D01*
X127519047Y-131559857D02*
X127566666Y-131655095D01*
X127566666Y-131655095D02*
X127566666Y-131750333D01*
X127566666Y-131750333D02*
X127519047Y-131893190D01*
X127519047Y-131893190D02*
X126947619Y-132464619D01*
X126947619Y-132464619D02*
X127566666Y-132464619D01*
%TO.C,TP1*%
X125313095Y-97054619D02*
X125884523Y-97054619D01*
X125598809Y-98054619D02*
X125598809Y-97054619D01*
X126217857Y-98054619D02*
X126217857Y-97054619D01*
X126217857Y-97054619D02*
X126598809Y-97054619D01*
X126598809Y-97054619D02*
X126694047Y-97102238D01*
X126694047Y-97102238D02*
X126741666Y-97149857D01*
X126741666Y-97149857D02*
X126789285Y-97245095D01*
X126789285Y-97245095D02*
X126789285Y-97387952D01*
X126789285Y-97387952D02*
X126741666Y-97483190D01*
X126741666Y-97483190D02*
X126694047Y-97530809D01*
X126694047Y-97530809D02*
X126598809Y-97578428D01*
X126598809Y-97578428D02*
X126217857Y-97578428D01*
X127741666Y-98054619D02*
X127170238Y-98054619D01*
X127455952Y-98054619D02*
X127455952Y-97054619D01*
X127455952Y-97054619D02*
X127360714Y-97197476D01*
X127360714Y-97197476D02*
X127265476Y-97292714D01*
X127265476Y-97292714D02*
X127170238Y-97340333D01*
%TO.C,R2*%
X129033333Y-105862619D02*
X128700000Y-105386428D01*
X128461905Y-105862619D02*
X128461905Y-104862619D01*
X128461905Y-104862619D02*
X128842857Y-104862619D01*
X128842857Y-104862619D02*
X128938095Y-104910238D01*
X128938095Y-104910238D02*
X128985714Y-104957857D01*
X128985714Y-104957857D02*
X129033333Y-105053095D01*
X129033333Y-105053095D02*
X129033333Y-105195952D01*
X129033333Y-105195952D02*
X128985714Y-105291190D01*
X128985714Y-105291190D02*
X128938095Y-105338809D01*
X128938095Y-105338809D02*
X128842857Y-105386428D01*
X128842857Y-105386428D02*
X128461905Y-105386428D01*
X129414286Y-104957857D02*
X129461905Y-104910238D01*
X129461905Y-104910238D02*
X129557143Y-104862619D01*
X129557143Y-104862619D02*
X129795238Y-104862619D01*
X129795238Y-104862619D02*
X129890476Y-104910238D01*
X129890476Y-104910238D02*
X129938095Y-104957857D01*
X129938095Y-104957857D02*
X129985714Y-105053095D01*
X129985714Y-105053095D02*
X129985714Y-105148333D01*
X129985714Y-105148333D02*
X129938095Y-105291190D01*
X129938095Y-105291190D02*
X129366667Y-105862619D01*
X129366667Y-105862619D02*
X129985714Y-105862619D01*
%TO.C,C2*%
X116828333Y-115627380D02*
X116780714Y-115675000D01*
X116780714Y-115675000D02*
X116637857Y-115722619D01*
X116637857Y-115722619D02*
X116542619Y-115722619D01*
X116542619Y-115722619D02*
X116399762Y-115675000D01*
X116399762Y-115675000D02*
X116304524Y-115579761D01*
X116304524Y-115579761D02*
X116256905Y-115484523D01*
X116256905Y-115484523D02*
X116209286Y-115294047D01*
X116209286Y-115294047D02*
X116209286Y-115151190D01*
X116209286Y-115151190D02*
X116256905Y-114960714D01*
X116256905Y-114960714D02*
X116304524Y-114865476D01*
X116304524Y-114865476D02*
X116399762Y-114770238D01*
X116399762Y-114770238D02*
X116542619Y-114722619D01*
X116542619Y-114722619D02*
X116637857Y-114722619D01*
X116637857Y-114722619D02*
X116780714Y-114770238D01*
X116780714Y-114770238D02*
X116828333Y-114817857D01*
X117209286Y-114817857D02*
X117256905Y-114770238D01*
X117256905Y-114770238D02*
X117352143Y-114722619D01*
X117352143Y-114722619D02*
X117590238Y-114722619D01*
X117590238Y-114722619D02*
X117685476Y-114770238D01*
X117685476Y-114770238D02*
X117733095Y-114817857D01*
X117733095Y-114817857D02*
X117780714Y-114913095D01*
X117780714Y-114913095D02*
X117780714Y-115008333D01*
X117780714Y-115008333D02*
X117733095Y-115151190D01*
X117733095Y-115151190D02*
X117161667Y-115722619D01*
X117161667Y-115722619D02*
X117780714Y-115722619D01*
%TO.C,J1*%
X132666666Y-86042619D02*
X132666666Y-86756904D01*
X132666666Y-86756904D02*
X132619047Y-86899761D01*
X132619047Y-86899761D02*
X132523809Y-86995000D01*
X132523809Y-86995000D02*
X132380952Y-87042619D01*
X132380952Y-87042619D02*
X132285714Y-87042619D01*
X133666666Y-87042619D02*
X133095238Y-87042619D01*
X133380952Y-87042619D02*
X133380952Y-86042619D01*
X133380952Y-86042619D02*
X133285714Y-86185476D01*
X133285714Y-86185476D02*
X133190476Y-86280714D01*
X133190476Y-86280714D02*
X133095238Y-86328333D01*
%TO.C,R20*%
X123652142Y-95492619D02*
X123318809Y-95016428D01*
X123080714Y-95492619D02*
X123080714Y-94492619D01*
X123080714Y-94492619D02*
X123461666Y-94492619D01*
X123461666Y-94492619D02*
X123556904Y-94540238D01*
X123556904Y-94540238D02*
X123604523Y-94587857D01*
X123604523Y-94587857D02*
X123652142Y-94683095D01*
X123652142Y-94683095D02*
X123652142Y-94825952D01*
X123652142Y-94825952D02*
X123604523Y-94921190D01*
X123604523Y-94921190D02*
X123556904Y-94968809D01*
X123556904Y-94968809D02*
X123461666Y-95016428D01*
X123461666Y-95016428D02*
X123080714Y-95016428D01*
X124033095Y-94587857D02*
X124080714Y-94540238D01*
X124080714Y-94540238D02*
X124175952Y-94492619D01*
X124175952Y-94492619D02*
X124414047Y-94492619D01*
X124414047Y-94492619D02*
X124509285Y-94540238D01*
X124509285Y-94540238D02*
X124556904Y-94587857D01*
X124556904Y-94587857D02*
X124604523Y-94683095D01*
X124604523Y-94683095D02*
X124604523Y-94778333D01*
X124604523Y-94778333D02*
X124556904Y-94921190D01*
X124556904Y-94921190D02*
X123985476Y-95492619D01*
X123985476Y-95492619D02*
X124604523Y-95492619D01*
X125223571Y-94492619D02*
X125318809Y-94492619D01*
X125318809Y-94492619D02*
X125414047Y-94540238D01*
X125414047Y-94540238D02*
X125461666Y-94587857D01*
X125461666Y-94587857D02*
X125509285Y-94683095D01*
X125509285Y-94683095D02*
X125556904Y-94873571D01*
X125556904Y-94873571D02*
X125556904Y-95111666D01*
X125556904Y-95111666D02*
X125509285Y-95302142D01*
X125509285Y-95302142D02*
X125461666Y-95397380D01*
X125461666Y-95397380D02*
X125414047Y-95445000D01*
X125414047Y-95445000D02*
X125318809Y-95492619D01*
X125318809Y-95492619D02*
X125223571Y-95492619D01*
X125223571Y-95492619D02*
X125128333Y-95445000D01*
X125128333Y-95445000D02*
X125080714Y-95397380D01*
X125080714Y-95397380D02*
X125033095Y-95302142D01*
X125033095Y-95302142D02*
X124985476Y-95111666D01*
X124985476Y-95111666D02*
X124985476Y-94873571D01*
X124985476Y-94873571D02*
X125033095Y-94683095D01*
X125033095Y-94683095D02*
X125080714Y-94587857D01*
X125080714Y-94587857D02*
X125128333Y-94540238D01*
X125128333Y-94540238D02*
X125223571Y-94492619D01*
%TO.C,J3*%
X145612619Y-97893333D02*
X146326904Y-97893333D01*
X146326904Y-97893333D02*
X146469761Y-97940952D01*
X146469761Y-97940952D02*
X146565000Y-98036190D01*
X146565000Y-98036190D02*
X146612619Y-98179047D01*
X146612619Y-98179047D02*
X146612619Y-98274285D01*
X145612619Y-97512380D02*
X145612619Y-96893333D01*
X145612619Y-96893333D02*
X145993571Y-97226666D01*
X145993571Y-97226666D02*
X145993571Y-97083809D01*
X145993571Y-97083809D02*
X146041190Y-96988571D01*
X146041190Y-96988571D02*
X146088809Y-96940952D01*
X146088809Y-96940952D02*
X146184047Y-96893333D01*
X146184047Y-96893333D02*
X146422142Y-96893333D01*
X146422142Y-96893333D02*
X146517380Y-96940952D01*
X146517380Y-96940952D02*
X146565000Y-96988571D01*
X146565000Y-96988571D02*
X146612619Y-97083809D01*
X146612619Y-97083809D02*
X146612619Y-97369523D01*
X146612619Y-97369523D02*
X146565000Y-97464761D01*
X146565000Y-97464761D02*
X146517380Y-97512380D01*
%TO.C,C8*%
X137833333Y-98567380D02*
X137785714Y-98615000D01*
X137785714Y-98615000D02*
X137642857Y-98662619D01*
X137642857Y-98662619D02*
X137547619Y-98662619D01*
X137547619Y-98662619D02*
X137404762Y-98615000D01*
X137404762Y-98615000D02*
X137309524Y-98519761D01*
X137309524Y-98519761D02*
X137261905Y-98424523D01*
X137261905Y-98424523D02*
X137214286Y-98234047D01*
X137214286Y-98234047D02*
X137214286Y-98091190D01*
X137214286Y-98091190D02*
X137261905Y-97900714D01*
X137261905Y-97900714D02*
X137309524Y-97805476D01*
X137309524Y-97805476D02*
X137404762Y-97710238D01*
X137404762Y-97710238D02*
X137547619Y-97662619D01*
X137547619Y-97662619D02*
X137642857Y-97662619D01*
X137642857Y-97662619D02*
X137785714Y-97710238D01*
X137785714Y-97710238D02*
X137833333Y-97757857D01*
X138404762Y-98091190D02*
X138309524Y-98043571D01*
X138309524Y-98043571D02*
X138261905Y-97995952D01*
X138261905Y-97995952D02*
X138214286Y-97900714D01*
X138214286Y-97900714D02*
X138214286Y-97853095D01*
X138214286Y-97853095D02*
X138261905Y-97757857D01*
X138261905Y-97757857D02*
X138309524Y-97710238D01*
X138309524Y-97710238D02*
X138404762Y-97662619D01*
X138404762Y-97662619D02*
X138595238Y-97662619D01*
X138595238Y-97662619D02*
X138690476Y-97710238D01*
X138690476Y-97710238D02*
X138738095Y-97757857D01*
X138738095Y-97757857D02*
X138785714Y-97853095D01*
X138785714Y-97853095D02*
X138785714Y-97900714D01*
X138785714Y-97900714D02*
X138738095Y-97995952D01*
X138738095Y-97995952D02*
X138690476Y-98043571D01*
X138690476Y-98043571D02*
X138595238Y-98091190D01*
X138595238Y-98091190D02*
X138404762Y-98091190D01*
X138404762Y-98091190D02*
X138309524Y-98138809D01*
X138309524Y-98138809D02*
X138261905Y-98186428D01*
X138261905Y-98186428D02*
X138214286Y-98281666D01*
X138214286Y-98281666D02*
X138214286Y-98472142D01*
X138214286Y-98472142D02*
X138261905Y-98567380D01*
X138261905Y-98567380D02*
X138309524Y-98615000D01*
X138309524Y-98615000D02*
X138404762Y-98662619D01*
X138404762Y-98662619D02*
X138595238Y-98662619D01*
X138595238Y-98662619D02*
X138690476Y-98615000D01*
X138690476Y-98615000D02*
X138738095Y-98567380D01*
X138738095Y-98567380D02*
X138785714Y-98472142D01*
X138785714Y-98472142D02*
X138785714Y-98281666D01*
X138785714Y-98281666D02*
X138738095Y-98186428D01*
X138738095Y-98186428D02*
X138690476Y-98138809D01*
X138690476Y-98138809D02*
X138595238Y-98091190D01*
%TO.C,R3*%
X121428333Y-111322619D02*
X121095000Y-110846428D01*
X120856905Y-111322619D02*
X120856905Y-110322619D01*
X120856905Y-110322619D02*
X121237857Y-110322619D01*
X121237857Y-110322619D02*
X121333095Y-110370238D01*
X121333095Y-110370238D02*
X121380714Y-110417857D01*
X121380714Y-110417857D02*
X121428333Y-110513095D01*
X121428333Y-110513095D02*
X121428333Y-110655952D01*
X121428333Y-110655952D02*
X121380714Y-110751190D01*
X121380714Y-110751190D02*
X121333095Y-110798809D01*
X121333095Y-110798809D02*
X121237857Y-110846428D01*
X121237857Y-110846428D02*
X120856905Y-110846428D01*
X121761667Y-110322619D02*
X122380714Y-110322619D01*
X122380714Y-110322619D02*
X122047381Y-110703571D01*
X122047381Y-110703571D02*
X122190238Y-110703571D01*
X122190238Y-110703571D02*
X122285476Y-110751190D01*
X122285476Y-110751190D02*
X122333095Y-110798809D01*
X122333095Y-110798809D02*
X122380714Y-110894047D01*
X122380714Y-110894047D02*
X122380714Y-111132142D01*
X122380714Y-111132142D02*
X122333095Y-111227380D01*
X122333095Y-111227380D02*
X122285476Y-111275000D01*
X122285476Y-111275000D02*
X122190238Y-111322619D01*
X122190238Y-111322619D02*
X121904524Y-111322619D01*
X121904524Y-111322619D02*
X121809286Y-111275000D01*
X121809286Y-111275000D02*
X121761667Y-111227380D01*
%TO.C,C11*%
X133802142Y-124427380D02*
X133754523Y-124475000D01*
X133754523Y-124475000D02*
X133611666Y-124522619D01*
X133611666Y-124522619D02*
X133516428Y-124522619D01*
X133516428Y-124522619D02*
X133373571Y-124475000D01*
X133373571Y-124475000D02*
X133278333Y-124379761D01*
X133278333Y-124379761D02*
X133230714Y-124284523D01*
X133230714Y-124284523D02*
X133183095Y-124094047D01*
X133183095Y-124094047D02*
X133183095Y-123951190D01*
X133183095Y-123951190D02*
X133230714Y-123760714D01*
X133230714Y-123760714D02*
X133278333Y-123665476D01*
X133278333Y-123665476D02*
X133373571Y-123570238D01*
X133373571Y-123570238D02*
X133516428Y-123522619D01*
X133516428Y-123522619D02*
X133611666Y-123522619D01*
X133611666Y-123522619D02*
X133754523Y-123570238D01*
X133754523Y-123570238D02*
X133802142Y-123617857D01*
X134754523Y-124522619D02*
X134183095Y-124522619D01*
X134468809Y-124522619D02*
X134468809Y-123522619D01*
X134468809Y-123522619D02*
X134373571Y-123665476D01*
X134373571Y-123665476D02*
X134278333Y-123760714D01*
X134278333Y-123760714D02*
X134183095Y-123808333D01*
X135706904Y-124522619D02*
X135135476Y-124522619D01*
X135421190Y-124522619D02*
X135421190Y-123522619D01*
X135421190Y-123522619D02*
X135325952Y-123665476D01*
X135325952Y-123665476D02*
X135230714Y-123760714D01*
X135230714Y-123760714D02*
X135135476Y-123808333D01*
%TO.C,C10*%
X144752142Y-134877380D02*
X144704523Y-134925000D01*
X144704523Y-134925000D02*
X144561666Y-134972619D01*
X144561666Y-134972619D02*
X144466428Y-134972619D01*
X144466428Y-134972619D02*
X144323571Y-134925000D01*
X144323571Y-134925000D02*
X144228333Y-134829761D01*
X144228333Y-134829761D02*
X144180714Y-134734523D01*
X144180714Y-134734523D02*
X144133095Y-134544047D01*
X144133095Y-134544047D02*
X144133095Y-134401190D01*
X144133095Y-134401190D02*
X144180714Y-134210714D01*
X144180714Y-134210714D02*
X144228333Y-134115476D01*
X144228333Y-134115476D02*
X144323571Y-134020238D01*
X144323571Y-134020238D02*
X144466428Y-133972619D01*
X144466428Y-133972619D02*
X144561666Y-133972619D01*
X144561666Y-133972619D02*
X144704523Y-134020238D01*
X144704523Y-134020238D02*
X144752142Y-134067857D01*
X145704523Y-134972619D02*
X145133095Y-134972619D01*
X145418809Y-134972619D02*
X145418809Y-133972619D01*
X145418809Y-133972619D02*
X145323571Y-134115476D01*
X145323571Y-134115476D02*
X145228333Y-134210714D01*
X145228333Y-134210714D02*
X145133095Y-134258333D01*
X146323571Y-133972619D02*
X146418809Y-133972619D01*
X146418809Y-133972619D02*
X146514047Y-134020238D01*
X146514047Y-134020238D02*
X146561666Y-134067857D01*
X146561666Y-134067857D02*
X146609285Y-134163095D01*
X146609285Y-134163095D02*
X146656904Y-134353571D01*
X146656904Y-134353571D02*
X146656904Y-134591666D01*
X146656904Y-134591666D02*
X146609285Y-134782142D01*
X146609285Y-134782142D02*
X146561666Y-134877380D01*
X146561666Y-134877380D02*
X146514047Y-134925000D01*
X146514047Y-134925000D02*
X146418809Y-134972619D01*
X146418809Y-134972619D02*
X146323571Y-134972619D01*
X146323571Y-134972619D02*
X146228333Y-134925000D01*
X146228333Y-134925000D02*
X146180714Y-134877380D01*
X146180714Y-134877380D02*
X146133095Y-134782142D01*
X146133095Y-134782142D02*
X146085476Y-134591666D01*
X146085476Y-134591666D02*
X146085476Y-134353571D01*
X146085476Y-134353571D02*
X146133095Y-134163095D01*
X146133095Y-134163095D02*
X146180714Y-134067857D01*
X146180714Y-134067857D02*
X146228333Y-134020238D01*
X146228333Y-134020238D02*
X146323571Y-133972619D01*
%TO.C,D1*%
X101397619Y-113418094D02*
X100397619Y-113418094D01*
X100397619Y-113418094D02*
X100397619Y-113179999D01*
X100397619Y-113179999D02*
X100445238Y-113037142D01*
X100445238Y-113037142D02*
X100540476Y-112941904D01*
X100540476Y-112941904D02*
X100635714Y-112894285D01*
X100635714Y-112894285D02*
X100826190Y-112846666D01*
X100826190Y-112846666D02*
X100969047Y-112846666D01*
X100969047Y-112846666D02*
X101159523Y-112894285D01*
X101159523Y-112894285D02*
X101254761Y-112941904D01*
X101254761Y-112941904D02*
X101350000Y-113037142D01*
X101350000Y-113037142D02*
X101397619Y-113179999D01*
X101397619Y-113179999D02*
X101397619Y-113418094D01*
X101397619Y-111894285D02*
X101397619Y-112465713D01*
X101397619Y-112179999D02*
X100397619Y-112179999D01*
X100397619Y-112179999D02*
X100540476Y-112275237D01*
X100540476Y-112275237D02*
X100635714Y-112370475D01*
X100635714Y-112370475D02*
X100683333Y-112465713D01*
%TO.C,R29*%
X113237142Y-127092619D02*
X112903809Y-126616428D01*
X112665714Y-127092619D02*
X112665714Y-126092619D01*
X112665714Y-126092619D02*
X113046666Y-126092619D01*
X113046666Y-126092619D02*
X113141904Y-126140238D01*
X113141904Y-126140238D02*
X113189523Y-126187857D01*
X113189523Y-126187857D02*
X113237142Y-126283095D01*
X113237142Y-126283095D02*
X113237142Y-126425952D01*
X113237142Y-126425952D02*
X113189523Y-126521190D01*
X113189523Y-126521190D02*
X113141904Y-126568809D01*
X113141904Y-126568809D02*
X113046666Y-126616428D01*
X113046666Y-126616428D02*
X112665714Y-126616428D01*
X113618095Y-126187857D02*
X113665714Y-126140238D01*
X113665714Y-126140238D02*
X113760952Y-126092619D01*
X113760952Y-126092619D02*
X113999047Y-126092619D01*
X113999047Y-126092619D02*
X114094285Y-126140238D01*
X114094285Y-126140238D02*
X114141904Y-126187857D01*
X114141904Y-126187857D02*
X114189523Y-126283095D01*
X114189523Y-126283095D02*
X114189523Y-126378333D01*
X114189523Y-126378333D02*
X114141904Y-126521190D01*
X114141904Y-126521190D02*
X113570476Y-127092619D01*
X113570476Y-127092619D02*
X114189523Y-127092619D01*
X114665714Y-127092619D02*
X114856190Y-127092619D01*
X114856190Y-127092619D02*
X114951428Y-127045000D01*
X114951428Y-127045000D02*
X114999047Y-126997380D01*
X114999047Y-126997380D02*
X115094285Y-126854523D01*
X115094285Y-126854523D02*
X115141904Y-126664047D01*
X115141904Y-126664047D02*
X115141904Y-126283095D01*
X115141904Y-126283095D02*
X115094285Y-126187857D01*
X115094285Y-126187857D02*
X115046666Y-126140238D01*
X115046666Y-126140238D02*
X114951428Y-126092619D01*
X114951428Y-126092619D02*
X114760952Y-126092619D01*
X114760952Y-126092619D02*
X114665714Y-126140238D01*
X114665714Y-126140238D02*
X114618095Y-126187857D01*
X114618095Y-126187857D02*
X114570476Y-126283095D01*
X114570476Y-126283095D02*
X114570476Y-126521190D01*
X114570476Y-126521190D02*
X114618095Y-126616428D01*
X114618095Y-126616428D02*
X114665714Y-126664047D01*
X114665714Y-126664047D02*
X114760952Y-126711666D01*
X114760952Y-126711666D02*
X114951428Y-126711666D01*
X114951428Y-126711666D02*
X115046666Y-126664047D01*
X115046666Y-126664047D02*
X115094285Y-126616428D01*
X115094285Y-126616428D02*
X115141904Y-126521190D01*
%TO.C,R26*%
X136152142Y-133722619D02*
X135818809Y-133246428D01*
X135580714Y-133722619D02*
X135580714Y-132722619D01*
X135580714Y-132722619D02*
X135961666Y-132722619D01*
X135961666Y-132722619D02*
X136056904Y-132770238D01*
X136056904Y-132770238D02*
X136104523Y-132817857D01*
X136104523Y-132817857D02*
X136152142Y-132913095D01*
X136152142Y-132913095D02*
X136152142Y-133055952D01*
X136152142Y-133055952D02*
X136104523Y-133151190D01*
X136104523Y-133151190D02*
X136056904Y-133198809D01*
X136056904Y-133198809D02*
X135961666Y-133246428D01*
X135961666Y-133246428D02*
X135580714Y-133246428D01*
X136533095Y-132817857D02*
X136580714Y-132770238D01*
X136580714Y-132770238D02*
X136675952Y-132722619D01*
X136675952Y-132722619D02*
X136914047Y-132722619D01*
X136914047Y-132722619D02*
X137009285Y-132770238D01*
X137009285Y-132770238D02*
X137056904Y-132817857D01*
X137056904Y-132817857D02*
X137104523Y-132913095D01*
X137104523Y-132913095D02*
X137104523Y-133008333D01*
X137104523Y-133008333D02*
X137056904Y-133151190D01*
X137056904Y-133151190D02*
X136485476Y-133722619D01*
X136485476Y-133722619D02*
X137104523Y-133722619D01*
X137961666Y-132722619D02*
X137771190Y-132722619D01*
X137771190Y-132722619D02*
X137675952Y-132770238D01*
X137675952Y-132770238D02*
X137628333Y-132817857D01*
X137628333Y-132817857D02*
X137533095Y-132960714D01*
X137533095Y-132960714D02*
X137485476Y-133151190D01*
X137485476Y-133151190D02*
X137485476Y-133532142D01*
X137485476Y-133532142D02*
X137533095Y-133627380D01*
X137533095Y-133627380D02*
X137580714Y-133675000D01*
X137580714Y-133675000D02*
X137675952Y-133722619D01*
X137675952Y-133722619D02*
X137866428Y-133722619D01*
X137866428Y-133722619D02*
X137961666Y-133675000D01*
X137961666Y-133675000D02*
X138009285Y-133627380D01*
X138009285Y-133627380D02*
X138056904Y-133532142D01*
X138056904Y-133532142D02*
X138056904Y-133294047D01*
X138056904Y-133294047D02*
X138009285Y-133198809D01*
X138009285Y-133198809D02*
X137961666Y-133151190D01*
X137961666Y-133151190D02*
X137866428Y-133103571D01*
X137866428Y-133103571D02*
X137675952Y-133103571D01*
X137675952Y-133103571D02*
X137580714Y-133151190D01*
X137580714Y-133151190D02*
X137533095Y-133198809D01*
X137533095Y-133198809D02*
X137485476Y-133294047D01*
%TO.C,R21*%
X133957142Y-94662619D02*
X133623809Y-94186428D01*
X133385714Y-94662619D02*
X133385714Y-93662619D01*
X133385714Y-93662619D02*
X133766666Y-93662619D01*
X133766666Y-93662619D02*
X133861904Y-93710238D01*
X133861904Y-93710238D02*
X133909523Y-93757857D01*
X133909523Y-93757857D02*
X133957142Y-93853095D01*
X133957142Y-93853095D02*
X133957142Y-93995952D01*
X133957142Y-93995952D02*
X133909523Y-94091190D01*
X133909523Y-94091190D02*
X133861904Y-94138809D01*
X133861904Y-94138809D02*
X133766666Y-94186428D01*
X133766666Y-94186428D02*
X133385714Y-94186428D01*
X134338095Y-93757857D02*
X134385714Y-93710238D01*
X134385714Y-93710238D02*
X134480952Y-93662619D01*
X134480952Y-93662619D02*
X134719047Y-93662619D01*
X134719047Y-93662619D02*
X134814285Y-93710238D01*
X134814285Y-93710238D02*
X134861904Y-93757857D01*
X134861904Y-93757857D02*
X134909523Y-93853095D01*
X134909523Y-93853095D02*
X134909523Y-93948333D01*
X134909523Y-93948333D02*
X134861904Y-94091190D01*
X134861904Y-94091190D02*
X134290476Y-94662619D01*
X134290476Y-94662619D02*
X134909523Y-94662619D01*
X135861904Y-94662619D02*
X135290476Y-94662619D01*
X135576190Y-94662619D02*
X135576190Y-93662619D01*
X135576190Y-93662619D02*
X135480952Y-93805476D01*
X135480952Y-93805476D02*
X135385714Y-93900714D01*
X135385714Y-93900714D02*
X135290476Y-93948333D01*
%TO.C,R22*%
X147557619Y-101872857D02*
X147081428Y-102206190D01*
X147557619Y-102444285D02*
X146557619Y-102444285D01*
X146557619Y-102444285D02*
X146557619Y-102063333D01*
X146557619Y-102063333D02*
X146605238Y-101968095D01*
X146605238Y-101968095D02*
X146652857Y-101920476D01*
X146652857Y-101920476D02*
X146748095Y-101872857D01*
X146748095Y-101872857D02*
X146890952Y-101872857D01*
X146890952Y-101872857D02*
X146986190Y-101920476D01*
X146986190Y-101920476D02*
X147033809Y-101968095D01*
X147033809Y-101968095D02*
X147081428Y-102063333D01*
X147081428Y-102063333D02*
X147081428Y-102444285D01*
X146652857Y-101491904D02*
X146605238Y-101444285D01*
X146605238Y-101444285D02*
X146557619Y-101349047D01*
X146557619Y-101349047D02*
X146557619Y-101110952D01*
X146557619Y-101110952D02*
X146605238Y-101015714D01*
X146605238Y-101015714D02*
X146652857Y-100968095D01*
X146652857Y-100968095D02*
X146748095Y-100920476D01*
X146748095Y-100920476D02*
X146843333Y-100920476D01*
X146843333Y-100920476D02*
X146986190Y-100968095D01*
X146986190Y-100968095D02*
X147557619Y-101539523D01*
X147557619Y-101539523D02*
X147557619Y-100920476D01*
X146652857Y-100539523D02*
X146605238Y-100491904D01*
X146605238Y-100491904D02*
X146557619Y-100396666D01*
X146557619Y-100396666D02*
X146557619Y-100158571D01*
X146557619Y-100158571D02*
X146605238Y-100063333D01*
X146605238Y-100063333D02*
X146652857Y-100015714D01*
X146652857Y-100015714D02*
X146748095Y-99968095D01*
X146748095Y-99968095D02*
X146843333Y-99968095D01*
X146843333Y-99968095D02*
X146986190Y-100015714D01*
X146986190Y-100015714D02*
X147557619Y-100587142D01*
X147557619Y-100587142D02*
X147557619Y-99968095D01*
%TO.C,R1*%
X104657619Y-120226666D02*
X104181428Y-120559999D01*
X104657619Y-120798094D02*
X103657619Y-120798094D01*
X103657619Y-120798094D02*
X103657619Y-120417142D01*
X103657619Y-120417142D02*
X103705238Y-120321904D01*
X103705238Y-120321904D02*
X103752857Y-120274285D01*
X103752857Y-120274285D02*
X103848095Y-120226666D01*
X103848095Y-120226666D02*
X103990952Y-120226666D01*
X103990952Y-120226666D02*
X104086190Y-120274285D01*
X104086190Y-120274285D02*
X104133809Y-120321904D01*
X104133809Y-120321904D02*
X104181428Y-120417142D01*
X104181428Y-120417142D02*
X104181428Y-120798094D01*
X104657619Y-119274285D02*
X104657619Y-119845713D01*
X104657619Y-119559999D02*
X103657619Y-119559999D01*
X103657619Y-119559999D02*
X103800476Y-119655237D01*
X103800476Y-119655237D02*
X103895714Y-119750475D01*
X103895714Y-119750475D02*
X103943333Y-119845713D01*
%TO.C,C9*%
X137233333Y-109767380D02*
X137185714Y-109815000D01*
X137185714Y-109815000D02*
X137042857Y-109862619D01*
X137042857Y-109862619D02*
X136947619Y-109862619D01*
X136947619Y-109862619D02*
X136804762Y-109815000D01*
X136804762Y-109815000D02*
X136709524Y-109719761D01*
X136709524Y-109719761D02*
X136661905Y-109624523D01*
X136661905Y-109624523D02*
X136614286Y-109434047D01*
X136614286Y-109434047D02*
X136614286Y-109291190D01*
X136614286Y-109291190D02*
X136661905Y-109100714D01*
X136661905Y-109100714D02*
X136709524Y-109005476D01*
X136709524Y-109005476D02*
X136804762Y-108910238D01*
X136804762Y-108910238D02*
X136947619Y-108862619D01*
X136947619Y-108862619D02*
X137042857Y-108862619D01*
X137042857Y-108862619D02*
X137185714Y-108910238D01*
X137185714Y-108910238D02*
X137233333Y-108957857D01*
X137709524Y-109862619D02*
X137900000Y-109862619D01*
X137900000Y-109862619D02*
X137995238Y-109815000D01*
X137995238Y-109815000D02*
X138042857Y-109767380D01*
X138042857Y-109767380D02*
X138138095Y-109624523D01*
X138138095Y-109624523D02*
X138185714Y-109434047D01*
X138185714Y-109434047D02*
X138185714Y-109053095D01*
X138185714Y-109053095D02*
X138138095Y-108957857D01*
X138138095Y-108957857D02*
X138090476Y-108910238D01*
X138090476Y-108910238D02*
X137995238Y-108862619D01*
X137995238Y-108862619D02*
X137804762Y-108862619D01*
X137804762Y-108862619D02*
X137709524Y-108910238D01*
X137709524Y-108910238D02*
X137661905Y-108957857D01*
X137661905Y-108957857D02*
X137614286Y-109053095D01*
X137614286Y-109053095D02*
X137614286Y-109291190D01*
X137614286Y-109291190D02*
X137661905Y-109386428D01*
X137661905Y-109386428D02*
X137709524Y-109434047D01*
X137709524Y-109434047D02*
X137804762Y-109481666D01*
X137804762Y-109481666D02*
X137995238Y-109481666D01*
X137995238Y-109481666D02*
X138090476Y-109434047D01*
X138090476Y-109434047D02*
X138138095Y-109386428D01*
X138138095Y-109386428D02*
X138185714Y-109291190D01*
%TO.C,C3*%
X117633333Y-78917380D02*
X117585714Y-78965000D01*
X117585714Y-78965000D02*
X117442857Y-79012619D01*
X117442857Y-79012619D02*
X117347619Y-79012619D01*
X117347619Y-79012619D02*
X117204762Y-78965000D01*
X117204762Y-78965000D02*
X117109524Y-78869761D01*
X117109524Y-78869761D02*
X117061905Y-78774523D01*
X117061905Y-78774523D02*
X117014286Y-78584047D01*
X117014286Y-78584047D02*
X117014286Y-78441190D01*
X117014286Y-78441190D02*
X117061905Y-78250714D01*
X117061905Y-78250714D02*
X117109524Y-78155476D01*
X117109524Y-78155476D02*
X117204762Y-78060238D01*
X117204762Y-78060238D02*
X117347619Y-78012619D01*
X117347619Y-78012619D02*
X117442857Y-78012619D01*
X117442857Y-78012619D02*
X117585714Y-78060238D01*
X117585714Y-78060238D02*
X117633333Y-78107857D01*
X117966667Y-78012619D02*
X118585714Y-78012619D01*
X118585714Y-78012619D02*
X118252381Y-78393571D01*
X118252381Y-78393571D02*
X118395238Y-78393571D01*
X118395238Y-78393571D02*
X118490476Y-78441190D01*
X118490476Y-78441190D02*
X118538095Y-78488809D01*
X118538095Y-78488809D02*
X118585714Y-78584047D01*
X118585714Y-78584047D02*
X118585714Y-78822142D01*
X118585714Y-78822142D02*
X118538095Y-78917380D01*
X118538095Y-78917380D02*
X118490476Y-78965000D01*
X118490476Y-78965000D02*
X118395238Y-79012619D01*
X118395238Y-79012619D02*
X118109524Y-79012619D01*
X118109524Y-79012619D02*
X118014286Y-78965000D01*
X118014286Y-78965000D02*
X117966667Y-78917380D01*
%TO.C,C7*%
X151128333Y-91267380D02*
X151080714Y-91315000D01*
X151080714Y-91315000D02*
X150937857Y-91362619D01*
X150937857Y-91362619D02*
X150842619Y-91362619D01*
X150842619Y-91362619D02*
X150699762Y-91315000D01*
X150699762Y-91315000D02*
X150604524Y-91219761D01*
X150604524Y-91219761D02*
X150556905Y-91124523D01*
X150556905Y-91124523D02*
X150509286Y-90934047D01*
X150509286Y-90934047D02*
X150509286Y-90791190D01*
X150509286Y-90791190D02*
X150556905Y-90600714D01*
X150556905Y-90600714D02*
X150604524Y-90505476D01*
X150604524Y-90505476D02*
X150699762Y-90410238D01*
X150699762Y-90410238D02*
X150842619Y-90362619D01*
X150842619Y-90362619D02*
X150937857Y-90362619D01*
X150937857Y-90362619D02*
X151080714Y-90410238D01*
X151080714Y-90410238D02*
X151128333Y-90457857D01*
X151461667Y-90362619D02*
X152128333Y-90362619D01*
X152128333Y-90362619D02*
X151699762Y-91362619D01*
%TO.C,J2*%
X123066666Y-82462619D02*
X123066666Y-83176904D01*
X123066666Y-83176904D02*
X123019047Y-83319761D01*
X123019047Y-83319761D02*
X122923809Y-83415000D01*
X122923809Y-83415000D02*
X122780952Y-83462619D01*
X122780952Y-83462619D02*
X122685714Y-83462619D01*
X123495238Y-82557857D02*
X123542857Y-82510238D01*
X123542857Y-82510238D02*
X123638095Y-82462619D01*
X123638095Y-82462619D02*
X123876190Y-82462619D01*
X123876190Y-82462619D02*
X123971428Y-82510238D01*
X123971428Y-82510238D02*
X124019047Y-82557857D01*
X124019047Y-82557857D02*
X124066666Y-82653095D01*
X124066666Y-82653095D02*
X124066666Y-82748333D01*
X124066666Y-82748333D02*
X124019047Y-82891190D01*
X124019047Y-82891190D02*
X123447619Y-83462619D01*
X123447619Y-83462619D02*
X124066666Y-83462619D01*
%TO.C,C12*%
X130407142Y-135027380D02*
X130359523Y-135075000D01*
X130359523Y-135075000D02*
X130216666Y-135122619D01*
X130216666Y-135122619D02*
X130121428Y-135122619D01*
X130121428Y-135122619D02*
X129978571Y-135075000D01*
X129978571Y-135075000D02*
X129883333Y-134979761D01*
X129883333Y-134979761D02*
X129835714Y-134884523D01*
X129835714Y-134884523D02*
X129788095Y-134694047D01*
X129788095Y-134694047D02*
X129788095Y-134551190D01*
X129788095Y-134551190D02*
X129835714Y-134360714D01*
X129835714Y-134360714D02*
X129883333Y-134265476D01*
X129883333Y-134265476D02*
X129978571Y-134170238D01*
X129978571Y-134170238D02*
X130121428Y-134122619D01*
X130121428Y-134122619D02*
X130216666Y-134122619D01*
X130216666Y-134122619D02*
X130359523Y-134170238D01*
X130359523Y-134170238D02*
X130407142Y-134217857D01*
X131359523Y-135122619D02*
X130788095Y-135122619D01*
X131073809Y-135122619D02*
X131073809Y-134122619D01*
X131073809Y-134122619D02*
X130978571Y-134265476D01*
X130978571Y-134265476D02*
X130883333Y-134360714D01*
X130883333Y-134360714D02*
X130788095Y-134408333D01*
X131740476Y-134217857D02*
X131788095Y-134170238D01*
X131788095Y-134170238D02*
X131883333Y-134122619D01*
X131883333Y-134122619D02*
X132121428Y-134122619D01*
X132121428Y-134122619D02*
X132216666Y-134170238D01*
X132216666Y-134170238D02*
X132264285Y-134217857D01*
X132264285Y-134217857D02*
X132311904Y-134313095D01*
X132311904Y-134313095D02*
X132311904Y-134408333D01*
X132311904Y-134408333D02*
X132264285Y-134551190D01*
X132264285Y-134551190D02*
X131692857Y-135122619D01*
X131692857Y-135122619D02*
X132311904Y-135122619D01*
%TO.C,C4*%
X129778333Y-89837380D02*
X129730714Y-89885000D01*
X129730714Y-89885000D02*
X129587857Y-89932619D01*
X129587857Y-89932619D02*
X129492619Y-89932619D01*
X129492619Y-89932619D02*
X129349762Y-89885000D01*
X129349762Y-89885000D02*
X129254524Y-89789761D01*
X129254524Y-89789761D02*
X129206905Y-89694523D01*
X129206905Y-89694523D02*
X129159286Y-89504047D01*
X129159286Y-89504047D02*
X129159286Y-89361190D01*
X129159286Y-89361190D02*
X129206905Y-89170714D01*
X129206905Y-89170714D02*
X129254524Y-89075476D01*
X129254524Y-89075476D02*
X129349762Y-88980238D01*
X129349762Y-88980238D02*
X129492619Y-88932619D01*
X129492619Y-88932619D02*
X129587857Y-88932619D01*
X129587857Y-88932619D02*
X129730714Y-88980238D01*
X129730714Y-88980238D02*
X129778333Y-89027857D01*
X130635476Y-89265952D02*
X130635476Y-89932619D01*
X130397381Y-88885000D02*
X130159286Y-89599285D01*
X130159286Y-89599285D02*
X130778333Y-89599285D01*
%TO.C,U2*%
X99577619Y-89911904D02*
X100387142Y-89911904D01*
X100387142Y-89911904D02*
X100482380Y-89864285D01*
X100482380Y-89864285D02*
X100530000Y-89816666D01*
X100530000Y-89816666D02*
X100577619Y-89721428D01*
X100577619Y-89721428D02*
X100577619Y-89530952D01*
X100577619Y-89530952D02*
X100530000Y-89435714D01*
X100530000Y-89435714D02*
X100482380Y-89388095D01*
X100482380Y-89388095D02*
X100387142Y-89340476D01*
X100387142Y-89340476D02*
X99577619Y-89340476D01*
X99672857Y-88911904D02*
X99625238Y-88864285D01*
X99625238Y-88864285D02*
X99577619Y-88769047D01*
X99577619Y-88769047D02*
X99577619Y-88530952D01*
X99577619Y-88530952D02*
X99625238Y-88435714D01*
X99625238Y-88435714D02*
X99672857Y-88388095D01*
X99672857Y-88388095D02*
X99768095Y-88340476D01*
X99768095Y-88340476D02*
X99863333Y-88340476D01*
X99863333Y-88340476D02*
X100006190Y-88388095D01*
X100006190Y-88388095D02*
X100577619Y-88959523D01*
X100577619Y-88959523D02*
X100577619Y-88340476D01*
%TO.C,U1*%
X149677619Y-116431904D02*
X150487142Y-116431904D01*
X150487142Y-116431904D02*
X150582380Y-116384285D01*
X150582380Y-116384285D02*
X150630000Y-116336666D01*
X150630000Y-116336666D02*
X150677619Y-116241428D01*
X150677619Y-116241428D02*
X150677619Y-116050952D01*
X150677619Y-116050952D02*
X150630000Y-115955714D01*
X150630000Y-115955714D02*
X150582380Y-115908095D01*
X150582380Y-115908095D02*
X150487142Y-115860476D01*
X150487142Y-115860476D02*
X149677619Y-115860476D01*
X150677619Y-114860476D02*
X150677619Y-115431904D01*
X150677619Y-115146190D02*
X149677619Y-115146190D01*
X149677619Y-115146190D02*
X149820476Y-115241428D01*
X149820476Y-115241428D02*
X149915714Y-115336666D01*
X149915714Y-115336666D02*
X149963333Y-115431904D01*
%TO.C,R24*%
X142542142Y-106652619D02*
X142208809Y-106176428D01*
X141970714Y-106652619D02*
X141970714Y-105652619D01*
X141970714Y-105652619D02*
X142351666Y-105652619D01*
X142351666Y-105652619D02*
X142446904Y-105700238D01*
X142446904Y-105700238D02*
X142494523Y-105747857D01*
X142494523Y-105747857D02*
X142542142Y-105843095D01*
X142542142Y-105843095D02*
X142542142Y-105985952D01*
X142542142Y-105985952D02*
X142494523Y-106081190D01*
X142494523Y-106081190D02*
X142446904Y-106128809D01*
X142446904Y-106128809D02*
X142351666Y-106176428D01*
X142351666Y-106176428D02*
X141970714Y-106176428D01*
X142923095Y-105747857D02*
X142970714Y-105700238D01*
X142970714Y-105700238D02*
X143065952Y-105652619D01*
X143065952Y-105652619D02*
X143304047Y-105652619D01*
X143304047Y-105652619D02*
X143399285Y-105700238D01*
X143399285Y-105700238D02*
X143446904Y-105747857D01*
X143446904Y-105747857D02*
X143494523Y-105843095D01*
X143494523Y-105843095D02*
X143494523Y-105938333D01*
X143494523Y-105938333D02*
X143446904Y-106081190D01*
X143446904Y-106081190D02*
X142875476Y-106652619D01*
X142875476Y-106652619D02*
X143494523Y-106652619D01*
X144351666Y-105985952D02*
X144351666Y-106652619D01*
X144113571Y-105605000D02*
X143875476Y-106319285D01*
X143875476Y-106319285D02*
X144494523Y-106319285D01*
%TO.C,C13*%
X120757142Y-134967381D02*
X120709523Y-135015001D01*
X120709523Y-135015001D02*
X120566666Y-135062620D01*
X120566666Y-135062620D02*
X120471428Y-135062620D01*
X120471428Y-135062620D02*
X120328571Y-135015001D01*
X120328571Y-135015001D02*
X120233333Y-134919762D01*
X120233333Y-134919762D02*
X120185714Y-134824524D01*
X120185714Y-134824524D02*
X120138095Y-134634048D01*
X120138095Y-134634048D02*
X120138095Y-134491191D01*
X120138095Y-134491191D02*
X120185714Y-134300715D01*
X120185714Y-134300715D02*
X120233333Y-134205477D01*
X120233333Y-134205477D02*
X120328571Y-134110239D01*
X120328571Y-134110239D02*
X120471428Y-134062620D01*
X120471428Y-134062620D02*
X120566666Y-134062620D01*
X120566666Y-134062620D02*
X120709523Y-134110239D01*
X120709523Y-134110239D02*
X120757142Y-134157858D01*
X121709523Y-135062620D02*
X121138095Y-135062620D01*
X121423809Y-135062620D02*
X121423809Y-134062620D01*
X121423809Y-134062620D02*
X121328571Y-134205477D01*
X121328571Y-134205477D02*
X121233333Y-134300715D01*
X121233333Y-134300715D02*
X121138095Y-134348334D01*
X122042857Y-134062620D02*
X122661904Y-134062620D01*
X122661904Y-134062620D02*
X122328571Y-134443572D01*
X122328571Y-134443572D02*
X122471428Y-134443572D01*
X122471428Y-134443572D02*
X122566666Y-134491191D01*
X122566666Y-134491191D02*
X122614285Y-134538810D01*
X122614285Y-134538810D02*
X122661904Y-134634048D01*
X122661904Y-134634048D02*
X122661904Y-134872143D01*
X122661904Y-134872143D02*
X122614285Y-134967381D01*
X122614285Y-134967381D02*
X122566666Y-135015001D01*
X122566666Y-135015001D02*
X122471428Y-135062620D01*
X122471428Y-135062620D02*
X122185714Y-135062620D01*
X122185714Y-135062620D02*
X122090476Y-135015001D01*
X122090476Y-135015001D02*
X122042857Y-134967381D01*
%TO.C,C1*%
X133033333Y-77767380D02*
X132985714Y-77815000D01*
X132985714Y-77815000D02*
X132842857Y-77862619D01*
X132842857Y-77862619D02*
X132747619Y-77862619D01*
X132747619Y-77862619D02*
X132604762Y-77815000D01*
X132604762Y-77815000D02*
X132509524Y-77719761D01*
X132509524Y-77719761D02*
X132461905Y-77624523D01*
X132461905Y-77624523D02*
X132414286Y-77434047D01*
X132414286Y-77434047D02*
X132414286Y-77291190D01*
X132414286Y-77291190D02*
X132461905Y-77100714D01*
X132461905Y-77100714D02*
X132509524Y-77005476D01*
X132509524Y-77005476D02*
X132604762Y-76910238D01*
X132604762Y-76910238D02*
X132747619Y-76862619D01*
X132747619Y-76862619D02*
X132842857Y-76862619D01*
X132842857Y-76862619D02*
X132985714Y-76910238D01*
X132985714Y-76910238D02*
X133033333Y-76957857D01*
X133985714Y-77862619D02*
X133414286Y-77862619D01*
X133700000Y-77862619D02*
X133700000Y-76862619D01*
X133700000Y-76862619D02*
X133604762Y-77005476D01*
X133604762Y-77005476D02*
X133509524Y-77100714D01*
X133509524Y-77100714D02*
X133414286Y-77148333D01*
%TO.C,X1*%
X106102619Y-80314523D02*
X107102619Y-79647857D01*
X106102619Y-79647857D02*
X107102619Y-80314523D01*
X107102619Y-78743095D02*
X107102619Y-79314523D01*
X107102619Y-79028809D02*
X106102619Y-79028809D01*
X106102619Y-79028809D02*
X106245476Y-79124047D01*
X106245476Y-79124047D02*
X106340714Y-79219285D01*
X106340714Y-79219285D02*
X106388333Y-79314523D01*
%TO.C,C5*%
X128828333Y-110627380D02*
X128780714Y-110675000D01*
X128780714Y-110675000D02*
X128637857Y-110722619D01*
X128637857Y-110722619D02*
X128542619Y-110722619D01*
X128542619Y-110722619D02*
X128399762Y-110675000D01*
X128399762Y-110675000D02*
X128304524Y-110579761D01*
X128304524Y-110579761D02*
X128256905Y-110484523D01*
X128256905Y-110484523D02*
X128209286Y-110294047D01*
X128209286Y-110294047D02*
X128209286Y-110151190D01*
X128209286Y-110151190D02*
X128256905Y-109960714D01*
X128256905Y-109960714D02*
X128304524Y-109865476D01*
X128304524Y-109865476D02*
X128399762Y-109770238D01*
X128399762Y-109770238D02*
X128542619Y-109722619D01*
X128542619Y-109722619D02*
X128637857Y-109722619D01*
X128637857Y-109722619D02*
X128780714Y-109770238D01*
X128780714Y-109770238D02*
X128828333Y-109817857D01*
X129733095Y-109722619D02*
X129256905Y-109722619D01*
X129256905Y-109722619D02*
X129209286Y-110198809D01*
X129209286Y-110198809D02*
X129256905Y-110151190D01*
X129256905Y-110151190D02*
X129352143Y-110103571D01*
X129352143Y-110103571D02*
X129590238Y-110103571D01*
X129590238Y-110103571D02*
X129685476Y-110151190D01*
X129685476Y-110151190D02*
X129733095Y-110198809D01*
X129733095Y-110198809D02*
X129780714Y-110294047D01*
X129780714Y-110294047D02*
X129780714Y-110532142D01*
X129780714Y-110532142D02*
X129733095Y-110627380D01*
X129733095Y-110627380D02*
X129685476Y-110675000D01*
X129685476Y-110675000D02*
X129590238Y-110722619D01*
X129590238Y-110722619D02*
X129352143Y-110722619D01*
X129352143Y-110722619D02*
X129256905Y-110675000D01*
X129256905Y-110675000D02*
X129209286Y-110627380D01*
%TO.C,D2*%
X144661905Y-125462619D02*
X144661905Y-124462619D01*
X144661905Y-124462619D02*
X144900000Y-124462619D01*
X144900000Y-124462619D02*
X145042857Y-124510238D01*
X145042857Y-124510238D02*
X145138095Y-124605476D01*
X145138095Y-124605476D02*
X145185714Y-124700714D01*
X145185714Y-124700714D02*
X145233333Y-124891190D01*
X145233333Y-124891190D02*
X145233333Y-125034047D01*
X145233333Y-125034047D02*
X145185714Y-125224523D01*
X145185714Y-125224523D02*
X145138095Y-125319761D01*
X145138095Y-125319761D02*
X145042857Y-125415000D01*
X145042857Y-125415000D02*
X144900000Y-125462619D01*
X144900000Y-125462619D02*
X144661905Y-125462619D01*
X145614286Y-124557857D02*
X145661905Y-124510238D01*
X145661905Y-124510238D02*
X145757143Y-124462619D01*
X145757143Y-124462619D02*
X145995238Y-124462619D01*
X145995238Y-124462619D02*
X146090476Y-124510238D01*
X146090476Y-124510238D02*
X146138095Y-124557857D01*
X146138095Y-124557857D02*
X146185714Y-124653095D01*
X146185714Y-124653095D02*
X146185714Y-124748333D01*
X146185714Y-124748333D02*
X146138095Y-124891190D01*
X146138095Y-124891190D02*
X145566667Y-125462619D01*
X145566667Y-125462619D02*
X146185714Y-125462619D01*
X149582591Y-122936904D02*
X150058781Y-122936904D01*
X149487353Y-123222619D02*
X149820686Y-122222619D01*
X149820686Y-122222619D02*
X150154019Y-123222619D01*
%TO.C,R25*%
X139232142Y-113842619D02*
X138898809Y-113366428D01*
X138660714Y-113842619D02*
X138660714Y-112842619D01*
X138660714Y-112842619D02*
X139041666Y-112842619D01*
X139041666Y-112842619D02*
X139136904Y-112890238D01*
X139136904Y-112890238D02*
X139184523Y-112937857D01*
X139184523Y-112937857D02*
X139232142Y-113033095D01*
X139232142Y-113033095D02*
X139232142Y-113175952D01*
X139232142Y-113175952D02*
X139184523Y-113271190D01*
X139184523Y-113271190D02*
X139136904Y-113318809D01*
X139136904Y-113318809D02*
X139041666Y-113366428D01*
X139041666Y-113366428D02*
X138660714Y-113366428D01*
X139613095Y-112937857D02*
X139660714Y-112890238D01*
X139660714Y-112890238D02*
X139755952Y-112842619D01*
X139755952Y-112842619D02*
X139994047Y-112842619D01*
X139994047Y-112842619D02*
X140089285Y-112890238D01*
X140089285Y-112890238D02*
X140136904Y-112937857D01*
X140136904Y-112937857D02*
X140184523Y-113033095D01*
X140184523Y-113033095D02*
X140184523Y-113128333D01*
X140184523Y-113128333D02*
X140136904Y-113271190D01*
X140136904Y-113271190D02*
X139565476Y-113842619D01*
X139565476Y-113842619D02*
X140184523Y-113842619D01*
X141089285Y-112842619D02*
X140613095Y-112842619D01*
X140613095Y-112842619D02*
X140565476Y-113318809D01*
X140565476Y-113318809D02*
X140613095Y-113271190D01*
X140613095Y-113271190D02*
X140708333Y-113223571D01*
X140708333Y-113223571D02*
X140946428Y-113223571D01*
X140946428Y-113223571D02*
X141041666Y-113271190D01*
X141041666Y-113271190D02*
X141089285Y-113318809D01*
X141089285Y-113318809D02*
X141136904Y-113414047D01*
X141136904Y-113414047D02*
X141136904Y-113652142D01*
X141136904Y-113652142D02*
X141089285Y-113747380D01*
X141089285Y-113747380D02*
X141041666Y-113795000D01*
X141041666Y-113795000D02*
X140946428Y-113842619D01*
X140946428Y-113842619D02*
X140708333Y-113842619D01*
X140708333Y-113842619D02*
X140613095Y-113795000D01*
X140613095Y-113795000D02*
X140565476Y-113747380D01*
%TO.C,R23*%
X152157619Y-101872857D02*
X151681428Y-102206190D01*
X152157619Y-102444285D02*
X151157619Y-102444285D01*
X151157619Y-102444285D02*
X151157619Y-102063333D01*
X151157619Y-102063333D02*
X151205238Y-101968095D01*
X151205238Y-101968095D02*
X151252857Y-101920476D01*
X151252857Y-101920476D02*
X151348095Y-101872857D01*
X151348095Y-101872857D02*
X151490952Y-101872857D01*
X151490952Y-101872857D02*
X151586190Y-101920476D01*
X151586190Y-101920476D02*
X151633809Y-101968095D01*
X151633809Y-101968095D02*
X151681428Y-102063333D01*
X151681428Y-102063333D02*
X151681428Y-102444285D01*
X151252857Y-101491904D02*
X151205238Y-101444285D01*
X151205238Y-101444285D02*
X151157619Y-101349047D01*
X151157619Y-101349047D02*
X151157619Y-101110952D01*
X151157619Y-101110952D02*
X151205238Y-101015714D01*
X151205238Y-101015714D02*
X151252857Y-100968095D01*
X151252857Y-100968095D02*
X151348095Y-100920476D01*
X151348095Y-100920476D02*
X151443333Y-100920476D01*
X151443333Y-100920476D02*
X151586190Y-100968095D01*
X151586190Y-100968095D02*
X152157619Y-101539523D01*
X152157619Y-101539523D02*
X152157619Y-100920476D01*
X151157619Y-100587142D02*
X151157619Y-99968095D01*
X151157619Y-99968095D02*
X151538571Y-100301428D01*
X151538571Y-100301428D02*
X151538571Y-100158571D01*
X151538571Y-100158571D02*
X151586190Y-100063333D01*
X151586190Y-100063333D02*
X151633809Y-100015714D01*
X151633809Y-100015714D02*
X151729047Y-99968095D01*
X151729047Y-99968095D02*
X151967142Y-99968095D01*
X151967142Y-99968095D02*
X152062380Y-100015714D01*
X152062380Y-100015714D02*
X152110000Y-100063333D01*
X152110000Y-100063333D02*
X152157619Y-100158571D01*
X152157619Y-100158571D02*
X152157619Y-100444285D01*
X152157619Y-100444285D02*
X152110000Y-100539523D01*
X152110000Y-100539523D02*
X152062380Y-100587142D01*
%TO.C,Q1*%
X114634761Y-134122857D02*
X114539523Y-134075238D01*
X114539523Y-134075238D02*
X114444285Y-133980000D01*
X114444285Y-133980000D02*
X114301428Y-133837142D01*
X114301428Y-133837142D02*
X114206190Y-133789523D01*
X114206190Y-133789523D02*
X114110952Y-133789523D01*
X114158571Y-134027619D02*
X114063333Y-133980000D01*
X114063333Y-133980000D02*
X113968095Y-133884761D01*
X113968095Y-133884761D02*
X113920476Y-133694285D01*
X113920476Y-133694285D02*
X113920476Y-133360952D01*
X113920476Y-133360952D02*
X113968095Y-133170476D01*
X113968095Y-133170476D02*
X114063333Y-133075238D01*
X114063333Y-133075238D02*
X114158571Y-133027619D01*
X114158571Y-133027619D02*
X114349047Y-133027619D01*
X114349047Y-133027619D02*
X114444285Y-133075238D01*
X114444285Y-133075238D02*
X114539523Y-133170476D01*
X114539523Y-133170476D02*
X114587142Y-133360952D01*
X114587142Y-133360952D02*
X114587142Y-133694285D01*
X114587142Y-133694285D02*
X114539523Y-133884761D01*
X114539523Y-133884761D02*
X114444285Y-133980000D01*
X114444285Y-133980000D02*
X114349047Y-134027619D01*
X114349047Y-134027619D02*
X114158571Y-134027619D01*
X115539523Y-134027619D02*
X114968095Y-134027619D01*
X115253809Y-134027619D02*
X115253809Y-133027619D01*
X115253809Y-133027619D02*
X115158571Y-133170476D01*
X115158571Y-133170476D02*
X115063333Y-133265714D01*
X115063333Y-133265714D02*
X114968095Y-133313333D01*
%TO.C,RV1*%
X119799761Y-115722619D02*
X119466428Y-115246428D01*
X119228333Y-115722619D02*
X119228333Y-114722619D01*
X119228333Y-114722619D02*
X119609285Y-114722619D01*
X119609285Y-114722619D02*
X119704523Y-114770238D01*
X119704523Y-114770238D02*
X119752142Y-114817857D01*
X119752142Y-114817857D02*
X119799761Y-114913095D01*
X119799761Y-114913095D02*
X119799761Y-115055952D01*
X119799761Y-115055952D02*
X119752142Y-115151190D01*
X119752142Y-115151190D02*
X119704523Y-115198809D01*
X119704523Y-115198809D02*
X119609285Y-115246428D01*
X119609285Y-115246428D02*
X119228333Y-115246428D01*
X120085476Y-114722619D02*
X120418809Y-115722619D01*
X120418809Y-115722619D02*
X120752142Y-114722619D01*
X121609285Y-115722619D02*
X121037857Y-115722619D01*
X121323571Y-115722619D02*
X121323571Y-114722619D01*
X121323571Y-114722619D02*
X121228333Y-114865476D01*
X121228333Y-114865476D02*
X121133095Y-114960714D01*
X121133095Y-114960714D02*
X121037857Y-115008333D01*
%TO.C,U3*%
X109233095Y-116122619D02*
X109233095Y-116932142D01*
X109233095Y-116932142D02*
X109280714Y-117027380D01*
X109280714Y-117027380D02*
X109328333Y-117075000D01*
X109328333Y-117075000D02*
X109423571Y-117122619D01*
X109423571Y-117122619D02*
X109614047Y-117122619D01*
X109614047Y-117122619D02*
X109709285Y-117075000D01*
X109709285Y-117075000D02*
X109756904Y-117027380D01*
X109756904Y-117027380D02*
X109804523Y-116932142D01*
X109804523Y-116932142D02*
X109804523Y-116122619D01*
X110185476Y-116122619D02*
X110804523Y-116122619D01*
X110804523Y-116122619D02*
X110471190Y-116503571D01*
X110471190Y-116503571D02*
X110614047Y-116503571D01*
X110614047Y-116503571D02*
X110709285Y-116551190D01*
X110709285Y-116551190D02*
X110756904Y-116598809D01*
X110756904Y-116598809D02*
X110804523Y-116694047D01*
X110804523Y-116694047D02*
X110804523Y-116932142D01*
X110804523Y-116932142D02*
X110756904Y-117027380D01*
X110756904Y-117027380D02*
X110709285Y-117075000D01*
X110709285Y-117075000D02*
X110614047Y-117122619D01*
X110614047Y-117122619D02*
X110328333Y-117122619D01*
X110328333Y-117122619D02*
X110233095Y-117075000D01*
X110233095Y-117075000D02*
X110185476Y-117027380D01*
%TO.C,C6*%
X150928333Y-84267380D02*
X150880714Y-84315000D01*
X150880714Y-84315000D02*
X150737857Y-84362619D01*
X150737857Y-84362619D02*
X150642619Y-84362619D01*
X150642619Y-84362619D02*
X150499762Y-84315000D01*
X150499762Y-84315000D02*
X150404524Y-84219761D01*
X150404524Y-84219761D02*
X150356905Y-84124523D01*
X150356905Y-84124523D02*
X150309286Y-83934047D01*
X150309286Y-83934047D02*
X150309286Y-83791190D01*
X150309286Y-83791190D02*
X150356905Y-83600714D01*
X150356905Y-83600714D02*
X150404524Y-83505476D01*
X150404524Y-83505476D02*
X150499762Y-83410238D01*
X150499762Y-83410238D02*
X150642619Y-83362619D01*
X150642619Y-83362619D02*
X150737857Y-83362619D01*
X150737857Y-83362619D02*
X150880714Y-83410238D01*
X150880714Y-83410238D02*
X150928333Y-83457857D01*
X151785476Y-83362619D02*
X151595000Y-83362619D01*
X151595000Y-83362619D02*
X151499762Y-83410238D01*
X151499762Y-83410238D02*
X151452143Y-83457857D01*
X151452143Y-83457857D02*
X151356905Y-83600714D01*
X151356905Y-83600714D02*
X151309286Y-83791190D01*
X151309286Y-83791190D02*
X151309286Y-84172142D01*
X151309286Y-84172142D02*
X151356905Y-84267380D01*
X151356905Y-84267380D02*
X151404524Y-84315000D01*
X151404524Y-84315000D02*
X151499762Y-84362619D01*
X151499762Y-84362619D02*
X151690238Y-84362619D01*
X151690238Y-84362619D02*
X151785476Y-84315000D01*
X151785476Y-84315000D02*
X151833095Y-84267380D01*
X151833095Y-84267380D02*
X151880714Y-84172142D01*
X151880714Y-84172142D02*
X151880714Y-83934047D01*
X151880714Y-83934047D02*
X151833095Y-83838809D01*
X151833095Y-83838809D02*
X151785476Y-83791190D01*
X151785476Y-83791190D02*
X151690238Y-83743571D01*
X151690238Y-83743571D02*
X151499762Y-83743571D01*
X151499762Y-83743571D02*
X151404524Y-83791190D01*
X151404524Y-83791190D02*
X151356905Y-83838809D01*
X151356905Y-83838809D02*
X151309286Y-83934047D01*
D11*
%TO.C,RV2*%
X129675000Y-119595000D02*
X127889000Y-119595000D01*
X129675000Y-119595000D02*
X129675000Y-126545000D01*
X126899000Y-119595000D02*
X124935000Y-119595000D01*
X124935000Y-119595000D02*
X124935000Y-126545000D01*
X129675000Y-126545000D02*
X127889000Y-126545000D01*
X126899000Y-126545000D02*
X124935000Y-126545000D01*
%TO.C,TP3*%
X148475000Y-126850000D02*
G75*
G03*
X148475000Y-126850000I-1200000J0D01*
G01*
%TO.C,TP2*%
X127600000Y-134000000D02*
G75*
G03*
X127600000Y-134000000I-1200000J0D01*
G01*
%TO.C,TP1*%
X127775000Y-99590000D02*
G75*
G03*
X127775000Y-99590000I-1200000J0D01*
G01*
%TO.C,R2*%
X126695000Y-104875000D02*
X126695000Y-104805000D01*
X128065000Y-106245000D02*
G75*
G03*
X128065000Y-106245000I-1370000J0D01*
G01*
%TO.C,C2*%
X113625000Y-123780000D02*
X118365000Y-123780000D01*
X113625000Y-123780000D02*
X113625000Y-116340000D01*
X118365000Y-123780000D02*
X118365000Y-116340000D01*
X113625000Y-116340000D02*
X118365000Y-116340000D01*
%TO.C,J1*%
X126395000Y-87930000D02*
X126395000Y-86600000D01*
X127725000Y-87930000D02*
X126395000Y-87930000D01*
X128995000Y-87930000D02*
X131595000Y-87930000D01*
X128995000Y-87930000D02*
X128995000Y-85270000D01*
X131595000Y-87930000D02*
X131595000Y-85270000D01*
X128995000Y-85270000D02*
X131595000Y-85270000D01*
%TO.C,R5*%
X120535000Y-100572936D02*
X120535000Y-101027064D01*
X119065000Y-100572936D02*
X119065000Y-101027064D01*
%TO.C,R20*%
X129020000Y-95230000D02*
X129090000Y-95230000D01*
X129020000Y-95230000D02*
G75*
G03*
X129020000Y-95230000I-1370000J0D01*
G01*
%TO.C,J3*%
X147150000Y-98890000D02*
X147150000Y-97560000D01*
X148480000Y-98890000D02*
X147150000Y-98890000D01*
X149750000Y-98890000D02*
X152350000Y-98890000D01*
X149750000Y-98890000D02*
X149750000Y-96230000D01*
X152350000Y-98890000D02*
X152350000Y-96230000D01*
X149750000Y-96230000D02*
X152350000Y-96230000D01*
%TO.C,R28*%
X115970000Y-125600000D02*
G75*
G03*
X115970000Y-125600000I-1370000J0D01*
G01*
X115970000Y-125600000D02*
X116040000Y-125600000D01*
%TO.C,C8*%
X130830000Y-99240000D02*
X130830000Y-103480000D01*
X130830000Y-99240000D02*
X144070000Y-99240000D01*
X130830000Y-103480000D02*
X144070000Y-103480000D01*
X144070000Y-99240000D02*
X144070000Y-103480000D01*
%TO.C,R3*%
X125800000Y-114965000D02*
X124470000Y-114965000D01*
X125800000Y-113635000D02*
X125800000Y-114965000D01*
X125800000Y-112365000D02*
X125800000Y-109765000D01*
X125800000Y-112365000D02*
X123140000Y-112365000D01*
X125800000Y-109765000D02*
X123140000Y-109765000D01*
X123140000Y-112365000D02*
X123140000Y-109765000D01*
%TO.C,R15*%
X114535000Y-105572936D02*
X114535000Y-106027064D01*
X113065000Y-105572936D02*
X113065000Y-106027064D01*
%TO.C,C11*%
X138165000Y-126430000D02*
X138165000Y-121690000D01*
X138165000Y-126430000D02*
X130725000Y-126430000D01*
X138165000Y-121690000D02*
X130725000Y-121690000D01*
X130725000Y-126430000D02*
X130725000Y-121690000D01*
%TO.C,R8*%
X111535000Y-100572936D02*
X111535000Y-101027064D01*
X110065000Y-100572936D02*
X110065000Y-101027064D01*
%TO.C,C10*%
X152015000Y-133380000D02*
X152015000Y-129140000D01*
X152015000Y-133380000D02*
X138775000Y-133380000D01*
X152015000Y-129140000D02*
X138775000Y-129140000D01*
X138775000Y-133380000D02*
X138775000Y-129140000D01*
%TO.C,D1*%
X106645000Y-115240000D02*
X112805000Y-115240000D01*
X106645000Y-115240000D02*
X106645000Y-110120000D01*
X103975000Y-113950000D02*
X103975000Y-113950000D01*
X103975000Y-113950000D02*
X106645000Y-113950000D01*
X106645000Y-113950000D02*
X103975000Y-113950000D01*
X106645000Y-113950000D02*
X106645000Y-113950000D01*
X103975000Y-111410000D02*
X103975000Y-111410000D01*
X103975000Y-111410000D02*
X106645000Y-111410000D01*
X106645000Y-111410000D02*
X103975000Y-111410000D01*
X106645000Y-111410000D02*
X106645000Y-111410000D01*
X106645000Y-110120000D02*
X112805000Y-110120000D01*
X106645000Y-110120000D02*
X106645000Y-109720000D01*
X107765000Y-110120000D02*
X106645000Y-110120000D01*
X106645000Y-109720000D02*
X107765000Y-109720000D01*
X107765000Y-109720000D02*
X107765000Y-110120000D01*
X112805000Y-115240000D02*
G75*
G03*
X112805000Y-110120000I0J2560000D01*
G01*
%TO.C,R7*%
X114535000Y-100572936D02*
X114535000Y-101027064D01*
X113065000Y-100572936D02*
X113065000Y-101027064D01*
%TO.C,R29*%
X110200000Y-126275000D02*
X110200000Y-126205000D01*
X111570000Y-127645000D02*
G75*
G03*
X111570000Y-127645000I-1370000J0D01*
G01*
%TO.C,R26*%
X136745000Y-129385000D02*
X136745000Y-129315000D01*
X138115000Y-130755000D02*
G75*
G03*
X138115000Y-130755000I-1370000J0D01*
G01*
%TO.C,R18*%
X105535000Y-105572936D02*
X105535000Y-106027064D01*
X104065000Y-105572936D02*
X104065000Y-106027064D01*
%TO.C,R16*%
X111535000Y-105572936D02*
X111535000Y-106027064D01*
X110065000Y-105572936D02*
X110065000Y-106027064D01*
%TO.C,R21*%
X134125000Y-96800000D02*
X134195000Y-96800000D01*
X134125000Y-96800000D02*
G75*
G03*
X134125000Y-96800000I-1370000J0D01*
G01*
%TO.C,R22*%
X147295000Y-105505000D02*
X147295000Y-105435000D01*
X148665000Y-106875000D02*
G75*
G03*
X148665000Y-106875000I-1370000J0D01*
G01*
%TO.C,R1*%
X106730000Y-119957936D02*
X106730000Y-120412064D01*
X105260000Y-119957936D02*
X105260000Y-120412064D01*
%TO.C,R13*%
X120535000Y-105572936D02*
X120535000Y-106027064D01*
X119065000Y-105572936D02*
X119065000Y-106027064D01*
%TO.C,C9*%
X144070000Y-108580000D02*
X144070000Y-104340000D01*
X144070000Y-108580000D02*
X130830000Y-108580000D01*
X144070000Y-104340000D02*
X130830000Y-104340000D01*
X130830000Y-108580000D02*
X130830000Y-104340000D01*
%TO.C,R14*%
X117535000Y-105572936D02*
X117535000Y-106027064D01*
X116065000Y-105572936D02*
X116065000Y-106027064D01*
%TO.C,C3*%
X114080000Y-79680000D02*
X114080000Y-82420000D01*
X114080000Y-79680000D02*
X121520000Y-79680000D01*
X114080000Y-82420000D02*
X121520000Y-82420000D01*
X121520000Y-79680000D02*
X121520000Y-82420000D01*
%TO.C,C7*%
X136545000Y-87450000D02*
X136545000Y-93690000D01*
X136545000Y-87450000D02*
X149785000Y-87450000D01*
X136545000Y-93690000D02*
X149785000Y-93690000D01*
X149785000Y-87450000D02*
X149785000Y-93690000D01*
%TO.C,J2*%
X124630000Y-92170000D02*
X123300000Y-92170000D01*
X124630000Y-90840000D02*
X124630000Y-92170000D01*
X124630000Y-89570000D02*
X124630000Y-84430000D01*
X124630000Y-89570000D02*
X121970000Y-89570000D01*
X124630000Y-84430000D02*
X121970000Y-84430000D01*
X121970000Y-89570000D02*
X121970000Y-84430000D01*
%TO.C,R12*%
X123535000Y-105572936D02*
X123535000Y-106027064D01*
X122065000Y-105572936D02*
X122065000Y-106027064D01*
%TO.C,R4*%
X123535000Y-100572936D02*
X123535000Y-101027064D01*
X122065000Y-100572936D02*
X122065000Y-101027064D01*
%TO.C,R27*%
X121645000Y-125560000D02*
X121715000Y-125560000D01*
X121645000Y-125560000D02*
G75*
G03*
X121645000Y-125560000I-1370000J0D01*
G01*
%TO.C,R9*%
X108535000Y-100572936D02*
X108535000Y-101027064D01*
X107065000Y-100572936D02*
X107065000Y-101027064D01*
%TO.C,R6*%
X117535000Y-100572936D02*
X117535000Y-101027064D01*
X116065000Y-100572936D02*
X116065000Y-101027064D01*
%TO.C,R19*%
X102535000Y-105572936D02*
X102535000Y-106027064D01*
X101065000Y-105572936D02*
X101065000Y-106027064D01*
%TO.C,R11*%
X102535000Y-100572936D02*
X102535000Y-101027064D01*
X101065000Y-100572936D02*
X101065000Y-101027064D01*
%TO.C,C12*%
X134670000Y-130477621D02*
G75*
G03*
X134670000Y-130477621I-3270000J0D01*
G01*
X131802000Y-133718621D02*
X130998000Y-133718621D01*
X132033000Y-133678621D02*
X130767000Y-133678621D01*
X132202000Y-133638621D02*
X130598000Y-133638621D01*
X132340000Y-133598621D02*
X130460000Y-133598621D01*
X132459000Y-133558621D02*
X130341000Y-133558621D01*
X132565000Y-133518621D02*
X130235000Y-133518621D01*
X132662000Y-133478621D02*
X130138000Y-133478621D01*
X132750000Y-133438621D02*
X130050000Y-133438621D01*
X132832000Y-133398621D02*
X129968000Y-133398621D01*
X132909000Y-133358621D02*
X129891000Y-133358621D01*
X132981000Y-133318621D02*
X129819000Y-133318621D01*
X133050000Y-133278621D02*
X129750000Y-133278621D01*
X133114000Y-133238621D02*
X129686000Y-133238621D01*
X133176000Y-133198621D02*
X129624000Y-133198621D01*
X133234000Y-133158621D02*
X129566000Y-133158621D01*
X133290000Y-133118621D02*
X129510000Y-133118621D01*
X133344000Y-133078621D02*
X129456000Y-133078621D01*
X133395000Y-133038621D02*
X129405000Y-133038621D01*
X133444000Y-132998621D02*
X129356000Y-132998621D01*
X133492000Y-132958621D02*
X129308000Y-132958621D01*
X133537000Y-132918621D02*
X129263000Y-132918621D01*
X133582000Y-132878621D02*
X129218000Y-132878621D01*
X133624000Y-132838621D02*
X129176000Y-132838621D01*
X133665000Y-132798621D02*
X129135000Y-132798621D01*
X130360000Y-132758621D02*
X129095000Y-132758621D01*
X133705000Y-132758621D02*
X132440000Y-132758621D01*
X130360000Y-132718621D02*
X129057000Y-132718621D01*
X133743000Y-132718621D02*
X132440000Y-132718621D01*
X130360000Y-132678621D02*
X129020000Y-132678621D01*
X133780000Y-132678621D02*
X132440000Y-132678621D01*
X130360000Y-132638621D02*
X128984000Y-132638621D01*
X133816000Y-132638621D02*
X132440000Y-132638621D01*
X130360000Y-132598621D02*
X128950000Y-132598621D01*
X133850000Y-132598621D02*
X132440000Y-132598621D01*
X130360000Y-132558621D02*
X128916000Y-132558621D01*
X133884000Y-132558621D02*
X132440000Y-132558621D01*
X130360000Y-132518621D02*
X128884000Y-132518621D01*
X133916000Y-132518621D02*
X132440000Y-132518621D01*
X130360000Y-132478621D02*
X128852000Y-132478621D01*
X133948000Y-132478621D02*
X132440000Y-132478621D01*
X130360000Y-132438621D02*
X128822000Y-132438621D01*
X133978000Y-132438621D02*
X132440000Y-132438621D01*
X130360000Y-132398621D02*
X128793000Y-132398621D01*
X134007000Y-132398621D02*
X132440000Y-132398621D01*
X130360000Y-132358621D02*
X128764000Y-132358621D01*
X134036000Y-132358621D02*
X132440000Y-132358621D01*
X130360000Y-132318621D02*
X128736000Y-132318621D01*
X134064000Y-132318621D02*
X132440000Y-132318621D01*
X130360000Y-132278621D02*
X128710000Y-132278621D01*
X134090000Y-132278621D02*
X132440000Y-132278621D01*
X130360000Y-132238621D02*
X128684000Y-132238621D01*
X134116000Y-132238621D02*
X132440000Y-132238621D01*
X130360000Y-132198621D02*
X128658000Y-132198621D01*
X134142000Y-132198621D02*
X132440000Y-132198621D01*
X130360000Y-132158621D02*
X128634000Y-132158621D01*
X134166000Y-132158621D02*
X132440000Y-132158621D01*
X130360000Y-132118621D02*
X128610000Y-132118621D01*
X134190000Y-132118621D02*
X132440000Y-132118621D01*
X130360000Y-132078621D02*
X128588000Y-132078621D01*
X134212000Y-132078621D02*
X132440000Y-132078621D01*
X130360000Y-132038621D02*
X128566000Y-132038621D01*
X134234000Y-132038621D02*
X132440000Y-132038621D01*
X130360000Y-131998621D02*
X128544000Y-131998621D01*
X134256000Y-131998621D02*
X132440000Y-131998621D01*
X130360000Y-131958621D02*
X128524000Y-131958621D01*
X134276000Y-131958621D02*
X132440000Y-131958621D01*
X130360000Y-131918621D02*
X128504000Y-131918621D01*
X134296000Y-131918621D02*
X132440000Y-131918621D01*
X130360000Y-131878621D02*
X128484000Y-131878621D01*
X134316000Y-131878621D02*
X132440000Y-131878621D01*
X130360000Y-131838621D02*
X128466000Y-131838621D01*
X134334000Y-131838621D02*
X132440000Y-131838621D01*
X130360000Y-131798621D02*
X128448000Y-131798621D01*
X134352000Y-131798621D02*
X132440000Y-131798621D01*
X130360000Y-131758621D02*
X128430000Y-131758621D01*
X134370000Y-131758621D02*
X132440000Y-131758621D01*
X130360000Y-131718621D02*
X128414000Y-131718621D01*
X134386000Y-131718621D02*
X132440000Y-131718621D01*
X130360000Y-131678621D02*
X128398000Y-131678621D01*
X134402000Y-131678621D02*
X132440000Y-131678621D01*
X130360000Y-131638621D02*
X128382000Y-131638621D01*
X134418000Y-131638621D02*
X132440000Y-131638621D01*
X130360000Y-131598621D02*
X128367000Y-131598621D01*
X134433000Y-131598621D02*
X132440000Y-131598621D01*
X130360000Y-131558621D02*
X128353000Y-131558621D01*
X134447000Y-131558621D02*
X132440000Y-131558621D01*
X130360000Y-131518621D02*
X128339000Y-131518621D01*
X134461000Y-131518621D02*
X132440000Y-131518621D01*
X130360000Y-131478621D02*
X128326000Y-131478621D01*
X134474000Y-131478621D02*
X132440000Y-131478621D01*
X130360000Y-131438621D02*
X128314000Y-131438621D01*
X134486000Y-131438621D02*
X132440000Y-131438621D01*
X130360000Y-131398621D02*
X128302000Y-131398621D01*
X134498000Y-131398621D02*
X132440000Y-131398621D01*
X130360000Y-131358621D02*
X128290000Y-131358621D01*
X134510000Y-131358621D02*
X132440000Y-131358621D01*
X130360000Y-131318621D02*
X128279000Y-131318621D01*
X134521000Y-131318621D02*
X132440000Y-131318621D01*
X130360000Y-131278621D02*
X128269000Y-131278621D01*
X134531000Y-131278621D02*
X132440000Y-131278621D01*
X130360000Y-131238621D02*
X128259000Y-131238621D01*
X134541000Y-131238621D02*
X132440000Y-131238621D01*
X130360000Y-131198621D02*
X128250000Y-131198621D01*
X134550000Y-131198621D02*
X132440000Y-131198621D01*
X130360000Y-131157621D02*
X128241000Y-131157621D01*
X134559000Y-131157621D02*
X132440000Y-131157621D01*
X130360000Y-131117621D02*
X128233000Y-131117621D01*
X134567000Y-131117621D02*
X132440000Y-131117621D01*
X130360000Y-131077621D02*
X128225000Y-131077621D01*
X134575000Y-131077621D02*
X132440000Y-131077621D01*
X130360000Y-131037621D02*
X128218000Y-131037621D01*
X134582000Y-131037621D02*
X132440000Y-131037621D01*
X130360000Y-130997621D02*
X128211000Y-130997621D01*
X134589000Y-130997621D02*
X132440000Y-130997621D01*
X130360000Y-130957621D02*
X128205000Y-130957621D01*
X134595000Y-130957621D02*
X132440000Y-130957621D01*
X130360000Y-130917621D02*
X128199000Y-130917621D01*
X134601000Y-130917621D02*
X132440000Y-130917621D01*
X130360000Y-130877621D02*
X128194000Y-130877621D01*
X134606000Y-130877621D02*
X132440000Y-130877621D01*
X130360000Y-130837621D02*
X128189000Y-130837621D01*
X134611000Y-130837621D02*
X132440000Y-130837621D01*
X130360000Y-130797621D02*
X128185000Y-130797621D01*
X134615000Y-130797621D02*
X132440000Y-130797621D01*
X130360000Y-130757621D02*
X128182000Y-130757621D01*
X134618000Y-130757621D02*
X132440000Y-130757621D01*
X130360000Y-130717621D02*
X128178000Y-130717621D01*
X134622000Y-130717621D02*
X132440000Y-130717621D01*
X134624000Y-130677621D02*
X128176000Y-130677621D01*
X134627000Y-130637621D02*
X128173000Y-130637621D01*
X134628000Y-130597621D02*
X128172000Y-130597621D01*
X134630000Y-130557621D02*
X128170000Y-130557621D01*
X134630000Y-130517621D02*
X128170000Y-130517621D01*
X134630000Y-130477621D02*
X128170000Y-130477621D01*
X133554000Y-127292380D02*
X132924000Y-127292380D01*
X133239000Y-126977380D02*
X133239000Y-127607380D01*
%TO.C,C4*%
X126225000Y-90600000D02*
X126225000Y-93340000D01*
X126225000Y-90600000D02*
X133665000Y-90600000D01*
X126225000Y-93340000D02*
X133665000Y-93340000D01*
X133665000Y-90600000D02*
X133665000Y-93340000D01*
%TO.C,U2*%
X100955000Y-93010000D02*
X101200000Y-93010000D01*
X101200000Y-93010000D02*
X101200000Y-94825000D01*
X119075000Y-93010000D02*
X118830000Y-93010000D01*
X100955000Y-89150000D02*
X100955000Y-93010000D01*
X100955000Y-89150000D02*
X100955000Y-85290000D01*
X119075000Y-89150000D02*
X119075000Y-93010000D01*
X119075000Y-89150000D02*
X119075000Y-85290000D01*
X100955000Y-85290000D02*
X101200000Y-85290000D01*
X119075000Y-85290000D02*
X118830000Y-85290000D01*
%TO.C,U1*%
X149275000Y-110530000D02*
X131255000Y-110530000D01*
X131255000Y-110530000D02*
X131255000Y-120810000D01*
X149215000Y-113020000D02*
X131315000Y-113020000D01*
X131315000Y-113020000D02*
X131315000Y-118320000D01*
X149215000Y-114670000D02*
X149215000Y-113020000D01*
X149215000Y-118320000D02*
X149215000Y-116670000D01*
X131315000Y-118320000D02*
X149215000Y-118320000D01*
X149275000Y-120810000D02*
X149275000Y-110530000D01*
X131255000Y-120810000D02*
X149275000Y-120810000D01*
X149215000Y-114670000D02*
G75*
G03*
X149215000Y-116670000I0J-1000000D01*
G01*
%TO.C,R17*%
X108535000Y-105572936D02*
X108535000Y-106027064D01*
X107065000Y-105572936D02*
X107065000Y-106027064D01*
%TO.C,R24*%
X141370000Y-123000000D02*
X141440000Y-123000000D01*
X141370000Y-123000000D02*
G75*
G03*
X141370000Y-123000000I-1370000J0D01*
G01*
%TO.C,C13*%
X123239000Y-126967380D02*
X123239000Y-127597380D01*
X123554000Y-127282380D02*
X122924000Y-127282380D01*
X124630000Y-130467621D02*
X118170000Y-130467621D01*
X124630000Y-130507621D02*
X118170000Y-130507621D01*
X124630000Y-130547621D02*
X118170000Y-130547621D01*
X124628000Y-130587621D02*
X118172000Y-130587621D01*
X124627000Y-130627621D02*
X118173000Y-130627621D01*
X124624000Y-130667621D02*
X118176000Y-130667621D01*
X124622000Y-130707621D02*
X122440000Y-130707621D01*
X120360000Y-130707621D02*
X118178000Y-130707621D01*
X124618000Y-130747621D02*
X122440000Y-130747621D01*
X120360000Y-130747621D02*
X118182000Y-130747621D01*
X124615000Y-130787621D02*
X122440000Y-130787621D01*
X120360000Y-130787621D02*
X118185000Y-130787621D01*
X124611000Y-130827621D02*
X122440000Y-130827621D01*
X120360000Y-130827621D02*
X118189000Y-130827621D01*
X124606000Y-130867621D02*
X122440000Y-130867621D01*
X120360000Y-130867621D02*
X118194000Y-130867621D01*
X124601000Y-130907621D02*
X122440000Y-130907621D01*
X120360000Y-130907621D02*
X118199000Y-130907621D01*
X124595000Y-130947621D02*
X122440000Y-130947621D01*
X120360000Y-130947621D02*
X118205000Y-130947621D01*
X124589000Y-130987621D02*
X122440000Y-130987621D01*
X120360000Y-130987621D02*
X118211000Y-130987621D01*
X124582000Y-131027621D02*
X122440000Y-131027621D01*
X120360000Y-131027621D02*
X118218000Y-131027621D01*
X124575000Y-131067621D02*
X122440000Y-131067621D01*
X120360000Y-131067621D02*
X118225000Y-131067621D01*
X124567000Y-131107621D02*
X122440000Y-131107621D01*
X120360000Y-131107621D02*
X118233000Y-131107621D01*
X124559000Y-131147621D02*
X122440000Y-131147621D01*
X120360000Y-131147621D02*
X118241000Y-131147621D01*
X124550000Y-131188621D02*
X122440000Y-131188621D01*
X120360000Y-131188621D02*
X118250000Y-131188621D01*
X124541000Y-131228621D02*
X122440000Y-131228621D01*
X120360000Y-131228621D02*
X118259000Y-131228621D01*
X124531000Y-131268621D02*
X122440000Y-131268621D01*
X120360000Y-131268621D02*
X118269000Y-131268621D01*
X124521000Y-131308621D02*
X122440000Y-131308621D01*
X120360000Y-131308621D02*
X118279000Y-131308621D01*
X124510000Y-131348621D02*
X122440000Y-131348621D01*
X120360000Y-131348621D02*
X118290000Y-131348621D01*
X124498000Y-131388621D02*
X122440000Y-131388621D01*
X120360000Y-131388621D02*
X118302000Y-131388621D01*
X124486000Y-131428621D02*
X122440000Y-131428621D01*
X120360000Y-131428621D02*
X118314000Y-131428621D01*
X124474000Y-131468621D02*
X122440000Y-131468621D01*
X120360000Y-131468621D02*
X118326000Y-131468621D01*
X124461000Y-131508621D02*
X122440000Y-131508621D01*
X120360000Y-131508621D02*
X118339000Y-131508621D01*
X124447000Y-131548621D02*
X122440000Y-131548621D01*
X120360000Y-131548621D02*
X118353000Y-131548621D01*
X124433000Y-131588621D02*
X122440000Y-131588621D01*
X120360000Y-131588621D02*
X118367000Y-131588621D01*
X124418000Y-131628621D02*
X122440000Y-131628621D01*
X120360000Y-131628621D02*
X118382000Y-131628621D01*
X124402000Y-131668621D02*
X122440000Y-131668621D01*
X120360000Y-131668621D02*
X118398000Y-131668621D01*
X124386000Y-131708621D02*
X122440000Y-131708621D01*
X120360000Y-131708621D02*
X118414000Y-131708621D01*
X124370000Y-131748621D02*
X122440000Y-131748621D01*
X120360000Y-131748621D02*
X118430000Y-131748621D01*
X124352000Y-131788621D02*
X122440000Y-131788621D01*
X120360000Y-131788621D02*
X118448000Y-131788621D01*
X124334000Y-131828621D02*
X122440000Y-131828621D01*
X120360000Y-131828621D02*
X118466000Y-131828621D01*
X124316000Y-131868621D02*
X122440000Y-131868621D01*
X120360000Y-131868621D02*
X118484000Y-131868621D01*
X124296000Y-131908621D02*
X122440000Y-131908621D01*
X120360000Y-131908621D02*
X118504000Y-131908621D01*
X124276000Y-131948621D02*
X122440000Y-131948621D01*
X120360000Y-131948621D02*
X118524000Y-131948621D01*
X124256000Y-131988621D02*
X122440000Y-131988621D01*
X120360000Y-131988621D02*
X118544000Y-131988621D01*
X124234000Y-132028621D02*
X122440000Y-132028621D01*
X120360000Y-132028621D02*
X118566000Y-132028621D01*
X124212000Y-132068621D02*
X122440000Y-132068621D01*
X120360000Y-132068621D02*
X118588000Y-132068621D01*
X124190000Y-132108621D02*
X122440000Y-132108621D01*
X120360000Y-132108621D02*
X118610000Y-132108621D01*
X124166000Y-132148621D02*
X122440000Y-132148621D01*
X120360000Y-132148621D02*
X118634000Y-132148621D01*
X124142000Y-132188621D02*
X122440000Y-132188621D01*
X120360000Y-132188621D02*
X118658000Y-132188621D01*
X124116000Y-132228621D02*
X122440000Y-132228621D01*
X120360000Y-132228621D02*
X118684000Y-132228621D01*
X124090000Y-132268621D02*
X122440000Y-132268621D01*
X120360000Y-132268621D02*
X118710000Y-132268621D01*
X124064000Y-132308621D02*
X122440000Y-132308621D01*
X120360000Y-132308621D02*
X118736000Y-132308621D01*
X124036000Y-132348621D02*
X122440000Y-132348621D01*
X120360000Y-132348621D02*
X118764000Y-132348621D01*
X124007000Y-132388621D02*
X122440000Y-132388621D01*
X120360000Y-132388621D02*
X118793000Y-132388621D01*
X123978000Y-132428621D02*
X122440000Y-132428621D01*
X120360000Y-132428621D02*
X118822000Y-132428621D01*
X123948000Y-132468621D02*
X122440000Y-132468621D01*
X120360000Y-132468621D02*
X118852000Y-132468621D01*
X123916000Y-132508621D02*
X122440000Y-132508621D01*
X120360000Y-132508621D02*
X118884000Y-132508621D01*
X123884000Y-132548621D02*
X122440000Y-132548621D01*
X120360000Y-132548621D02*
X118916000Y-132548621D01*
X123850000Y-132588621D02*
X122440000Y-132588621D01*
X120360000Y-132588621D02*
X118950000Y-132588621D01*
X123816000Y-132628621D02*
X122440000Y-132628621D01*
X120360000Y-132628621D02*
X118984000Y-132628621D01*
X123780000Y-132668621D02*
X122440000Y-132668621D01*
X120360000Y-132668621D02*
X119020000Y-132668621D01*
X123743000Y-132708621D02*
X122440000Y-132708621D01*
X120360000Y-132708621D02*
X119057000Y-132708621D01*
X123705000Y-132748621D02*
X122440000Y-132748621D01*
X120360000Y-132748621D02*
X119095000Y-132748621D01*
X123665000Y-132788621D02*
X119135000Y-132788621D01*
X123624000Y-132828621D02*
X119176000Y-132828621D01*
X123582000Y-132868621D02*
X119218000Y-132868621D01*
X123537000Y-132908621D02*
X119263000Y-132908621D01*
X123492000Y-132948621D02*
X119308000Y-132948621D01*
X123444000Y-132988621D02*
X119356000Y-132988621D01*
X123395000Y-133028621D02*
X119405000Y-133028621D01*
X123344000Y-133068621D02*
X119456000Y-133068621D01*
X123290000Y-133108621D02*
X119510000Y-133108621D01*
X123234000Y-133148621D02*
X119566000Y-133148621D01*
X123176000Y-133188621D02*
X119624000Y-133188621D01*
X123114000Y-133228621D02*
X119686000Y-133228621D01*
X123050000Y-133268621D02*
X119750000Y-133268621D01*
X122981000Y-133308621D02*
X119819000Y-133308621D01*
X122909000Y-133348621D02*
X119891000Y-133348621D01*
X122832000Y-133388621D02*
X119968000Y-133388621D01*
X122750000Y-133428621D02*
X120050000Y-133428621D01*
X122662000Y-133468621D02*
X120138000Y-133468621D01*
X122565000Y-133508621D02*
X120235000Y-133508621D01*
X122459000Y-133548621D02*
X120341000Y-133548621D01*
X122340000Y-133588621D02*
X120460000Y-133588621D01*
X122202000Y-133628621D02*
X120598000Y-133628621D01*
X122033000Y-133668621D02*
X120767000Y-133668621D01*
X121802000Y-133708621D02*
X120998000Y-133708621D01*
X124670000Y-130467621D02*
G75*
G03*
X124670000Y-130467621I-3270000J0D01*
G01*
%TO.C,R10*%
X105535000Y-100572936D02*
X105535000Y-101027064D01*
X104065000Y-100572936D02*
X104065000Y-101027064D01*
%TO.C,C1*%
X125567379Y-79161000D02*
X126197379Y-79161000D01*
X125882379Y-78846000D02*
X125882379Y-79476000D01*
X129067620Y-77770000D02*
X129067620Y-84230000D01*
X129107620Y-77770000D02*
X129107620Y-84230000D01*
X129147620Y-77770000D02*
X129147620Y-84230000D01*
X129187620Y-77772000D02*
X129187620Y-84228000D01*
X129227620Y-77773000D02*
X129227620Y-84227000D01*
X129267620Y-77776000D02*
X129267620Y-84224000D01*
X129307620Y-77778000D02*
X129307620Y-79960000D01*
X129307620Y-82040000D02*
X129307620Y-84222000D01*
X129347620Y-77782000D02*
X129347620Y-79960000D01*
X129347620Y-82040000D02*
X129347620Y-84218000D01*
X129387620Y-77785000D02*
X129387620Y-79960000D01*
X129387620Y-82040000D02*
X129387620Y-84215000D01*
X129427620Y-77789000D02*
X129427620Y-79960000D01*
X129427620Y-82040000D02*
X129427620Y-84211000D01*
X129467620Y-77794000D02*
X129467620Y-79960000D01*
X129467620Y-82040000D02*
X129467620Y-84206000D01*
X129507620Y-77799000D02*
X129507620Y-79960000D01*
X129507620Y-82040000D02*
X129507620Y-84201000D01*
X129547620Y-77805000D02*
X129547620Y-79960000D01*
X129547620Y-82040000D02*
X129547620Y-84195000D01*
X129587620Y-77811000D02*
X129587620Y-79960000D01*
X129587620Y-82040000D02*
X129587620Y-84189000D01*
X129627620Y-77818000D02*
X129627620Y-79960000D01*
X129627620Y-82040000D02*
X129627620Y-84182000D01*
X129667620Y-77825000D02*
X129667620Y-79960000D01*
X129667620Y-82040000D02*
X129667620Y-84175000D01*
X129707620Y-77833000D02*
X129707620Y-79960000D01*
X129707620Y-82040000D02*
X129707620Y-84167000D01*
X129747620Y-77841000D02*
X129747620Y-79960000D01*
X129747620Y-82040000D02*
X129747620Y-84159000D01*
X129788620Y-77850000D02*
X129788620Y-79960000D01*
X129788620Y-82040000D02*
X129788620Y-84150000D01*
X129828620Y-77859000D02*
X129828620Y-79960000D01*
X129828620Y-82040000D02*
X129828620Y-84141000D01*
X129868620Y-77869000D02*
X129868620Y-79960000D01*
X129868620Y-82040000D02*
X129868620Y-84131000D01*
X129908620Y-77879000D02*
X129908620Y-79960000D01*
X129908620Y-82040000D02*
X129908620Y-84121000D01*
X129948620Y-77890000D02*
X129948620Y-79960000D01*
X129948620Y-82040000D02*
X129948620Y-84110000D01*
X129988620Y-77902000D02*
X129988620Y-79960000D01*
X129988620Y-82040000D02*
X129988620Y-84098000D01*
X130028620Y-77914000D02*
X130028620Y-79960000D01*
X130028620Y-82040000D02*
X130028620Y-84086000D01*
X130068620Y-77926000D02*
X130068620Y-79960000D01*
X130068620Y-82040000D02*
X130068620Y-84074000D01*
X130108620Y-77939000D02*
X130108620Y-79960000D01*
X130108620Y-82040000D02*
X130108620Y-84061000D01*
X130148620Y-77953000D02*
X130148620Y-79960000D01*
X130148620Y-82040000D02*
X130148620Y-84047000D01*
X130188620Y-77967000D02*
X130188620Y-79960000D01*
X130188620Y-82040000D02*
X130188620Y-84033000D01*
X130228620Y-77982000D02*
X130228620Y-79960000D01*
X130228620Y-82040000D02*
X130228620Y-84018000D01*
X130268620Y-77998000D02*
X130268620Y-79960000D01*
X130268620Y-82040000D02*
X130268620Y-84002000D01*
X130308620Y-78014000D02*
X130308620Y-79960000D01*
X130308620Y-82040000D02*
X130308620Y-83986000D01*
X130348620Y-78030000D02*
X130348620Y-79960000D01*
X130348620Y-82040000D02*
X130348620Y-83970000D01*
X130388620Y-78048000D02*
X130388620Y-79960000D01*
X130388620Y-82040000D02*
X130388620Y-83952000D01*
X130428620Y-78066000D02*
X130428620Y-79960000D01*
X130428620Y-82040000D02*
X130428620Y-83934000D01*
X130468620Y-78084000D02*
X130468620Y-79960000D01*
X130468620Y-82040000D02*
X130468620Y-83916000D01*
X130508620Y-78104000D02*
X130508620Y-79960000D01*
X130508620Y-82040000D02*
X130508620Y-83896000D01*
X130548620Y-78124000D02*
X130548620Y-79960000D01*
X130548620Y-82040000D02*
X130548620Y-83876000D01*
X130588620Y-78144000D02*
X130588620Y-79960000D01*
X130588620Y-82040000D02*
X130588620Y-83856000D01*
X130628620Y-78166000D02*
X130628620Y-79960000D01*
X130628620Y-82040000D02*
X130628620Y-83834000D01*
X130668620Y-78188000D02*
X130668620Y-79960000D01*
X130668620Y-82040000D02*
X130668620Y-83812000D01*
X130708620Y-78210000D02*
X130708620Y-79960000D01*
X130708620Y-82040000D02*
X130708620Y-83790000D01*
X130748620Y-78234000D02*
X130748620Y-79960000D01*
X130748620Y-82040000D02*
X130748620Y-83766000D01*
X130788620Y-78258000D02*
X130788620Y-79960000D01*
X130788620Y-82040000D02*
X130788620Y-83742000D01*
X130828620Y-78284000D02*
X130828620Y-79960000D01*
X130828620Y-82040000D02*
X130828620Y-83716000D01*
X130868620Y-78310000D02*
X130868620Y-79960000D01*
X130868620Y-82040000D02*
X130868620Y-83690000D01*
X130908620Y-78336000D02*
X130908620Y-79960000D01*
X130908620Y-82040000D02*
X130908620Y-83664000D01*
X130948620Y-78364000D02*
X130948620Y-79960000D01*
X130948620Y-82040000D02*
X130948620Y-83636000D01*
X130988620Y-78393000D02*
X130988620Y-79960000D01*
X130988620Y-82040000D02*
X130988620Y-83607000D01*
X131028620Y-78422000D02*
X131028620Y-79960000D01*
X131028620Y-82040000D02*
X131028620Y-83578000D01*
X131068620Y-78452000D02*
X131068620Y-79960000D01*
X131068620Y-82040000D02*
X131068620Y-83548000D01*
X131108620Y-78484000D02*
X131108620Y-79960000D01*
X131108620Y-82040000D02*
X131108620Y-83516000D01*
X131148620Y-78516000D02*
X131148620Y-79960000D01*
X131148620Y-82040000D02*
X131148620Y-83484000D01*
X131188620Y-78550000D02*
X131188620Y-79960000D01*
X131188620Y-82040000D02*
X131188620Y-83450000D01*
X131228620Y-78584000D02*
X131228620Y-79960000D01*
X131228620Y-82040000D02*
X131228620Y-83416000D01*
X131268620Y-78620000D02*
X131268620Y-79960000D01*
X131268620Y-82040000D02*
X131268620Y-83380000D01*
X131308620Y-78657000D02*
X131308620Y-79960000D01*
X131308620Y-82040000D02*
X131308620Y-83343000D01*
X131348620Y-78695000D02*
X131348620Y-79960000D01*
X131348620Y-82040000D02*
X131348620Y-83305000D01*
X131388620Y-78735000D02*
X131388620Y-83265000D01*
X131428620Y-78776000D02*
X131428620Y-83224000D01*
X131468620Y-78818000D02*
X131468620Y-83182000D01*
X131508620Y-78863000D02*
X131508620Y-83137000D01*
X131548620Y-78908000D02*
X131548620Y-83092000D01*
X131588620Y-78956000D02*
X131588620Y-83044000D01*
X131628620Y-79005000D02*
X131628620Y-82995000D01*
X131668620Y-79056000D02*
X131668620Y-82944000D01*
X131708620Y-79110000D02*
X131708620Y-82890000D01*
X131748620Y-79166000D02*
X131748620Y-82834000D01*
X131788620Y-79224000D02*
X131788620Y-82776000D01*
X131828620Y-79286000D02*
X131828620Y-82714000D01*
X131868620Y-79350000D02*
X131868620Y-82650000D01*
X131908620Y-79419000D02*
X131908620Y-82581000D01*
X131948620Y-79491000D02*
X131948620Y-82509000D01*
X131988620Y-79568000D02*
X131988620Y-82432000D01*
X132028620Y-79650000D02*
X132028620Y-82350000D01*
X132068620Y-79738000D02*
X132068620Y-82262000D01*
X132108620Y-79835000D02*
X132108620Y-82165000D01*
X132148620Y-79941000D02*
X132148620Y-82059000D01*
X132188620Y-80060000D02*
X132188620Y-81940000D01*
X132228620Y-80198000D02*
X132228620Y-81802000D01*
X132268620Y-80367000D02*
X132268620Y-81633000D01*
X132308620Y-80598000D02*
X132308620Y-81402000D01*
X132337620Y-81000000D02*
G75*
G03*
X132337620Y-81000000I-3270000J0D01*
G01*
%TO.C,X1*%
X113320000Y-81155000D02*
X112890000Y-81155000D01*
X113320000Y-77555000D02*
X113320000Y-81155000D01*
X112890000Y-77555000D02*
X113320000Y-77555000D01*
X112890000Y-77305000D02*
X112890000Y-77555000D01*
X110890000Y-81155000D02*
X110350000Y-81155000D01*
X110890000Y-77555000D02*
X110890000Y-77305000D01*
X110350000Y-77555000D02*
X110890000Y-77555000D01*
X108350000Y-81155000D02*
X107920000Y-81155000D01*
X107920000Y-81155000D02*
X107920000Y-77555000D01*
X107920000Y-77555000D02*
X108350000Y-77555000D01*
%TO.C,C5*%
X130365000Y-111540000D02*
X127625000Y-111540000D01*
X130365000Y-111540000D02*
X130365000Y-118980000D01*
X127625000Y-111540000D02*
X127625000Y-118980000D01*
X130365000Y-118980000D02*
X127625000Y-118980000D01*
%TO.C,D2*%
X146807057Y-122760000D02*
X146920686Y-122760000D01*
X146807057Y-122760000D02*
G75*
G03*
X146807057Y-122760000I-1326371J0D01*
G01*
%TO.C,R25*%
X141370000Y-126520000D02*
X141440000Y-126520000D01*
X141370000Y-126520000D02*
G75*
G03*
X141370000Y-126520000I-1370000J0D01*
G01*
%TO.C,R23*%
X151405000Y-105410000D02*
X151405000Y-105340000D01*
X152775000Y-106780000D02*
G75*
G03*
X152775000Y-106780000I-1370000J0D01*
G01*
%TO.C,Q1*%
X112930000Y-132050000D02*
X116530000Y-132050000D01*
X114730000Y-127600000D02*
G75*
G03*
X112891522Y-132038478I0J-2600000D01*
G01*
X116568478Y-132038478D02*
G75*
G03*
X114730000Y-127600000I-1838478J1838478D01*
G01*
%TO.C,RV1*%
X119315000Y-123475000D02*
X121101000Y-123475000D01*
X119315000Y-123475000D02*
X119315000Y-116525000D01*
X122091000Y-123475000D02*
X124055000Y-123475000D01*
X124055000Y-123475000D02*
X124055000Y-116525000D01*
X119315000Y-116525000D02*
X121101000Y-116525000D01*
X122091000Y-116525000D02*
X124055000Y-116525000D01*
%TO.C,U3*%
X112805000Y-121835000D02*
X112805000Y-118235000D01*
X108355000Y-120035000D02*
G75*
G03*
X112793478Y-121873478I2600000J0D01*
G01*
X112793478Y-118196522D02*
G75*
G03*
X108355000Y-120035000I-1838478J-1838478D01*
G01*
%TO.C,C6*%
X149785000Y-80910000D02*
X149785000Y-87150000D01*
X136545000Y-87150000D02*
X149785000Y-87150000D01*
X136545000Y-80910000D02*
X149785000Y-80910000D01*
X136545000Y-80910000D02*
X136545000Y-87150000D01*
%TD*%
M02*
