%TF.GenerationSoftware,KiCad,Pcbnew,7.0.1*%
%TF.CreationDate,2023-04-15T09:26:22+02:00*%
%TF.ProjectId,weit_generator,77656974-5f67-4656-9e65-7261746f722e,rev?*%
%TF.SameCoordinates,Original*%
%TF.FileFunction,Copper,L1,Top*%
%TF.FilePolarity,Positive*%
%FSLAX46Y46*%
G04 Gerber Fmt 4.6, Leading zero omitted, Abs format (unit mm)*
G04 Created by KiCad (PCBNEW 7.0.1) date 2023-04-15 09:26:22*
%MOMM*%
%LPD*%
G01*
G04 APERTURE LIST*
G04 Aperture macros list*
%AMRoundRect*
0 Rectangle with rounded corners*
0 $1 Rounding radius*
0 $2 $3 $4 $5 $6 $7 $8 $9 X,Y pos of 4 corners*
0 Add a 4 corners polygon primitive as box body*
4,1,4,$2,$3,$4,$5,$6,$7,$8,$9,$2,$3,0*
0 Add four circle primitives for the rounded corners*
1,1,$1+$1,$2,$3*
1,1,$1+$1,$4,$5*
1,1,$1+$1,$6,$7*
1,1,$1+$1,$8,$9*
0 Add four rect primitives between the rounded corners*
20,1,$1+$1,$2,$3,$4,$5,0*
20,1,$1+$1,$4,$5,$6,$7,0*
20,1,$1+$1,$6,$7,$8,$9,0*
20,1,$1+$1,$8,$9,$2,$3,0*%
G04 Aperture macros list end*
%TA.AperFunction,ComponentPad*%
%ADD10C,3.500000*%
%TD*%
%TA.AperFunction,ComponentPad*%
%ADD11C,1.440000*%
%TD*%
%TA.AperFunction,SMDPad,CuDef*%
%ADD12C,2.000000*%
%TD*%
%TA.AperFunction,ComponentPad*%
%ADD13C,1.600000*%
%TD*%
%TA.AperFunction,ComponentPad*%
%ADD14O,1.600000X1.600000*%
%TD*%
%TA.AperFunction,ComponentPad*%
%ADD15R,1.700000X1.700000*%
%TD*%
%TA.AperFunction,ComponentPad*%
%ADD16O,1.700000X1.700000*%
%TD*%
%TA.AperFunction,SMDPad,CuDef*%
%ADD17RoundRect,0.250000X-0.450000X0.350000X-0.450000X-0.350000X0.450000X-0.350000X0.450000X0.350000X0*%
%TD*%
%TA.AperFunction,ComponentPad*%
%ADD18C,2.000000*%
%TD*%
%TA.AperFunction,ComponentPad*%
%ADD19R,1.800000X1.800000*%
%TD*%
%TA.AperFunction,ComponentPad*%
%ADD20C,1.800000*%
%TD*%
%TA.AperFunction,ComponentPad*%
%ADD21R,1.600000X1.600000*%
%TD*%
%TA.AperFunction,SMDPad,CuDef*%
%ADD22RoundRect,0.150000X0.150000X-0.875000X0.150000X0.875000X-0.150000X0.875000X-0.150000X-0.875000X0*%
%TD*%
%TA.AperFunction,SMDPad,CuDef*%
%ADD23R,1.600000X1.500000*%
%TD*%
%TA.AperFunction,ComponentPad*%
%ADD24R,1.050000X1.500000*%
%TD*%
%TA.AperFunction,ComponentPad*%
%ADD25O,1.050000X1.500000*%
%TD*%
%TA.AperFunction,ComponentPad*%
%ADD26R,1.500000X1.050000*%
%TD*%
%TA.AperFunction,ComponentPad*%
%ADD27O,1.500000X1.050000*%
%TD*%
%TA.AperFunction,Conductor*%
%ADD28C,0.250000*%
%TD*%
%TA.AperFunction,Conductor*%
%ADD29C,0.500000*%
%TD*%
G04 APERTURE END LIST*
D10*
%TO.P,REF\u002A\u002A,1*%
%TO.N,GND*%
X153400000Y-133800000D03*
%TD*%
%TO.P,REF\u002A\u002A,1*%
%TO.N,GND*%
X153200000Y-77800000D03*
%TD*%
%TO.P,REF\u002A\u002A,1*%
%TO.N,GND*%
X101000000Y-77800000D03*
%TD*%
%TO.P,REF\u002A\u002A,1*%
%TO.N,GND*%
X100800000Y-133800000D03*
%TD*%
D11*
%TO.P,RV2,1,1*%
%TO.N,unconnected-(RV2-Pad1)*%
X127395000Y-125610000D03*
%TO.P,RV2,2,2*%
%TO.N,Net-(C11-Pad2)*%
X127395000Y-123070000D03*
%TO.P,RV2,3,3*%
%TO.N,Net-(C13-Pad1)*%
X127395000Y-120530000D03*
%TD*%
D12*
%TO.P,TP3,1,1*%
%TO.N,Net-(U1C-+)*%
X147275000Y-126850000D03*
%TD*%
%TO.P,TP2,1,1*%
%TO.N,Net-(C13-Pad1)*%
X126400000Y-134000000D03*
%TD*%
%TO.P,TP1,1,1*%
%TO.N,/R-2R DAC/OUT*%
X126575000Y-99590000D03*
%TD*%
D13*
%TO.P,R2,1*%
%TO.N,/Output Filter/IN*%
X126695000Y-106245000D03*
D14*
%TO.P,R2,2*%
%TO.N,/R-2R DAC/OUT*%
X126695000Y-103705000D03*
%TD*%
D13*
%TO.P,C2,1*%
%TO.N,+1V2*%
X115995000Y-122560000D03*
%TO.P,C2,2*%
%TO.N,GND*%
X115995000Y-117560000D03*
%TD*%
D15*
%TO.P,J1,1,Pin_1*%
%TO.N,+3V0*%
X127725000Y-86600000D03*
D16*
%TO.P,J1,2,Pin_2*%
%TO.N,GND*%
X130265000Y-86600000D03*
%TD*%
D17*
%TO.P,R5,1*%
%TO.N,/R-2R DAC/BUS6*%
X119800000Y-99800000D03*
%TO.P,R5,2*%
%TO.N,Net-(R12-Pad2)*%
X119800000Y-101800000D03*
%TD*%
D13*
%TO.P,R20,1*%
%TO.N,+3V0*%
X127650000Y-95230000D03*
D14*
%TO.P,R20,2*%
%TO.N,Net-(U1A-+)*%
X130190000Y-95230000D03*
%TD*%
D15*
%TO.P,J3,1,Pin_1*%
%TO.N,/Autogain/IN*%
X148480000Y-97560000D03*
D16*
%TO.P,J3,2,Pin_2*%
%TO.N,GND*%
X151020000Y-97560000D03*
%TD*%
D14*
%TO.P,R28,2*%
%TO.N,Net-(C13-Pad1)*%
X117140000Y-125600000D03*
D13*
%TO.P,R28,1*%
%TO.N,Net-(Q1-B)*%
X114600000Y-125600000D03*
%TD*%
D18*
%TO.P,C8,1*%
%TO.N,Net-(U1A-+)*%
X132450000Y-101360000D03*
%TO.P,C8,2*%
%TO.N,/Output Filter/IN*%
X142450000Y-101360000D03*
%TD*%
D15*
%TO.P,R3,1*%
%TO.N,GND*%
X124470000Y-113635000D03*
D16*
%TO.P,R3,2*%
%TO.N,/Output Filter/IN*%
X124470000Y-111095000D03*
%TD*%
D17*
%TO.P,R15,1*%
%TO.N,Net-(R14-Pad2)*%
X113800000Y-104800000D03*
%TO.P,R15,2*%
%TO.N,Net-(R15-Pad2)*%
X113800000Y-106800000D03*
%TD*%
D13*
%TO.P,C11,1*%
%TO.N,Net-(U1C--)*%
X136945000Y-124060000D03*
%TO.P,C11,2*%
%TO.N,Net-(C11-Pad2)*%
X131945000Y-124060000D03*
%TD*%
D17*
%TO.P,R8,1*%
%TO.N,/R-2R DAC/BUS3*%
X110800000Y-99800000D03*
%TO.P,R8,2*%
%TO.N,Net-(R15-Pad2)*%
X110800000Y-101800000D03*
%TD*%
D18*
%TO.P,C10,1*%
%TO.N,GND*%
X150395000Y-131260000D03*
%TO.P,C10,2*%
%TO.N,Net-(U1C-+)*%
X140395000Y-131260000D03*
%TD*%
D19*
%TO.P,D1,1,K*%
%TO.N,/Autogain/OUT*%
X102895000Y-113950000D03*
D20*
%TO.P,D1,2,A*%
%TO.N,+3V0*%
X102895000Y-111410000D03*
%TD*%
D17*
%TO.P,R7,1*%
%TO.N,/R-2R DAC/BUS4*%
X113800000Y-99800000D03*
%TO.P,R7,2*%
%TO.N,Net-(R14-Pad2)*%
X113800000Y-101800000D03*
%TD*%
D13*
%TO.P,R29,1*%
%TO.N,Net-(Q1-C)*%
X110200000Y-127645000D03*
D14*
%TO.P,R29,2*%
%TO.N,/Autogain/OUT*%
X110200000Y-125105000D03*
%TD*%
D13*
%TO.P,R26,1*%
%TO.N,Net-(C12-Pad2)*%
X136745000Y-130755000D03*
D14*
%TO.P,R26,2*%
%TO.N,Net-(U1C--)*%
X136745000Y-128215000D03*
%TD*%
D17*
%TO.P,R18,1*%
%TO.N,Net-(R10-Pad2)*%
X104800000Y-104800000D03*
%TO.P,R18,2*%
%TO.N,Net-(R11-Pad2)*%
X104800000Y-106800000D03*
%TD*%
%TO.P,R16,1*%
%TO.N,Net-(R15-Pad2)*%
X110800000Y-104800000D03*
%TO.P,R16,2*%
%TO.N,Net-(R16-Pad2)*%
X110800000Y-106800000D03*
%TD*%
D13*
%TO.P,R21,1*%
%TO.N,Net-(U1A-+)*%
X132755000Y-96800000D03*
D14*
%TO.P,R21,2*%
%TO.N,GND*%
X135295000Y-96800000D03*
%TD*%
D13*
%TO.P,R22,1*%
%TO.N,Net-(U1A--)*%
X147295000Y-106875000D03*
D14*
%TO.P,R22,2*%
%TO.N,/Output Filter/OUT*%
X147295000Y-104335000D03*
%TD*%
D17*
%TO.P,R1,1*%
%TO.N,+3V0*%
X105995000Y-119185000D03*
%TO.P,R1,2*%
%TO.N,+1V2*%
X105995000Y-121185000D03*
%TD*%
%TO.P,R13,1*%
%TO.N,Net-(R12-Pad2)*%
X119800000Y-104800000D03*
%TO.P,R13,2*%
%TO.N,Net-(R13-Pad2)*%
X119800000Y-106800000D03*
%TD*%
D18*
%TO.P,C9,1*%
%TO.N,GND*%
X142450000Y-106460000D03*
%TO.P,C9,2*%
%TO.N,Net-(U1A-+)*%
X132450000Y-106460000D03*
%TD*%
D17*
%TO.P,R14,1*%
%TO.N,Net-(R13-Pad2)*%
X116800000Y-104800000D03*
%TO.P,R14,2*%
%TO.N,Net-(R14-Pad2)*%
X116800000Y-106800000D03*
%TD*%
D13*
%TO.P,C3,1*%
%TO.N,+3V0*%
X115300000Y-81050000D03*
%TO.P,C3,2*%
%TO.N,GND*%
X120300000Y-81050000D03*
%TD*%
D18*
%TO.P,C7,1*%
%TO.N,/Output Filter/OUT*%
X138165000Y-90570000D03*
%TO.P,C7,2*%
%TO.N,/Autogain/IN*%
X148165000Y-90570000D03*
%TD*%
D15*
%TO.P,J2,1,Pin_1*%
%TO.N,GND*%
X123300000Y-90840000D03*
D16*
%TO.P,J2,2,Pin_2*%
%TO.N,Net-(J2-Pin_2)*%
X123300000Y-88300000D03*
%TO.P,J2,3,Pin_3*%
%TO.N,Net-(J2-Pin_3)*%
X123300000Y-85760000D03*
%TD*%
D17*
%TO.P,R12,1*%
%TO.N,/R-2R DAC/OUT*%
X122800000Y-104800000D03*
%TO.P,R12,2*%
%TO.N,Net-(R12-Pad2)*%
X122800000Y-106800000D03*
%TD*%
%TO.P,R4,1*%
%TO.N,/R-2R DAC/BUS7*%
X122800000Y-99800000D03*
%TO.P,R4,2*%
%TO.N,/R-2R DAC/OUT*%
X122800000Y-101800000D03*
%TD*%
D13*
%TO.P,R27,1*%
%TO.N,GND*%
X120275000Y-125560000D03*
D14*
%TO.P,R27,2*%
%TO.N,Net-(C13-Pad1)*%
X122815000Y-125560000D03*
%TD*%
D17*
%TO.P,R9,1*%
%TO.N,/R-2R DAC/BUS2*%
X107800000Y-99800000D03*
%TO.P,R9,2*%
%TO.N,Net-(R16-Pad2)*%
X107800000Y-101800000D03*
%TD*%
%TO.P,R6,1*%
%TO.N,/R-2R DAC/BUS5*%
X116800000Y-99800000D03*
%TO.P,R6,2*%
%TO.N,Net-(R13-Pad2)*%
X116800000Y-101800000D03*
%TD*%
%TO.P,R19,1*%
%TO.N,Net-(R11-Pad2)*%
X101800000Y-104800000D03*
%TO.P,R19,2*%
%TO.N,GND*%
X101800000Y-106800000D03*
%TD*%
%TO.P,R11,1*%
%TO.N,/R-2R DAC/BUS0*%
X101800000Y-99800000D03*
%TO.P,R11,2*%
%TO.N,Net-(R11-Pad2)*%
X101800000Y-101800000D03*
%TD*%
D13*
%TO.P,C12,2*%
%TO.N,Net-(C12-Pad2)*%
X131400000Y-131727621D03*
D21*
%TO.P,C12,1*%
%TO.N,Net-(C11-Pad2)*%
X131400000Y-129227621D03*
%TD*%
D13*
%TO.P,C4,1*%
%TO.N,+3V0*%
X127445000Y-91970000D03*
%TO.P,C4,2*%
%TO.N,GND*%
X132445000Y-91970000D03*
%TD*%
D22*
%TO.P,U2,1,PA7*%
%TO.N,unconnected-(U2-PA7-Pad1)*%
X101760000Y-93800000D03*
%TO.P,U2,2,PC0*%
%TO.N,unconnected-(U2-PC0-Pad2)*%
X103030000Y-93800000D03*
%TO.P,U2,3,PC1*%
%TO.N,unconnected-(U2-PC1-Pad3)*%
X104300000Y-93800000D03*
%TO.P,U2,4,PC2*%
%TO.N,unconnected-(U2-PC2-Pad4)*%
X105570000Y-93800000D03*
%TO.P,U2,5,PC3*%
%TO.N,unconnected-(U2-PC3-Pad5)*%
X106840000Y-93800000D03*
%TO.P,U2,6,PD0*%
%TO.N,/R-2R DAC/BUS0*%
X108110000Y-93800000D03*
%TO.P,U2,7,PD1*%
%TO.N,/R-2R DAC/BUS1*%
X109380000Y-93800000D03*
%TO.P,U2,8,PD2*%
%TO.N,/R-2R DAC/BUS2*%
X110650000Y-93800000D03*
%TO.P,U2,9,PD3*%
%TO.N,/R-2R DAC/BUS3*%
X111920000Y-93800000D03*
%TO.P,U2,10,PD4*%
%TO.N,/R-2R DAC/BUS4*%
X113190000Y-93800000D03*
%TO.P,U2,11,PD5*%
%TO.N,/R-2R DAC/BUS5*%
X114460000Y-93800000D03*
%TO.P,U2,12,PD6*%
%TO.N,/R-2R DAC/BUS6*%
X115730000Y-93800000D03*
%TO.P,U2,13,VREFA/PD7*%
%TO.N,/R-2R DAC/BUS7*%
X117000000Y-93800000D03*
%TO.P,U2,14,AVDD*%
%TO.N,+3V0*%
X118270000Y-93800000D03*
%TO.P,U2,15,GND*%
%TO.N,GND*%
X118270000Y-84500000D03*
%TO.P,U2,16,XTAL32K1/PF0*%
%TO.N,unconnected-(U2-XTAL32K1{slash}PF0-Pad16)*%
X117000000Y-84500000D03*
%TO.P,U2,17,XTAL32K2/PF1*%
%TO.N,unconnected-(U2-XTAL32K2{slash}PF1-Pad17)*%
X115730000Y-84500000D03*
%TO.P,U2,18,~{RESET}/PF6*%
%TO.N,Net-(J2-Pin_3)*%
X114460000Y-84500000D03*
%TO.P,U2,19,UPDI*%
%TO.N,Net-(J2-Pin_2)*%
X113190000Y-84500000D03*
%TO.P,U2,20,VDD*%
%TO.N,+3V0*%
X111920000Y-84500000D03*
%TO.P,U2,21,GND*%
%TO.N,GND*%
X110650000Y-84500000D03*
%TO.P,U2,22,PA0*%
%TO.N,Net-(U2-PA0)*%
X109380000Y-84500000D03*
%TO.P,U2,23,PA1*%
%TO.N,unconnected-(U2-PA1-Pad23)*%
X108110000Y-84500000D03*
%TO.P,U2,24,PA2*%
%TO.N,unconnected-(U2-PA2-Pad24)*%
X106840000Y-84500000D03*
%TO.P,U2,25,PA3*%
%TO.N,unconnected-(U2-PA3-Pad25)*%
X105570000Y-84500000D03*
%TO.P,U2,26,PA4*%
%TO.N,unconnected-(U2-PA4-Pad26)*%
X104300000Y-84500000D03*
%TO.P,U2,27,PA5*%
%TO.N,unconnected-(U2-PA5-Pad27)*%
X103030000Y-84500000D03*
%TO.P,U2,28,PA6*%
%TO.N,unconnected-(U2-PA6-Pad28)*%
X101760000Y-84500000D03*
%TD*%
D21*
%TO.P,U1,1*%
%TO.N,Net-(U1A--)*%
X147885000Y-111860000D03*
D14*
%TO.P,U1,2,-*%
X145345000Y-111860000D03*
%TO.P,U1,3,+*%
%TO.N,Net-(U1A-+)*%
X142805000Y-111860000D03*
%TO.P,U1,4,V+*%
%TO.N,+3V0*%
X140265000Y-111860000D03*
%TO.P,U1,5,+*%
X137725000Y-111860000D03*
%TO.P,U1,6,-*%
%TO.N,GND*%
X135185000Y-111860000D03*
%TO.P,U1,7*%
%TO.N,unconnected-(U1-Pad7)*%
X132645000Y-111860000D03*
%TO.P,U1,8*%
%TO.N,Net-(C11-Pad2)*%
X132645000Y-119480000D03*
%TO.P,U1,9,-*%
%TO.N,Net-(U1C--)*%
X135185000Y-119480000D03*
%TO.P,U1,10,+*%
%TO.N,Net-(U1C-+)*%
X137725000Y-119480000D03*
%TO.P,U1,11,V-*%
%TO.N,GND*%
X140265000Y-119480000D03*
%TO.P,U1,12,+*%
%TO.N,Net-(U1D-+)*%
X142805000Y-119480000D03*
%TO.P,U1,13,-*%
%TO.N,Net-(D2-K)*%
X145345000Y-119480000D03*
%TO.P,U1,14*%
%TO.N,Net-(D2-A)*%
X147885000Y-119480000D03*
%TD*%
D17*
%TO.P,R17,1*%
%TO.N,Net-(R16-Pad2)*%
X107800000Y-104800000D03*
%TO.P,R17,2*%
%TO.N,Net-(R10-Pad2)*%
X107800000Y-106800000D03*
%TD*%
D13*
%TO.P,R24,1*%
%TO.N,Net-(U1C-+)*%
X140000000Y-123000000D03*
D14*
%TO.P,R24,2*%
%TO.N,Net-(D2-K)*%
X142540000Y-123000000D03*
%TD*%
D21*
%TO.P,C13,1*%
%TO.N,Net-(C13-Pad1)*%
X121400000Y-129217621D03*
D13*
%TO.P,C13,2*%
%TO.N,GND*%
X121400000Y-131717621D03*
%TD*%
D17*
%TO.P,R10,1*%
%TO.N,/R-2R DAC/BUS1*%
X104800000Y-99800000D03*
%TO.P,R10,2*%
%TO.N,Net-(R10-Pad2)*%
X104800000Y-101800000D03*
%TD*%
D21*
%TO.P,C1,1*%
%TO.N,+3V0*%
X127817620Y-81000000D03*
D13*
%TO.P,C1,2*%
%TO.N,GND*%
X130317620Y-81000000D03*
%TD*%
D23*
%TO.P,X1,1,~{ST}*%
%TO.N,unconnected-(X1-~{ST}-Pad1)*%
X111890000Y-78255000D03*
%TO.P,X1,2,GND*%
%TO.N,GND*%
X109350000Y-78255000D03*
%TO.P,X1,3,OUT*%
%TO.N,Net-(U2-PA0)*%
X109350000Y-80455000D03*
%TO.P,X1,4,VCC*%
%TO.N,+3V0*%
X111890000Y-80455000D03*
%TD*%
D13*
%TO.P,C5,1*%
%TO.N,+3V0*%
X128995000Y-112760000D03*
%TO.P,C5,2*%
%TO.N,GND*%
X128995000Y-117760000D03*
%TD*%
D21*
%TO.P,D2,1,K*%
%TO.N,Net-(D2-K)*%
X145480686Y-122760000D03*
D14*
%TO.P,D2,2,A*%
%TO.N,Net-(D2-A)*%
X148020686Y-122760000D03*
%TD*%
D13*
%TO.P,R25,1*%
%TO.N,Net-(U1C-+)*%
X140000000Y-126520000D03*
D14*
%TO.P,R25,2*%
%TO.N,GND*%
X142540000Y-126520000D03*
%TD*%
D13*
%TO.P,R23,1*%
%TO.N,Net-(U1D-+)*%
X151405000Y-106780000D03*
D14*
%TO.P,R23,2*%
%TO.N,/Autogain/IN*%
X151405000Y-104240000D03*
%TD*%
D24*
%TO.P,Q1,1,C*%
%TO.N,Net-(Q1-C)*%
X113460000Y-130200000D03*
D25*
%TO.P,Q1,2,B*%
%TO.N,Net-(Q1-B)*%
X114730000Y-130200000D03*
%TO.P,Q1,3,E*%
%TO.N,GND*%
X116000000Y-130200000D03*
%TD*%
D11*
%TO.P,RV1,1,1*%
%TO.N,GND*%
X121595000Y-117460000D03*
%TO.P,RV1,2,2*%
%TO.N,Net-(U1C--)*%
X121595000Y-120000000D03*
%TO.P,RV1,3,3*%
%TO.N,+1V2*%
X121595000Y-122540000D03*
%TD*%
D26*
%TO.P,U3,1,FB*%
%TO.N,unconnected-(U3-FB-Pad1)*%
X110955000Y-121305000D03*
D27*
%TO.P,U3,2,K*%
%TO.N,+1V2*%
X110955000Y-120035000D03*
%TO.P,U3,3,A*%
%TO.N,GND*%
X110955000Y-118765000D03*
%TD*%
D18*
%TO.P,C6,2*%
%TO.N,/Autogain/IN*%
X148165000Y-84030000D03*
%TO.P,C6,1*%
%TO.N,/Output Filter/OUT*%
X138165000Y-84030000D03*
%TD*%
D28*
%TO.N,Net-(C11-Pad2)*%
X131945000Y-124060000D02*
X133600000Y-125715000D01*
X133600000Y-125715000D02*
X133600000Y-127027621D01*
X133600000Y-127027621D02*
X131400000Y-129227621D01*
%TO.N,Net-(U1C--)*%
X136945000Y-124060000D02*
X135400000Y-125605000D01*
X135400000Y-125605000D02*
X135400000Y-126870000D01*
X135400000Y-126870000D02*
X136745000Y-128215000D01*
%TO.N,Net-(C12-Pad2)*%
X131400000Y-131727621D02*
X131672379Y-131727621D01*
X131672379Y-131727621D02*
X133000000Y-130400000D01*
X136390000Y-130400000D02*
X136745000Y-130755000D01*
X133000000Y-130400000D02*
X136390000Y-130400000D01*
%TO.N,Net-(C13-Pad1)*%
X121400000Y-129217621D02*
X124817621Y-129217621D01*
X124817621Y-129217621D02*
X126400000Y-130800000D01*
X126400000Y-130800000D02*
X126400000Y-134000000D01*
%TO.N,/Autogain/OUT*%
X110200000Y-124755000D02*
X110200000Y-123970000D01*
X110200000Y-123970000D02*
X109530000Y-123300000D01*
%TO.N,Net-(Q1-C)*%
X113460000Y-130200000D02*
X113105000Y-130200000D01*
X113105000Y-130200000D02*
X110200000Y-127295000D01*
%TO.N,Net-(Q1-B)*%
X114730000Y-130200000D02*
X114730000Y-125940000D01*
X114730000Y-125940000D02*
X114375000Y-125585000D01*
%TO.N,Net-(C13-Pad1)*%
X122600000Y-128017621D02*
X122600000Y-128000000D01*
X121400000Y-129217621D02*
X122600000Y-128017621D01*
X122600000Y-128000000D02*
X122815000Y-127785000D01*
X122815000Y-127785000D02*
X122815000Y-125560000D01*
D29*
%TO.N,+3V0*%
X127650000Y-95230000D02*
X127650000Y-95650000D01*
X127650000Y-95650000D02*
X128995000Y-96995000D01*
X128995000Y-96995000D02*
X128995000Y-105630000D01*
X127445000Y-91970000D02*
X127445000Y-86880000D01*
X127445000Y-86880000D02*
X127725000Y-86600000D01*
X127817620Y-81000000D02*
X127817620Y-86507380D01*
X127817620Y-86507380D02*
X127725000Y-86600000D01*
X128995000Y-105630000D02*
X128995000Y-112760000D01*
X128995000Y-105630000D02*
X128375000Y-105010000D01*
X124695000Y-107830000D02*
X123895000Y-108630000D01*
X123895000Y-108630000D02*
X105675000Y-108630000D01*
X105675000Y-108630000D02*
X102895000Y-111410000D01*
X128375000Y-105010000D02*
X126192233Y-105010000D01*
X126192233Y-105010000D02*
X124695000Y-106507233D01*
X124695000Y-106507233D02*
X124695000Y-107830000D01*
X137725000Y-111860000D02*
X136025001Y-113559999D01*
X136025001Y-113559999D02*
X129794999Y-113559999D01*
X129794999Y-113559999D02*
X128995000Y-112760000D01*
X140265000Y-111860000D02*
X137725000Y-111860000D01*
D28*
%TO.N,Net-(U1A-+)*%
X142805000Y-111860000D02*
X137405000Y-106460000D01*
X137405000Y-106460000D02*
X132450000Y-106460000D01*
%TO.N,/Output Filter/IN*%
X124470000Y-111095000D02*
X129005000Y-115630000D01*
X144095000Y-114030000D02*
X144095000Y-108830000D01*
X129005000Y-115630000D02*
X142495000Y-115630000D01*
X142495000Y-115630000D02*
X144095000Y-114030000D01*
X143695000Y-108430000D02*
X141295000Y-108430000D01*
X144095000Y-108830000D02*
X143695000Y-108430000D01*
X141295000Y-108430000D02*
X140895000Y-108030000D01*
X140895000Y-108030000D02*
X140895000Y-102915000D01*
X140895000Y-102915000D02*
X142450000Y-101360000D01*
X126695000Y-106275000D02*
X126695000Y-108870000D01*
X126695000Y-108870000D02*
X124470000Y-111095000D01*
%TO.N,Net-(U1D-+)*%
X151405000Y-106780000D02*
X151405000Y-113720000D01*
X151405000Y-113720000D02*
X149895000Y-115230000D01*
X149895000Y-115230000D02*
X144295000Y-115230000D01*
X144295000Y-115230000D02*
X142805000Y-116720000D01*
X142805000Y-116720000D02*
X142805000Y-119480000D01*
%TO.N,Net-(U1A--)*%
X147885000Y-111860000D02*
X147885000Y-107465000D01*
X147885000Y-107465000D02*
X147295000Y-106875000D01*
%TO.N,/Output Filter/OUT*%
X147295000Y-104335000D02*
X147295000Y-101230000D01*
X147295000Y-101230000D02*
X138095000Y-92030000D01*
X138095000Y-92030000D02*
X138095000Y-90640000D01*
X138095000Y-90640000D02*
X138165000Y-90570000D01*
%TO.N,/Autogain/IN*%
X148480000Y-97560000D02*
X148480000Y-90885000D01*
X148480000Y-90885000D02*
X148165000Y-90570000D01*
X151405000Y-104240000D02*
X151405000Y-102940000D01*
X151405000Y-102940000D02*
X148480000Y-100015000D01*
X148480000Y-100015000D02*
X148480000Y-97560000D01*
%TO.N,Net-(U1A--)*%
X147245000Y-106925000D02*
X147295000Y-106875000D01*
%TO.N,Net-(U1A-+)*%
X130190000Y-95230000D02*
X131650000Y-96690000D01*
X131650000Y-96690000D02*
X132495000Y-96690000D01*
%TO.N,Net-(J2-Pin_2)*%
X123300000Y-88300000D02*
X115565000Y-88300000D01*
X115565000Y-88300000D02*
X113190000Y-85925000D01*
X113190000Y-85925000D02*
X113190000Y-84500000D01*
D29*
%TO.N,+3V0*%
X111920000Y-84500000D02*
X111920000Y-86055000D01*
X111920000Y-86055000D02*
X118270000Y-92405000D01*
X118270000Y-92405000D02*
X118270000Y-93800000D01*
D28*
%TO.N,Net-(D2-K)*%
X145480686Y-122760000D02*
X142670000Y-122760000D01*
X142670000Y-122760000D02*
X142380000Y-123050000D01*
X145345000Y-119510000D02*
X145345000Y-122624314D01*
X145345000Y-122624314D02*
X145480686Y-122760000D01*
%TO.N,Net-(D2-A)*%
X147885000Y-119510000D02*
X147885000Y-122624314D01*
X147885000Y-122624314D02*
X148020686Y-122760000D01*
%TO.N,Net-(U1C--)*%
X121595000Y-120000000D02*
X122335000Y-119260000D01*
X122335000Y-119260000D02*
X130595000Y-119260000D01*
X130595000Y-119260000D02*
X131795000Y-118060000D01*
X131795000Y-118060000D02*
X133735000Y-118060000D01*
X133735000Y-118060000D02*
X135185000Y-119510000D01*
%TO.N,Net-(U1C-+)*%
X140395000Y-131260000D02*
X142865000Y-131260000D01*
X142865000Y-131260000D02*
X147275000Y-126850000D01*
X139930000Y-126520000D02*
X139930000Y-130795000D01*
X139930000Y-130795000D02*
X140395000Y-131260000D01*
D29*
%TO.N,+3V0*%
X118270000Y-94285000D02*
X119855000Y-95870000D01*
D28*
X105995000Y-114510000D02*
X102895000Y-111410000D01*
X112485000Y-81050000D02*
X111890000Y-80455000D01*
D29*
X127445000Y-95390000D02*
X127445000Y-91970000D01*
X118270000Y-93800000D02*
X118270000Y-94285000D01*
X126965000Y-95870000D02*
X127445000Y-95390000D01*
D28*
X105995000Y-119185000D02*
X105995000Y-114510000D01*
D29*
X119855000Y-95870000D02*
X126965000Y-95870000D01*
X111890000Y-80455000D02*
X111890000Y-84470000D01*
D28*
X115300000Y-81050000D02*
X112485000Y-81050000D01*
D29*
X111890000Y-84470000D02*
X111920000Y-84500000D01*
D28*
%TO.N,GND*%
X109520000Y-78255000D02*
X110620000Y-79355000D01*
X110620000Y-79355000D02*
X114192500Y-79355000D01*
X109255000Y-79225000D02*
X109425000Y-79225000D01*
X110530000Y-84380000D02*
X110650000Y-84500000D01*
X110620000Y-84470000D02*
X110650000Y-84500000D01*
X110620000Y-79355000D02*
X110620000Y-84470000D01*
%TO.N,+1V2*%
X115995000Y-122560000D02*
X113470000Y-120035000D01*
X113470000Y-120035000D02*
X110955000Y-120035000D01*
X116015000Y-122540000D02*
X115995000Y-122560000D01*
X110955000Y-120035000D02*
X107145000Y-120035000D01*
X107145000Y-120035000D02*
X105995000Y-121185000D01*
X121595000Y-122540000D02*
X116015000Y-122540000D01*
%TO.N,/Autogain/OUT*%
X102505000Y-114340000D02*
X102895000Y-113950000D01*
X109530000Y-123300000D02*
X104965000Y-123300000D01*
X103855000Y-122190000D02*
X103855000Y-114910000D01*
X103855000Y-114910000D02*
X102895000Y-113950000D01*
X104965000Y-123300000D02*
X103855000Y-122190000D01*
%TO.N,Net-(J2-Pin_3)*%
X114460000Y-84500000D02*
X114460000Y-85795000D01*
X114460000Y-85795000D02*
X115820000Y-87155000D01*
X115820000Y-87155000D02*
X121905000Y-87155000D01*
X121905000Y-87155000D02*
X123300000Y-85760000D01*
%TO.N,/R-2R DAC/OUT*%
X122905000Y-103580000D02*
X122800000Y-103580000D01*
X122800000Y-103580000D02*
X122800000Y-101800000D01*
X122965000Y-103520000D02*
X122905000Y-103580000D01*
X123205000Y-105205000D02*
X122800000Y-104800000D01*
X122800000Y-104800000D02*
X122800000Y-103580000D01*
X126695000Y-103735000D02*
X123180000Y-103735000D01*
X124365000Y-101800000D02*
X122800000Y-101800000D01*
X123180000Y-103735000D02*
X122965000Y-103520000D01*
X126575000Y-99590000D02*
X124365000Y-101800000D01*
%TO.N,/R-2R DAC/BUS7*%
X117000000Y-93800000D02*
X117000000Y-95500000D01*
X118655000Y-97155000D02*
X120620000Y-97155000D01*
X122800000Y-99335000D02*
X122800000Y-99800000D01*
X117000000Y-95500000D02*
X118655000Y-97155000D01*
X120620000Y-97155000D02*
X122800000Y-99335000D01*
%TO.N,/R-2R DAC/BUS6*%
X119300000Y-99800000D02*
X115800000Y-96300000D01*
X119800000Y-99800000D02*
X119300000Y-99800000D01*
X115800000Y-96300000D02*
X115800000Y-93870000D01*
X115800000Y-93870000D02*
X115730000Y-93800000D01*
%TO.N,Net-(R11-Pad2)*%
X101800000Y-101800000D02*
X101800000Y-104800000D01*
X104800000Y-106800000D02*
X102800000Y-104800000D01*
X102800000Y-104800000D02*
X101800000Y-104800000D01*
%TO.N,/R-2R DAC/BUS5*%
X116800000Y-99800000D02*
X114460000Y-97460000D01*
X114460000Y-97460000D02*
X114460000Y-93800000D01*
%TO.N,Net-(R12-Pad2)*%
X122800000Y-106800000D02*
X120800000Y-104800000D01*
X119800000Y-101800000D02*
X119800000Y-104800000D01*
X120800000Y-104800000D02*
X119800000Y-104800000D01*
%TO.N,/R-2R DAC/BUS4*%
X113800000Y-98300000D02*
X113300000Y-97800000D01*
X113300000Y-97800000D02*
X113300000Y-93910000D01*
X113300000Y-93910000D02*
X113190000Y-93800000D01*
X113800000Y-99800000D02*
X113800000Y-98300000D01*
%TO.N,Net-(R13-Pad2)*%
X116800000Y-101800000D02*
X116800000Y-104800000D01*
X117800000Y-104800000D02*
X116800000Y-104800000D01*
X119800000Y-106800000D02*
X117800000Y-104800000D01*
%TO.N,/R-2R DAC/BUS3*%
X111920000Y-93800000D02*
X111920000Y-97680000D01*
X110800000Y-98800000D02*
X110800000Y-99800000D01*
X111920000Y-97680000D02*
X110800000Y-98800000D01*
%TO.N,Net-(R14-Pad2)*%
X116800000Y-106800000D02*
X114800000Y-104800000D01*
X114800000Y-104800000D02*
X113800000Y-104800000D01*
X113800000Y-101800000D02*
X113800000Y-104800000D01*
%TO.N,/R-2R DAC/BUS2*%
X110650000Y-93800000D02*
X110650000Y-96950000D01*
X110650000Y-96950000D02*
X107800000Y-99800000D01*
%TO.N,Net-(R15-Pad2)*%
X113800000Y-106800000D02*
X111800000Y-104800000D01*
X111800000Y-104800000D02*
X110800000Y-104800000D01*
X110800000Y-101800000D02*
X110800000Y-104800000D01*
%TO.N,/R-2R DAC/BUS1*%
X106375000Y-97800000D02*
X104800000Y-99375000D01*
X104800000Y-99375000D02*
X104800000Y-99800000D01*
X107800000Y-97800000D02*
X106375000Y-97800000D01*
X109380000Y-96220000D02*
X107800000Y-97800000D01*
X109380000Y-93800000D02*
X109380000Y-96220000D01*
%TO.N,Net-(R16-Pad2)*%
X110800000Y-106800000D02*
X108800000Y-104800000D01*
X108800000Y-104800000D02*
X107800000Y-104800000D01*
X107800000Y-101800000D02*
X107800000Y-104800000D01*
%TO.N,/R-2R DAC/BUS0*%
X101800000Y-99375000D02*
X101800000Y-99800000D01*
X104620000Y-96555000D02*
X101800000Y-99375000D01*
X107045000Y-96555000D02*
X104620000Y-96555000D01*
X108110000Y-95490000D02*
X107045000Y-96555000D01*
X108110000Y-93800000D02*
X108110000Y-95490000D01*
%TO.N,Net-(R10-Pad2)*%
X107800000Y-106800000D02*
X105800000Y-104800000D01*
X104800000Y-101800000D02*
X104800000Y-104800000D01*
X105800000Y-104800000D02*
X104800000Y-104800000D01*
%TO.N,Net-(U1A-+)*%
X132495000Y-101315000D02*
X132450000Y-101360000D01*
X132495000Y-96690000D02*
X132495000Y-101315000D01*
X132450000Y-101360000D02*
X132450000Y-104060000D01*
X132450000Y-104060000D02*
X132450000Y-106460000D01*
%TO.N,/Output Filter/OUT*%
X138165000Y-90570000D02*
X138165000Y-84030000D01*
%TO.N,Net-(U2-PA0)*%
X109350000Y-80455000D02*
X109350000Y-84470000D01*
X109350000Y-84470000D02*
X109380000Y-84500000D01*
%TO.N,Net-(C11-Pad2)*%
X130955000Y-123070000D02*
X131945000Y-124060000D01*
X127395000Y-123070000D02*
X130955000Y-123070000D01*
X131945000Y-120210000D02*
X132645000Y-119510000D01*
X131945000Y-124060000D02*
X131945000Y-120210000D01*
%TO.N,Net-(U1C-+)*%
X139840000Y-121625000D02*
X137725000Y-119510000D01*
X139840000Y-126430000D02*
X139930000Y-126520000D01*
X139840000Y-123050000D02*
X139840000Y-121625000D01*
X139840000Y-123050000D02*
X139840000Y-126430000D01*
%TO.N,Net-(C13-Pad1)*%
X117670000Y-123835000D02*
X122295000Y-123835000D01*
X116915000Y-125585000D02*
X116915000Y-124590000D01*
X122295000Y-123835000D02*
X122815000Y-124355000D01*
X122815000Y-124355000D02*
X122815000Y-125560000D01*
X122795000Y-125130000D02*
X127395000Y-120530000D01*
X116915000Y-124590000D02*
X117670000Y-123835000D01*
%TO.N,Net-(U1A--)*%
X145345000Y-111890000D02*
X147885000Y-111890000D01*
%TO.N,/Autogain/IN*%
X148165000Y-84030000D02*
X148165000Y-90570000D01*
%TO.N,Net-(U1C--)*%
X136945000Y-124060000D02*
X136945000Y-121270000D01*
X136945000Y-121270000D02*
X135185000Y-119510000D01*
%TD*%
%TA.AperFunction,Conductor*%
%TO.N,GND*%
G36*
X125623859Y-107009711D02*
G01*
X125671075Y-107050038D01*
X125694953Y-107084140D01*
X125855859Y-107245046D01*
X126016623Y-107357613D01*
X126055489Y-107401931D01*
X126069500Y-107459188D01*
X126069500Y-108559547D01*
X126060061Y-108607000D01*
X126033181Y-108647228D01*
X124925646Y-109754761D01*
X124870059Y-109786855D01*
X124805873Y-109786855D01*
X124705408Y-109759936D01*
X124469999Y-109739340D01*
X124234592Y-109759936D01*
X124006336Y-109821097D01*
X123792170Y-109920965D01*
X123598598Y-110056505D01*
X123431505Y-110223598D01*
X123295965Y-110417170D01*
X123196097Y-110631336D01*
X123134936Y-110859592D01*
X123114340Y-111095000D01*
X123134936Y-111330407D01*
X123179054Y-111495058D01*
X123196097Y-111558663D01*
X123295965Y-111772830D01*
X123431505Y-111966401D01*
X123431508Y-111966404D01*
X123553818Y-112088714D01*
X123585114Y-112141460D01*
X123587303Y-112202753D01*
X123559850Y-112257597D01*
X123509472Y-112292576D01*
X123377913Y-112341646D01*
X123262811Y-112427811D01*
X123176647Y-112542910D01*
X123126402Y-112677624D01*
X123120000Y-112737176D01*
X123120000Y-113385000D01*
X125824048Y-113385000D01*
X125871501Y-113394439D01*
X125911729Y-113421319D01*
X128504197Y-116013787D01*
X128517098Y-116029889D01*
X128519212Y-116031874D01*
X128519214Y-116031877D01*
X128566561Y-116076339D01*
X128568240Y-116077916D01*
X128571036Y-116080626D01*
X128590530Y-116100120D01*
X128593704Y-116102582D01*
X128602568Y-116110153D01*
X128634418Y-116140062D01*
X128644914Y-116145832D01*
X128651974Y-116149714D01*
X128668231Y-116160392D01*
X128684064Y-116172674D01*
X128700185Y-116179649D01*
X128724156Y-116190023D01*
X128734643Y-116195160D01*
X128772908Y-116216197D01*
X128792316Y-116221180D01*
X128810706Y-116227476D01*
X128829105Y-116235438D01*
X128829107Y-116235438D01*
X128829379Y-116235556D01*
X128880094Y-116275983D01*
X128903463Y-116336482D01*
X128893094Y-116400504D01*
X128851823Y-116450534D01*
X128790940Y-116472886D01*
X128768397Y-116474858D01*
X128548672Y-116533733D01*
X128342516Y-116629865D01*
X128269527Y-116680973D01*
X128269526Y-116680973D01*
X128995000Y-117406446D01*
X128995001Y-117406446D01*
X129720472Y-116680974D01*
X129720471Y-116680972D01*
X129647484Y-116629866D01*
X129441326Y-116533733D01*
X129312727Y-116499275D01*
X129261048Y-116470922D01*
X129228299Y-116421910D01*
X129221882Y-116363315D01*
X129243246Y-116308376D01*
X129287564Y-116269511D01*
X129344821Y-116255500D01*
X142135680Y-116255500D01*
X142194565Y-116270373D01*
X142239323Y-116311426D01*
X142259218Y-116368808D01*
X142249477Y-116428756D01*
X142244972Y-116439164D01*
X142239838Y-116449644D01*
X142218802Y-116487907D01*
X142213821Y-116507309D01*
X142207520Y-116525711D01*
X142199561Y-116544102D01*
X142192728Y-116587242D01*
X142190360Y-116598674D01*
X142179500Y-116640978D01*
X142179500Y-116661016D01*
X142177973Y-116680415D01*
X142174840Y-116700194D01*
X142178950Y-116743675D01*
X142179500Y-116755344D01*
X142179500Y-118265812D01*
X142165489Y-118323069D01*
X142126623Y-118367387D01*
X141965859Y-118479953D01*
X141804953Y-118640859D01*
X141674430Y-118827267D01*
X141647105Y-118885866D01*
X141601348Y-118938041D01*
X141534723Y-118957460D01*
X141468099Y-118938040D01*
X141422342Y-118885865D01*
X141395134Y-118827519D01*
X141264658Y-118641180D01*
X141103819Y-118480341D01*
X140917480Y-118349865D01*
X140711326Y-118253733D01*
X140515000Y-118201128D01*
X140515000Y-120758871D01*
X140711326Y-120706266D01*
X140917480Y-120610134D01*
X141103819Y-120479658D01*
X141264658Y-120318819D01*
X141395135Y-120132479D01*
X141422342Y-120074135D01*
X141468098Y-120021959D01*
X141534723Y-120002539D01*
X141601348Y-120021958D01*
X141647105Y-120074132D01*
X141657918Y-120097319D01*
X141674433Y-120132736D01*
X141804953Y-120319140D01*
X141965859Y-120480046D01*
X142152264Y-120610567D01*
X142152265Y-120610567D01*
X142152266Y-120610568D01*
X142358504Y-120706739D01*
X142578308Y-120765635D01*
X142805000Y-120785468D01*
X143031692Y-120765635D01*
X143251496Y-120706739D01*
X143457734Y-120610568D01*
X143644139Y-120480047D01*
X143805047Y-120319139D01*
X143935568Y-120132734D01*
X143962618Y-120074724D01*
X144008375Y-120022549D01*
X144075000Y-120003129D01*
X144141625Y-120022549D01*
X144187381Y-120074724D01*
X144191249Y-120083018D01*
X144214431Y-120132733D01*
X144344953Y-120319140D01*
X144505859Y-120480046D01*
X144666623Y-120592613D01*
X144705489Y-120636931D01*
X144719500Y-120694188D01*
X144719500Y-121338798D01*
X144705031Y-121396926D01*
X144665002Y-121441489D01*
X144608753Y-121462087D01*
X144585456Y-121464591D01*
X144573201Y-121465909D01*
X144438355Y-121516204D01*
X144323140Y-121602454D01*
X144236890Y-121717668D01*
X144186595Y-121852515D01*
X144186595Y-121852517D01*
X144181438Y-121900489D01*
X144180186Y-121912131D01*
X144180186Y-122010500D01*
X144163573Y-122072500D01*
X144118186Y-122117887D01*
X144056186Y-122134500D01*
X143565048Y-122134500D01*
X143517595Y-122125061D01*
X143477369Y-122098183D01*
X143379139Y-121999953D01*
X143379138Y-121999952D01*
X143379136Y-121999950D01*
X143192735Y-121869432D01*
X142986497Y-121773261D01*
X142766689Y-121714364D01*
X142540000Y-121694531D01*
X142313310Y-121714364D01*
X142093502Y-121773261D01*
X141887264Y-121869432D01*
X141700859Y-121999953D01*
X141539953Y-122160859D01*
X141409433Y-122347263D01*
X141382382Y-122405275D01*
X141336625Y-122457450D01*
X141270000Y-122476869D01*
X141203375Y-122457450D01*
X141157618Y-122405275D01*
X141151252Y-122391623D01*
X141130568Y-122347266D01*
X141120794Y-122333307D01*
X141000046Y-122160859D01*
X140839140Y-121999953D01*
X140652735Y-121869432D01*
X140538029Y-121815944D01*
X140494246Y-121781817D01*
X140469740Y-121732006D01*
X140469557Y-121699946D01*
X140468165Y-121699990D01*
X140465561Y-121617113D01*
X140465500Y-121613219D01*
X140465500Y-121585654D01*
X140465500Y-121585650D01*
X140464997Y-121581670D01*
X140464081Y-121570028D01*
X140462710Y-121526373D01*
X140457118Y-121507126D01*
X140453174Y-121488085D01*
X140450664Y-121468208D01*
X140434579Y-121427583D01*
X140430808Y-121416568D01*
X140418618Y-121374610D01*
X140408414Y-121357355D01*
X140399861Y-121339895D01*
X140398121Y-121335500D01*
X140392486Y-121321268D01*
X140366808Y-121285925D01*
X140360401Y-121276171D01*
X140359332Y-121274364D01*
X140338170Y-121238580D01*
X140324006Y-121224416D01*
X140311367Y-121209617D01*
X140299595Y-121193413D01*
X140265941Y-121165573D01*
X140257299Y-121157709D01*
X140026408Y-120926817D01*
X139993028Y-120865973D01*
X139997568Y-120796724D01*
X140015000Y-120772951D01*
X140015000Y-118201128D01*
X140014999Y-118201128D01*
X139818673Y-118253733D01*
X139612519Y-118349865D01*
X139426180Y-118480341D01*
X139265341Y-118641180D01*
X139134863Y-118827522D01*
X139107656Y-118885866D01*
X139061899Y-118938041D01*
X138995274Y-118957460D01*
X138928650Y-118938040D01*
X138882893Y-118885865D01*
X138855567Y-118827264D01*
X138725046Y-118640859D01*
X138564140Y-118479953D01*
X138377735Y-118349432D01*
X138171497Y-118253261D01*
X137951689Y-118194364D01*
X137725000Y-118174531D01*
X137498310Y-118194364D01*
X137278502Y-118253261D01*
X137072264Y-118349432D01*
X136885859Y-118479953D01*
X136724953Y-118640859D01*
X136594433Y-118827263D01*
X136567382Y-118885275D01*
X136521625Y-118937450D01*
X136455000Y-118956869D01*
X136388375Y-118937450D01*
X136342618Y-118885275D01*
X136315687Y-118827522D01*
X136315568Y-118827266D01*
X136269750Y-118761830D01*
X136185046Y-118640859D01*
X136024140Y-118479953D01*
X135837735Y-118349432D01*
X135631497Y-118253261D01*
X135411689Y-118194364D01*
X135185000Y-118174531D01*
X134958309Y-118194364D01*
X134866291Y-118219020D01*
X134802104Y-118219020D01*
X134746517Y-118186926D01*
X134235802Y-117676211D01*
X134222906Y-117660113D01*
X134171775Y-117612098D01*
X134168978Y-117609387D01*
X134149470Y-117589879D01*
X134146290Y-117587412D01*
X134137424Y-117579839D01*
X134105582Y-117549938D01*
X134088024Y-117540285D01*
X134071764Y-117529604D01*
X134055936Y-117517327D01*
X134015851Y-117499980D01*
X134005361Y-117494841D01*
X133967091Y-117473802D01*
X133947691Y-117468821D01*
X133929284Y-117462519D01*
X133910897Y-117454562D01*
X133867758Y-117447729D01*
X133856324Y-117445361D01*
X133814019Y-117434500D01*
X133793984Y-117434500D01*
X133774586Y-117432973D01*
X133767162Y-117431797D01*
X133754805Y-117429840D01*
X133754804Y-117429840D01*
X133728484Y-117432328D01*
X133711325Y-117433950D01*
X133699656Y-117434500D01*
X131877740Y-117434500D01*
X131857236Y-117432236D01*
X131787144Y-117434439D01*
X131783250Y-117434500D01*
X131755648Y-117434500D01*
X131751653Y-117435004D01*
X131740029Y-117435918D01*
X131696368Y-117437290D01*
X131677128Y-117442880D01*
X131658081Y-117446825D01*
X131638209Y-117449335D01*
X131597599Y-117465413D01*
X131586554Y-117469194D01*
X131544611Y-117481380D01*
X131527369Y-117491578D01*
X131509897Y-117500138D01*
X131491266Y-117507514D01*
X131455938Y-117533181D01*
X131446180Y-117539591D01*
X131408579Y-117561829D01*
X131394410Y-117575998D01*
X131379622Y-117588628D01*
X131363413Y-117600405D01*
X131335572Y-117634058D01*
X131327711Y-117642696D01*
X130372228Y-118598181D01*
X130332000Y-118625061D01*
X130284547Y-118634500D01*
X130207877Y-118634500D01*
X130143549Y-118616509D01*
X130097887Y-118567756D01*
X130084143Y-118502389D01*
X130106303Y-118439375D01*
X130125134Y-118412481D01*
X130221266Y-118206326D01*
X130280141Y-117986602D01*
X130299966Y-117760000D01*
X130280141Y-117533397D01*
X130221266Y-117313673D01*
X130125133Y-117107515D01*
X130074025Y-117034526D01*
X129082680Y-118025872D01*
X129027093Y-118057966D01*
X128962905Y-118057966D01*
X128907318Y-118025872D01*
X127915973Y-117034527D01*
X127864865Y-117107516D01*
X127768733Y-117313672D01*
X127709858Y-117533397D01*
X127690033Y-117760000D01*
X127709858Y-117986602D01*
X127768733Y-118206326D01*
X127864865Y-118412481D01*
X127883697Y-118439375D01*
X127905857Y-118502389D01*
X127892113Y-118567756D01*
X127846451Y-118616509D01*
X127782123Y-118634500D01*
X122417744Y-118634500D01*
X122397235Y-118632235D01*
X122389038Y-118632493D01*
X122322271Y-118615432D01*
X122274923Y-118565362D01*
X122261617Y-118497748D01*
X122263031Y-118481583D01*
X121595001Y-117813553D01*
X121595000Y-117813553D01*
X120926967Y-118481583D01*
X120982670Y-118520587D01*
X121185974Y-118615389D01*
X121185217Y-118617011D01*
X121228594Y-118642051D01*
X121260693Y-118697634D01*
X121260699Y-118761821D01*
X121228612Y-118817411D01*
X121185065Y-118842559D01*
X121185802Y-118844139D01*
X120982417Y-118938979D01*
X120807479Y-119061471D01*
X120656471Y-119212479D01*
X120533979Y-119387417D01*
X120443724Y-119580968D01*
X120388450Y-119787255D01*
X120369837Y-119999999D01*
X120388450Y-120212744D01*
X120443724Y-120419031D01*
X120533979Y-120612582D01*
X120656471Y-120787520D01*
X120807479Y-120938528D01*
X120982417Y-121061020D01*
X121185802Y-121155861D01*
X121184954Y-121157678D01*
X121227623Y-121182306D01*
X121259724Y-121237889D01*
X121259733Y-121302075D01*
X121227648Y-121357667D01*
X121184955Y-121382324D01*
X121185802Y-121384139D01*
X120982417Y-121478979D01*
X120807479Y-121601471D01*
X120656471Y-121752479D01*
X120580049Y-121861623D01*
X120535731Y-121900489D01*
X120478474Y-121914500D01*
X117195184Y-121914500D01*
X117137927Y-121900489D01*
X117093609Y-121861623D01*
X116995046Y-121720859D01*
X116834140Y-121559953D01*
X116647735Y-121429432D01*
X116441497Y-121333261D01*
X116221689Y-121274364D01*
X115995000Y-121254531D01*
X115768307Y-121274364D01*
X115699950Y-121292680D01*
X115635764Y-121292680D01*
X115580177Y-121260586D01*
X113970802Y-119651211D01*
X113957906Y-119635113D01*
X113906775Y-119587098D01*
X113903978Y-119584387D01*
X113884470Y-119564879D01*
X113881290Y-119562412D01*
X113872424Y-119554839D01*
X113840582Y-119524938D01*
X113823024Y-119515285D01*
X113806764Y-119504604D01*
X113790936Y-119492327D01*
X113750851Y-119474980D01*
X113740361Y-119469841D01*
X113702091Y-119448802D01*
X113682691Y-119443821D01*
X113664284Y-119437519D01*
X113645897Y-119429562D01*
X113602758Y-119422729D01*
X113591324Y-119420361D01*
X113549019Y-119409500D01*
X113528984Y-119409500D01*
X113509586Y-119407973D01*
X113502162Y-119406797D01*
X113489805Y-119404840D01*
X113489804Y-119404840D01*
X113463495Y-119407327D01*
X113446325Y-119408950D01*
X113434656Y-119409500D01*
X112204625Y-119409500D01*
X112143506Y-119393391D01*
X112098267Y-119349249D01*
X112080662Y-119288543D01*
X112095267Y-119227047D01*
X112131557Y-119159152D01*
X112175285Y-119015000D01*
X111292315Y-119015000D01*
X111280161Y-119014403D01*
X111230380Y-119009500D01*
X110679620Y-119009500D01*
X110629839Y-119014403D01*
X110617685Y-119015000D01*
X109734715Y-119015000D01*
X109778442Y-119159152D01*
X109814733Y-119227047D01*
X109829338Y-119288543D01*
X109811733Y-119349249D01*
X109766494Y-119393391D01*
X109705375Y-119409500D01*
X107319499Y-119409500D01*
X107257499Y-119392887D01*
X107212112Y-119347500D01*
X107195499Y-119285500D01*
X107195499Y-118784991D01*
X107184999Y-118682203D01*
X107174108Y-118649336D01*
X107170692Y-118639026D01*
X115269526Y-118639026D01*
X115342515Y-118690133D01*
X115548673Y-118786266D01*
X115768397Y-118845141D01*
X115995000Y-118864966D01*
X116221602Y-118845141D01*
X116441326Y-118786266D01*
X116647480Y-118690134D01*
X116720472Y-118639025D01*
X115995001Y-117913553D01*
X115995000Y-117913553D01*
X115269526Y-118639025D01*
X115269526Y-118639026D01*
X107170692Y-118639026D01*
X107129814Y-118515666D01*
X107129403Y-118515000D01*
X109734715Y-118515000D01*
X110705000Y-118515000D01*
X110705000Y-117740000D01*
X111205000Y-117740000D01*
X111205000Y-118515000D01*
X112175285Y-118515000D01*
X112131558Y-118370849D01*
X112036379Y-118192784D01*
X111908292Y-118036707D01*
X111752215Y-117908620D01*
X111574151Y-117813442D01*
X111380932Y-117754829D01*
X111230361Y-117740000D01*
X111205000Y-117740000D01*
X110705000Y-117740000D01*
X110679639Y-117740000D01*
X110529067Y-117754829D01*
X110335848Y-117813442D01*
X110157784Y-117908620D01*
X110001707Y-118036707D01*
X109873620Y-118192784D01*
X109778441Y-118370849D01*
X109734715Y-118515000D01*
X107129403Y-118515000D01*
X107040491Y-118370849D01*
X107037711Y-118366342D01*
X106913657Y-118242288D01*
X106764334Y-118150186D01*
X106705496Y-118130689D01*
X106661171Y-118104810D01*
X106631123Y-118063198D01*
X106620500Y-118012983D01*
X106620500Y-117559999D01*
X114690033Y-117559999D01*
X114709858Y-117786602D01*
X114768733Y-118006326D01*
X114864866Y-118212484D01*
X114915972Y-118285471D01*
X114915974Y-118285472D01*
X115641446Y-117560001D01*
X116348553Y-117560001D01*
X117074025Y-118285472D01*
X117125134Y-118212480D01*
X117221266Y-118006326D01*
X117280141Y-117786602D01*
X117299966Y-117559999D01*
X117291217Y-117460000D01*
X120370339Y-117460000D01*
X120388944Y-117672657D01*
X120444197Y-117878861D01*
X120534410Y-118072326D01*
X120573415Y-118128030D01*
X120573416Y-118128031D01*
X121241447Y-117460001D01*
X121948553Y-117460001D01*
X122616583Y-118128030D01*
X122655589Y-118072325D01*
X122745802Y-117878861D01*
X122801055Y-117672657D01*
X122819660Y-117460000D01*
X122801055Y-117247342D01*
X122745802Y-117041138D01*
X122655587Y-116847670D01*
X122616583Y-116791967D01*
X121948553Y-117460000D01*
X121948553Y-117460001D01*
X121241447Y-117460001D01*
X121241447Y-117460000D01*
X120573414Y-116791967D01*
X120534411Y-116847672D01*
X120444197Y-117041138D01*
X120388944Y-117247342D01*
X120370339Y-117460000D01*
X117291217Y-117460000D01*
X117280141Y-117333397D01*
X117221266Y-117113673D01*
X117125133Y-116907515D01*
X117074025Y-116834526D01*
X116348553Y-117560000D01*
X116348553Y-117560001D01*
X115641446Y-117560001D01*
X115641446Y-117560000D01*
X114915973Y-116834526D01*
X114915973Y-116834527D01*
X114864865Y-116907516D01*
X114768733Y-117113672D01*
X114709858Y-117333397D01*
X114690033Y-117559999D01*
X106620500Y-117559999D01*
X106620500Y-116480973D01*
X115269526Y-116480973D01*
X115995000Y-117206446D01*
X115995001Y-117206446D01*
X116720472Y-116480974D01*
X116720471Y-116480972D01*
X116659692Y-116438414D01*
X120926967Y-116438414D01*
X121595000Y-117106447D01*
X121595001Y-117106447D01*
X122263031Y-116438416D01*
X122263030Y-116438415D01*
X122207326Y-116399410D01*
X122013861Y-116309197D01*
X121807657Y-116253944D01*
X121595000Y-116235339D01*
X121382342Y-116253944D01*
X121176138Y-116309197D01*
X120982672Y-116399411D01*
X120926967Y-116438414D01*
X116659692Y-116438414D01*
X116647484Y-116429866D01*
X116441326Y-116333733D01*
X116221602Y-116274858D01*
X115995000Y-116255033D01*
X115768397Y-116274858D01*
X115548672Y-116333733D01*
X115342516Y-116429865D01*
X115269527Y-116480973D01*
X115269526Y-116480973D01*
X106620500Y-116480973D01*
X106620500Y-114592741D01*
X106622763Y-114572237D01*
X106622573Y-114566203D01*
X106620561Y-114502145D01*
X106620500Y-114498251D01*
X106620500Y-114470657D01*
X106620500Y-114470650D01*
X106619995Y-114466653D01*
X106619080Y-114455023D01*
X106617709Y-114411373D01*
X106612120Y-114392140D01*
X106608174Y-114373082D01*
X106605664Y-114353206D01*
X106589588Y-114312604D01*
X106585804Y-114301553D01*
X106577388Y-114272586D01*
X106573618Y-114259610D01*
X106563414Y-114242355D01*
X106554861Y-114224895D01*
X106549407Y-114211121D01*
X106547486Y-114206268D01*
X106521808Y-114170925D01*
X106515401Y-114161171D01*
X106502188Y-114138829D01*
X106493170Y-114123580D01*
X106479006Y-114109416D01*
X106466367Y-114094617D01*
X106454595Y-114078413D01*
X106420941Y-114050573D01*
X106412299Y-114042709D01*
X106254590Y-113885000D01*
X123120000Y-113885000D01*
X123120000Y-114532824D01*
X123126402Y-114592375D01*
X123176647Y-114727089D01*
X123262811Y-114842188D01*
X123377910Y-114928352D01*
X123512624Y-114978597D01*
X123572176Y-114985000D01*
X124220000Y-114985000D01*
X124220000Y-113885000D01*
X124720000Y-113885000D01*
X124720000Y-114985000D01*
X125367824Y-114985000D01*
X125427375Y-114978597D01*
X125562089Y-114928352D01*
X125677188Y-114842188D01*
X125763352Y-114727089D01*
X125813597Y-114592375D01*
X125820000Y-114532824D01*
X125820000Y-113885000D01*
X124720000Y-113885000D01*
X124220000Y-113885000D01*
X123120000Y-113885000D01*
X106254590Y-113885000D01*
X104276347Y-111906757D01*
X104244477Y-111851993D01*
X104243823Y-111788638D01*
X104281134Y-111641305D01*
X104300300Y-111410000D01*
X104281134Y-111178695D01*
X104279544Y-111172420D01*
X104280199Y-111109061D01*
X104312067Y-111054299D01*
X105949548Y-109416818D01*
X105989776Y-109389939D01*
X106037229Y-109380500D01*
X123831294Y-109380500D01*
X123849264Y-109381809D01*
X123853320Y-109382402D01*
X123873023Y-109385289D01*
X123922368Y-109380972D01*
X123933176Y-109380500D01*
X123938706Y-109380500D01*
X123938709Y-109380500D01*
X123969550Y-109376894D01*
X123973031Y-109376539D01*
X124047797Y-109369999D01*
X124047797Y-109369998D01*
X124049052Y-109369889D01*
X124068062Y-109365674D01*
X124069250Y-109365241D01*
X124069255Y-109365241D01*
X124139820Y-109339557D01*
X124143095Y-109338419D01*
X124214334Y-109314814D01*
X124214336Y-109314812D01*
X124215536Y-109314415D01*
X124233063Y-109305929D01*
X124234112Y-109305238D01*
X124234117Y-109305237D01*
X124296806Y-109264005D01*
X124299798Y-109262099D01*
X124363656Y-109222712D01*
X124363656Y-109222711D01*
X124364729Y-109222050D01*
X124379824Y-109209753D01*
X124380692Y-109208832D01*
X124380696Y-109208830D01*
X124432184Y-109154254D01*
X124434630Y-109151736D01*
X125180642Y-108405724D01*
X125194260Y-108393954D01*
X125213530Y-108379610D01*
X125245376Y-108341656D01*
X125252662Y-108333704D01*
X125256591Y-108329777D01*
X125275833Y-108305439D01*
X125278090Y-108302670D01*
X125308884Y-108265971D01*
X125326302Y-108245214D01*
X125326303Y-108245211D01*
X125327115Y-108244244D01*
X125337573Y-108227827D01*
X125338106Y-108226682D01*
X125338111Y-108226677D01*
X125369833Y-108158646D01*
X125371362Y-108155488D01*
X125405040Y-108088433D01*
X125405040Y-108088432D01*
X125405612Y-108087294D01*
X125412000Y-108068914D01*
X125412255Y-108067675D01*
X125412257Y-108067673D01*
X125427447Y-107994103D01*
X125428186Y-107990770D01*
X125445500Y-107917721D01*
X125445500Y-107917717D01*
X125445791Y-107916489D01*
X125447770Y-107897121D01*
X125447733Y-107895859D01*
X125447734Y-107895856D01*
X125445552Y-107820869D01*
X125445500Y-107817263D01*
X125445500Y-107121161D01*
X125461047Y-107061044D01*
X125503790Y-107016003D01*
X125563011Y-106997331D01*
X125623859Y-107009711D01*
G37*
%TD.AperFunction*%
%TA.AperFunction,Conductor*%
G36*
X129810319Y-96474641D02*
G01*
X129963308Y-96515635D01*
X130190000Y-96535468D01*
X130416692Y-96515635D01*
X130485049Y-96497319D01*
X130549235Y-96497319D01*
X130604823Y-96529413D01*
X131149197Y-97073787D01*
X131162098Y-97089889D01*
X131164212Y-97091874D01*
X131164214Y-97091877D01*
X131200439Y-97125895D01*
X131213240Y-97137916D01*
X131216035Y-97140625D01*
X131235530Y-97160120D01*
X131238704Y-97162582D01*
X131247568Y-97170153D01*
X131279418Y-97200062D01*
X131293072Y-97207568D01*
X131296970Y-97209711D01*
X131313238Y-97220397D01*
X131329064Y-97232673D01*
X131369148Y-97250018D01*
X131379628Y-97255152D01*
X131417908Y-97276197D01*
X131422754Y-97277441D01*
X131437313Y-97281180D01*
X131455716Y-97287480D01*
X131474105Y-97295438D01*
X131492101Y-97298288D01*
X131547327Y-97321729D01*
X131585085Y-97368355D01*
X131597106Y-97394133D01*
X131624314Y-97452482D01*
X131624433Y-97452736D01*
X131754950Y-97639136D01*
X131754952Y-97639138D01*
X131754953Y-97639139D01*
X131833183Y-97717369D01*
X131860061Y-97757595D01*
X131869500Y-97805048D01*
X131869500Y-99894128D01*
X131852023Y-99957602D01*
X131804518Y-100003182D01*
X131709971Y-100054349D01*
X131626485Y-100099529D01*
X131430259Y-100252259D01*
X131430256Y-100252261D01*
X131430256Y-100252262D01*
X131261836Y-100435215D01*
X131239545Y-100469334D01*
X131125825Y-100643395D01*
X131050721Y-100814617D01*
X131025937Y-100871119D01*
X130987844Y-101021545D01*
X130964891Y-101112183D01*
X130944356Y-101360000D01*
X130964891Y-101607816D01*
X130964891Y-101607819D01*
X130964892Y-101607821D01*
X131025937Y-101848881D01*
X131041476Y-101884306D01*
X131125825Y-102076604D01*
X131125827Y-102076607D01*
X131261836Y-102284785D01*
X131430256Y-102467738D01*
X131472386Y-102500529D01*
X131626485Y-102620470D01*
X131626487Y-102620471D01*
X131626491Y-102620474D01*
X131759519Y-102692465D01*
X131807023Y-102738045D01*
X131824500Y-102801519D01*
X131824500Y-105018481D01*
X131807023Y-105081955D01*
X131759519Y-105127534D01*
X131707144Y-105155879D01*
X131626485Y-105199529D01*
X131430259Y-105352259D01*
X131430256Y-105352261D01*
X131430256Y-105352262D01*
X131261836Y-105535215D01*
X131250046Y-105553261D01*
X131125825Y-105743395D01*
X131058160Y-105897658D01*
X131025937Y-105971119D01*
X131001776Y-106066530D01*
X130964891Y-106212183D01*
X130944356Y-106460000D01*
X130964891Y-106707816D01*
X130964891Y-106707819D01*
X130964892Y-106707821D01*
X131025937Y-106948881D01*
X131070292Y-107050000D01*
X131125825Y-107176604D01*
X131125827Y-107176607D01*
X131261836Y-107384785D01*
X131430256Y-107567738D01*
X131430259Y-107567740D01*
X131626485Y-107720470D01*
X131626487Y-107720471D01*
X131626491Y-107720474D01*
X131845190Y-107838828D01*
X132080386Y-107919571D01*
X132325665Y-107960500D01*
X132574335Y-107960500D01*
X132819614Y-107919571D01*
X133054810Y-107838828D01*
X133273509Y-107720474D01*
X133469744Y-107567738D01*
X133638164Y-107384785D01*
X133774173Y-107176607D01*
X133776851Y-107170500D01*
X133781594Y-107159690D01*
X133808685Y-107120619D01*
X133848488Y-107094615D01*
X133895150Y-107085500D01*
X137094548Y-107085500D01*
X137142001Y-107094939D01*
X137182228Y-107121818D01*
X140407591Y-110347182D01*
X140438491Y-110398607D01*
X140441631Y-110458521D01*
X140416276Y-110512896D01*
X140368361Y-110549003D01*
X140309104Y-110558389D01*
X140265002Y-110554531D01*
X140038310Y-110574364D01*
X139818502Y-110633261D01*
X139612264Y-110729432D01*
X139425859Y-110859953D01*
X139264953Y-111020859D01*
X139239912Y-111056623D01*
X139195594Y-111095489D01*
X139138337Y-111109500D01*
X138851663Y-111109500D01*
X138794406Y-111095489D01*
X138750088Y-111056623D01*
X138725046Y-111020859D01*
X138564140Y-110859953D01*
X138377735Y-110729432D01*
X138171497Y-110633261D01*
X137951689Y-110574364D01*
X137725000Y-110554531D01*
X137498310Y-110574364D01*
X137278502Y-110633261D01*
X137072264Y-110729432D01*
X136885859Y-110859953D01*
X136724953Y-111020859D01*
X136594430Y-111207267D01*
X136567105Y-111265866D01*
X136521348Y-111318041D01*
X136454723Y-111337460D01*
X136388099Y-111318040D01*
X136342342Y-111265865D01*
X136315134Y-111207519D01*
X136184658Y-111021180D01*
X136023819Y-110860341D01*
X135837480Y-110729865D01*
X135631326Y-110633733D01*
X135435000Y-110581128D01*
X135435000Y-111986000D01*
X135418387Y-112048000D01*
X135373000Y-112093387D01*
X135311000Y-112110000D01*
X135059000Y-112110000D01*
X134997000Y-112093387D01*
X134951613Y-112048000D01*
X134935000Y-111986000D01*
X134935000Y-110581128D01*
X134934999Y-110581128D01*
X134738673Y-110633733D01*
X134532519Y-110729865D01*
X134346180Y-110860341D01*
X134185341Y-111021180D01*
X134054863Y-111207522D01*
X134027656Y-111265866D01*
X133981899Y-111318041D01*
X133915274Y-111337460D01*
X133848650Y-111318040D01*
X133802893Y-111265865D01*
X133802256Y-111264500D01*
X133775568Y-111207266D01*
X133707112Y-111109500D01*
X133645046Y-111020859D01*
X133484140Y-110859953D01*
X133297735Y-110729432D01*
X133091497Y-110633261D01*
X132871689Y-110574364D01*
X132645000Y-110554531D01*
X132418310Y-110574364D01*
X132198502Y-110633261D01*
X131992264Y-110729432D01*
X131805859Y-110859953D01*
X131644953Y-111020859D01*
X131514432Y-111207264D01*
X131418261Y-111413502D01*
X131359364Y-111633310D01*
X131339531Y-111860000D01*
X131359364Y-112086689D01*
X131418261Y-112306497D01*
X131487382Y-112454725D01*
X131514432Y-112512734D01*
X131579880Y-112606204D01*
X131585602Y-112614376D01*
X131607761Y-112677390D01*
X131594015Y-112742756D01*
X131548354Y-112791508D01*
X131484026Y-112809499D01*
X130418424Y-112809499D01*
X130359574Y-112794644D01*
X130314823Y-112753638D01*
X130294896Y-112696306D01*
X130280635Y-112533310D01*
X130280635Y-112533308D01*
X130221739Y-112313504D01*
X130125568Y-112107266D01*
X130105670Y-112078849D01*
X129995046Y-111920859D01*
X129834140Y-111759953D01*
X129798377Y-111734912D01*
X129759511Y-111690594D01*
X129745500Y-111633337D01*
X129745500Y-105693706D01*
X129746809Y-105675736D01*
X129747411Y-105671625D01*
X129750289Y-105651977D01*
X129745971Y-105602633D01*
X129745500Y-105591827D01*
X129745500Y-97058706D01*
X129746809Y-97040736D01*
X129748525Y-97029019D01*
X129750289Y-97016977D01*
X129745971Y-96967633D01*
X129745500Y-96956827D01*
X129745500Y-96951292D01*
X129745500Y-96951291D01*
X129741893Y-96920436D01*
X129741537Y-96916956D01*
X129734998Y-96842203D01*
X129734888Y-96840943D01*
X129730674Y-96821936D01*
X129730241Y-96820745D01*
X129704569Y-96750211D01*
X129703422Y-96746913D01*
X129679814Y-96675665D01*
X129679812Y-96675662D01*
X129679415Y-96674463D01*
X129669681Y-96654357D01*
X129665279Y-96642262D01*
X129667193Y-96641565D01*
X129654833Y-96606670D01*
X129663253Y-96547972D01*
X129697966Y-96499896D01*
X129751033Y-96473435D01*
X129810319Y-96474641D01*
G37*
%TD.AperFunction*%
%TA.AperFunction,Conductor*%
G36*
X155277369Y-75842849D02*
G01*
X155322849Y-75888247D01*
X155339500Y-75950312D01*
X155339500Y-76543321D01*
X155323690Y-76603910D01*
X155280290Y-76649048D01*
X155220368Y-76667225D01*
X155159205Y-76653806D01*
X155112398Y-76612212D01*
X154988875Y-76427347D01*
X154959593Y-76393959D01*
X154959592Y-76393959D01*
X153553553Y-77800000D01*
X153553553Y-77800001D01*
X154959592Y-79206040D01*
X154959593Y-79206039D01*
X154988874Y-79172653D01*
X155112398Y-78987788D01*
X155159205Y-78946194D01*
X155220368Y-78932775D01*
X155280290Y-78950952D01*
X155323690Y-78996090D01*
X155339500Y-79056679D01*
X155339500Y-132271723D01*
X155322205Y-132334891D01*
X155275143Y-132380437D01*
X155211443Y-132395657D01*
X155159592Y-132393959D01*
X153753553Y-133800000D01*
X153753553Y-133800001D01*
X155159591Y-135206039D01*
X155211444Y-135204343D01*
X155275143Y-135219563D01*
X155322205Y-135265110D01*
X155339500Y-135328277D01*
X155339500Y-135735500D01*
X155322887Y-135797500D01*
X155277500Y-135842887D01*
X155215500Y-135859500D01*
X154776407Y-135859500D01*
X154715818Y-135843690D01*
X154670680Y-135800290D01*
X154652503Y-135740368D01*
X154665922Y-135679205D01*
X154707516Y-135632398D01*
X154772653Y-135588874D01*
X154806039Y-135559593D01*
X154806040Y-135559592D01*
X153400000Y-134153553D01*
X151993959Y-135559592D01*
X151993959Y-135559593D01*
X152027347Y-135588875D01*
X152092484Y-135632398D01*
X152134078Y-135679205D01*
X152147497Y-135740368D01*
X152129320Y-135800290D01*
X152084182Y-135843690D01*
X152023593Y-135859500D01*
X102176407Y-135859500D01*
X102115818Y-135843690D01*
X102070680Y-135800290D01*
X102052503Y-135740368D01*
X102065922Y-135679205D01*
X102107516Y-135632398D01*
X102172653Y-135588874D01*
X102206039Y-135559593D01*
X102206040Y-135559592D01*
X100800000Y-134153553D01*
X99393959Y-135559592D01*
X99393959Y-135559593D01*
X99427347Y-135588875D01*
X99492484Y-135632398D01*
X99534078Y-135679205D01*
X99547497Y-135740368D01*
X99529320Y-135800290D01*
X99484182Y-135843690D01*
X99423593Y-135859500D01*
X98964500Y-135859500D01*
X98902500Y-135842887D01*
X98857113Y-135797500D01*
X98840500Y-135735500D01*
X98840500Y-135307551D01*
X98854761Y-135249815D01*
X98894265Y-135205359D01*
X98949925Y-135184411D01*
X99008937Y-135191787D01*
X99028843Y-135205661D01*
X99040406Y-135206039D01*
X100446447Y-133800001D01*
X101153553Y-133800001D01*
X102559592Y-135206040D01*
X102559593Y-135206039D01*
X102588874Y-135172653D01*
X102752738Y-134927413D01*
X102883189Y-134662885D01*
X102977997Y-134383590D01*
X103035537Y-134094320D01*
X103054827Y-133800000D01*
X103035537Y-133505679D01*
X102977997Y-133216409D01*
X102883189Y-132937114D01*
X102813918Y-132796647D01*
X120674526Y-132796647D01*
X120747515Y-132847754D01*
X120953673Y-132943887D01*
X121173397Y-133002762D01*
X121400000Y-133022587D01*
X121626602Y-133002762D01*
X121846326Y-132943887D01*
X122052480Y-132847755D01*
X122125472Y-132796646D01*
X121400001Y-132071174D01*
X121400000Y-132071174D01*
X120674526Y-132796646D01*
X120674526Y-132796647D01*
X102813918Y-132796647D01*
X102752738Y-132672586D01*
X102588875Y-132427347D01*
X102559593Y-132393959D01*
X102559592Y-132393959D01*
X101153553Y-133800000D01*
X101153553Y-133800001D01*
X100446447Y-133800001D01*
X100446447Y-133800000D01*
X99040406Y-132393958D01*
X99028843Y-132394337D01*
X99008938Y-132408211D01*
X98949925Y-132415587D01*
X98894266Y-132394639D01*
X98854762Y-132350183D01*
X98840500Y-132292447D01*
X98840500Y-132040406D01*
X99393958Y-132040406D01*
X100800000Y-133446447D01*
X100800001Y-133446447D01*
X102206039Y-132040406D01*
X102206039Y-132040404D01*
X102172652Y-132011124D01*
X101927413Y-131847261D01*
X101664528Y-131717620D01*
X120095033Y-131717620D01*
X120114858Y-131944223D01*
X120173733Y-132163947D01*
X120269866Y-132370105D01*
X120320972Y-132443092D01*
X120320974Y-132443093D01*
X121046446Y-131717622D01*
X121753553Y-131717622D01*
X122479025Y-132443093D01*
X122530134Y-132370101D01*
X122626266Y-132163947D01*
X122685141Y-131944223D01*
X122704966Y-131717620D01*
X122685141Y-131491018D01*
X122626266Y-131271294D01*
X122530133Y-131065136D01*
X122479025Y-130992147D01*
X121753553Y-131717621D01*
X121753553Y-131717622D01*
X121046446Y-131717622D01*
X121046446Y-131717621D01*
X120320973Y-130992147D01*
X120320973Y-130992148D01*
X120269865Y-131065137D01*
X120173733Y-131271293D01*
X120114858Y-131491018D01*
X120095033Y-131717620D01*
X101664528Y-131717620D01*
X101662885Y-131716810D01*
X101383590Y-131622002D01*
X101094320Y-131564462D01*
X100800000Y-131545172D01*
X100505679Y-131564462D01*
X100216409Y-131622002D01*
X99937114Y-131716810D01*
X99672586Y-131847261D01*
X99427348Y-132011124D01*
X99393958Y-132040405D01*
X99393958Y-132040406D01*
X98840500Y-132040406D01*
X98840500Y-107050000D01*
X100600001Y-107050000D01*
X100600001Y-107199979D01*
X100610493Y-107302695D01*
X100665642Y-107469122D01*
X100757683Y-107618345D01*
X100881654Y-107742316D01*
X101030877Y-107834357D01*
X101197303Y-107889506D01*
X101300021Y-107900000D01*
X101550000Y-107900000D01*
X101550000Y-107050000D01*
X102050000Y-107050000D01*
X102050000Y-107899999D01*
X102299979Y-107899999D01*
X102402695Y-107889506D01*
X102569122Y-107834357D01*
X102718345Y-107742316D01*
X102842316Y-107618345D01*
X102934357Y-107469122D01*
X102989506Y-107302696D01*
X103000000Y-107199979D01*
X103000000Y-107050000D01*
X102050000Y-107050000D01*
X101550000Y-107050000D01*
X100600001Y-107050000D01*
X98840500Y-107050000D01*
X98840500Y-105200008D01*
X100599500Y-105200008D01*
X100610000Y-105302796D01*
X100665186Y-105469334D01*
X100757288Y-105618657D01*
X100851303Y-105712672D01*
X100883397Y-105768259D01*
X100883397Y-105832446D01*
X100851304Y-105888034D01*
X100757681Y-105981656D01*
X100665642Y-106130877D01*
X100610493Y-106297303D01*
X100600000Y-106400021D01*
X100600000Y-106550000D01*
X102999999Y-106550000D01*
X102999999Y-106400021D01*
X102989506Y-106297306D01*
X102944339Y-106161003D01*
X102940907Y-106095513D01*
X102971357Y-106037431D01*
X103027173Y-106003003D01*
X103092742Y-106001858D01*
X103149726Y-106034317D01*
X103563181Y-106447771D01*
X103590061Y-106487999D01*
X103599500Y-106535452D01*
X103599500Y-107200008D01*
X103610000Y-107302796D01*
X103665186Y-107469334D01*
X103757288Y-107618657D01*
X103881342Y-107742711D01*
X103881344Y-107742712D01*
X104030666Y-107834814D01*
X104136790Y-107869980D01*
X104197202Y-107889999D01*
X104207702Y-107891071D01*
X104299991Y-107900500D01*
X105043771Y-107900499D01*
X105100065Y-107914014D01*
X105144088Y-107951614D01*
X105166243Y-108005101D01*
X105161701Y-108062817D01*
X105131451Y-108112180D01*
X103247362Y-109996268D01*
X103197512Y-110026675D01*
X103139272Y-110030896D01*
X103011049Y-110009500D01*
X102778951Y-110009500D01*
X102733164Y-110017140D01*
X102550015Y-110047702D01*
X102330501Y-110123062D01*
X102126372Y-110233531D01*
X101943215Y-110376087D01*
X101786020Y-110546848D01*
X101659076Y-110741150D01*
X101565844Y-110953696D01*
X101565842Y-110953700D01*
X101565843Y-110953700D01*
X101527752Y-111104119D01*
X101508865Y-111178700D01*
X101489699Y-111410000D01*
X101508865Y-111641299D01*
X101508865Y-111641301D01*
X101508866Y-111641305D01*
X101542173Y-111772830D01*
X101565844Y-111866303D01*
X101609753Y-111966404D01*
X101659076Y-112078849D01*
X101786021Y-112273153D01*
X101880803Y-112376114D01*
X101909575Y-112428865D01*
X101910168Y-112488951D01*
X101882441Y-112542261D01*
X101832906Y-112576276D01*
X101752671Y-112606202D01*
X101637454Y-112692454D01*
X101551204Y-112807668D01*
X101500909Y-112942516D01*
X101494500Y-113002130D01*
X101494500Y-114897869D01*
X101500909Y-114957484D01*
X101506412Y-114972237D01*
X101551204Y-115092331D01*
X101637454Y-115207546D01*
X101752669Y-115293796D01*
X101887517Y-115344091D01*
X101947127Y-115350500D01*
X103105500Y-115350499D01*
X103167500Y-115367112D01*
X103212887Y-115412499D01*
X103229500Y-115474499D01*
X103229500Y-122107256D01*
X103227235Y-122127762D01*
X103229439Y-122197873D01*
X103229500Y-122201768D01*
X103229500Y-122229349D01*
X103230003Y-122233334D01*
X103230918Y-122244967D01*
X103232290Y-122288626D01*
X103237879Y-122307860D01*
X103241825Y-122326916D01*
X103244335Y-122346792D01*
X103260414Y-122387404D01*
X103264197Y-122398451D01*
X103276382Y-122440391D01*
X103286580Y-122457635D01*
X103295136Y-122475100D01*
X103302514Y-122493732D01*
X103302515Y-122493733D01*
X103328180Y-122529059D01*
X103334593Y-122538822D01*
X103356826Y-122576416D01*
X103356829Y-122576419D01*
X103356830Y-122576420D01*
X103370995Y-122590585D01*
X103383627Y-122605375D01*
X103395406Y-122621587D01*
X103429058Y-122649426D01*
X103437699Y-122657289D01*
X104464196Y-123683787D01*
X104477096Y-123699888D01*
X104528223Y-123747900D01*
X104531019Y-123750610D01*
X104550529Y-123770120D01*
X104553711Y-123772588D01*
X104562571Y-123780155D01*
X104594418Y-123810062D01*
X104611972Y-123819712D01*
X104628236Y-123830396D01*
X104631993Y-123833310D01*
X104644064Y-123842673D01*
X104656164Y-123847909D01*
X104684152Y-123860021D01*
X104694631Y-123865154D01*
X104732908Y-123886197D01*
X104752306Y-123891177D01*
X104770708Y-123897477D01*
X104789104Y-123905438D01*
X104832261Y-123912273D01*
X104843664Y-123914634D01*
X104885981Y-123925500D01*
X104906016Y-123925500D01*
X104925413Y-123927026D01*
X104945196Y-123930160D01*
X104988674Y-123926050D01*
X105000344Y-123925500D01*
X109219547Y-123925500D01*
X109267000Y-123934939D01*
X109307228Y-123961819D01*
X109317930Y-123972521D01*
X109350024Y-124028108D01*
X109350024Y-124092296D01*
X109317930Y-124147883D01*
X109199953Y-124265859D01*
X109069432Y-124452264D01*
X108973261Y-124658502D01*
X108914364Y-124878310D01*
X108894531Y-125105000D01*
X108914364Y-125331689D01*
X108973261Y-125551497D01*
X109069432Y-125757735D01*
X109199953Y-125944140D01*
X109360859Y-126105046D01*
X109514291Y-126212479D01*
X109547266Y-126235568D01*
X109605273Y-126262617D01*
X109657449Y-126308373D01*
X109676869Y-126374997D01*
X109657451Y-126441622D01*
X109605276Y-126487380D01*
X109547266Y-126514431D01*
X109360859Y-126644953D01*
X109199953Y-126805859D01*
X109069432Y-126992264D01*
X108973261Y-127198502D01*
X108914364Y-127418310D01*
X108894531Y-127645000D01*
X108914364Y-127871689D01*
X108973261Y-128091497D01*
X109069432Y-128297735D01*
X109199953Y-128484140D01*
X109360859Y-128645046D01*
X109547264Y-128775567D01*
X109547265Y-128775567D01*
X109547266Y-128775568D01*
X109753504Y-128871739D01*
X109973308Y-128930635D01*
X110200000Y-128950468D01*
X110426692Y-128930635D01*
X110646496Y-128871739D01*
X110735340Y-128830309D01*
X110784133Y-128818745D01*
X110833522Y-128827454D01*
X110875422Y-128855012D01*
X112398181Y-130377772D01*
X112425061Y-130418000D01*
X112434500Y-130465453D01*
X112434500Y-130997869D01*
X112440909Y-131057484D01*
X112463259Y-131117406D01*
X112491204Y-131192331D01*
X112577454Y-131307546D01*
X112692669Y-131393796D01*
X112827517Y-131444091D01*
X112887127Y-131450500D01*
X114032872Y-131450499D01*
X114092483Y-131444091D01*
X114227331Y-131393796D01*
X114227332Y-131393794D01*
X114243545Y-131387748D01*
X114277104Y-131373228D01*
X114334576Y-131376693D01*
X114335652Y-131377019D01*
X114335659Y-131377023D01*
X114528967Y-131435662D01*
X114730000Y-131455462D01*
X114931033Y-131435662D01*
X115124341Y-131377023D01*
X115302494Y-131281798D01*
X115302495Y-131281797D01*
X115307077Y-131279348D01*
X115365530Y-131264706D01*
X115423984Y-131279348D01*
X115605850Y-131376558D01*
X115750000Y-131420285D01*
X115750000Y-130537315D01*
X115750597Y-130525161D01*
X115755500Y-130475380D01*
X115755500Y-130450000D01*
X116250000Y-130450000D01*
X116250000Y-131420285D01*
X116394150Y-131376558D01*
X116572215Y-131281379D01*
X116728292Y-131153292D01*
X116856379Y-130997215D01*
X116951557Y-130819151D01*
X117010170Y-130625932D01*
X117025000Y-130475361D01*
X117025000Y-130450000D01*
X116250000Y-130450000D01*
X115755500Y-130450000D01*
X115755500Y-129924620D01*
X115750597Y-129874839D01*
X115750000Y-129862685D01*
X115750000Y-128979715D01*
X116250000Y-128979715D01*
X116250000Y-129950000D01*
X117025000Y-129950000D01*
X117025000Y-129924639D01*
X117010170Y-129774067D01*
X116951557Y-129580848D01*
X116856379Y-129402784D01*
X116728292Y-129246707D01*
X116572215Y-129118620D01*
X116394150Y-129023441D01*
X116250000Y-128979715D01*
X115750000Y-128979715D01*
X115605847Y-129023442D01*
X115537953Y-129059733D01*
X115476457Y-129074338D01*
X115415751Y-129056733D01*
X115371609Y-129011494D01*
X115355500Y-128950375D01*
X115355500Y-126723162D01*
X115369511Y-126665905D01*
X115408377Y-126621587D01*
X115439140Y-126600046D01*
X115600046Y-126439140D01*
X115600047Y-126439139D01*
X115730568Y-126252734D01*
X115757618Y-126194724D01*
X115803375Y-126142549D01*
X115870000Y-126123129D01*
X115936625Y-126142549D01*
X115982382Y-126194725D01*
X116009431Y-126252733D01*
X116139953Y-126439140D01*
X116300859Y-126600046D01*
X116487264Y-126730567D01*
X116487265Y-126730567D01*
X116487266Y-126730568D01*
X116693504Y-126826739D01*
X116913308Y-126885635D01*
X117140000Y-126905468D01*
X117366692Y-126885635D01*
X117586496Y-126826739D01*
X117792734Y-126730568D01*
X117923471Y-126639026D01*
X119549526Y-126639026D01*
X119622515Y-126690133D01*
X119828673Y-126786266D01*
X120048397Y-126845141D01*
X120275000Y-126864966D01*
X120501602Y-126845141D01*
X120721326Y-126786266D01*
X120927480Y-126690134D01*
X121000472Y-126639025D01*
X120275001Y-125913553D01*
X120275000Y-125913553D01*
X119549526Y-126639025D01*
X119549526Y-126639026D01*
X117923471Y-126639026D01*
X117979139Y-126600047D01*
X118140047Y-126439139D01*
X118270568Y-126252734D01*
X118366739Y-126046496D01*
X118425635Y-125826692D01*
X118445468Y-125600000D01*
X118441968Y-125560000D01*
X118970033Y-125560000D01*
X118989858Y-125786602D01*
X119048733Y-126006326D01*
X119144866Y-126212484D01*
X119195972Y-126285471D01*
X119195974Y-126285472D01*
X119921446Y-125560001D01*
X119921446Y-125560000D01*
X119195973Y-124834526D01*
X119195973Y-124834527D01*
X119144865Y-124907516D01*
X119048733Y-125113672D01*
X118989858Y-125333397D01*
X118970033Y-125560000D01*
X118441968Y-125560000D01*
X118425635Y-125373308D01*
X118366739Y-125153504D01*
X118270568Y-124947266D01*
X118242735Y-124907516D01*
X118140049Y-124760863D01*
X118100045Y-124720859D01*
X118051365Y-124672179D01*
X118021117Y-124622819D01*
X118016575Y-124565103D01*
X118038730Y-124511615D01*
X118082753Y-124474015D01*
X118139048Y-124460500D01*
X119477692Y-124460500D01*
X119525145Y-124469939D01*
X119565373Y-124496819D01*
X120275000Y-125206446D01*
X120275001Y-125206446D01*
X120984627Y-124496819D01*
X121024855Y-124469939D01*
X121072308Y-124460500D01*
X121775951Y-124460500D01*
X121832246Y-124474015D01*
X121876269Y-124511615D01*
X121898424Y-124565102D01*
X121893882Y-124622818D01*
X121863632Y-124672181D01*
X121814953Y-124720859D01*
X121684430Y-124907267D01*
X121657105Y-124965866D01*
X121611348Y-125018041D01*
X121544723Y-125037460D01*
X121478099Y-125018040D01*
X121432342Y-124965865D01*
X121405133Y-124907515D01*
X121354025Y-124834526D01*
X120628553Y-125560000D01*
X120628553Y-125560001D01*
X121354025Y-126285472D01*
X121405136Y-126212479D01*
X121432342Y-126154135D01*
X121478098Y-126101959D01*
X121544723Y-126082539D01*
X121611348Y-126101958D01*
X121657106Y-126154133D01*
X121684433Y-126212736D01*
X121814953Y-126399140D01*
X121975859Y-126560046D01*
X122136623Y-126672613D01*
X122175489Y-126716931D01*
X122189500Y-126774188D01*
X122189500Y-127474300D01*
X122180789Y-127519956D01*
X122155880Y-127559197D01*
X122152086Y-127563236D01*
X122149391Y-127566017D01*
X122129874Y-127585534D01*
X122127415Y-127588705D01*
X122119842Y-127597572D01*
X122089938Y-127629418D01*
X122081742Y-127644326D01*
X122060763Y-127672265D01*
X121852226Y-127880802D01*
X121811998Y-127907682D01*
X121764545Y-127917121D01*
X120552130Y-127917121D01*
X120492515Y-127923530D01*
X120357669Y-127973825D01*
X120242454Y-128060075D01*
X120156204Y-128175289D01*
X120106120Y-128309570D01*
X120105909Y-128310138D01*
X120101570Y-128350500D01*
X120099500Y-128369751D01*
X120099500Y-130065490D01*
X120105909Y-130125105D01*
X120109639Y-130135105D01*
X120156204Y-130259952D01*
X120242454Y-130375167D01*
X120357669Y-130461417D01*
X120492517Y-130511712D01*
X120552127Y-130518121D01*
X120552131Y-130518120D01*
X120558735Y-130518831D01*
X120558542Y-130520621D01*
X120614824Y-130536571D01*
X120660550Y-130586459D01*
X120669582Y-130633650D01*
X121400000Y-131364067D01*
X121400001Y-131364067D01*
X122130414Y-130633652D01*
X122139443Y-130586470D01*
X122185157Y-130536582D01*
X122241456Y-130520614D01*
X122241265Y-130518830D01*
X122247869Y-130518120D01*
X122247872Y-130518120D01*
X122307483Y-130511712D01*
X122442331Y-130461417D01*
X122557546Y-130375167D01*
X122643796Y-130259952D01*
X122694091Y-130125104D01*
X122700500Y-130065494D01*
X122700500Y-129967121D01*
X122717113Y-129905121D01*
X122762500Y-129859734D01*
X122824500Y-129843121D01*
X124507169Y-129843121D01*
X124554622Y-129852560D01*
X124594850Y-129879440D01*
X125738181Y-131022772D01*
X125765061Y-131063000D01*
X125774500Y-131110453D01*
X125774500Y-132558481D01*
X125757023Y-132621955D01*
X125709519Y-132667534D01*
X125618401Y-132716845D01*
X125576485Y-132739529D01*
X125380259Y-132892259D01*
X125380256Y-132892261D01*
X125380256Y-132892262D01*
X125250616Y-133033089D01*
X125211837Y-133075214D01*
X125075825Y-133283395D01*
X124975938Y-133511117D01*
X124914891Y-133752183D01*
X124894356Y-134000000D01*
X124914891Y-134247816D01*
X124914891Y-134247819D01*
X124914892Y-134247821D01*
X124975937Y-134488881D01*
X125020960Y-134591523D01*
X125075825Y-134716604D01*
X125075827Y-134716607D01*
X125211836Y-134924785D01*
X125380256Y-135107738D01*
X125380259Y-135107740D01*
X125576485Y-135260470D01*
X125576487Y-135260471D01*
X125576491Y-135260474D01*
X125795190Y-135378828D01*
X126030386Y-135459571D01*
X126275665Y-135500500D01*
X126524335Y-135500500D01*
X126769614Y-135459571D01*
X127004810Y-135378828D01*
X127223509Y-135260474D01*
X127419744Y-135107738D01*
X127588164Y-134924785D01*
X127724173Y-134716607D01*
X127824063Y-134488881D01*
X127885108Y-134247821D01*
X127905643Y-134000000D01*
X127885108Y-133752179D01*
X127824063Y-133511119D01*
X127724173Y-133283393D01*
X127588164Y-133075215D01*
X127419744Y-132892262D01*
X127375966Y-132858188D01*
X127223514Y-132739529D01*
X127223510Y-132739526D01*
X127223509Y-132739526D01*
X127090480Y-132667534D01*
X127042977Y-132621955D01*
X127025500Y-132558481D01*
X127025500Y-130882744D01*
X127027764Y-130862237D01*
X127025561Y-130792127D01*
X127025500Y-130788232D01*
X127025500Y-130760653D01*
X127024997Y-130756672D01*
X127024080Y-130745019D01*
X127022709Y-130701373D01*
X127017120Y-130682140D01*
X127013174Y-130663082D01*
X127010664Y-130643206D01*
X126994588Y-130602604D01*
X126990804Y-130591553D01*
X126984881Y-130571168D01*
X126978618Y-130549610D01*
X126968414Y-130532355D01*
X126959861Y-130514895D01*
X126952486Y-130496269D01*
X126952486Y-130496268D01*
X126926808Y-130460925D01*
X126920401Y-130451171D01*
X126898170Y-130413580D01*
X126884005Y-130399415D01*
X126871367Y-130384617D01*
X126859595Y-130368413D01*
X126825941Y-130340573D01*
X126817299Y-130332709D01*
X125318423Y-128833832D01*
X125305527Y-128817734D01*
X125254396Y-128769719D01*
X125251599Y-128767008D01*
X125232091Y-128747500D01*
X125228911Y-128745033D01*
X125220045Y-128737460D01*
X125188203Y-128707559D01*
X125170645Y-128697906D01*
X125154385Y-128687225D01*
X125138557Y-128674948D01*
X125098472Y-128657601D01*
X125087982Y-128652462D01*
X125049712Y-128631423D01*
X125030312Y-128626442D01*
X125011905Y-128620140D01*
X124993518Y-128612183D01*
X124950379Y-128605350D01*
X124938945Y-128602982D01*
X124896640Y-128592121D01*
X124876605Y-128592121D01*
X124857207Y-128590594D01*
X124849783Y-128589418D01*
X124837426Y-128587461D01*
X124837425Y-128587461D01*
X124804372Y-128590585D01*
X124793946Y-128591571D01*
X124782277Y-128592121D01*
X123205117Y-128592121D01*
X123149517Y-128578957D01*
X123105722Y-128542260D01*
X123083031Y-128489822D01*
X123086261Y-128432776D01*
X123103629Y-128402547D01*
X123102513Y-128401934D01*
X123110059Y-128388205D01*
X123110062Y-128388203D01*
X123118258Y-128373292D01*
X123139233Y-128345355D01*
X123198790Y-128285799D01*
X123214887Y-128272903D01*
X123216872Y-128270789D01*
X123216877Y-128270786D01*
X123262934Y-128221739D01*
X123265582Y-128219007D01*
X123285120Y-128199471D01*
X123287581Y-128196298D01*
X123295156Y-128187427D01*
X123325062Y-128155582D01*
X123334712Y-128138027D01*
X123345400Y-128121757D01*
X123357673Y-128105936D01*
X123375026Y-128065832D01*
X123380157Y-128055362D01*
X123401197Y-128017092D01*
X123406175Y-127997699D01*
X123412481Y-127979282D01*
X123414018Y-127975728D01*
X123420438Y-127960896D01*
X123427272Y-127917745D01*
X123429635Y-127906331D01*
X123440500Y-127864019D01*
X123440500Y-127843984D01*
X123442027Y-127824585D01*
X123445160Y-127804804D01*
X123441050Y-127761325D01*
X123440500Y-127749656D01*
X123440500Y-126774188D01*
X123454511Y-126716931D01*
X123493377Y-126672613D01*
X123581500Y-126610909D01*
X123654139Y-126560047D01*
X123815047Y-126399139D01*
X123945568Y-126212734D01*
X124041739Y-126006496D01*
X124100635Y-125786692D01*
X124120468Y-125560000D01*
X124100635Y-125333308D01*
X124041739Y-125113504D01*
X123968508Y-124956461D01*
X123956943Y-124907666D01*
X123965652Y-124858278D01*
X123993208Y-124816381D01*
X125970188Y-122839401D01*
X126021613Y-122808502D01*
X126081527Y-122805362D01*
X126135903Y-122830718D01*
X126172009Y-122878633D01*
X126181395Y-122937891D01*
X126169837Y-123069999D01*
X126188450Y-123282744D01*
X126243724Y-123489031D01*
X126333979Y-123682582D01*
X126456471Y-123857520D01*
X126607479Y-124008528D01*
X126782417Y-124131020D01*
X126985802Y-124225861D01*
X126984955Y-124227676D01*
X127027636Y-124252319D01*
X127059729Y-124307907D01*
X127059729Y-124372093D01*
X127027636Y-124427681D01*
X126984955Y-124452323D01*
X126985802Y-124454139D01*
X126782417Y-124548979D01*
X126607479Y-124671471D01*
X126456471Y-124822479D01*
X126333979Y-124997417D01*
X126243724Y-125190968D01*
X126188450Y-125397255D01*
X126169837Y-125609999D01*
X126188450Y-125822744D01*
X126243724Y-126029031D01*
X126333979Y-126222582D01*
X126456471Y-126397520D01*
X126607479Y-126548528D01*
X126782417Y-126671020D01*
X126782418Y-126671020D01*
X126782419Y-126671021D01*
X126975970Y-126761276D01*
X127182253Y-126816549D01*
X127395000Y-126835162D01*
X127607747Y-126816549D01*
X127814030Y-126761276D01*
X128007581Y-126671021D01*
X128182519Y-126548529D01*
X128333529Y-126397519D01*
X128456021Y-126222581D01*
X128546276Y-126029030D01*
X128601549Y-125822747D01*
X128620162Y-125610000D01*
X128601549Y-125397253D01*
X128546276Y-125190970D01*
X128456021Y-124997419D01*
X128427344Y-124956464D01*
X128333528Y-124822479D01*
X128182520Y-124671471D01*
X128007582Y-124548979D01*
X127804198Y-124454139D01*
X127805044Y-124452322D01*
X127762365Y-124427683D01*
X127730270Y-124372094D01*
X127730270Y-124307906D01*
X127762365Y-124252317D01*
X127805044Y-124227677D01*
X127804198Y-124225861D01*
X127953977Y-124156017D01*
X128007581Y-124131021D01*
X128182519Y-124008529D01*
X128333529Y-123857519D01*
X128364557Y-123813206D01*
X128409951Y-123748377D01*
X128454269Y-123709511D01*
X128511526Y-123695500D01*
X130536099Y-123695500D01*
X130601196Y-123713962D01*
X130646909Y-123763849D01*
X130659627Y-123830307D01*
X130639531Y-124060000D01*
X130659364Y-124286689D01*
X130718261Y-124506497D01*
X130814432Y-124712735D01*
X130944953Y-124899140D01*
X131105859Y-125060046D01*
X131292264Y-125190567D01*
X131292265Y-125190567D01*
X131292266Y-125190568D01*
X131498504Y-125286739D01*
X131718308Y-125345635D01*
X131945000Y-125365468D01*
X132171692Y-125345635D01*
X132240048Y-125327319D01*
X132304234Y-125327319D01*
X132359822Y-125359413D01*
X132938181Y-125937772D01*
X132965061Y-125978000D01*
X132974500Y-126025453D01*
X132974500Y-126717169D01*
X132965061Y-126764622D01*
X132938181Y-126804850D01*
X131852227Y-127890802D01*
X131811999Y-127917682D01*
X131764546Y-127927121D01*
X130552130Y-127927121D01*
X130492515Y-127933530D01*
X130357669Y-127983825D01*
X130242454Y-128070075D01*
X130156204Y-128185289D01*
X130109011Y-128311819D01*
X130105909Y-128320138D01*
X130100194Y-128373300D01*
X130099500Y-128379751D01*
X130099500Y-130075490D01*
X130105909Y-130135105D01*
X130122930Y-130180739D01*
X130156204Y-130269952D01*
X130242454Y-130385167D01*
X130357669Y-130471417D01*
X130424301Y-130496269D01*
X130507110Y-130527155D01*
X130505953Y-130530254D01*
X130546092Y-130546668D01*
X130586091Y-130602657D01*
X130590083Y-130671351D01*
X130556838Y-130731596D01*
X130399950Y-130888484D01*
X130269432Y-131074885D01*
X130173261Y-131281123D01*
X130114364Y-131500931D01*
X130094531Y-131727620D01*
X130114364Y-131954310D01*
X130173261Y-132174118D01*
X130269432Y-132380356D01*
X130399953Y-132566761D01*
X130560859Y-132727667D01*
X130747264Y-132858188D01*
X130747265Y-132858188D01*
X130747266Y-132858189D01*
X130953504Y-132954360D01*
X131173308Y-133013256D01*
X131400000Y-133033089D01*
X131626692Y-133013256D01*
X131846496Y-132954360D01*
X132052734Y-132858189D01*
X132239139Y-132727668D01*
X132400047Y-132566760D01*
X132530568Y-132380355D01*
X132626739Y-132174117D01*
X132685635Y-131954313D01*
X132705468Y-131727621D01*
X132698560Y-131648667D01*
X132705566Y-131595452D01*
X132734405Y-131550183D01*
X133222770Y-131061819D01*
X133262999Y-131034939D01*
X133310452Y-131025500D01*
X135375954Y-131025500D01*
X135428359Y-131037118D01*
X135470943Y-131069794D01*
X135495729Y-131117406D01*
X135518261Y-131201497D01*
X135614432Y-131407735D01*
X135744953Y-131594140D01*
X135905859Y-131755046D01*
X136092264Y-131885567D01*
X136092265Y-131885567D01*
X136092266Y-131885568D01*
X136298504Y-131981739D01*
X136518308Y-132040635D01*
X136745000Y-132060468D01*
X136971692Y-132040635D01*
X137191496Y-131981739D01*
X137397734Y-131885568D01*
X137584139Y-131755047D01*
X137745047Y-131594139D01*
X137875568Y-131407734D01*
X137971739Y-131201496D01*
X138030635Y-130981692D01*
X138050468Y-130755000D01*
X138030635Y-130528308D01*
X137971739Y-130308504D01*
X137875568Y-130102266D01*
X137856819Y-130075490D01*
X137745046Y-129915859D01*
X137584140Y-129754953D01*
X137397733Y-129624431D01*
X137339725Y-129597382D01*
X137287549Y-129551625D01*
X137268129Y-129485000D01*
X137287549Y-129418375D01*
X137339725Y-129372618D01*
X137397734Y-129345568D01*
X137584139Y-129215047D01*
X137745047Y-129054139D01*
X137875568Y-128867734D01*
X137971739Y-128661496D01*
X138030635Y-128441692D01*
X138050468Y-128215000D01*
X138030635Y-127988308D01*
X137971739Y-127768504D01*
X137875568Y-127562266D01*
X137851873Y-127528426D01*
X137745046Y-127375859D01*
X137584140Y-127214953D01*
X137397735Y-127084432D01*
X137191497Y-126988261D01*
X136971689Y-126929364D01*
X136745000Y-126909531D01*
X136518307Y-126929364D01*
X136449950Y-126947680D01*
X136385764Y-126947680D01*
X136330177Y-126915586D01*
X136061819Y-126647228D01*
X136034939Y-126607000D01*
X136025500Y-126559547D01*
X136025500Y-125915452D01*
X136034939Y-125867999D01*
X136061819Y-125827771D01*
X136292443Y-125597147D01*
X136530178Y-125359411D01*
X136585763Y-125327319D01*
X136649951Y-125327319D01*
X136718308Y-125345635D01*
X136945000Y-125365468D01*
X137171692Y-125345635D01*
X137391496Y-125286739D01*
X137597734Y-125190568D01*
X137784139Y-125060047D01*
X137945047Y-124899139D01*
X138075568Y-124712734D01*
X138171739Y-124506496D01*
X138230635Y-124286692D01*
X138250468Y-124060000D01*
X138230635Y-123833308D01*
X138171739Y-123613504D01*
X138075568Y-123407266D01*
X138069878Y-123399140D01*
X137945046Y-123220859D01*
X137784140Y-123059953D01*
X137623377Y-122947387D01*
X137584511Y-122903069D01*
X137570500Y-122845812D01*
X137570500Y-121352744D01*
X137572764Y-121332237D01*
X137572419Y-121321269D01*
X137570561Y-121262127D01*
X137570500Y-121258232D01*
X137570500Y-121230653D01*
X137569997Y-121226672D01*
X137569080Y-121215019D01*
X137568052Y-121182304D01*
X137567709Y-121171373D01*
X137562120Y-121152140D01*
X137558174Y-121133082D01*
X137555664Y-121113206D01*
X137539588Y-121072604D01*
X137535804Y-121061553D01*
X137529881Y-121041168D01*
X137523618Y-121019610D01*
X137513414Y-121002355D01*
X137504861Y-120984895D01*
X137491719Y-120951702D01*
X137492899Y-120951234D01*
X137479827Y-120920292D01*
X137483061Y-120864175D01*
X137510740Y-120815251D01*
X137557175Y-120783574D01*
X137612825Y-120775654D01*
X137725000Y-120785468D01*
X137951692Y-120765635D01*
X137996385Y-120753658D01*
X138060573Y-120753658D01*
X138116162Y-120785752D01*
X139157930Y-121827520D01*
X139190024Y-121883107D01*
X139190024Y-121947294D01*
X139157931Y-122002882D01*
X138999950Y-122160863D01*
X138869432Y-122347264D01*
X138773261Y-122553502D01*
X138714364Y-122773310D01*
X138694531Y-122999999D01*
X138714364Y-123226689D01*
X138773261Y-123446497D01*
X138869432Y-123652735D01*
X138999953Y-123839140D01*
X139160860Y-124000047D01*
X139161621Y-124000580D01*
X139163247Y-124002434D01*
X139168532Y-124007719D01*
X139168185Y-124008065D01*
X139200489Y-124044898D01*
X139214500Y-124102156D01*
X139214500Y-125417844D01*
X139200489Y-125475102D01*
X139168185Y-125511934D01*
X139168532Y-125512281D01*
X139163247Y-125517565D01*
X139161621Y-125519420D01*
X139160860Y-125519952D01*
X138999953Y-125680859D01*
X138869432Y-125867264D01*
X138773261Y-126073502D01*
X138714364Y-126293310D01*
X138694531Y-126520000D01*
X138714364Y-126746689D01*
X138773261Y-126966497D01*
X138869432Y-127172735D01*
X138999953Y-127359140D01*
X139160859Y-127520046D01*
X139251623Y-127583599D01*
X139290489Y-127627917D01*
X139304500Y-127685174D01*
X139304500Y-130180739D01*
X139296017Y-130225814D01*
X139271730Y-130264720D01*
X139206836Y-130335215D01*
X139174201Y-130385167D01*
X139070825Y-130543395D01*
X139009964Y-130682146D01*
X138970937Y-130771119D01*
X138941216Y-130888484D01*
X138909891Y-131012183D01*
X138889356Y-131259999D01*
X138909891Y-131507816D01*
X138909891Y-131507819D01*
X138909892Y-131507821D01*
X138970937Y-131748881D01*
X139005828Y-131828425D01*
X139070825Y-131976604D01*
X139070827Y-131976607D01*
X139206836Y-132184785D01*
X139375256Y-132367738D01*
X139411126Y-132395657D01*
X139571485Y-132520470D01*
X139571487Y-132520471D01*
X139571491Y-132520474D01*
X139790190Y-132638828D01*
X140025386Y-132719571D01*
X140270665Y-132760500D01*
X140519335Y-132760500D01*
X140764614Y-132719571D01*
X140999810Y-132638828D01*
X141218509Y-132520474D01*
X141265872Y-132483610D01*
X149524942Y-132483610D01*
X149571766Y-132520055D01*
X149790393Y-132638368D01*
X150025506Y-132719083D01*
X150270707Y-132760000D01*
X150519293Y-132760000D01*
X150764493Y-132719083D01*
X150999606Y-132638368D01*
X151218233Y-132520054D01*
X151302134Y-132454750D01*
X151366269Y-132429188D01*
X151434133Y-132441886D01*
X151484687Y-132488908D01*
X151502259Y-132555677D01*
X151481400Y-132621492D01*
X151447262Y-132672583D01*
X151316810Y-132937114D01*
X151222002Y-133216409D01*
X151164462Y-133505679D01*
X151145172Y-133800000D01*
X151164462Y-134094320D01*
X151222002Y-134383590D01*
X151316810Y-134662885D01*
X151447261Y-134927413D01*
X151611124Y-135172652D01*
X151640404Y-135206039D01*
X151640406Y-135206039D01*
X153400000Y-133446447D01*
X154806039Y-132040406D01*
X154806039Y-132040404D01*
X154772652Y-132011124D01*
X154527413Y-131847261D01*
X154262885Y-131716810D01*
X153983590Y-131622002D01*
X153694320Y-131564462D01*
X153400000Y-131545172D01*
X153105679Y-131564462D01*
X152816409Y-131622002D01*
X152537114Y-131716810D01*
X152272586Y-131847261D01*
X152027348Y-132011124D01*
X151920405Y-132104911D01*
X151860739Y-132133699D01*
X151794767Y-132127660D01*
X151741320Y-132088518D01*
X151715652Y-132027445D01*
X151725090Y-131961873D01*
X151818586Y-131748721D01*
X151879613Y-131507732D01*
X151900141Y-131259999D01*
X151879613Y-131012267D01*
X151818586Y-130771278D01*
X151718730Y-130543630D01*
X151618434Y-130390116D01*
X150395000Y-131613553D01*
X149524942Y-132483609D01*
X149524942Y-132483610D01*
X141265872Y-132483610D01*
X141414744Y-132367738D01*
X141583164Y-132184785D01*
X141719173Y-131976607D01*
X141725636Y-131961873D01*
X141726594Y-131959690D01*
X141753685Y-131920619D01*
X141793488Y-131894615D01*
X141840150Y-131885500D01*
X142782256Y-131885500D01*
X142802762Y-131887764D01*
X142805665Y-131887672D01*
X142805667Y-131887673D01*
X142872872Y-131885561D01*
X142876768Y-131885500D01*
X142904349Y-131885500D01*
X142904350Y-131885500D01*
X142908319Y-131884998D01*
X142919965Y-131884080D01*
X142963627Y-131882709D01*
X142982859Y-131877120D01*
X143001918Y-131873174D01*
X143008196Y-131872381D01*
X143021792Y-131870664D01*
X143062407Y-131854582D01*
X143073444Y-131850803D01*
X143115390Y-131838618D01*
X143132629Y-131828422D01*
X143150102Y-131819862D01*
X143168732Y-131812486D01*
X143204064Y-131786814D01*
X143213830Y-131780400D01*
X143251418Y-131758171D01*
X143251417Y-131758171D01*
X143251420Y-131758170D01*
X143265585Y-131744004D01*
X143280373Y-131731373D01*
X143296587Y-131719594D01*
X143324438Y-131685926D01*
X143332279Y-131677309D01*
X143749589Y-131259999D01*
X148889858Y-131259999D01*
X148910386Y-131507732D01*
X148971413Y-131748721D01*
X149071268Y-131976370D01*
X149171563Y-132129882D01*
X149171564Y-132129882D01*
X150041447Y-131260001D01*
X150041447Y-131260000D01*
X149171564Y-130390116D01*
X149071266Y-130543634D01*
X148971413Y-130771278D01*
X148910386Y-131012267D01*
X148889858Y-131259999D01*
X143749589Y-131259999D01*
X144973198Y-130036390D01*
X149524942Y-130036390D01*
X150395000Y-130906447D01*
X150395001Y-130906447D01*
X151265057Y-130036390D01*
X151265056Y-130036388D01*
X151218235Y-129999947D01*
X150999606Y-129881631D01*
X150764493Y-129800916D01*
X150519293Y-129760000D01*
X150270707Y-129760000D01*
X150025506Y-129800916D01*
X149790393Y-129881631D01*
X149571764Y-129999946D01*
X149524942Y-130036388D01*
X149524942Y-130036390D01*
X144973198Y-130036390D01*
X146697772Y-128311817D01*
X146757502Y-128278691D01*
X146825712Y-128282218D01*
X146905386Y-128309571D01*
X147150665Y-128350500D01*
X147399335Y-128350500D01*
X147644614Y-128309571D01*
X147879810Y-128228828D01*
X148098509Y-128110474D01*
X148294744Y-127957738D01*
X148463164Y-127774785D01*
X148599173Y-127566607D01*
X148699063Y-127338881D01*
X148760108Y-127097821D01*
X148780643Y-126850000D01*
X148760108Y-126602179D01*
X148699063Y-126361119D01*
X148599173Y-126133393D01*
X148463164Y-125925215D01*
X148294744Y-125742262D01*
X148272612Y-125725036D01*
X148098514Y-125589529D01*
X148098510Y-125589526D01*
X148098509Y-125589526D01*
X147879810Y-125471172D01*
X147879806Y-125471170D01*
X147879805Y-125471170D01*
X147644615Y-125390429D01*
X147399335Y-125349500D01*
X147150665Y-125349500D01*
X146905384Y-125390429D01*
X146670194Y-125471170D01*
X146670190Y-125471171D01*
X146670190Y-125471172D01*
X146604836Y-125506540D01*
X146451485Y-125589529D01*
X146255259Y-125742259D01*
X146255256Y-125742261D01*
X146255256Y-125742262D01*
X146086836Y-125925215D01*
X146074472Y-125944140D01*
X145950825Y-126133395D01*
X145874073Y-126308375D01*
X145850937Y-126361119D01*
X145830551Y-126441622D01*
X145789891Y-126602183D01*
X145769356Y-126850000D01*
X145789891Y-127097815D01*
X145789891Y-127097817D01*
X145789892Y-127097821D01*
X145843863Y-127310950D01*
X145843209Y-127374306D01*
X145811339Y-127429069D01*
X142642228Y-130598181D01*
X142602000Y-130625061D01*
X142554547Y-130634500D01*
X141840150Y-130634500D01*
X141793488Y-130625385D01*
X141753685Y-130599381D01*
X141726594Y-130560310D01*
X141719174Y-130543395D01*
X141710589Y-130530254D01*
X141583164Y-130335215D01*
X141414744Y-130152262D01*
X141379853Y-130125105D01*
X141218514Y-129999529D01*
X141218510Y-129999526D01*
X141218509Y-129999526D01*
X140999810Y-129881172D01*
X140999806Y-129881170D01*
X140999805Y-129881170D01*
X140764615Y-129800429D01*
X140715613Y-129792252D01*
X140659090Y-129782820D01*
X140606063Y-129760427D01*
X140568861Y-129716502D01*
X140555500Y-129660512D01*
X140555500Y-127774905D01*
X140574920Y-127708279D01*
X140627093Y-127662524D01*
X140652734Y-127650568D01*
X140839139Y-127520047D01*
X141000047Y-127359139D01*
X141130568Y-127172734D01*
X141157893Y-127114134D01*
X141203649Y-127061959D01*
X141270274Y-127042539D01*
X141336899Y-127061958D01*
X141382657Y-127114133D01*
X141409866Y-127172482D01*
X141540341Y-127358819D01*
X141701180Y-127519658D01*
X141887519Y-127650134D01*
X142093673Y-127746266D01*
X142289999Y-127798871D01*
X142290000Y-127798872D01*
X142290000Y-126770000D01*
X142790000Y-126770000D01*
X142790000Y-127798871D01*
X142986326Y-127746266D01*
X143192480Y-127650134D01*
X143378819Y-127519658D01*
X143539658Y-127358819D01*
X143670134Y-127172480D01*
X143766266Y-126966326D01*
X143818872Y-126770000D01*
X142790000Y-126770000D01*
X142290000Y-126770000D01*
X142290000Y-125241128D01*
X142790000Y-125241128D01*
X142790000Y-126270000D01*
X143818872Y-126270000D01*
X143818871Y-126269999D01*
X143766266Y-126073673D01*
X143670134Y-125867519D01*
X143539658Y-125681180D01*
X143378819Y-125520341D01*
X143192480Y-125389865D01*
X142986326Y-125293733D01*
X142790000Y-125241128D01*
X142290000Y-125241128D01*
X142289999Y-125241128D01*
X142093673Y-125293733D01*
X141887519Y-125389865D01*
X141701180Y-125520341D01*
X141540341Y-125681180D01*
X141409863Y-125867522D01*
X141382656Y-125925866D01*
X141336899Y-125978041D01*
X141270274Y-125997460D01*
X141203650Y-125978040D01*
X141157893Y-125925865D01*
X141157589Y-125925214D01*
X141130568Y-125867266D01*
X141128344Y-125864090D01*
X141000046Y-125680859D01*
X140839140Y-125519953D01*
X140652735Y-125389432D01*
X140588358Y-125359413D01*
X140537093Y-125335507D01*
X140484919Y-125289752D01*
X140465500Y-125223127D01*
X140465500Y-124296873D01*
X140484919Y-124230248D01*
X140537093Y-124184492D01*
X140652734Y-124130568D01*
X140839139Y-124000047D01*
X141000047Y-123839139D01*
X141130568Y-123652734D01*
X141157618Y-123594724D01*
X141203375Y-123542549D01*
X141270000Y-123523129D01*
X141336625Y-123542549D01*
X141382382Y-123594725D01*
X141409431Y-123652733D01*
X141539953Y-123839140D01*
X141700859Y-124000046D01*
X141887264Y-124130567D01*
X141887265Y-124130567D01*
X141887266Y-124130568D01*
X142093504Y-124226739D01*
X142313308Y-124285635D01*
X142540000Y-124305468D01*
X142766692Y-124285635D01*
X142986496Y-124226739D01*
X143192734Y-124130568D01*
X143379139Y-124000047D01*
X143540047Y-123839139D01*
X143670568Y-123652734D01*
X143740526Y-123502709D01*
X143761797Y-123457095D01*
X143807554Y-123404919D01*
X143874179Y-123385500D01*
X144056187Y-123385500D01*
X144118187Y-123402113D01*
X144163574Y-123447500D01*
X144180187Y-123509500D01*
X144180187Y-123607872D01*
X144181617Y-123621171D01*
X144186595Y-123667484D01*
X144206037Y-123719610D01*
X144236890Y-123802331D01*
X144323140Y-123917546D01*
X144438355Y-124003796D01*
X144573203Y-124054091D01*
X144632813Y-124060500D01*
X146328558Y-124060499D01*
X146388169Y-124054091D01*
X146523017Y-124003796D01*
X146638232Y-123917546D01*
X146724482Y-123802331D01*
X146774777Y-123667483D01*
X146778548Y-123632405D01*
X146798925Y-123576486D01*
X146843014Y-123536501D01*
X146900655Y-123521667D01*
X146958568Y-123535400D01*
X147003411Y-123574537D01*
X147020637Y-123599138D01*
X147181545Y-123760046D01*
X147367950Y-123890567D01*
X147367951Y-123890567D01*
X147367952Y-123890568D01*
X147574190Y-123986739D01*
X147793994Y-124045635D01*
X148020686Y-124065468D01*
X148247378Y-124045635D01*
X148467182Y-123986739D01*
X148673420Y-123890568D01*
X148859825Y-123760047D01*
X149020733Y-123599139D01*
X149151254Y-123412734D01*
X149247425Y-123206496D01*
X149306321Y-122986692D01*
X149326154Y-122760000D01*
X149306321Y-122533308D01*
X149247425Y-122313504D01*
X149151254Y-122107266D01*
X149126792Y-122072331D01*
X149020732Y-121920859D01*
X148859826Y-121759953D01*
X148673421Y-121629432D01*
X148582095Y-121586846D01*
X148529919Y-121541089D01*
X148510500Y-121474464D01*
X148510500Y-120694188D01*
X148524511Y-120636931D01*
X148563377Y-120592613D01*
X148652798Y-120530000D01*
X148724139Y-120480047D01*
X148885047Y-120319139D01*
X149015568Y-120132734D01*
X149111739Y-119926496D01*
X149170635Y-119706692D01*
X149190468Y-119480000D01*
X149170635Y-119253308D01*
X149111739Y-119033504D01*
X149015568Y-118827266D01*
X148985966Y-118784990D01*
X148885046Y-118640859D01*
X148724140Y-118479953D01*
X148537735Y-118349432D01*
X148331497Y-118253261D01*
X148111689Y-118194364D01*
X147885000Y-118174531D01*
X147658310Y-118194364D01*
X147438502Y-118253261D01*
X147232264Y-118349432D01*
X147045859Y-118479953D01*
X146884953Y-118640859D01*
X146754433Y-118827263D01*
X146727382Y-118885275D01*
X146681625Y-118937450D01*
X146615000Y-118956869D01*
X146548375Y-118937450D01*
X146502618Y-118885275D01*
X146475687Y-118827522D01*
X146475568Y-118827266D01*
X146429750Y-118761830D01*
X146345046Y-118640859D01*
X146184140Y-118479953D01*
X145997735Y-118349432D01*
X145791497Y-118253261D01*
X145571689Y-118194364D01*
X145345000Y-118174531D01*
X145118310Y-118194364D01*
X144898502Y-118253261D01*
X144692264Y-118349432D01*
X144505859Y-118479953D01*
X144344953Y-118640859D01*
X144214433Y-118827263D01*
X144187382Y-118885275D01*
X144141625Y-118937450D01*
X144075000Y-118956869D01*
X144008375Y-118937450D01*
X143962618Y-118885275D01*
X143935687Y-118827522D01*
X143935568Y-118827266D01*
X143889750Y-118761830D01*
X143805046Y-118640859D01*
X143644140Y-118479953D01*
X143483377Y-118367387D01*
X143444511Y-118323069D01*
X143430500Y-118265812D01*
X143430500Y-117030452D01*
X143439939Y-116982999D01*
X143466819Y-116942771D01*
X144517772Y-115891819D01*
X144558000Y-115864939D01*
X144605453Y-115855500D01*
X149812256Y-115855500D01*
X149832762Y-115857764D01*
X149835665Y-115857672D01*
X149835667Y-115857673D01*
X149902872Y-115855561D01*
X149906768Y-115855500D01*
X149934349Y-115855500D01*
X149934350Y-115855500D01*
X149938319Y-115854998D01*
X149949965Y-115854080D01*
X149993627Y-115852709D01*
X150012859Y-115847120D01*
X150031918Y-115843174D01*
X150038196Y-115842381D01*
X150051792Y-115840664D01*
X150092407Y-115824582D01*
X150103444Y-115820803D01*
X150145390Y-115808618D01*
X150162629Y-115798422D01*
X150180102Y-115789862D01*
X150198732Y-115782486D01*
X150234064Y-115756814D01*
X150243830Y-115750400D01*
X150281418Y-115728171D01*
X150281417Y-115728171D01*
X150281420Y-115728170D01*
X150295585Y-115714004D01*
X150310373Y-115701373D01*
X150326587Y-115689594D01*
X150354438Y-115655926D01*
X150362279Y-115647309D01*
X151788788Y-114220800D01*
X151804885Y-114207906D01*
X151806873Y-114205787D01*
X151806877Y-114205786D01*
X151852948Y-114156723D01*
X151855566Y-114154023D01*
X151875120Y-114134471D01*
X151877581Y-114131298D01*
X151885156Y-114122427D01*
X151915062Y-114090582D01*
X151924717Y-114073018D01*
X151935394Y-114056764D01*
X151947673Y-114040936D01*
X151965018Y-114000852D01*
X151970160Y-113990356D01*
X151991197Y-113952092D01*
X151996179Y-113932684D01*
X152002481Y-113914280D01*
X152010437Y-113895896D01*
X152017269Y-113852752D01*
X152019633Y-113841338D01*
X152030500Y-113799019D01*
X152030500Y-113778984D01*
X152032027Y-113759585D01*
X152032068Y-113759321D01*
X152035160Y-113739804D01*
X152031050Y-113696325D01*
X152030500Y-113684656D01*
X152030500Y-107994188D01*
X152044511Y-107936931D01*
X152083377Y-107892613D01*
X152166576Y-107834357D01*
X152244139Y-107780047D01*
X152405047Y-107619139D01*
X152535568Y-107432734D01*
X152631739Y-107226496D01*
X152690635Y-107006692D01*
X152710468Y-106780000D01*
X152690635Y-106553308D01*
X152631739Y-106333504D01*
X152535568Y-106127266D01*
X152517800Y-106101891D01*
X152405046Y-105940859D01*
X152244140Y-105779953D01*
X152057733Y-105649431D01*
X151999725Y-105622382D01*
X151947549Y-105576625D01*
X151928129Y-105510000D01*
X151947549Y-105443375D01*
X151999725Y-105397618D01*
X152057734Y-105370568D01*
X152244139Y-105240047D01*
X152405047Y-105079139D01*
X152535568Y-104892734D01*
X152631739Y-104686496D01*
X152690635Y-104466692D01*
X152710468Y-104240000D01*
X152690635Y-104013308D01*
X152631739Y-103793504D01*
X152535568Y-103587266D01*
X152497140Y-103532385D01*
X152405046Y-103400859D01*
X152244140Y-103239953D01*
X152083377Y-103127387D01*
X152044511Y-103083069D01*
X152030500Y-103025812D01*
X152030500Y-103022744D01*
X152032764Y-103002236D01*
X152030561Y-102932113D01*
X152030500Y-102928219D01*
X152030500Y-102900654D01*
X152030500Y-102900650D01*
X152029997Y-102896670D01*
X152029081Y-102885028D01*
X152028476Y-102865773D01*
X152027710Y-102841373D01*
X152022118Y-102822126D01*
X152018174Y-102803085D01*
X152015664Y-102783208D01*
X151999579Y-102742583D01*
X151995808Y-102731568D01*
X151983618Y-102689610D01*
X151973414Y-102672355D01*
X151964861Y-102654895D01*
X151957486Y-102636269D01*
X151957486Y-102636268D01*
X151931808Y-102600925D01*
X151925401Y-102591171D01*
X151903170Y-102553580D01*
X151889006Y-102539416D01*
X151876367Y-102524617D01*
X151864595Y-102508413D01*
X151830941Y-102480573D01*
X151822299Y-102472709D01*
X149141819Y-99792228D01*
X149114939Y-99752000D01*
X149105500Y-99704547D01*
X149105500Y-99034499D01*
X149122113Y-98972499D01*
X149167500Y-98927112D01*
X149229500Y-98910499D01*
X149377870Y-98910499D01*
X149377872Y-98910499D01*
X149437483Y-98904091D01*
X149572331Y-98853796D01*
X149687546Y-98767546D01*
X149773796Y-98652331D01*
X149823003Y-98520398D01*
X149857981Y-98470021D01*
X149912826Y-98442568D01*
X149974119Y-98444757D01*
X150026865Y-98476053D01*
X150148918Y-98598106D01*
X150342423Y-98733600D01*
X150556507Y-98833430D01*
X150769999Y-98890635D01*
X150770000Y-98890636D01*
X150770000Y-97810000D01*
X151270000Y-97810000D01*
X151270000Y-98890635D01*
X151483492Y-98833430D01*
X151697576Y-98733600D01*
X151891081Y-98598106D01*
X152058106Y-98431081D01*
X152193600Y-98237576D01*
X152293430Y-98023492D01*
X152350636Y-97810000D01*
X151270000Y-97810000D01*
X150770000Y-97810000D01*
X150770000Y-96229364D01*
X151270000Y-96229364D01*
X151270000Y-97310000D01*
X152350636Y-97310000D01*
X152350635Y-97309999D01*
X152293430Y-97096507D01*
X152193599Y-96882421D01*
X152058109Y-96688921D01*
X151891081Y-96521893D01*
X151697576Y-96386399D01*
X151483492Y-96286569D01*
X151270000Y-96229364D01*
X150770000Y-96229364D01*
X150769999Y-96229364D01*
X150556507Y-96286569D01*
X150342421Y-96386400D01*
X150148924Y-96521888D01*
X150026865Y-96643947D01*
X149974118Y-96675242D01*
X149912825Y-96677431D01*
X149857981Y-96649978D01*
X149823002Y-96599598D01*
X149820065Y-96591723D01*
X149773796Y-96467669D01*
X149687546Y-96352454D01*
X149572331Y-96266204D01*
X149437483Y-96215909D01*
X149377873Y-96209500D01*
X149377869Y-96209500D01*
X149229500Y-96209500D01*
X149167500Y-96192887D01*
X149122113Y-96147500D01*
X149105500Y-96085500D01*
X149105500Y-91800036D01*
X149118099Y-91745576D01*
X149153337Y-91702183D01*
X149184744Y-91677738D01*
X149353164Y-91494785D01*
X149489173Y-91286607D01*
X149589063Y-91058881D01*
X149650108Y-90817821D01*
X149670643Y-90570000D01*
X149650108Y-90322179D01*
X149589063Y-90081119D01*
X149489173Y-89853393D01*
X149353164Y-89645215D01*
X149184744Y-89462262D01*
X149114710Y-89407752D01*
X148988514Y-89309529D01*
X148988510Y-89309526D01*
X148988509Y-89309526D01*
X148855480Y-89237534D01*
X148807977Y-89191955D01*
X148790500Y-89128481D01*
X148790500Y-85471519D01*
X148807977Y-85408045D01*
X148855480Y-85362465D01*
X148988509Y-85290474D01*
X149184744Y-85137738D01*
X149353164Y-84954785D01*
X149489173Y-84746607D01*
X149589063Y-84518881D01*
X149650108Y-84277821D01*
X149670643Y-84030000D01*
X149650108Y-83782179D01*
X149589063Y-83541119D01*
X149489173Y-83313393D01*
X149353164Y-83105215D01*
X149184744Y-82922262D01*
X149132508Y-82881605D01*
X148988514Y-82769529D01*
X148988510Y-82769526D01*
X148988509Y-82769526D01*
X148769810Y-82651172D01*
X148769806Y-82651170D01*
X148769805Y-82651170D01*
X148534615Y-82570429D01*
X148289335Y-82529500D01*
X148040665Y-82529500D01*
X147795384Y-82570429D01*
X147560194Y-82651170D01*
X147341485Y-82769529D01*
X147145259Y-82922259D01*
X147145256Y-82922261D01*
X147145256Y-82922262D01*
X146976836Y-83105215D01*
X146971469Y-83113430D01*
X146840825Y-83313395D01*
X146750780Y-83518678D01*
X146740937Y-83541119D01*
X146679892Y-83782179D01*
X146679891Y-83782183D01*
X146659356Y-84029999D01*
X146679891Y-84277816D01*
X146679891Y-84277819D01*
X146679892Y-84277821D01*
X146740937Y-84518881D01*
X146770363Y-84585965D01*
X146840825Y-84746604D01*
X146840827Y-84746607D01*
X146976836Y-84954785D01*
X147145256Y-85137738D01*
X147145259Y-85137740D01*
X147341485Y-85290470D01*
X147341487Y-85290471D01*
X147341491Y-85290474D01*
X147474519Y-85362465D01*
X147522023Y-85408045D01*
X147539500Y-85471519D01*
X147539500Y-89128481D01*
X147522023Y-89191955D01*
X147474519Y-89237534D01*
X147383401Y-89286845D01*
X147341485Y-89309529D01*
X147145259Y-89462259D01*
X146976837Y-89645214D01*
X146840825Y-89853395D01*
X146740938Y-90081117D01*
X146679891Y-90322183D01*
X146659356Y-90570000D01*
X146679891Y-90817816D01*
X146679891Y-90817819D01*
X146679892Y-90817821D01*
X146740937Y-91058881D01*
X146785960Y-91161523D01*
X146840825Y-91286604D01*
X146840827Y-91286607D01*
X146976836Y-91494785D01*
X147145256Y-91677738D01*
X147145259Y-91677740D01*
X147341485Y-91830470D01*
X147341487Y-91830471D01*
X147341491Y-91830474D01*
X147560190Y-91948828D01*
X147609338Y-91965700D01*
X147770763Y-92021118D01*
X147814483Y-92047169D01*
X147844056Y-92088589D01*
X147854500Y-92138399D01*
X147854500Y-96085501D01*
X147837887Y-96147501D01*
X147792500Y-96192888D01*
X147730500Y-96209501D01*
X147582128Y-96209501D01*
X147552322Y-96212705D01*
X147522515Y-96215909D01*
X147387669Y-96266204D01*
X147272454Y-96352454D01*
X147186204Y-96467668D01*
X147135909Y-96602516D01*
X147135478Y-96606523D01*
X147130172Y-96655883D01*
X147129500Y-96662130D01*
X147129500Y-98457869D01*
X147135909Y-98517484D01*
X147151427Y-98559090D01*
X147186204Y-98652331D01*
X147272454Y-98767546D01*
X147387669Y-98853796D01*
X147522517Y-98904091D01*
X147582127Y-98910500D01*
X147730500Y-98910500D01*
X147792500Y-98927113D01*
X147837887Y-98972500D01*
X147854500Y-99034500D01*
X147854500Y-99932256D01*
X147852235Y-99952762D01*
X147854439Y-100022873D01*
X147854500Y-100026768D01*
X147854500Y-100054349D01*
X147855003Y-100058334D01*
X147855918Y-100069967D01*
X147857290Y-100113626D01*
X147862879Y-100132860D01*
X147866825Y-100151916D01*
X147869335Y-100171792D01*
X147885414Y-100212404D01*
X147889197Y-100223451D01*
X147901382Y-100265391D01*
X147911580Y-100282635D01*
X147920136Y-100300100D01*
X147927514Y-100318732D01*
X147927515Y-100318733D01*
X147953180Y-100354059D01*
X147959593Y-100363822D01*
X147981826Y-100401416D01*
X147981829Y-100401419D01*
X147981830Y-100401420D01*
X147995995Y-100415585D01*
X148008627Y-100430375D01*
X148020406Y-100446587D01*
X148054058Y-100474426D01*
X148062699Y-100482289D01*
X150611055Y-103030645D01*
X150639896Y-103075915D01*
X150646902Y-103129132D01*
X150630762Y-103180324D01*
X150594499Y-103219899D01*
X150565862Y-103239951D01*
X150404953Y-103400860D01*
X150274432Y-103587264D01*
X150178261Y-103793502D01*
X150119364Y-104013310D01*
X150099531Y-104240000D01*
X150119364Y-104466689D01*
X150178261Y-104686497D01*
X150274432Y-104892735D01*
X150404953Y-105079140D01*
X150565859Y-105240046D01*
X150655478Y-105302797D01*
X150752266Y-105370568D01*
X150810275Y-105397618D01*
X150862450Y-105443375D01*
X150881869Y-105510000D01*
X150862450Y-105576625D01*
X150810275Y-105622382D01*
X150752263Y-105649433D01*
X150565859Y-105779953D01*
X150404953Y-105940859D01*
X150274432Y-106127264D01*
X150178261Y-106333502D01*
X150119364Y-106553310D01*
X150099531Y-106780000D01*
X150119364Y-107006689D01*
X150178261Y-107226497D01*
X150274432Y-107432735D01*
X150404953Y-107619140D01*
X150565859Y-107780046D01*
X150726623Y-107892613D01*
X150765489Y-107936931D01*
X150779500Y-107994188D01*
X150779500Y-113409547D01*
X150770061Y-113457000D01*
X150743181Y-113497228D01*
X149672228Y-114568181D01*
X149632000Y-114595061D01*
X149584547Y-114604500D01*
X144700117Y-114604500D01*
X144644517Y-114591336D01*
X144600722Y-114554639D01*
X144578031Y-114502201D01*
X144581261Y-114445156D01*
X144598630Y-114414925D01*
X144597514Y-114414312D01*
X144605062Y-114400582D01*
X144614713Y-114383026D01*
X144625393Y-114366767D01*
X144637674Y-114350936D01*
X144655018Y-114310851D01*
X144660160Y-114300356D01*
X144664095Y-114293198D01*
X144681197Y-114262092D01*
X144686178Y-114242688D01*
X144692480Y-114224283D01*
X144700438Y-114205895D01*
X144707270Y-114162748D01*
X144709639Y-114151316D01*
X144720500Y-114109020D01*
X144720500Y-114088984D01*
X144722027Y-114069585D01*
X144722679Y-114065468D01*
X144725160Y-114049804D01*
X144721050Y-114006325D01*
X144720500Y-113994656D01*
X144720500Y-113198376D01*
X144735785Y-113138734D01*
X144777873Y-113093796D01*
X144836388Y-113074642D01*
X144887923Y-113084308D01*
X144888025Y-113083931D01*
X144892951Y-113085251D01*
X144896902Y-113085992D01*
X144898504Y-113086739D01*
X145118308Y-113145635D01*
X145345000Y-113165468D01*
X145571692Y-113145635D01*
X145791496Y-113086739D01*
X145997734Y-112990568D01*
X146184139Y-112860047D01*
X146345047Y-112699139D01*
X146362273Y-112674536D01*
X146407113Y-112635400D01*
X146465027Y-112621666D01*
X146522669Y-112636499D01*
X146566758Y-112676483D01*
X146587138Y-112732405D01*
X146590909Y-112767484D01*
X146601039Y-112794644D01*
X146641204Y-112902331D01*
X146727454Y-113017546D01*
X146842669Y-113103796D01*
X146977517Y-113154091D01*
X147037127Y-113160500D01*
X148732872Y-113160499D01*
X148792483Y-113154091D01*
X148927331Y-113103796D01*
X149042546Y-113017546D01*
X149128796Y-112902331D01*
X149179091Y-112767483D01*
X149185500Y-112707873D01*
X149185499Y-111012128D01*
X149179091Y-110952517D01*
X149128796Y-110817669D01*
X149042546Y-110702454D01*
X148927331Y-110616204D01*
X148792483Y-110565909D01*
X148732873Y-110559500D01*
X148732869Y-110559500D01*
X148634500Y-110559500D01*
X148572500Y-110542887D01*
X148527113Y-110497500D01*
X148510500Y-110435500D01*
X148510500Y-107547744D01*
X148512764Y-107527237D01*
X148512509Y-107519133D01*
X148510561Y-107457127D01*
X148510500Y-107453232D01*
X148510500Y-107425653D01*
X148509997Y-107421672D01*
X148509080Y-107410020D01*
X148508201Y-107382043D01*
X148519760Y-107325739D01*
X148521739Y-107321496D01*
X148526750Y-107302797D01*
X148560625Y-107176369D01*
X148580635Y-107101692D01*
X148600468Y-106875000D01*
X148580635Y-106648308D01*
X148521739Y-106428504D01*
X148425568Y-106222266D01*
X148361577Y-106130877D01*
X148295046Y-106035859D01*
X148134140Y-105874953D01*
X147947733Y-105744431D01*
X147889725Y-105717382D01*
X147837549Y-105671625D01*
X147818129Y-105605000D01*
X147837549Y-105538375D01*
X147889725Y-105492618D01*
X147947734Y-105465568D01*
X148134139Y-105335047D01*
X148295047Y-105174139D01*
X148425568Y-104987734D01*
X148521739Y-104781496D01*
X148580635Y-104561692D01*
X148600468Y-104335000D01*
X148580635Y-104108308D01*
X148521739Y-103888504D01*
X148425568Y-103682266D01*
X148370447Y-103603545D01*
X148295046Y-103495859D01*
X148134140Y-103334953D01*
X147973377Y-103222387D01*
X147934511Y-103178069D01*
X147920500Y-103120812D01*
X147920500Y-101312744D01*
X147922764Y-101292236D01*
X147920561Y-101222113D01*
X147920500Y-101218219D01*
X147920500Y-101190654D01*
X147920500Y-101190650D01*
X147919997Y-101186670D01*
X147919081Y-101175028D01*
X147917710Y-101131373D01*
X147912118Y-101112126D01*
X147908174Y-101093085D01*
X147905664Y-101073208D01*
X147889579Y-101032583D01*
X147885808Y-101021568D01*
X147873618Y-100979610D01*
X147863414Y-100962355D01*
X147854861Y-100944895D01*
X147847486Y-100926269D01*
X147847486Y-100926268D01*
X147821808Y-100890925D01*
X147815401Y-100881171D01*
X147797247Y-100850474D01*
X147793170Y-100843580D01*
X147779005Y-100829415D01*
X147766367Y-100814617D01*
X147754595Y-100798413D01*
X147720941Y-100770573D01*
X147712299Y-100762709D01*
X138970585Y-92020994D01*
X138937267Y-91960430D01*
X138941551Y-91891438D01*
X138982103Y-91835460D01*
X138988514Y-91830470D01*
X139184744Y-91677738D01*
X139353164Y-91494785D01*
X139489173Y-91286607D01*
X139589063Y-91058881D01*
X139650108Y-90817821D01*
X139670643Y-90570000D01*
X139650108Y-90322179D01*
X139589063Y-90081119D01*
X139489173Y-89853393D01*
X139353164Y-89645215D01*
X139184744Y-89462262D01*
X139114710Y-89407752D01*
X138988514Y-89309529D01*
X138988510Y-89309526D01*
X138988509Y-89309526D01*
X138855480Y-89237534D01*
X138807977Y-89191955D01*
X138790500Y-89128481D01*
X138790500Y-85471519D01*
X138807977Y-85408045D01*
X138855480Y-85362465D01*
X138988509Y-85290474D01*
X139184744Y-85137738D01*
X139353164Y-84954785D01*
X139489173Y-84746607D01*
X139589063Y-84518881D01*
X139650108Y-84277821D01*
X139670643Y-84030000D01*
X139650108Y-83782179D01*
X139589063Y-83541119D01*
X139489173Y-83313393D01*
X139353164Y-83105215D01*
X139184744Y-82922262D01*
X139132508Y-82881605D01*
X138988514Y-82769529D01*
X138988510Y-82769526D01*
X138988509Y-82769526D01*
X138769810Y-82651172D01*
X138769806Y-82651170D01*
X138769805Y-82651170D01*
X138534615Y-82570429D01*
X138289335Y-82529500D01*
X138040665Y-82529500D01*
X137795384Y-82570429D01*
X137560194Y-82651170D01*
X137341485Y-82769529D01*
X137145259Y-82922259D01*
X137145256Y-82922261D01*
X137145256Y-82922262D01*
X136976836Y-83105215D01*
X136971469Y-83113430D01*
X136840825Y-83313395D01*
X136750780Y-83518678D01*
X136740937Y-83541119D01*
X136679892Y-83782179D01*
X136679891Y-83782183D01*
X136659356Y-84029999D01*
X136679891Y-84277816D01*
X136679891Y-84277819D01*
X136679892Y-84277821D01*
X136740937Y-84518881D01*
X136770363Y-84585965D01*
X136840825Y-84746604D01*
X136840827Y-84746607D01*
X136976836Y-84954785D01*
X137145256Y-85137738D01*
X137145259Y-85137740D01*
X137341485Y-85290470D01*
X137341487Y-85290471D01*
X137341491Y-85290474D01*
X137474519Y-85362465D01*
X137522023Y-85408045D01*
X137539500Y-85471519D01*
X137539500Y-89128481D01*
X137522023Y-89191955D01*
X137474519Y-89237534D01*
X137383401Y-89286845D01*
X137341485Y-89309529D01*
X137145259Y-89462259D01*
X136976837Y-89645214D01*
X136840825Y-89853395D01*
X136740938Y-90081117D01*
X136679891Y-90322183D01*
X136659356Y-90570000D01*
X136679891Y-90817816D01*
X136679891Y-90817819D01*
X136679892Y-90817821D01*
X136740937Y-91058881D01*
X136785960Y-91161523D01*
X136840825Y-91286604D01*
X136840827Y-91286607D01*
X136976836Y-91494785D01*
X137145256Y-91677738D01*
X137341491Y-91830474D01*
X137365331Y-91843375D01*
X137402339Y-91863404D01*
X137448833Y-91907319D01*
X137467260Y-91968562D01*
X137469439Y-92037872D01*
X137469500Y-92041768D01*
X137469500Y-92069349D01*
X137470003Y-92073334D01*
X137470918Y-92084967D01*
X137472290Y-92128626D01*
X137477879Y-92147860D01*
X137481825Y-92166916D01*
X137484335Y-92186792D01*
X137500414Y-92227404D01*
X137504197Y-92238451D01*
X137516382Y-92280391D01*
X137526580Y-92297635D01*
X137535136Y-92315100D01*
X137542514Y-92333732D01*
X137542515Y-92333733D01*
X137568180Y-92369059D01*
X137574593Y-92378822D01*
X137596826Y-92416416D01*
X137596829Y-92416419D01*
X137596830Y-92416420D01*
X137610995Y-92430585D01*
X137623627Y-92445375D01*
X137635406Y-92461587D01*
X137644011Y-92468706D01*
X137669058Y-92489426D01*
X137677699Y-92497289D01*
X146633181Y-101452771D01*
X146660061Y-101492999D01*
X146669500Y-101540452D01*
X146669500Y-103120812D01*
X146655489Y-103178069D01*
X146616623Y-103222387D01*
X146455859Y-103334953D01*
X146294953Y-103495859D01*
X146164432Y-103682264D01*
X146068261Y-103888502D01*
X146009364Y-104108310D01*
X145989531Y-104334999D01*
X146009364Y-104561689D01*
X146068261Y-104781497D01*
X146164432Y-104987735D01*
X146294953Y-105174140D01*
X146455859Y-105335046D01*
X146545222Y-105397618D01*
X146642266Y-105465568D01*
X146700275Y-105492618D01*
X146752450Y-105538375D01*
X146771869Y-105605000D01*
X146752450Y-105671625D01*
X146700275Y-105717382D01*
X146642263Y-105744433D01*
X146455859Y-105874953D01*
X146294953Y-106035859D01*
X146164432Y-106222264D01*
X146068261Y-106428502D01*
X146009364Y-106648310D01*
X145989531Y-106874999D01*
X146009364Y-107101689D01*
X146068261Y-107321497D01*
X146164432Y-107527735D01*
X146294953Y-107714140D01*
X146455859Y-107875046D01*
X146642264Y-108005567D01*
X146642265Y-108005567D01*
X146642266Y-108005568D01*
X146848504Y-108101739D01*
X147068308Y-108160635D01*
X147115651Y-108164776D01*
X147146306Y-108167459D01*
X147203639Y-108187386D01*
X147244645Y-108232136D01*
X147259500Y-108290987D01*
X147259500Y-110435501D01*
X147242887Y-110497501D01*
X147197500Y-110542888D01*
X147135500Y-110559501D01*
X147037128Y-110559501D01*
X147007322Y-110562704D01*
X146977515Y-110565909D01*
X146842669Y-110616204D01*
X146727454Y-110702454D01*
X146641204Y-110817668D01*
X146590909Y-110952516D01*
X146587138Y-110987593D01*
X146566759Y-111043515D01*
X146522670Y-111083498D01*
X146465029Y-111098332D01*
X146407116Y-111084599D01*
X146362273Y-111045462D01*
X146345044Y-111020857D01*
X146184140Y-110859953D01*
X145997735Y-110729432D01*
X145791497Y-110633261D01*
X145571689Y-110574364D01*
X145345000Y-110554531D01*
X145118310Y-110574364D01*
X144898503Y-110633261D01*
X144896902Y-110634008D01*
X144892951Y-110634748D01*
X144888025Y-110636069D01*
X144887923Y-110635691D01*
X144836388Y-110645358D01*
X144777873Y-110626204D01*
X144735785Y-110581266D01*
X144720500Y-110521624D01*
X144720500Y-108912740D01*
X144722763Y-108892236D01*
X144720561Y-108822144D01*
X144720500Y-108818250D01*
X144720500Y-108790657D01*
X144720500Y-108790650D01*
X144719995Y-108786653D01*
X144719080Y-108775023D01*
X144717709Y-108731372D01*
X144712119Y-108712134D01*
X144708174Y-108693082D01*
X144705664Y-108673208D01*
X144705663Y-108673207D01*
X144689578Y-108632581D01*
X144685805Y-108621560D01*
X144673617Y-108579610D01*
X144663421Y-108562369D01*
X144654863Y-108544902D01*
X144647486Y-108526268D01*
X144621798Y-108490912D01*
X144615409Y-108481184D01*
X144593170Y-108443579D01*
X144579006Y-108429415D01*
X144566369Y-108414620D01*
X144554595Y-108398414D01*
X144549194Y-108393946D01*
X144520935Y-108370568D01*
X144512305Y-108362714D01*
X144195802Y-108046211D01*
X144182906Y-108030113D01*
X144131775Y-107982098D01*
X144128978Y-107979387D01*
X144109470Y-107959879D01*
X144106290Y-107957412D01*
X144097424Y-107949839D01*
X144065582Y-107919938D01*
X144048024Y-107910285D01*
X144031764Y-107899604D01*
X144015936Y-107887327D01*
X143975851Y-107869980D01*
X143965361Y-107864841D01*
X143927091Y-107843802D01*
X143907691Y-107838821D01*
X143889284Y-107832519D01*
X143870897Y-107824562D01*
X143827758Y-107817729D01*
X143816324Y-107815361D01*
X143774019Y-107804500D01*
X143753984Y-107804500D01*
X143734586Y-107802973D01*
X143727162Y-107801797D01*
X143714805Y-107799840D01*
X143714804Y-107799840D01*
X143681751Y-107802964D01*
X143671325Y-107803950D01*
X143659656Y-107804500D01*
X143444489Y-107804500D01*
X143380283Y-107786583D01*
X143334632Y-107738010D01*
X143323834Y-107687387D01*
X142184128Y-106547681D01*
X142152034Y-106492094D01*
X142152034Y-106460001D01*
X142803553Y-106460001D01*
X143673434Y-107329882D01*
X143773730Y-107176369D01*
X143873586Y-106948721D01*
X143934613Y-106707732D01*
X143955141Y-106459999D01*
X143934613Y-106212267D01*
X143873586Y-105971278D01*
X143773730Y-105743630D01*
X143673434Y-105590116D01*
X142803553Y-106460000D01*
X142803553Y-106460001D01*
X142152034Y-106460001D01*
X142152034Y-106427906D01*
X142184128Y-106372319D01*
X143320057Y-105236389D01*
X143320056Y-105236388D01*
X143273235Y-105199947D01*
X143054606Y-105081631D01*
X142819493Y-105000916D01*
X142574293Y-104960000D01*
X142325707Y-104960000D01*
X142080506Y-105000916D01*
X141845396Y-105081630D01*
X141703518Y-105158411D01*
X141641937Y-105173330D01*
X141581026Y-105155879D01*
X141536688Y-105110615D01*
X141520500Y-105049356D01*
X141520500Y-103225452D01*
X141529939Y-103177999D01*
X141556816Y-103137773D01*
X141872772Y-102821816D01*
X141932501Y-102788691D01*
X142000712Y-102792218D01*
X142080386Y-102819571D01*
X142325665Y-102860500D01*
X142574335Y-102860500D01*
X142819614Y-102819571D01*
X143054810Y-102738828D01*
X143273509Y-102620474D01*
X143469744Y-102467738D01*
X143638164Y-102284785D01*
X143774173Y-102076607D01*
X143874063Y-101848881D01*
X143935108Y-101607821D01*
X143955643Y-101360000D01*
X143935108Y-101112179D01*
X143874063Y-100871119D01*
X143774173Y-100643393D01*
X143638164Y-100435215D01*
X143469744Y-100252262D01*
X143425515Y-100217837D01*
X143273514Y-100099529D01*
X143273510Y-100099526D01*
X143273509Y-100099526D01*
X143054810Y-99981172D01*
X143054806Y-99981170D01*
X143054805Y-99981170D01*
X142819615Y-99900429D01*
X142574335Y-99859500D01*
X142325665Y-99859500D01*
X142080384Y-99900429D01*
X141845194Y-99981170D01*
X141845190Y-99981171D01*
X141845190Y-99981172D01*
X141805672Y-100002558D01*
X141626485Y-100099529D01*
X141430259Y-100252259D01*
X141430256Y-100252261D01*
X141430256Y-100252262D01*
X141261836Y-100435215D01*
X141239545Y-100469334D01*
X141125825Y-100643395D01*
X141050721Y-100814617D01*
X141025937Y-100871119D01*
X140987844Y-101021545D01*
X140964891Y-101112183D01*
X140944356Y-101360000D01*
X140964891Y-101607815D01*
X140964891Y-101607817D01*
X140964892Y-101607821D01*
X141018863Y-101820950D01*
X141018209Y-101884306D01*
X140986339Y-101939069D01*
X140511208Y-102414199D01*
X140495110Y-102427096D01*
X140447096Y-102478225D01*
X140444391Y-102481017D01*
X140424874Y-102500534D01*
X140422415Y-102503705D01*
X140414842Y-102512572D01*
X140384935Y-102544420D01*
X140375285Y-102561974D01*
X140364609Y-102578228D01*
X140352326Y-102594063D01*
X140334975Y-102634158D01*
X140329838Y-102644644D01*
X140308802Y-102682907D01*
X140303821Y-102702309D01*
X140297520Y-102720711D01*
X140289561Y-102739102D01*
X140282728Y-102782242D01*
X140280360Y-102793674D01*
X140269500Y-102835978D01*
X140269500Y-102856016D01*
X140267973Y-102875413D01*
X140264840Y-102895196D01*
X140265356Y-102900650D01*
X140268950Y-102938675D01*
X140269500Y-102950344D01*
X140269500Y-107947256D01*
X140267235Y-107967762D01*
X140269439Y-108037873D01*
X140269500Y-108041768D01*
X140269500Y-108069349D01*
X140270003Y-108073334D01*
X140270918Y-108084969D01*
X140272643Y-108139856D01*
X140260569Y-108197251D01*
X140223467Y-108242677D01*
X140169639Y-108265971D01*
X140111128Y-108261920D01*
X140061023Y-108231432D01*
X137905802Y-106076211D01*
X137892906Y-106060113D01*
X137841775Y-106012098D01*
X137838978Y-106009387D01*
X137819470Y-105989879D01*
X137816290Y-105987412D01*
X137807424Y-105979839D01*
X137775582Y-105949938D01*
X137758024Y-105940285D01*
X137741764Y-105929604D01*
X137725936Y-105917327D01*
X137685851Y-105899980D01*
X137675361Y-105894841D01*
X137637091Y-105873802D01*
X137617691Y-105868821D01*
X137599284Y-105862519D01*
X137580897Y-105854562D01*
X137537758Y-105847729D01*
X137526324Y-105845361D01*
X137484019Y-105834500D01*
X137463984Y-105834500D01*
X137444586Y-105832973D01*
X137437162Y-105831797D01*
X137424805Y-105829840D01*
X137424804Y-105829840D01*
X137397236Y-105832446D01*
X137381325Y-105833950D01*
X137369656Y-105834500D01*
X133895150Y-105834500D01*
X133848488Y-105825385D01*
X133808685Y-105799381D01*
X133781594Y-105760310D01*
X133774174Y-105743395D01*
X133754102Y-105712672D01*
X133638164Y-105535215D01*
X133469744Y-105352262D01*
X133447612Y-105335036D01*
X133273514Y-105199529D01*
X133273510Y-105199526D01*
X133273509Y-105199526D01*
X133140480Y-105127534D01*
X133092977Y-105081955D01*
X133075500Y-105018481D01*
X133075500Y-102801519D01*
X133092977Y-102738045D01*
X133140480Y-102692465D01*
X133273509Y-102620474D01*
X133469744Y-102467738D01*
X133638164Y-102284785D01*
X133774173Y-102076607D01*
X133874063Y-101848881D01*
X133935108Y-101607821D01*
X133955643Y-101360000D01*
X133935108Y-101112179D01*
X133874063Y-100871119D01*
X133774173Y-100643393D01*
X133638164Y-100435215D01*
X133469744Y-100252262D01*
X133425515Y-100217837D01*
X133273514Y-100099529D01*
X133273510Y-100099526D01*
X133273509Y-100099526D01*
X133185480Y-100051887D01*
X133137977Y-100006308D01*
X133120500Y-99942834D01*
X133120500Y-98143505D01*
X133139919Y-98076880D01*
X133192095Y-98031123D01*
X133264409Y-97997402D01*
X133407734Y-97930568D01*
X133594139Y-97800047D01*
X133755047Y-97639139D01*
X133885568Y-97452734D01*
X133912893Y-97394134D01*
X133958649Y-97341959D01*
X134025274Y-97322539D01*
X134091899Y-97341958D01*
X134137657Y-97394133D01*
X134164866Y-97452482D01*
X134295341Y-97638819D01*
X134456180Y-97799658D01*
X134642519Y-97930134D01*
X134848673Y-98026266D01*
X135044999Y-98078871D01*
X135045000Y-98078872D01*
X135045000Y-97050000D01*
X135545000Y-97050000D01*
X135545000Y-98078871D01*
X135741326Y-98026266D01*
X135947480Y-97930134D01*
X136133819Y-97799658D01*
X136294658Y-97638819D01*
X136425134Y-97452480D01*
X136521266Y-97246326D01*
X136573872Y-97050000D01*
X135545000Y-97050000D01*
X135045000Y-97050000D01*
X135045000Y-95521128D01*
X135545000Y-95521128D01*
X135545000Y-96550000D01*
X136573872Y-96550000D01*
X136573871Y-96549999D01*
X136521266Y-96353673D01*
X136425134Y-96147519D01*
X136294658Y-95961180D01*
X136133819Y-95800341D01*
X135947480Y-95669865D01*
X135741326Y-95573733D01*
X135545000Y-95521128D01*
X135045000Y-95521128D01*
X135044999Y-95521128D01*
X134848673Y-95573733D01*
X134642519Y-95669865D01*
X134456180Y-95800341D01*
X134295341Y-95961180D01*
X134164863Y-96147522D01*
X134137656Y-96205866D01*
X134091899Y-96258041D01*
X134025274Y-96277460D01*
X133958650Y-96258040D01*
X133912893Y-96205865D01*
X133906841Y-96192887D01*
X133885568Y-96147266D01*
X133842319Y-96085500D01*
X133755046Y-95960859D01*
X133594140Y-95799953D01*
X133407735Y-95669432D01*
X133201497Y-95573261D01*
X132981689Y-95514364D01*
X132755000Y-95494531D01*
X132528310Y-95514364D01*
X132308502Y-95573261D01*
X132102264Y-95669432D01*
X131915862Y-95799951D01*
X131867881Y-95847931D01*
X131812293Y-95880023D01*
X131748107Y-95880023D01*
X131692520Y-95847929D01*
X131489413Y-95644822D01*
X131457319Y-95589234D01*
X131457319Y-95525047D01*
X131460000Y-95515042D01*
X131475635Y-95456692D01*
X131495468Y-95230000D01*
X131475635Y-95003308D01*
X131416739Y-94783504D01*
X131320568Y-94577266D01*
X131190047Y-94390861D01*
X131190046Y-94390859D01*
X131029140Y-94229953D01*
X130842735Y-94099432D01*
X130636497Y-94003261D01*
X130416689Y-93944364D01*
X130190000Y-93924531D01*
X129963310Y-93944364D01*
X129743502Y-94003261D01*
X129537264Y-94099432D01*
X129350859Y-94229953D01*
X129189953Y-94390859D01*
X129059433Y-94577263D01*
X129032382Y-94635275D01*
X128986625Y-94687450D01*
X128920000Y-94706869D01*
X128853375Y-94687450D01*
X128807618Y-94635275D01*
X128780568Y-94577266D01*
X128650047Y-94390861D01*
X128650046Y-94390859D01*
X128489140Y-94229953D01*
X128302736Y-94099433D01*
X128267094Y-94082813D01*
X128214919Y-94037056D01*
X128195500Y-93970431D01*
X128195500Y-93096663D01*
X128207157Y-93049026D01*
X131719526Y-93049026D01*
X131792515Y-93100133D01*
X131998673Y-93196266D01*
X132218397Y-93255141D01*
X132445000Y-93274966D01*
X132671602Y-93255141D01*
X132891326Y-93196266D01*
X133097480Y-93100134D01*
X133170472Y-93049025D01*
X132445001Y-92323553D01*
X132445000Y-92323553D01*
X131719526Y-93049025D01*
X131719526Y-93049026D01*
X128207157Y-93049026D01*
X128209511Y-93039406D01*
X128248377Y-92995088D01*
X128284140Y-92970046D01*
X128445046Y-92809140D01*
X128524636Y-92695472D01*
X128575568Y-92622734D01*
X128671739Y-92416496D01*
X128730635Y-92196692D01*
X128750468Y-91970000D01*
X131140033Y-91970000D01*
X131159858Y-92196602D01*
X131218733Y-92416326D01*
X131314866Y-92622484D01*
X131365972Y-92695471D01*
X131365974Y-92695472D01*
X132091446Y-91970001D01*
X132798553Y-91970001D01*
X133524025Y-92695472D01*
X133575134Y-92622480D01*
X133671266Y-92416326D01*
X133730141Y-92196602D01*
X133749966Y-91970000D01*
X133730141Y-91743397D01*
X133671266Y-91523673D01*
X133575133Y-91317515D01*
X133524025Y-91244526D01*
X132798553Y-91970000D01*
X132798553Y-91970001D01*
X132091446Y-91970001D01*
X132091446Y-91970000D01*
X131365973Y-91244526D01*
X131365973Y-91244527D01*
X131314865Y-91317516D01*
X131218733Y-91523672D01*
X131159858Y-91743397D01*
X131140033Y-91970000D01*
X128750468Y-91970000D01*
X128747523Y-91936344D01*
X128730635Y-91743310D01*
X128730635Y-91743308D01*
X128671739Y-91523504D01*
X128575568Y-91317266D01*
X128554098Y-91286604D01*
X128445046Y-91130859D01*
X128284140Y-90969953D01*
X128248377Y-90944912D01*
X128209511Y-90900594D01*
X128207157Y-90890973D01*
X131719526Y-90890973D01*
X132445000Y-91616446D01*
X132445001Y-91616446D01*
X133170472Y-90890974D01*
X133170471Y-90890972D01*
X133097484Y-90839866D01*
X132891326Y-90743733D01*
X132671602Y-90684858D01*
X132445000Y-90665033D01*
X132218397Y-90684858D01*
X131998672Y-90743733D01*
X131792516Y-90839865D01*
X131719527Y-90890973D01*
X131719526Y-90890973D01*
X128207157Y-90890973D01*
X128195500Y-90843337D01*
X128195500Y-88074499D01*
X128212113Y-88012499D01*
X128257500Y-87967112D01*
X128319500Y-87950499D01*
X128622870Y-87950499D01*
X128622872Y-87950499D01*
X128682483Y-87944091D01*
X128817331Y-87893796D01*
X128932546Y-87807546D01*
X129018796Y-87692331D01*
X129068003Y-87560398D01*
X129102981Y-87510021D01*
X129157826Y-87482568D01*
X129219119Y-87484757D01*
X129271865Y-87516053D01*
X129393918Y-87638106D01*
X129587423Y-87773600D01*
X129801507Y-87873430D01*
X130014999Y-87930635D01*
X130015000Y-87930636D01*
X130015000Y-86850000D01*
X130515000Y-86850000D01*
X130515000Y-87930635D01*
X130728492Y-87873430D01*
X130942576Y-87773600D01*
X131136081Y-87638106D01*
X131303106Y-87471081D01*
X131438600Y-87277576D01*
X131538430Y-87063492D01*
X131595636Y-86850000D01*
X130515000Y-86850000D01*
X130015000Y-86850000D01*
X130015000Y-85269364D01*
X130515000Y-85269364D01*
X130515000Y-86350000D01*
X131595636Y-86350000D01*
X131595635Y-86349999D01*
X131538430Y-86136507D01*
X131438599Y-85922421D01*
X131303109Y-85728921D01*
X131136081Y-85561893D01*
X130942576Y-85426399D01*
X130728492Y-85326569D01*
X130515000Y-85269364D01*
X130015000Y-85269364D01*
X130014999Y-85269364D01*
X129801507Y-85326569D01*
X129587421Y-85426400D01*
X129393924Y-85561888D01*
X129271865Y-85683947D01*
X129219118Y-85715242D01*
X129157825Y-85717431D01*
X129102981Y-85689978D01*
X129068002Y-85639598D01*
X129067220Y-85637501D01*
X129018796Y-85507669D01*
X128932546Y-85392454D01*
X128817331Y-85306204D01*
X128790876Y-85296337D01*
X128682479Y-85255907D01*
X128678864Y-85255519D01*
X128622617Y-85234920D01*
X128582588Y-85190357D01*
X128568120Y-85132230D01*
X128568120Y-82422351D01*
X128582589Y-82364223D01*
X128622618Y-82319660D01*
X128678866Y-82299061D01*
X128725103Y-82294091D01*
X128859951Y-82243796D01*
X128975166Y-82157546D01*
X129033946Y-82079026D01*
X129592146Y-82079026D01*
X129665135Y-82130133D01*
X129871293Y-82226266D01*
X130091017Y-82285141D01*
X130317620Y-82304966D01*
X130544222Y-82285141D01*
X130763946Y-82226266D01*
X130970100Y-82130134D01*
X131043092Y-82079025D01*
X130317621Y-81353553D01*
X130317620Y-81353553D01*
X129592146Y-82079025D01*
X129592146Y-82079026D01*
X129033946Y-82079026D01*
X129061416Y-82042331D01*
X129111711Y-81907483D01*
X129118120Y-81847873D01*
X129118119Y-81847868D01*
X129118830Y-81841265D01*
X129120620Y-81841457D01*
X129136571Y-81785173D01*
X129186460Y-81739448D01*
X129233650Y-81730415D01*
X129964066Y-81000000D01*
X129964066Y-80999999D01*
X130671173Y-80999999D01*
X131396645Y-81725472D01*
X131447754Y-81652480D01*
X131543886Y-81446326D01*
X131602761Y-81226602D01*
X131622586Y-80999999D01*
X131602761Y-80773397D01*
X131543886Y-80553673D01*
X131447753Y-80347515D01*
X131396645Y-80274526D01*
X130671173Y-80999998D01*
X130671173Y-80999999D01*
X129964066Y-80999999D01*
X129964066Y-80999998D01*
X129233650Y-80269584D01*
X129186469Y-80260556D01*
X129136581Y-80214843D01*
X129120614Y-80158543D01*
X129118829Y-80158735D01*
X129118119Y-80152127D01*
X129111711Y-80092517D01*
X129061416Y-79957669D01*
X129033945Y-79920973D01*
X129592146Y-79920973D01*
X130317620Y-80646446D01*
X130317621Y-80646446D01*
X131043092Y-79920974D01*
X131043091Y-79920972D01*
X130970104Y-79869866D01*
X130763946Y-79773733D01*
X130544222Y-79714858D01*
X130317620Y-79695033D01*
X130091017Y-79714858D01*
X129871292Y-79773733D01*
X129665136Y-79869865D01*
X129592147Y-79920973D01*
X129592146Y-79920973D01*
X129033945Y-79920973D01*
X128975166Y-79842454D01*
X128859951Y-79756204D01*
X128725103Y-79705909D01*
X128665493Y-79699500D01*
X128665489Y-79699500D01*
X126969750Y-79699500D01*
X126910135Y-79705909D01*
X126775289Y-79756204D01*
X126660074Y-79842454D01*
X126573824Y-79957668D01*
X126523529Y-80092516D01*
X126517120Y-80152130D01*
X126517120Y-81847869D01*
X126521557Y-81889139D01*
X126523529Y-81907483D01*
X126573824Y-82042331D01*
X126660074Y-82157546D01*
X126775289Y-82243796D01*
X126910137Y-82294091D01*
X126956376Y-82299062D01*
X127012623Y-82319661D01*
X127052652Y-82364224D01*
X127067120Y-82422352D01*
X127067120Y-85125501D01*
X127050507Y-85187501D01*
X127005120Y-85232888D01*
X126943120Y-85249501D01*
X126827128Y-85249501D01*
X126797322Y-85252705D01*
X126767515Y-85255909D01*
X126632669Y-85306204D01*
X126517454Y-85392454D01*
X126431204Y-85507668D01*
X126380909Y-85642516D01*
X126374500Y-85702130D01*
X126374500Y-87497869D01*
X126376455Y-87516053D01*
X126380909Y-87557483D01*
X126431204Y-87692331D01*
X126483032Y-87761564D01*
X126517455Y-87807548D01*
X126644811Y-87902887D01*
X126681384Y-87946649D01*
X126694500Y-88002153D01*
X126694500Y-90843337D01*
X126680489Y-90900594D01*
X126641623Y-90944912D01*
X126605859Y-90969953D01*
X126444953Y-91130859D01*
X126314432Y-91317264D01*
X126218261Y-91523502D01*
X126159364Y-91743310D01*
X126139531Y-91970000D01*
X126159364Y-92196689D01*
X126218261Y-92416497D01*
X126314432Y-92622735D01*
X126444953Y-92809140D01*
X126605859Y-92970046D01*
X126641623Y-92995088D01*
X126680489Y-93039406D01*
X126694500Y-93096663D01*
X126694500Y-94294951D01*
X126685061Y-94342404D01*
X126658181Y-94382632D01*
X126649953Y-94390859D01*
X126519432Y-94577264D01*
X126423261Y-94783503D01*
X126364364Y-95003309D01*
X126364102Y-95006308D01*
X126361740Y-95013101D01*
X126361557Y-95013787D01*
X126361507Y-95013773D01*
X126344174Y-95063640D01*
X126299424Y-95104645D01*
X126240574Y-95119500D01*
X120217229Y-95119500D01*
X120169776Y-95110061D01*
X120129548Y-95083181D01*
X119106819Y-94060451D01*
X119079939Y-94020223D01*
X119070500Y-93972770D01*
X119070500Y-92859308D01*
X119070500Y-92859306D01*
X119067598Y-92822431D01*
X119030712Y-92695471D01*
X119025424Y-92677268D01*
X119020500Y-92642673D01*
X119020500Y-92468706D01*
X119021809Y-92450736D01*
X119025289Y-92426975D01*
X119020972Y-92377634D01*
X119020500Y-92366827D01*
X119020500Y-92361292D01*
X119020500Y-92361291D01*
X119016893Y-92330436D01*
X119016537Y-92326956D01*
X119009998Y-92252203D01*
X119009888Y-92250943D01*
X119005674Y-92231935D01*
X119004025Y-92227404D01*
X118979567Y-92160207D01*
X118978399Y-92156844D01*
X118969049Y-92128627D01*
X118954814Y-92085666D01*
X118954811Y-92085662D01*
X118954416Y-92084468D01*
X118945929Y-92066936D01*
X118945237Y-92065884D01*
X118945237Y-92065883D01*
X118903999Y-92003184D01*
X118902087Y-92000181D01*
X118862050Y-91935270D01*
X118849750Y-91920172D01*
X118794290Y-91867848D01*
X118791703Y-91865335D01*
X118016368Y-91090000D01*
X121950000Y-91090000D01*
X121950000Y-91737824D01*
X121956402Y-91797375D01*
X122006647Y-91932089D01*
X122092811Y-92047188D01*
X122207910Y-92133352D01*
X122342624Y-92183597D01*
X122402176Y-92190000D01*
X123050000Y-92190000D01*
X123050000Y-91090000D01*
X123550000Y-91090000D01*
X123550000Y-92190000D01*
X124197824Y-92190000D01*
X124257375Y-92183597D01*
X124392089Y-92133352D01*
X124507188Y-92047188D01*
X124593352Y-91932089D01*
X124643597Y-91797375D01*
X124650000Y-91737824D01*
X124650000Y-91090000D01*
X123550000Y-91090000D01*
X123050000Y-91090000D01*
X121950000Y-91090000D01*
X118016368Y-91090000D01*
X116063549Y-89137181D01*
X116033299Y-89087818D01*
X116028757Y-89030102D01*
X116050912Y-88976615D01*
X116094935Y-88939015D01*
X116151230Y-88925500D01*
X122024773Y-88925500D01*
X122082030Y-88939511D01*
X122126346Y-88978374D01*
X122261505Y-89171401D01*
X122261508Y-89171404D01*
X122383818Y-89293714D01*
X122415114Y-89346460D01*
X122417303Y-89407753D01*
X122389850Y-89462597D01*
X122339472Y-89497576D01*
X122207913Y-89546646D01*
X122092811Y-89632811D01*
X122006647Y-89747910D01*
X121956402Y-89882624D01*
X121950000Y-89942176D01*
X121950000Y-90590000D01*
X124650000Y-90590000D01*
X124650000Y-89942176D01*
X124643597Y-89882624D01*
X124593352Y-89747910D01*
X124507188Y-89632811D01*
X124392088Y-89546647D01*
X124260528Y-89497577D01*
X124210149Y-89462597D01*
X124182696Y-89407752D01*
X124184885Y-89346460D01*
X124216178Y-89293717D01*
X124338495Y-89171401D01*
X124474035Y-88977830D01*
X124573903Y-88763663D01*
X124635063Y-88535408D01*
X124655659Y-88300000D01*
X124635063Y-88064592D01*
X124573903Y-87836337D01*
X124474035Y-87622171D01*
X124338495Y-87428599D01*
X124171401Y-87261505D01*
X123985839Y-87131573D01*
X123946975Y-87087257D01*
X123932964Y-87030000D01*
X123946975Y-86972743D01*
X123985839Y-86928426D01*
X124171401Y-86798495D01*
X124338495Y-86631401D01*
X124474035Y-86437830D01*
X124573903Y-86223663D01*
X124635063Y-85995408D01*
X124655659Y-85760000D01*
X124644941Y-85637501D01*
X124635063Y-85524592D01*
X124635062Y-85524591D01*
X124573903Y-85296337D01*
X124474035Y-85082171D01*
X124338495Y-84888599D01*
X124171401Y-84721505D01*
X123977830Y-84585965D01*
X123763663Y-84486097D01*
X123702501Y-84469709D01*
X123535407Y-84424936D01*
X123299999Y-84404340D01*
X123064592Y-84424936D01*
X122836336Y-84486097D01*
X122622170Y-84585965D01*
X122428598Y-84721505D01*
X122261505Y-84888598D01*
X122125965Y-85082170D01*
X122026097Y-85296336D01*
X121964936Y-85524592D01*
X121944340Y-85759999D01*
X121964936Y-85995405D01*
X121967838Y-86006234D01*
X121989683Y-86087764D01*
X121991856Y-86095871D01*
X121991856Y-86160058D01*
X121959762Y-86215646D01*
X121682228Y-86493181D01*
X121642000Y-86520061D01*
X121594547Y-86529500D01*
X116130453Y-86529500D01*
X116083000Y-86520061D01*
X116042772Y-86493181D01*
X115786772Y-86237181D01*
X115756522Y-86187818D01*
X115751980Y-86130102D01*
X115774135Y-86076615D01*
X115818158Y-86039015D01*
X115874453Y-86025500D01*
X115945692Y-86025500D01*
X115945694Y-86025500D01*
X115982569Y-86022598D01*
X116140398Y-85976744D01*
X116281865Y-85893081D01*
X116281865Y-85893080D01*
X116295348Y-85885107D01*
X116296278Y-85886680D01*
X116332906Y-85865533D01*
X116397094Y-85865533D01*
X116433721Y-85886680D01*
X116434652Y-85885107D01*
X116448134Y-85893080D01*
X116448135Y-85893081D01*
X116588817Y-85976280D01*
X116589602Y-85976744D01*
X116747427Y-86022597D01*
X116747431Y-86022598D01*
X116784306Y-86025500D01*
X117215692Y-86025500D01*
X117215694Y-86025500D01*
X117252569Y-86022598D01*
X117410398Y-85976744D01*
X117504543Y-85921066D01*
X117565349Y-85885107D01*
X117566213Y-85886569D01*
X117603254Y-85865182D01*
X117667444Y-85865179D01*
X117704020Y-85886296D01*
X117704960Y-85884709D01*
X117859799Y-85976280D01*
X118017511Y-86022099D01*
X118019999Y-86022295D01*
X118020000Y-86022295D01*
X118020000Y-84750000D01*
X118520000Y-84750000D01*
X118520000Y-86022295D01*
X118522488Y-86022099D01*
X118680200Y-85976280D01*
X118821557Y-85892682D01*
X118937682Y-85776557D01*
X119021282Y-85635197D01*
X119067099Y-85477493D01*
X119070000Y-85440639D01*
X119070000Y-84750000D01*
X118520000Y-84750000D01*
X118020000Y-84750000D01*
X118020000Y-82977705D01*
X118019999Y-82977704D01*
X118520000Y-82977704D01*
X118520000Y-84250000D01*
X119070000Y-84250000D01*
X119070000Y-83559361D01*
X119067099Y-83522506D01*
X119021282Y-83364802D01*
X118937682Y-83223442D01*
X118821557Y-83107317D01*
X118680200Y-83023719D01*
X118522488Y-82977900D01*
X118520000Y-82977704D01*
X118019999Y-82977704D01*
X118017511Y-82977900D01*
X117859799Y-83023719D01*
X117704961Y-83115291D01*
X117704022Y-83113703D01*
X117667440Y-83134821D01*
X117603256Y-83134819D01*
X117566212Y-83113430D01*
X117565348Y-83114893D01*
X117548983Y-83105215D01*
X117427380Y-83033299D01*
X117410397Y-83023255D01*
X117252572Y-82977402D01*
X117230444Y-82975660D01*
X117215694Y-82974500D01*
X116784306Y-82974500D01*
X116772014Y-82975467D01*
X116747427Y-82977402D01*
X116589602Y-83023255D01*
X116434652Y-83114893D01*
X116433721Y-83113319D01*
X116397094Y-83134467D01*
X116332906Y-83134467D01*
X116296278Y-83113319D01*
X116295348Y-83114893D01*
X116278983Y-83105215D01*
X116157380Y-83033299D01*
X116140397Y-83023255D01*
X115982572Y-82977402D01*
X115960444Y-82975660D01*
X115945694Y-82974500D01*
X115514306Y-82974500D01*
X115502014Y-82975467D01*
X115477427Y-82977402D01*
X115319602Y-83023255D01*
X115164652Y-83114893D01*
X115163721Y-83113319D01*
X115127094Y-83134467D01*
X115062906Y-83134467D01*
X115026278Y-83113319D01*
X115025348Y-83114893D01*
X115008983Y-83105215D01*
X114887380Y-83033299D01*
X114870397Y-83023255D01*
X114712572Y-82977402D01*
X114690444Y-82975660D01*
X114675694Y-82974500D01*
X114244306Y-82974500D01*
X114232014Y-82975467D01*
X114207427Y-82977402D01*
X114049602Y-83023255D01*
X113894652Y-83114893D01*
X113893721Y-83113319D01*
X113857094Y-83134467D01*
X113792906Y-83134467D01*
X113756278Y-83113319D01*
X113755348Y-83114893D01*
X113738983Y-83105215D01*
X113617380Y-83033299D01*
X113600397Y-83023255D01*
X113442572Y-82977402D01*
X113420444Y-82975660D01*
X113405694Y-82974500D01*
X112974306Y-82974500D01*
X112962014Y-82975467D01*
X112937427Y-82977402D01*
X112799095Y-83017592D01*
X112742222Y-83020498D01*
X112690048Y-82997677D01*
X112653576Y-82953941D01*
X112640500Y-82898516D01*
X112640500Y-81827351D01*
X112654969Y-81769223D01*
X112694998Y-81724660D01*
X112751246Y-81704061D01*
X112797483Y-81699091D01*
X112812576Y-81693461D01*
X112839774Y-81683318D01*
X112883106Y-81675500D01*
X114085812Y-81675500D01*
X114143069Y-81689511D01*
X114187387Y-81728377D01*
X114299953Y-81889140D01*
X114460859Y-82050046D01*
X114647264Y-82180567D01*
X114647265Y-82180567D01*
X114647266Y-82180568D01*
X114853504Y-82276739D01*
X115073308Y-82335635D01*
X115224435Y-82348856D01*
X115299999Y-82355468D01*
X115299999Y-82355467D01*
X115300000Y-82355468D01*
X115526692Y-82335635D01*
X115746496Y-82276739D01*
X115952734Y-82180568D01*
X116026344Y-82129026D01*
X119574526Y-82129026D01*
X119647515Y-82180133D01*
X119853673Y-82276266D01*
X120073397Y-82335141D01*
X120300000Y-82354966D01*
X120526602Y-82335141D01*
X120746326Y-82276266D01*
X120952480Y-82180134D01*
X121025472Y-82129025D01*
X120300001Y-81403553D01*
X120300000Y-81403553D01*
X119574526Y-82129025D01*
X119574526Y-82129026D01*
X116026344Y-82129026D01*
X116139139Y-82050047D01*
X116300047Y-81889139D01*
X116430568Y-81702734D01*
X116526739Y-81496496D01*
X116585635Y-81276692D01*
X116605468Y-81050000D01*
X116605468Y-81049999D01*
X118995033Y-81049999D01*
X119014858Y-81276602D01*
X119073733Y-81496326D01*
X119169866Y-81702484D01*
X119220972Y-81775471D01*
X119220973Y-81775472D01*
X119946446Y-81050000D01*
X119946446Y-81049999D01*
X120653553Y-81049999D01*
X121379025Y-81775472D01*
X121430134Y-81702480D01*
X121526266Y-81496326D01*
X121585141Y-81276602D01*
X121604966Y-81049999D01*
X121585141Y-80823397D01*
X121526266Y-80603673D01*
X121430133Y-80397515D01*
X121379025Y-80324526D01*
X120653553Y-81049998D01*
X120653553Y-81049999D01*
X119946446Y-81049999D01*
X119946446Y-81049998D01*
X119220973Y-80324527D01*
X119169865Y-80397516D01*
X119073733Y-80603672D01*
X119014858Y-80823397D01*
X118995033Y-81049999D01*
X116605468Y-81049999D01*
X116585635Y-80823308D01*
X116526739Y-80603504D01*
X116430568Y-80397266D01*
X116395732Y-80347515D01*
X116300046Y-80210859D01*
X116139140Y-80049953D01*
X116026344Y-79970973D01*
X119574526Y-79970973D01*
X120300000Y-80696446D01*
X120300001Y-80696446D01*
X121025472Y-79970974D01*
X121025471Y-79970972D01*
X120952484Y-79919866D01*
X120746326Y-79823733D01*
X120526602Y-79764858D01*
X120300000Y-79745033D01*
X120073397Y-79764858D01*
X119853672Y-79823733D01*
X119647516Y-79919865D01*
X119574527Y-79970973D01*
X119574526Y-79970973D01*
X116026344Y-79970973D01*
X115952735Y-79919432D01*
X115746497Y-79823261D01*
X115526689Y-79764364D01*
X115299999Y-79744531D01*
X115073310Y-79764364D01*
X114853502Y-79823261D01*
X114647264Y-79919432D01*
X114460859Y-80049953D01*
X114299953Y-80210859D01*
X114187387Y-80371623D01*
X114143069Y-80410489D01*
X114085812Y-80424500D01*
X113314499Y-80424500D01*
X113252499Y-80407887D01*
X113207112Y-80362500D01*
X113190499Y-80300500D01*
X113190499Y-79657130D01*
X113190499Y-79657127D01*
X113184091Y-79597517D01*
X113169946Y-79559593D01*
X151793959Y-79559593D01*
X151827347Y-79588875D01*
X152072586Y-79752738D01*
X152337114Y-79883189D01*
X152616409Y-79977997D01*
X152905679Y-80035537D01*
X153200000Y-80054827D01*
X153494320Y-80035537D01*
X153783590Y-79977997D01*
X154062885Y-79883189D01*
X154327413Y-79752738D01*
X154572653Y-79588874D01*
X154606039Y-79559593D01*
X154606040Y-79559592D01*
X153200000Y-78153553D01*
X151793959Y-79559592D01*
X151793959Y-79559593D01*
X113169946Y-79559593D01*
X113133796Y-79462669D01*
X113108822Y-79429308D01*
X113086924Y-79381356D01*
X113086924Y-79328638D01*
X113108822Y-79280690D01*
X113133796Y-79247331D01*
X113184091Y-79112483D01*
X113190500Y-79052873D01*
X113190499Y-77799999D01*
X150945172Y-77799999D01*
X150964462Y-78094320D01*
X151022002Y-78383590D01*
X151116810Y-78662885D01*
X151247261Y-78927413D01*
X151411124Y-79172652D01*
X151440404Y-79206039D01*
X151440406Y-79206039D01*
X152846447Y-77800001D01*
X152846447Y-77799999D01*
X151440406Y-76393958D01*
X151440405Y-76393958D01*
X151411124Y-76427348D01*
X151247261Y-76672586D01*
X151116810Y-76937114D01*
X151022002Y-77216409D01*
X150964462Y-77505679D01*
X150945172Y-77799999D01*
X113190499Y-77799999D01*
X113190499Y-77457128D01*
X113184091Y-77397517D01*
X113133796Y-77262669D01*
X113047546Y-77147454D01*
X112932331Y-77061204D01*
X112797483Y-77010909D01*
X112737873Y-77004500D01*
X112737869Y-77004500D01*
X111042130Y-77004500D01*
X110982515Y-77010909D01*
X110847669Y-77061204D01*
X110732451Y-77147455D01*
X110718952Y-77165488D01*
X110675189Y-77202060D01*
X110619685Y-77215175D01*
X110564181Y-77202058D01*
X110520420Y-77165485D01*
X110507190Y-77147812D01*
X110392089Y-77061647D01*
X110257375Y-77011402D01*
X110197824Y-77005000D01*
X109600000Y-77005000D01*
X109600000Y-78381000D01*
X109583387Y-78443000D01*
X109538000Y-78488387D01*
X109476000Y-78505000D01*
X108050000Y-78505000D01*
X108050000Y-79052824D01*
X108056402Y-79112375D01*
X108106648Y-79247091D01*
X108131488Y-79280273D01*
X108153387Y-79328225D01*
X108153387Y-79380941D01*
X108131488Y-79428893D01*
X108106205Y-79462666D01*
X108055909Y-79597516D01*
X108049500Y-79657130D01*
X108049500Y-81252869D01*
X108055909Y-81312483D01*
X108106204Y-81447331D01*
X108192454Y-81562546D01*
X108307669Y-81648796D01*
X108442517Y-81699091D01*
X108502127Y-81705500D01*
X108600500Y-81705500D01*
X108662500Y-81722113D01*
X108707887Y-81767500D01*
X108724500Y-81829500D01*
X108724500Y-82926566D01*
X108707725Y-82988847D01*
X108661937Y-83034276D01*
X108599527Y-83050562D01*
X108537380Y-83033299D01*
X108520396Y-83023255D01*
X108362572Y-82977402D01*
X108340444Y-82975660D01*
X108325694Y-82974500D01*
X107894306Y-82974500D01*
X107882014Y-82975467D01*
X107857427Y-82977402D01*
X107699602Y-83023255D01*
X107544652Y-83114893D01*
X107543721Y-83113319D01*
X107507094Y-83134467D01*
X107442906Y-83134467D01*
X107406278Y-83113319D01*
X107405348Y-83114893D01*
X107388983Y-83105215D01*
X107267380Y-83033299D01*
X107250397Y-83023255D01*
X107092572Y-82977402D01*
X107070444Y-82975660D01*
X107055694Y-82974500D01*
X106624306Y-82974500D01*
X106612014Y-82975467D01*
X106587427Y-82977402D01*
X106429602Y-83023255D01*
X106274652Y-83114893D01*
X106273721Y-83113319D01*
X106237094Y-83134467D01*
X106172906Y-83134467D01*
X106136278Y-83113319D01*
X106135348Y-83114893D01*
X106118983Y-83105215D01*
X105997380Y-83033299D01*
X105980397Y-83023255D01*
X105822572Y-82977402D01*
X105800444Y-82975660D01*
X105785694Y-82974500D01*
X105354306Y-82974500D01*
X105342014Y-82975467D01*
X105317427Y-82977402D01*
X105159602Y-83023255D01*
X105004652Y-83114893D01*
X105003721Y-83113319D01*
X104967094Y-83134467D01*
X104902906Y-83134467D01*
X104866278Y-83113319D01*
X104865348Y-83114893D01*
X104848983Y-83105215D01*
X104727380Y-83033299D01*
X104710397Y-83023255D01*
X104552572Y-82977402D01*
X104530444Y-82975660D01*
X104515694Y-82974500D01*
X104084306Y-82974500D01*
X104072014Y-82975467D01*
X104047427Y-82977402D01*
X103889602Y-83023255D01*
X103734652Y-83114893D01*
X103733721Y-83113319D01*
X103697094Y-83134467D01*
X103632906Y-83134467D01*
X103596278Y-83113319D01*
X103595348Y-83114893D01*
X103578983Y-83105215D01*
X103457380Y-83033299D01*
X103440397Y-83023255D01*
X103282572Y-82977402D01*
X103260444Y-82975660D01*
X103245694Y-82974500D01*
X102814306Y-82974500D01*
X102802014Y-82975467D01*
X102777427Y-82977402D01*
X102619602Y-83023255D01*
X102464652Y-83114893D01*
X102463721Y-83113319D01*
X102427094Y-83134467D01*
X102362906Y-83134467D01*
X102326278Y-83113319D01*
X102325348Y-83114893D01*
X102308983Y-83105215D01*
X102187380Y-83033299D01*
X102170397Y-83023255D01*
X102012572Y-82977402D01*
X101990444Y-82975660D01*
X101975694Y-82974500D01*
X101544306Y-82974500D01*
X101532014Y-82975467D01*
X101507427Y-82977402D01*
X101349602Y-83023255D01*
X101208134Y-83106919D01*
X101091919Y-83223134D01*
X101008255Y-83364602D01*
X100962402Y-83522427D01*
X100959500Y-83559308D01*
X100959500Y-85440692D01*
X100962402Y-85477572D01*
X101008255Y-85635397D01*
X101081945Y-85760000D01*
X101091919Y-85776865D01*
X101208135Y-85893081D01*
X101348817Y-85976280D01*
X101349602Y-85976744D01*
X101507427Y-86022597D01*
X101507431Y-86022598D01*
X101544306Y-86025500D01*
X101975692Y-86025500D01*
X101975694Y-86025500D01*
X102012569Y-86022598D01*
X102170398Y-85976744D01*
X102311865Y-85893081D01*
X102311865Y-85893080D01*
X102325348Y-85885107D01*
X102326278Y-85886680D01*
X102362906Y-85865533D01*
X102427094Y-85865533D01*
X102463721Y-85886680D01*
X102464652Y-85885107D01*
X102478134Y-85893080D01*
X102478135Y-85893081D01*
X102618817Y-85976280D01*
X102619602Y-85976744D01*
X102777427Y-86022597D01*
X102777431Y-86022598D01*
X102814306Y-86025500D01*
X103245692Y-86025500D01*
X103245694Y-86025500D01*
X103282569Y-86022598D01*
X103440398Y-85976744D01*
X103581865Y-85893081D01*
X103581865Y-85893080D01*
X103595348Y-85885107D01*
X103596278Y-85886680D01*
X103632906Y-85865533D01*
X103697094Y-85865533D01*
X103733721Y-85886680D01*
X103734652Y-85885107D01*
X103748134Y-85893080D01*
X103748135Y-85893081D01*
X103888817Y-85976280D01*
X103889602Y-85976744D01*
X104047427Y-86022597D01*
X104047431Y-86022598D01*
X104084306Y-86025500D01*
X104515692Y-86025500D01*
X104515694Y-86025500D01*
X104552569Y-86022598D01*
X104710398Y-85976744D01*
X104851865Y-85893081D01*
X104851865Y-85893080D01*
X104865348Y-85885107D01*
X104866278Y-85886680D01*
X104902906Y-85865533D01*
X104967094Y-85865533D01*
X105003721Y-85886680D01*
X105004652Y-85885107D01*
X105018134Y-85893080D01*
X105018135Y-85893081D01*
X105158817Y-85976280D01*
X105159602Y-85976744D01*
X105317427Y-86022597D01*
X105317431Y-86022598D01*
X105354306Y-86025500D01*
X105785692Y-86025500D01*
X105785694Y-86025500D01*
X105822569Y-86022598D01*
X105980398Y-85976744D01*
X106121865Y-85893081D01*
X106121865Y-85893080D01*
X106135348Y-85885107D01*
X106136278Y-85886680D01*
X106172906Y-85865533D01*
X106237094Y-85865533D01*
X106273721Y-85886680D01*
X106274652Y-85885107D01*
X106288134Y-85893080D01*
X106288135Y-85893081D01*
X106428817Y-85976280D01*
X106429602Y-85976744D01*
X106587427Y-86022597D01*
X106587431Y-86022598D01*
X106624306Y-86025500D01*
X107055692Y-86025500D01*
X107055694Y-86025500D01*
X107092569Y-86022598D01*
X107250398Y-85976744D01*
X107391865Y-85893081D01*
X107391865Y-85893080D01*
X107405348Y-85885107D01*
X107406278Y-85886680D01*
X107442906Y-85865533D01*
X107507094Y-85865533D01*
X107543721Y-85886680D01*
X107544652Y-85885107D01*
X107558134Y-85893080D01*
X107558135Y-85893081D01*
X107698817Y-85976280D01*
X107699602Y-85976744D01*
X107857427Y-86022597D01*
X107857431Y-86022598D01*
X107894306Y-86025500D01*
X108325692Y-86025500D01*
X108325694Y-86025500D01*
X108362569Y-86022598D01*
X108520398Y-85976744D01*
X108661865Y-85893081D01*
X108661865Y-85893080D01*
X108675348Y-85885107D01*
X108676278Y-85886680D01*
X108712906Y-85865533D01*
X108777094Y-85865533D01*
X108813721Y-85886680D01*
X108814652Y-85885107D01*
X108828134Y-85893080D01*
X108828135Y-85893081D01*
X108968817Y-85976280D01*
X108969602Y-85976744D01*
X109127427Y-86022597D01*
X109127431Y-86022598D01*
X109164306Y-86025500D01*
X109595692Y-86025500D01*
X109595694Y-86025500D01*
X109632569Y-86022598D01*
X109790398Y-85976744D01*
X109884543Y-85921066D01*
X109945349Y-85885107D01*
X109946213Y-85886569D01*
X109983254Y-85865182D01*
X110047444Y-85865179D01*
X110084020Y-85886296D01*
X110084960Y-85884709D01*
X110239799Y-85976280D01*
X110397511Y-86022099D01*
X110399999Y-86022295D01*
X110400000Y-86022295D01*
X110400000Y-82977705D01*
X110399999Y-82977704D01*
X110397511Y-82977900D01*
X110239801Y-83023718D01*
X110162622Y-83069363D01*
X110100474Y-83086627D01*
X110038063Y-83070341D01*
X109992276Y-83024912D01*
X109975500Y-82962631D01*
X109975500Y-81829499D01*
X109992113Y-81767499D01*
X110037500Y-81722112D01*
X110099500Y-81705499D01*
X110197870Y-81705499D01*
X110197872Y-81705499D01*
X110257483Y-81699091D01*
X110392331Y-81648796D01*
X110507546Y-81562546D01*
X110520731Y-81544931D01*
X110564495Y-81508357D01*
X110620000Y-81495241D01*
X110675505Y-81508357D01*
X110719267Y-81544931D01*
X110732452Y-81562544D01*
X110732453Y-81562544D01*
X110732454Y-81562546D01*
X110847669Y-81648796D01*
X110982517Y-81699091D01*
X111028756Y-81704062D01*
X111085003Y-81724661D01*
X111125032Y-81769224D01*
X111139500Y-81827352D01*
X111139500Y-82881605D01*
X111126424Y-82937030D01*
X111089952Y-82980766D01*
X111037778Y-83003587D01*
X110980906Y-83000682D01*
X110902489Y-82977900D01*
X110900000Y-82977704D01*
X110900000Y-86022295D01*
X110902492Y-86022099D01*
X111011328Y-85990480D01*
X111064644Y-85986977D01*
X111114483Y-86006234D01*
X111151594Y-86044674D01*
X111169085Y-86095160D01*
X111173098Y-86129493D01*
X111173464Y-86133081D01*
X111180110Y-86209041D01*
X111184329Y-86228071D01*
X111184758Y-86229251D01*
X111184759Y-86229255D01*
X111210413Y-86299742D01*
X111211582Y-86303107D01*
X111235580Y-86375524D01*
X111244075Y-86393072D01*
X111285979Y-86456784D01*
X111287889Y-86459782D01*
X111308491Y-86493181D01*
X111327952Y-86524732D01*
X111340253Y-86539830D01*
X111341168Y-86540693D01*
X111341170Y-86540696D01*
X111395709Y-86592151D01*
X111398296Y-86594664D01*
X114211385Y-89407753D01*
X116866500Y-92062867D01*
X116899938Y-92123974D01*
X116895155Y-92193466D01*
X116853660Y-92249416D01*
X116788548Y-92274166D01*
X116747427Y-92277402D01*
X116589602Y-92323255D01*
X116434652Y-92414893D01*
X116433721Y-92413319D01*
X116397094Y-92434467D01*
X116332906Y-92434467D01*
X116296278Y-92413319D01*
X116295348Y-92414893D01*
X116140397Y-92323255D01*
X115982572Y-92277402D01*
X115960443Y-92275660D01*
X115945694Y-92274500D01*
X115514306Y-92274500D01*
X115502014Y-92275467D01*
X115477427Y-92277402D01*
X115319602Y-92323255D01*
X115164652Y-92414893D01*
X115163721Y-92413319D01*
X115127094Y-92434467D01*
X115062906Y-92434467D01*
X115026278Y-92413319D01*
X115025348Y-92414893D01*
X114870397Y-92323255D01*
X114712572Y-92277402D01*
X114690443Y-92275660D01*
X114675694Y-92274500D01*
X114244306Y-92274500D01*
X114232014Y-92275467D01*
X114207427Y-92277402D01*
X114049602Y-92323255D01*
X113894652Y-92414893D01*
X113893721Y-92413319D01*
X113857094Y-92434467D01*
X113792906Y-92434467D01*
X113756278Y-92413319D01*
X113755348Y-92414893D01*
X113600397Y-92323255D01*
X113442572Y-92277402D01*
X113420443Y-92275660D01*
X113405694Y-92274500D01*
X112974306Y-92274500D01*
X112962014Y-92275467D01*
X112937427Y-92277402D01*
X112779602Y-92323255D01*
X112624652Y-92414893D01*
X112623721Y-92413319D01*
X112587094Y-92434467D01*
X112522906Y-92434467D01*
X112486278Y-92413319D01*
X112485348Y-92414893D01*
X112330397Y-92323255D01*
X112172572Y-92277402D01*
X112150443Y-92275660D01*
X112135694Y-92274500D01*
X111704306Y-92274500D01*
X111692014Y-92275467D01*
X111667427Y-92277402D01*
X111509602Y-92323255D01*
X111354652Y-92414893D01*
X111353721Y-92413319D01*
X111317094Y-92434467D01*
X111252906Y-92434467D01*
X111216278Y-92413319D01*
X111215348Y-92414893D01*
X111060397Y-92323255D01*
X110902572Y-92277402D01*
X110880443Y-92275660D01*
X110865694Y-92274500D01*
X110434306Y-92274500D01*
X110422014Y-92275467D01*
X110397427Y-92277402D01*
X110239602Y-92323255D01*
X110084652Y-92414893D01*
X110083721Y-92413319D01*
X110047094Y-92434467D01*
X109982906Y-92434467D01*
X109946278Y-92413319D01*
X109945348Y-92414893D01*
X109790397Y-92323255D01*
X109632572Y-92277402D01*
X109610443Y-92275660D01*
X109595694Y-92274500D01*
X109164306Y-92274500D01*
X109152014Y-92275467D01*
X109127427Y-92277402D01*
X108969602Y-92323255D01*
X108814652Y-92414893D01*
X108813721Y-92413319D01*
X108777094Y-92434467D01*
X108712906Y-92434467D01*
X108676278Y-92413319D01*
X108675348Y-92414893D01*
X108520397Y-92323255D01*
X108362572Y-92277402D01*
X108340443Y-92275660D01*
X108325694Y-92274500D01*
X107894306Y-92274500D01*
X107882014Y-92275467D01*
X107857427Y-92277402D01*
X107699602Y-92323255D01*
X107544652Y-92414893D01*
X107543721Y-92413319D01*
X107507094Y-92434467D01*
X107442906Y-92434467D01*
X107406278Y-92413319D01*
X107405348Y-92414893D01*
X107250397Y-92323255D01*
X107092572Y-92277402D01*
X107070443Y-92275660D01*
X107055694Y-92274500D01*
X106624306Y-92274500D01*
X106612014Y-92275467D01*
X106587427Y-92277402D01*
X106429602Y-92323255D01*
X106274652Y-92414893D01*
X106273721Y-92413319D01*
X106237094Y-92434467D01*
X106172906Y-92434467D01*
X106136278Y-92413319D01*
X106135348Y-92414893D01*
X105980397Y-92323255D01*
X105822572Y-92277402D01*
X105800443Y-92275660D01*
X105785694Y-92274500D01*
X105354306Y-92274500D01*
X105342014Y-92275467D01*
X105317427Y-92277402D01*
X105159602Y-92323255D01*
X105004652Y-92414893D01*
X105003721Y-92413319D01*
X104967094Y-92434467D01*
X104902906Y-92434467D01*
X104866278Y-92413319D01*
X104865348Y-92414893D01*
X104710397Y-92323255D01*
X104552572Y-92277402D01*
X104530443Y-92275660D01*
X104515694Y-92274500D01*
X104084306Y-92274500D01*
X104072014Y-92275467D01*
X104047427Y-92277402D01*
X103889602Y-92323255D01*
X103734652Y-92414893D01*
X103733721Y-92413319D01*
X103697094Y-92434467D01*
X103632906Y-92434467D01*
X103596278Y-92413319D01*
X103595348Y-92414893D01*
X103440397Y-92323255D01*
X103282572Y-92277402D01*
X103260443Y-92275660D01*
X103245694Y-92274500D01*
X102814306Y-92274500D01*
X102802014Y-92275467D01*
X102777427Y-92277402D01*
X102619602Y-92323255D01*
X102464652Y-92414893D01*
X102463721Y-92413319D01*
X102427094Y-92434467D01*
X102362906Y-92434467D01*
X102326278Y-92413319D01*
X102325348Y-92414893D01*
X102170397Y-92323255D01*
X102012572Y-92277402D01*
X101990443Y-92275660D01*
X101975694Y-92274500D01*
X101544306Y-92274500D01*
X101532014Y-92275467D01*
X101507427Y-92277402D01*
X101349602Y-92323255D01*
X101208134Y-92406919D01*
X101091919Y-92523134D01*
X101008255Y-92664602D01*
X100962402Y-92822427D01*
X100959500Y-92859308D01*
X100959500Y-94740692D01*
X100962402Y-94777572D01*
X101008255Y-94935397D01*
X101054615Y-95013787D01*
X101091919Y-95076865D01*
X101208135Y-95193081D01*
X101270562Y-95230000D01*
X101349602Y-95276744D01*
X101507427Y-95322597D01*
X101507431Y-95322598D01*
X101544306Y-95325500D01*
X101975692Y-95325500D01*
X101975694Y-95325500D01*
X102012569Y-95322598D01*
X102170398Y-95276744D01*
X102311865Y-95193081D01*
X102311865Y-95193080D01*
X102325348Y-95185107D01*
X102326278Y-95186680D01*
X102362906Y-95165533D01*
X102427094Y-95165533D01*
X102463721Y-95186680D01*
X102464652Y-95185107D01*
X102619602Y-95276744D01*
X102777427Y-95322597D01*
X102777431Y-95322598D01*
X102814306Y-95325500D01*
X103245692Y-95325500D01*
X103245694Y-95325500D01*
X103282569Y-95322598D01*
X103440398Y-95276744D01*
X103581865Y-95193081D01*
X103581865Y-95193080D01*
X103595348Y-95185107D01*
X103596278Y-95186680D01*
X103632906Y-95165533D01*
X103697094Y-95165533D01*
X103733721Y-95186680D01*
X103734652Y-95185107D01*
X103889602Y-95276744D01*
X104047427Y-95322597D01*
X104047431Y-95322598D01*
X104084306Y-95325500D01*
X104515692Y-95325500D01*
X104515694Y-95325500D01*
X104552569Y-95322598D01*
X104710398Y-95276744D01*
X104851865Y-95193081D01*
X104851865Y-95193080D01*
X104865348Y-95185107D01*
X104866278Y-95186680D01*
X104902906Y-95165533D01*
X104967094Y-95165533D01*
X105003721Y-95186680D01*
X105004652Y-95185107D01*
X105159602Y-95276744D01*
X105317427Y-95322597D01*
X105317431Y-95322598D01*
X105354306Y-95325500D01*
X105785692Y-95325500D01*
X105785694Y-95325500D01*
X105822569Y-95322598D01*
X105980398Y-95276744D01*
X106121865Y-95193081D01*
X106121865Y-95193080D01*
X106135348Y-95185107D01*
X106136278Y-95186680D01*
X106172906Y-95165533D01*
X106237094Y-95165533D01*
X106273721Y-95186680D01*
X106274652Y-95185107D01*
X106429602Y-95276744D01*
X106587427Y-95322597D01*
X106587431Y-95322598D01*
X106624306Y-95325500D01*
X107055691Y-95325500D01*
X107055694Y-95325500D01*
X107083379Y-95323321D01*
X107142353Y-95333137D01*
X107189880Y-95369409D01*
X107214911Y-95423704D01*
X107211625Y-95483400D01*
X107180788Y-95534620D01*
X106822228Y-95893181D01*
X106782000Y-95920061D01*
X106734547Y-95929500D01*
X104702740Y-95929500D01*
X104682236Y-95927236D01*
X104612144Y-95929439D01*
X104608250Y-95929500D01*
X104580648Y-95929500D01*
X104576653Y-95930004D01*
X104565029Y-95930918D01*
X104521368Y-95932290D01*
X104502128Y-95937880D01*
X104483081Y-95941825D01*
X104463209Y-95944335D01*
X104422599Y-95960413D01*
X104411554Y-95964194D01*
X104369611Y-95976380D01*
X104352369Y-95986578D01*
X104334897Y-95995138D01*
X104316266Y-96002514D01*
X104280938Y-96028181D01*
X104271180Y-96034591D01*
X104233579Y-96056829D01*
X104219410Y-96070998D01*
X104204622Y-96083628D01*
X104188413Y-96095405D01*
X104160572Y-96129058D01*
X104152711Y-96137696D01*
X101627226Y-98663181D01*
X101586998Y-98690061D01*
X101539546Y-98699500D01*
X101299991Y-98699500D01*
X101197203Y-98710000D01*
X101030665Y-98765186D01*
X100881342Y-98857288D01*
X100757288Y-98981342D01*
X100665186Y-99130665D01*
X100610000Y-99297202D01*
X100599500Y-99399990D01*
X100599500Y-100200008D01*
X100610000Y-100302796D01*
X100665186Y-100469334D01*
X100757288Y-100618657D01*
X100850950Y-100712319D01*
X100883044Y-100767906D01*
X100883044Y-100832094D01*
X100850950Y-100887681D01*
X100757288Y-100981342D01*
X100665186Y-101130665D01*
X100610000Y-101297202D01*
X100599500Y-101399990D01*
X100599500Y-102200008D01*
X100610000Y-102302796D01*
X100665186Y-102469334D01*
X100757288Y-102618657D01*
X100881342Y-102742711D01*
X100881344Y-102742712D01*
X101030666Y-102834814D01*
X101089504Y-102854311D01*
X101133829Y-102880190D01*
X101163877Y-102921802D01*
X101174500Y-102972017D01*
X101174500Y-103627983D01*
X101163877Y-103678198D01*
X101133829Y-103719810D01*
X101089504Y-103745689D01*
X101030665Y-103765186D01*
X100881342Y-103857288D01*
X100757288Y-103981342D01*
X100665186Y-104130665D01*
X100610000Y-104297202D01*
X100599500Y-104399990D01*
X100599500Y-105200008D01*
X98840500Y-105200008D01*
X98840500Y-79559593D01*
X99593959Y-79559593D01*
X99627347Y-79588875D01*
X99872586Y-79752738D01*
X100137114Y-79883189D01*
X100416409Y-79977997D01*
X100705679Y-80035537D01*
X101000000Y-80054827D01*
X101294320Y-80035537D01*
X101583590Y-79977997D01*
X101862885Y-79883189D01*
X102127413Y-79752738D01*
X102372653Y-79588874D01*
X102406039Y-79559593D01*
X102406040Y-79559592D01*
X101000000Y-78153553D01*
X99593959Y-79559592D01*
X99593959Y-79559593D01*
X98840500Y-79559593D01*
X98840500Y-79026747D01*
X98856310Y-78966158D01*
X98899710Y-78921020D01*
X98959632Y-78902843D01*
X99020795Y-78916262D01*
X99067602Y-78957856D01*
X99211124Y-79172652D01*
X99240404Y-79206039D01*
X99240406Y-79206039D01*
X100646447Y-77800001D01*
X101353553Y-77800001D01*
X102759592Y-79206040D01*
X102759593Y-79206039D01*
X102788874Y-79172653D01*
X102952738Y-78927413D01*
X103083189Y-78662885D01*
X103177997Y-78383590D01*
X103235537Y-78094320D01*
X103241391Y-78005000D01*
X108050000Y-78005000D01*
X109100000Y-78005000D01*
X109100000Y-77005000D01*
X108502176Y-77005000D01*
X108442624Y-77011402D01*
X108307910Y-77061647D01*
X108192811Y-77147811D01*
X108106647Y-77262910D01*
X108056402Y-77397624D01*
X108050000Y-77457176D01*
X108050000Y-78005000D01*
X103241391Y-78005000D01*
X103254827Y-77799999D01*
X103235537Y-77505679D01*
X103177997Y-77216409D01*
X103083189Y-76937114D01*
X102952738Y-76672586D01*
X102788875Y-76427347D01*
X102759593Y-76393959D01*
X102759592Y-76393959D01*
X101353553Y-77800000D01*
X101353553Y-77800001D01*
X100646447Y-77800001D01*
X100646447Y-77799999D01*
X99240406Y-76393958D01*
X99240405Y-76393958D01*
X99211124Y-76427348D01*
X99067602Y-76642145D01*
X99020795Y-76683739D01*
X98959632Y-76697158D01*
X98899710Y-76678981D01*
X98856310Y-76633843D01*
X98840500Y-76573254D01*
X98840500Y-76053079D01*
X98857075Y-75991144D01*
X98902369Y-75945767D01*
X98964273Y-75929079D01*
X99015726Y-75928984D01*
X99469281Y-75928156D01*
X99532544Y-75945374D01*
X99578184Y-75992446D01*
X99588307Y-76034755D01*
X101000000Y-77446447D01*
X101000001Y-77446447D01*
X102409678Y-76036767D01*
X102421556Y-75986987D01*
X102467009Y-75939936D01*
X102530074Y-75922564D01*
X151701083Y-75832732D01*
X151758882Y-75846908D01*
X151803421Y-75886385D01*
X151824436Y-75942067D01*
X151817086Y-76001127D01*
X151794167Y-76034022D01*
X151793958Y-76040406D01*
X153200000Y-77446447D01*
X153200001Y-77446447D01*
X154606039Y-76040406D01*
X154605950Y-76037679D01*
X154576714Y-75995746D01*
X154569311Y-75936782D01*
X154590194Y-75881144D01*
X154634566Y-75841613D01*
X154692234Y-75827267D01*
X155090308Y-75826540D01*
X155215274Y-75826312D01*
X155277369Y-75842849D01*
G37*
%TD.AperFunction*%
%TD*%
M02*
