%TF.GenerationSoftware,KiCad,Pcbnew,7.0.1*%
%TF.CreationDate,2023-04-15T20:00:27+02:00*%
%TF.ProjectId,weit_generator,77656974-5f67-4656-9e65-7261746f722e,rev?*%
%TF.SameCoordinates,Original*%
%TF.FileFunction,Copper,L2,Bot*%
%TF.FilePolarity,Positive*%
%FSLAX46Y46*%
G04 Gerber Fmt 4.6, Leading zero omitted, Abs format (unit mm)*
G04 Created by KiCad (PCBNEW 7.0.1) date 2023-04-15 20:00:27*
%MOMM*%
%LPD*%
G01*
G04 APERTURE LIST*
%TA.AperFunction,ComponentPad*%
%ADD10C,3.800000*%
%TD*%
%TA.AperFunction,ComponentPad*%
%ADD11C,2.000000*%
%TD*%
%TA.AperFunction,ComponentPad*%
%ADD12C,1.600000*%
%TD*%
%TA.AperFunction,ComponentPad*%
%ADD13O,1.600000X1.600000*%
%TD*%
%TA.AperFunction,ComponentPad*%
%ADD14R,1.700000X1.700000*%
%TD*%
%TA.AperFunction,ComponentPad*%
%ADD15O,1.700000X1.700000*%
%TD*%
%TA.AperFunction,ComponentPad*%
%ADD16R,1.800000X1.800000*%
%TD*%
%TA.AperFunction,ComponentPad*%
%ADD17C,1.800000*%
%TD*%
%TA.AperFunction,ComponentPad*%
%ADD18C,1.440000*%
%TD*%
%TA.AperFunction,ComponentPad*%
%ADD19R,1.600000X1.600000*%
%TD*%
%TA.AperFunction,ComponentPad*%
%ADD20R,1.050000X1.500000*%
%TD*%
%TA.AperFunction,ComponentPad*%
%ADD21O,1.050000X1.500000*%
%TD*%
%TA.AperFunction,ComponentPad*%
%ADD22R,1.500000X1.050000*%
%TD*%
%TA.AperFunction,ComponentPad*%
%ADD23O,1.500000X1.050000*%
%TD*%
G04 APERTURE END LIST*
D10*
%TO.P,,1*%
%TO.N,GND*%
X101200000Y-78400000D03*
%TD*%
%TO.P,,1*%
%TO.N,GND*%
X153200000Y-78200000D03*
%TD*%
%TO.P,,1*%
%TO.N,GND*%
X153200000Y-133800000D03*
%TD*%
%TO.P,REF\u002A\u002A,1*%
%TO.N,GND*%
X101000000Y-133600000D03*
%TD*%
D11*
%TO.P,C7,1*%
%TO.N,/Filtr Wyj\u015Bciowy/IN*%
X142400000Y-100800000D03*
%TO.P,C7,2*%
%TO.N,Net-(U2A-+)*%
X132400000Y-100800000D03*
%TD*%
D12*
%TO.P,R15,1*%
%TO.N,/Filtr Wyj\u015Bciowy/IN*%
X126695000Y-106245000D03*
D13*
%TO.P,R15,2*%
%TO.N,/R-2R DAC/OUT*%
X126695000Y-103705000D03*
%TD*%
D12*
%TO.P,C10,1*%
%TO.N,+1V2*%
X115995000Y-122560000D03*
%TO.P,C10,2*%
%TO.N,GND*%
X115995000Y-117560000D03*
%TD*%
D14*
%TO.P,J1,1,Pin_1*%
%TO.N,+3V0*%
X127725000Y-86600000D03*
D15*
%TO.P,J1,2,Pin_2*%
%TO.N,GND*%
X130265000Y-86600000D03*
%TD*%
D12*
%TO.P,R19,1*%
%TO.N,+3V0*%
X127650000Y-95230000D03*
D13*
%TO.P,R19,2*%
%TO.N,Net-(U2A-+)*%
X130190000Y-95230000D03*
%TD*%
D14*
%TO.P,J3,1,Pin_1*%
%TO.N,/Kontrola Amplitiudy/IN*%
X148480000Y-97560000D03*
D15*
%TO.P,J3,2,Pin_2*%
%TO.N,GND*%
X151020000Y-97560000D03*
%TD*%
D12*
%TO.P,R26,1*%
%TO.N,Net-(Q1-B)*%
X114600000Y-125600000D03*
D13*
%TO.P,R26,2*%
%TO.N,Net-(C11-Pad1)*%
X117140000Y-125600000D03*
%TD*%
D14*
%TO.P,R20,1*%
%TO.N,GND*%
X124470000Y-113635000D03*
D15*
%TO.P,R20,2*%
%TO.N,/Filtr Wyj\u015Bciowy/IN*%
X124470000Y-111095000D03*
%TD*%
D12*
%TO.P,C9,1*%
%TO.N,Net-(U2C--)*%
X136945000Y-124060000D03*
%TO.P,C9,2*%
%TO.N,Net-(C12-Pad1)*%
X131945000Y-124060000D03*
%TD*%
D11*
%TO.P,C13,1*%
%TO.N,GND*%
X149400000Y-130800000D03*
%TO.P,C13,2*%
%TO.N,Net-(U2C-+)*%
X139400000Y-130800000D03*
%TD*%
D16*
%TO.P,D1,1,K*%
%TO.N,/Kontrola Amplitiudy/OUT*%
X102895000Y-113950000D03*
D17*
%TO.P,D1,2,A*%
%TO.N,+3V0*%
X102895000Y-111410000D03*
%TD*%
D12*
%TO.P,R24,1*%
%TO.N,Net-(Q1-C)*%
X110200000Y-127645000D03*
D13*
%TO.P,R24,2*%
%TO.N,/Kontrola Amplitiudy/OUT*%
X110200000Y-125105000D03*
%TD*%
D12*
%TO.P,R25,1*%
%TO.N,Net-(C12-Pad2)*%
X135600000Y-130645000D03*
D13*
%TO.P,R25,2*%
%TO.N,Net-(U2C--)*%
X135600000Y-128105000D03*
%TD*%
D12*
%TO.P,R17,1*%
%TO.N,Net-(U2A-+)*%
X133260000Y-95400000D03*
D13*
%TO.P,R17,2*%
%TO.N,GND*%
X135800000Y-95400000D03*
%TD*%
D12*
%TO.P,R21,1*%
%TO.N,Net-(U2A--)*%
X147295000Y-106875000D03*
D13*
%TO.P,R21,2*%
%TO.N,/Filtr Wyj\u015Bciowy/OUT*%
X147295000Y-104335000D03*
%TD*%
D11*
%TO.P,C8,1*%
%TO.N,GND*%
X142450000Y-106460000D03*
%TO.P,C8,2*%
%TO.N,Net-(U2A-+)*%
X132450000Y-106460000D03*
%TD*%
D12*
%TO.P,C3,1*%
%TO.N,+3V0*%
X115300000Y-81050000D03*
%TO.P,C3,2*%
%TO.N,GND*%
X120300000Y-81050000D03*
%TD*%
D11*
%TO.P,C4,1*%
%TO.N,/Filtr Wyj\u015Bciowy/OUT*%
X138165000Y-90570000D03*
%TO.P,C4,2*%
%TO.N,/Kontrola Amplitiudy/IN*%
X148165000Y-90570000D03*
%TD*%
D14*
%TO.P,J2,1,Pin_1*%
%TO.N,GND*%
X123300000Y-90840000D03*
D15*
%TO.P,J2,2,Pin_2*%
%TO.N,Net-(J2-Pin_2)*%
X123300000Y-88300000D03*
%TO.P,J2,3,Pin_3*%
%TO.N,Net-(J2-Pin_3)*%
X123300000Y-85760000D03*
%TD*%
D18*
%TO.P,RV2,1,1*%
%TO.N,unconnected-(RV2-Pad1)*%
X127395000Y-125610000D03*
%TO.P,RV2,2,2*%
%TO.N,Net-(C12-Pad1)*%
X127395000Y-123070000D03*
%TO.P,RV2,3,3*%
%TO.N,Net-(C11-Pad1)*%
X127395000Y-120530000D03*
%TD*%
D12*
%TO.P,R27,1*%
%TO.N,GND*%
X120275000Y-125560000D03*
D13*
%TO.P,R27,2*%
%TO.N,Net-(C11-Pad1)*%
X122815000Y-125560000D03*
%TD*%
D19*
%TO.P,C12,1*%
%TO.N,Net-(C12-Pad1)*%
X130200000Y-129217621D03*
D12*
%TO.P,C12,2*%
%TO.N,Net-(C12-Pad2)*%
X130200000Y-131717621D03*
%TD*%
%TO.P,C5,1*%
%TO.N,+3V0*%
X127445000Y-91970000D03*
%TO.P,C5,2*%
%TO.N,GND*%
X132445000Y-91970000D03*
%TD*%
D19*
%TO.P,U2,1*%
%TO.N,Net-(U2A--)*%
X147885000Y-111860000D03*
D13*
%TO.P,U2,2,-*%
X145345000Y-111860000D03*
%TO.P,U2,3,+*%
%TO.N,Net-(U2A-+)*%
X142805000Y-111860000D03*
%TO.P,U2,4,V+*%
%TO.N,+3V0*%
X140265000Y-111860000D03*
%TO.P,U2,5,+*%
X137725000Y-111860000D03*
%TO.P,U2,6,-*%
%TO.N,GND*%
X135185000Y-111860000D03*
%TO.P,U2,7*%
%TO.N,unconnected-(U2-Pad7)*%
X132645000Y-111860000D03*
%TO.P,U2,8*%
%TO.N,Net-(C12-Pad1)*%
X132645000Y-119480000D03*
%TO.P,U2,9,-*%
%TO.N,Net-(U2C--)*%
X135185000Y-119480000D03*
%TO.P,U2,10,+*%
%TO.N,Net-(U2C-+)*%
X137725000Y-119480000D03*
%TO.P,U2,11,V-*%
%TO.N,GND*%
X140265000Y-119480000D03*
%TO.P,U2,12,+*%
%TO.N,Net-(U2D-+)*%
X142805000Y-119480000D03*
%TO.P,U2,13,-*%
%TO.N,Net-(D2-K)*%
X145345000Y-119480000D03*
%TO.P,U2,14*%
%TO.N,Net-(D2-A)*%
X147885000Y-119480000D03*
%TD*%
D12*
%TO.P,R28,1*%
%TO.N,Net-(U2C-+)*%
X140000000Y-123000000D03*
D13*
%TO.P,R28,2*%
%TO.N,Net-(D2-K)*%
X142540000Y-123000000D03*
%TD*%
D19*
%TO.P,C11,1*%
%TO.N,Net-(C11-Pad1)*%
X121400000Y-129217621D03*
D12*
%TO.P,C11,2*%
%TO.N,GND*%
X121400000Y-131717621D03*
%TD*%
D19*
%TO.P,C2,1*%
%TO.N,+3V0*%
X127817620Y-81000000D03*
D12*
%TO.P,C2,2*%
%TO.N,GND*%
X130317620Y-81000000D03*
%TD*%
%TO.P,C6,1*%
%TO.N,+3V0*%
X128995000Y-112760000D03*
%TO.P,C6,2*%
%TO.N,GND*%
X128995000Y-117760000D03*
%TD*%
D19*
%TO.P,D2,1,K*%
%TO.N,Net-(D2-K)*%
X145480686Y-122760000D03*
D13*
%TO.P,D2,2,A*%
%TO.N,Net-(D2-A)*%
X148020686Y-122760000D03*
%TD*%
D12*
%TO.P,R29,1*%
%TO.N,Net-(U2C-+)*%
X140000000Y-126520000D03*
D13*
%TO.P,R29,2*%
%TO.N,GND*%
X142540000Y-126520000D03*
%TD*%
D12*
%TO.P,R22,1*%
%TO.N,Net-(U2D-+)*%
X151405000Y-106780000D03*
D13*
%TO.P,R22,2*%
%TO.N,/Kontrola Amplitiudy/IN*%
X151405000Y-104240000D03*
%TD*%
D20*
%TO.P,Q1,1,C*%
%TO.N,Net-(Q1-C)*%
X113460000Y-130200000D03*
D21*
%TO.P,Q1,2,B*%
%TO.N,Net-(Q1-B)*%
X114730000Y-130200000D03*
%TO.P,Q1,3,E*%
%TO.N,GND*%
X116000000Y-130200000D03*
%TD*%
D18*
%TO.P,RV1,1,1*%
%TO.N,GND*%
X121595000Y-117460000D03*
%TO.P,RV1,2,2*%
%TO.N,Net-(U2C--)*%
X121595000Y-120000000D03*
%TO.P,RV1,3,3*%
%TO.N,+1V2*%
X121595000Y-122540000D03*
%TD*%
D22*
%TO.P,U3,1,FB*%
%TO.N,unconnected-(U3-FB-Pad1)*%
X110955000Y-121305000D03*
D23*
%TO.P,U3,2,K*%
%TO.N,+1V2*%
X110955000Y-120035000D03*
%TO.P,U3,3,A*%
%TO.N,GND*%
X110955000Y-118765000D03*
%TD*%
D11*
%TO.P,C1,1*%
%TO.N,/Filtr Wyj\u015Bciowy/OUT*%
X138165000Y-84030000D03*
%TO.P,C1,2*%
%TO.N,/Kontrola Amplitiudy/IN*%
X148165000Y-84030000D03*
%TD*%
%TA.AperFunction,Conductor*%
%TO.N,GND*%
G36*
X99822332Y-76215838D02*
G01*
X99867292Y-76258058D01*
X99886350Y-76316714D01*
X99874794Y-76377297D01*
X99835480Y-76424818D01*
X99686565Y-76533010D01*
X99686564Y-76533012D01*
X101200000Y-78046447D01*
X101200001Y-78046447D01*
X102713434Y-76533012D01*
X102564518Y-76424818D01*
X102525205Y-76377296D01*
X102513649Y-76316714D01*
X102532707Y-76258057D01*
X102577667Y-76215838D01*
X102637404Y-76200500D01*
X151562851Y-76200500D01*
X151627641Y-76218772D01*
X151673336Y-76268205D01*
X151686143Y-76332591D01*
X153200000Y-77846447D01*
X153200001Y-77846447D01*
X154713855Y-76332591D01*
X154726663Y-76268205D01*
X154772358Y-76218772D01*
X154837148Y-76200500D01*
X155215500Y-76200500D01*
X155277500Y-76217113D01*
X155322887Y-76262500D01*
X155339500Y-76324500D01*
X155339500Y-76676633D01*
X155324904Y-76735000D01*
X155284553Y-76779627D01*
X155227945Y-76800007D01*
X155168408Y-76791343D01*
X155119957Y-76755674D01*
X155064686Y-76688864D01*
X153553553Y-78200000D01*
X155064686Y-79711133D01*
X155119957Y-79644325D01*
X155168408Y-79608656D01*
X155227946Y-79599992D01*
X155284553Y-79620372D01*
X155324904Y-79664999D01*
X155339500Y-79723366D01*
X155339500Y-132276633D01*
X155324904Y-132335000D01*
X155284553Y-132379627D01*
X155227945Y-132400007D01*
X155168408Y-132391343D01*
X155119957Y-132355674D01*
X155064686Y-132288864D01*
X153553553Y-133800000D01*
X155064686Y-135311133D01*
X155119957Y-135244325D01*
X155168408Y-135208656D01*
X155227946Y-135199992D01*
X155284553Y-135220372D01*
X155324904Y-135264999D01*
X155339500Y-135323366D01*
X155339500Y-135735500D01*
X155322887Y-135797500D01*
X155277500Y-135842887D01*
X155215500Y-135859500D01*
X154830095Y-135859500D01*
X154770357Y-135844162D01*
X154725398Y-135801942D01*
X154706340Y-135743286D01*
X154710007Y-135724058D01*
X154708949Y-135723975D01*
X154713434Y-135666986D01*
X153200000Y-134153553D01*
X151686564Y-135666986D01*
X151691050Y-135723975D01*
X151689991Y-135724058D01*
X151693659Y-135743286D01*
X151674601Y-135801942D01*
X151629642Y-135844162D01*
X151569904Y-135859500D01*
X102354732Y-135859500D01*
X102292289Y-135842630D01*
X102246836Y-135796611D01*
X102230742Y-135733964D01*
X102248384Y-135671734D01*
X102283992Y-135637425D01*
X102282215Y-135634979D01*
X102513433Y-135466986D01*
X102513434Y-135466986D01*
X101000000Y-133953553D01*
X99486564Y-135466986D01*
X99717785Y-135634979D01*
X99716007Y-135637425D01*
X99751616Y-135671734D01*
X99769258Y-135733964D01*
X99753164Y-135796611D01*
X99707711Y-135842630D01*
X99645268Y-135859500D01*
X99124500Y-135859500D01*
X99062500Y-135842887D01*
X99017113Y-135797500D01*
X99000500Y-135735500D01*
X99000500Y-135234762D01*
X99018100Y-135171083D01*
X99065904Y-135125480D01*
X99130342Y-135110900D01*
X99135312Y-135111134D01*
X100646447Y-133600001D01*
X101353553Y-133600001D01*
X102864686Y-135111133D01*
X102945481Y-135013471D01*
X103107291Y-134758498D01*
X103235875Y-134485243D01*
X103329195Y-134198036D01*
X103385783Y-133901389D01*
X103392162Y-133799999D01*
X150795254Y-133799999D01*
X150814216Y-134101389D01*
X150870804Y-134398036D01*
X150964124Y-134685243D01*
X151092708Y-134958498D01*
X151254521Y-135213475D01*
X151335312Y-135311134D01*
X152846447Y-133800001D01*
X152846447Y-133799999D01*
X151335312Y-132288864D01*
X151254517Y-132386530D01*
X151092708Y-132641501D01*
X150964124Y-132914756D01*
X150870804Y-133201963D01*
X150814216Y-133498610D01*
X150795254Y-133799999D01*
X103392162Y-133799999D01*
X103404745Y-133599999D01*
X103385783Y-133298610D01*
X103329195Y-133001963D01*
X103262483Y-132796647D01*
X120674526Y-132796647D01*
X120747515Y-132847754D01*
X120953673Y-132943887D01*
X121173397Y-133002762D01*
X121400000Y-133022587D01*
X121626602Y-133002762D01*
X121846326Y-132943887D01*
X122052480Y-132847755D01*
X122125472Y-132796646D01*
X121400001Y-132071174D01*
X121400000Y-132071174D01*
X120674526Y-132796646D01*
X120674526Y-132796647D01*
X103262483Y-132796647D01*
X103235875Y-132714756D01*
X103107291Y-132441501D01*
X102945478Y-132186524D01*
X102864686Y-132088864D01*
X101353553Y-133600000D01*
X101353553Y-133600001D01*
X100646447Y-133600001D01*
X100646447Y-133599999D01*
X99135312Y-132088864D01*
X99130342Y-132089099D01*
X99065904Y-132074519D01*
X99018100Y-132028916D01*
X99000500Y-131965237D01*
X99000500Y-131733012D01*
X99486564Y-131733012D01*
X101000000Y-133246447D01*
X101000001Y-133246447D01*
X102513434Y-131733012D01*
X102492249Y-131717620D01*
X120095033Y-131717620D01*
X120114858Y-131944223D01*
X120173733Y-132163947D01*
X120269866Y-132370105D01*
X120320972Y-132443092D01*
X120320974Y-132443093D01*
X121046446Y-131717622D01*
X121753553Y-131717622D01*
X122479025Y-132443093D01*
X122530134Y-132370101D01*
X122626266Y-132163947D01*
X122685141Y-131944223D01*
X122704966Y-131717620D01*
X128894531Y-131717620D01*
X128914364Y-131944310D01*
X128973261Y-132164118D01*
X129069432Y-132370356D01*
X129199953Y-132556761D01*
X129360859Y-132717667D01*
X129547264Y-132848188D01*
X129547265Y-132848188D01*
X129547266Y-132848189D01*
X129753504Y-132944360D01*
X129973308Y-133003256D01*
X130200000Y-133023089D01*
X130426692Y-133003256D01*
X130646496Y-132944360D01*
X130852734Y-132848189D01*
X131039139Y-132717668D01*
X131200047Y-132556760D01*
X131330568Y-132370355D01*
X131426739Y-132164117D01*
X131485635Y-131944313D01*
X131505468Y-131717621D01*
X131485635Y-131490929D01*
X131426739Y-131271125D01*
X131330568Y-131064887D01*
X131325384Y-131057484D01*
X131200046Y-130878480D01*
X131043162Y-130721596D01*
X131009916Y-130661351D01*
X131010866Y-130644999D01*
X134294531Y-130644999D01*
X134314364Y-130871689D01*
X134373261Y-131091497D01*
X134469432Y-131297735D01*
X134599953Y-131484140D01*
X134760859Y-131645046D01*
X134947264Y-131775567D01*
X134947265Y-131775567D01*
X134947266Y-131775568D01*
X135153504Y-131871739D01*
X135373308Y-131930635D01*
X135600000Y-131950468D01*
X135826692Y-131930635D01*
X136046496Y-131871739D01*
X136252734Y-131775568D01*
X136439139Y-131645047D01*
X136600047Y-131484139D01*
X136730568Y-131297734D01*
X136826739Y-131091496D01*
X136885635Y-130871692D01*
X136891907Y-130800000D01*
X137894356Y-130800000D01*
X137914891Y-131047816D01*
X137914891Y-131047819D01*
X137914892Y-131047821D01*
X137975937Y-131288881D01*
X138008917Y-131364067D01*
X138075825Y-131516604D01*
X138075827Y-131516607D01*
X138211836Y-131724785D01*
X138380256Y-131907738D01*
X138445667Y-131958650D01*
X138576485Y-132060470D01*
X138576487Y-132060471D01*
X138576491Y-132060474D01*
X138795190Y-132178828D01*
X139030386Y-132259571D01*
X139275665Y-132300500D01*
X139524335Y-132300500D01*
X139769614Y-132259571D01*
X140004810Y-132178828D01*
X140223509Y-132060474D01*
X140270872Y-132023610D01*
X148529942Y-132023610D01*
X148576766Y-132060055D01*
X148795393Y-132178368D01*
X149030506Y-132259083D01*
X149275707Y-132300000D01*
X149524293Y-132300000D01*
X149769493Y-132259083D01*
X150004606Y-132178368D01*
X150223233Y-132060053D01*
X150270056Y-132023609D01*
X150179459Y-131933012D01*
X151686564Y-131933012D01*
X153200000Y-133446447D01*
X153200001Y-133446447D01*
X154713434Y-131933012D01*
X154488523Y-131769604D01*
X154223889Y-131624121D01*
X153943107Y-131512951D01*
X153650606Y-131437850D01*
X153350996Y-131400000D01*
X153049004Y-131400000D01*
X152749393Y-131437850D01*
X152456892Y-131512951D01*
X152176110Y-131624121D01*
X151911472Y-131769606D01*
X151686565Y-131933010D01*
X151686564Y-131933012D01*
X150179459Y-131933012D01*
X149400000Y-131153553D01*
X148529942Y-132023609D01*
X148529942Y-132023610D01*
X140270872Y-132023610D01*
X140419744Y-131907738D01*
X140588164Y-131724785D01*
X140724173Y-131516607D01*
X140824063Y-131288881D01*
X140885108Y-131047821D01*
X140905643Y-130800000D01*
X140905643Y-130799999D01*
X147894858Y-130799999D01*
X147915386Y-131047732D01*
X147976413Y-131288721D01*
X148076268Y-131516370D01*
X148176563Y-131669882D01*
X148176564Y-131669882D01*
X149046447Y-130800001D01*
X149753553Y-130800001D01*
X150623434Y-131669882D01*
X150723730Y-131516369D01*
X150823586Y-131288721D01*
X150884613Y-131047732D01*
X150905141Y-130799999D01*
X150884613Y-130552267D01*
X150823586Y-130311278D01*
X150723730Y-130083630D01*
X150623434Y-129930116D01*
X149753553Y-130800000D01*
X149753553Y-130800001D01*
X149046447Y-130800001D01*
X149046447Y-130800000D01*
X148176564Y-129930116D01*
X148076266Y-130083634D01*
X147976413Y-130311278D01*
X147915386Y-130552267D01*
X147894858Y-130799999D01*
X140905643Y-130799999D01*
X140885108Y-130552179D01*
X140824063Y-130311119D01*
X140724173Y-130083393D01*
X140588164Y-129875215D01*
X140419744Y-129692262D01*
X140397612Y-129675036D01*
X140270873Y-129576390D01*
X148529942Y-129576390D01*
X149400000Y-130446447D01*
X149400001Y-130446447D01*
X150270057Y-129576390D01*
X150270056Y-129576388D01*
X150223235Y-129539947D01*
X150004606Y-129421631D01*
X149769493Y-129340916D01*
X149524293Y-129300000D01*
X149275707Y-129300000D01*
X149030506Y-129340916D01*
X148795393Y-129421631D01*
X148576764Y-129539946D01*
X148529942Y-129576388D01*
X148529942Y-129576390D01*
X140270873Y-129576390D01*
X140223514Y-129539529D01*
X140223510Y-129539526D01*
X140223509Y-129539526D01*
X140004810Y-129421172D01*
X140004806Y-129421170D01*
X140004805Y-129421170D01*
X139769615Y-129340429D01*
X139524335Y-129299500D01*
X139275665Y-129299500D01*
X139030384Y-129340429D01*
X138795194Y-129421170D01*
X138576485Y-129539529D01*
X138380259Y-129692259D01*
X138211837Y-129875214D01*
X138075825Y-130083395D01*
X137998381Y-130259951D01*
X137975937Y-130311119D01*
X137937876Y-130461417D01*
X137914891Y-130552183D01*
X137894356Y-130800000D01*
X136891907Y-130800000D01*
X136905468Y-130645000D01*
X136885635Y-130418308D01*
X136826739Y-130198504D01*
X136730568Y-129992266D01*
X136700973Y-129950000D01*
X136600046Y-129805859D01*
X136439140Y-129644953D01*
X136252733Y-129514431D01*
X136194725Y-129487382D01*
X136142549Y-129441625D01*
X136123129Y-129375000D01*
X136142549Y-129308375D01*
X136194725Y-129262618D01*
X136228846Y-129246707D01*
X136252734Y-129235568D01*
X136439139Y-129105047D01*
X136600047Y-128944139D01*
X136730568Y-128757734D01*
X136826739Y-128551496D01*
X136885635Y-128331692D01*
X136905468Y-128105000D01*
X136885635Y-127878308D01*
X136826739Y-127658504D01*
X136730568Y-127452266D01*
X136665360Y-127359139D01*
X136600046Y-127265859D01*
X136439140Y-127104953D01*
X136252735Y-126974432D01*
X136046497Y-126878261D01*
X135826689Y-126819364D01*
X135600000Y-126799531D01*
X135373310Y-126819364D01*
X135153502Y-126878261D01*
X134947264Y-126974432D01*
X134760859Y-127104953D01*
X134599953Y-127265859D01*
X134469432Y-127452264D01*
X134373261Y-127658502D01*
X134314364Y-127878310D01*
X134294531Y-128104999D01*
X134314364Y-128331689D01*
X134373261Y-128551497D01*
X134469432Y-128757735D01*
X134599953Y-128944140D01*
X134760859Y-129105046D01*
X134779648Y-129118202D01*
X134947266Y-129235568D01*
X134971154Y-129246707D01*
X135005275Y-129262618D01*
X135057450Y-129308375D01*
X135076869Y-129375000D01*
X135057450Y-129441625D01*
X135005275Y-129487382D01*
X134947263Y-129514433D01*
X134760859Y-129644953D01*
X134599953Y-129805859D01*
X134469432Y-129992264D01*
X134373261Y-130198502D01*
X134314364Y-130418310D01*
X134294531Y-130644999D01*
X131010866Y-130644999D01*
X131013908Y-130592658D01*
X131053907Y-130536669D01*
X131094046Y-130520254D01*
X131092890Y-130517155D01*
X131109229Y-130511060D01*
X131242331Y-130461417D01*
X131357546Y-130375167D01*
X131443796Y-130259952D01*
X131494091Y-130125104D01*
X131500500Y-130065494D01*
X131500499Y-128369749D01*
X131494091Y-128310138D01*
X131443796Y-128175290D01*
X131357546Y-128060075D01*
X131242331Y-127973825D01*
X131107483Y-127923530D01*
X131047873Y-127917121D01*
X131047869Y-127917121D01*
X129352130Y-127917121D01*
X129292515Y-127923530D01*
X129157669Y-127973825D01*
X129042454Y-128060075D01*
X128956204Y-128175289D01*
X128905909Y-128310137D01*
X128899500Y-128369751D01*
X128899500Y-130065490D01*
X128901451Y-130083634D01*
X128905909Y-130125104D01*
X128956204Y-130259952D01*
X129042454Y-130375167D01*
X129157669Y-130461417D01*
X129275448Y-130505346D01*
X129307110Y-130517155D01*
X129305953Y-130520254D01*
X129346092Y-130536668D01*
X129386091Y-130592657D01*
X129390083Y-130661351D01*
X129356838Y-130721596D01*
X129199950Y-130878484D01*
X129069432Y-131064885D01*
X128973261Y-131271123D01*
X128914364Y-131490931D01*
X128894531Y-131717620D01*
X122704966Y-131717620D01*
X122685141Y-131491018D01*
X122626266Y-131271294D01*
X122530133Y-131065136D01*
X122479025Y-130992147D01*
X121753553Y-131717621D01*
X121753553Y-131717622D01*
X121046446Y-131717622D01*
X121046446Y-131717621D01*
X120320973Y-130992147D01*
X120320973Y-130992148D01*
X120269865Y-131065137D01*
X120173733Y-131271293D01*
X120114858Y-131491018D01*
X120095033Y-131717620D01*
X102492249Y-131717620D01*
X102288523Y-131569604D01*
X102023889Y-131424121D01*
X101743107Y-131312951D01*
X101450606Y-131237850D01*
X101150996Y-131200000D01*
X100849004Y-131200000D01*
X100549393Y-131237850D01*
X100256892Y-131312951D01*
X99976110Y-131424121D01*
X99711472Y-131569606D01*
X99486565Y-131733010D01*
X99486564Y-131733012D01*
X99000500Y-131733012D01*
X99000500Y-130997869D01*
X112434500Y-130997869D01*
X112440909Y-131057484D01*
X112453595Y-131091496D01*
X112491204Y-131192331D01*
X112577454Y-131307546D01*
X112692669Y-131393796D01*
X112827517Y-131444091D01*
X112887127Y-131450500D01*
X114032872Y-131450499D01*
X114092483Y-131444091D01*
X114227331Y-131393796D01*
X114227332Y-131393794D01*
X114243545Y-131387748D01*
X114277104Y-131373228D01*
X114334576Y-131376693D01*
X114335652Y-131377019D01*
X114335659Y-131377023D01*
X114528967Y-131435662D01*
X114730000Y-131455462D01*
X114931033Y-131435662D01*
X115124341Y-131377023D01*
X115302494Y-131281798D01*
X115302495Y-131281797D01*
X115307077Y-131279348D01*
X115365530Y-131264706D01*
X115423984Y-131279348D01*
X115605850Y-131376558D01*
X115750000Y-131420285D01*
X115750000Y-130537315D01*
X115750597Y-130525161D01*
X115755500Y-130475380D01*
X115755500Y-130450000D01*
X116250000Y-130450000D01*
X116250000Y-131420285D01*
X116394150Y-131376558D01*
X116572215Y-131281379D01*
X116728292Y-131153292D01*
X116856379Y-130997215D01*
X116951557Y-130819151D01*
X117010170Y-130625932D01*
X117025000Y-130475361D01*
X117025000Y-130450000D01*
X116250000Y-130450000D01*
X115755500Y-130450000D01*
X115755500Y-130065490D01*
X120099500Y-130065490D01*
X120101451Y-130083634D01*
X120105909Y-130125104D01*
X120156204Y-130259952D01*
X120242454Y-130375167D01*
X120357669Y-130461417D01*
X120492517Y-130511712D01*
X120552127Y-130518121D01*
X120552131Y-130518120D01*
X120558735Y-130518831D01*
X120558542Y-130520621D01*
X120614824Y-130536571D01*
X120660550Y-130586459D01*
X120669582Y-130633650D01*
X121400000Y-131364067D01*
X121400001Y-131364067D01*
X122130414Y-130633652D01*
X122139443Y-130586470D01*
X122185157Y-130536582D01*
X122241456Y-130520614D01*
X122241265Y-130518830D01*
X122247869Y-130518120D01*
X122247872Y-130518120D01*
X122307483Y-130511712D01*
X122442331Y-130461417D01*
X122557546Y-130375167D01*
X122643796Y-130259952D01*
X122694091Y-130125104D01*
X122700500Y-130065494D01*
X122700499Y-128369749D01*
X122694091Y-128310138D01*
X122643796Y-128175290D01*
X122557546Y-128060075D01*
X122442331Y-127973825D01*
X122307483Y-127923530D01*
X122247873Y-127917121D01*
X122247869Y-127917121D01*
X120552130Y-127917121D01*
X120492515Y-127923530D01*
X120357669Y-127973825D01*
X120242454Y-128060075D01*
X120156204Y-128175289D01*
X120105909Y-128310137D01*
X120099500Y-128369751D01*
X120099500Y-130065490D01*
X115755500Y-130065490D01*
X115755500Y-129924620D01*
X115750597Y-129874839D01*
X115750000Y-129862685D01*
X115750000Y-128979715D01*
X116250000Y-128979715D01*
X116250000Y-129950000D01*
X117025000Y-129950000D01*
X117025000Y-129924639D01*
X117010170Y-129774067D01*
X116951557Y-129580848D01*
X116856379Y-129402784D01*
X116728292Y-129246707D01*
X116572215Y-129118620D01*
X116394150Y-129023441D01*
X116250000Y-128979715D01*
X115750000Y-128979715D01*
X115605847Y-129023442D01*
X115423983Y-129120651D01*
X115365530Y-129135293D01*
X115307077Y-129120651D01*
X115124343Y-129022978D01*
X115124342Y-129022977D01*
X115124341Y-129022977D01*
X115027687Y-128993657D01*
X114931031Y-128964337D01*
X114730000Y-128944538D01*
X114528968Y-128964337D01*
X114334574Y-129023306D01*
X114277106Y-129026772D01*
X114243553Y-129012255D01*
X114227332Y-129006205D01*
X114227331Y-129006204D01*
X114092483Y-128955909D01*
X114032873Y-128949500D01*
X114032869Y-128949500D01*
X112887130Y-128949500D01*
X112827515Y-128955909D01*
X112692669Y-129006204D01*
X112577454Y-129092454D01*
X112491204Y-129207668D01*
X112440909Y-129342516D01*
X112434500Y-129402130D01*
X112434500Y-130997869D01*
X99000500Y-130997869D01*
X99000500Y-127645000D01*
X108894531Y-127645000D01*
X108914364Y-127871689D01*
X108973261Y-128091497D01*
X109069432Y-128297735D01*
X109199953Y-128484140D01*
X109360859Y-128645046D01*
X109547264Y-128775567D01*
X109547265Y-128775567D01*
X109547266Y-128775568D01*
X109753504Y-128871739D01*
X109973308Y-128930635D01*
X110200000Y-128950468D01*
X110426692Y-128930635D01*
X110646496Y-128871739D01*
X110852734Y-128775568D01*
X111039139Y-128645047D01*
X111200047Y-128484139D01*
X111330568Y-128297734D01*
X111426739Y-128091496D01*
X111485635Y-127871692D01*
X111505468Y-127645000D01*
X111485635Y-127418308D01*
X111426739Y-127198504D01*
X111330568Y-126992266D01*
X111241432Y-126864966D01*
X111200046Y-126805859D01*
X111039140Y-126644953D01*
X110852733Y-126514431D01*
X110794725Y-126487382D01*
X110742549Y-126441625D01*
X110723129Y-126375000D01*
X110742549Y-126308375D01*
X110794725Y-126262618D01*
X110852734Y-126235568D01*
X111039139Y-126105047D01*
X111200047Y-125944139D01*
X111330568Y-125757734D01*
X111404121Y-125600000D01*
X113294531Y-125600000D01*
X113314364Y-125826689D01*
X113373261Y-126046497D01*
X113469432Y-126252735D01*
X113599953Y-126439140D01*
X113760859Y-126600046D01*
X113947264Y-126730567D01*
X113947265Y-126730567D01*
X113947266Y-126730568D01*
X114153504Y-126826739D01*
X114373308Y-126885635D01*
X114600000Y-126905468D01*
X114826692Y-126885635D01*
X115046496Y-126826739D01*
X115252734Y-126730568D01*
X115439139Y-126600047D01*
X115600047Y-126439139D01*
X115730568Y-126252734D01*
X115757618Y-126194724D01*
X115803375Y-126142549D01*
X115870000Y-126123129D01*
X115936625Y-126142549D01*
X115982382Y-126194725D01*
X116009431Y-126252733D01*
X116139953Y-126439140D01*
X116300859Y-126600046D01*
X116487264Y-126730567D01*
X116487265Y-126730567D01*
X116487266Y-126730568D01*
X116693504Y-126826739D01*
X116913308Y-126885635D01*
X117140000Y-126905468D01*
X117366692Y-126885635D01*
X117586496Y-126826739D01*
X117792734Y-126730568D01*
X117923471Y-126639026D01*
X119549526Y-126639026D01*
X119622515Y-126690133D01*
X119828673Y-126786266D01*
X120048397Y-126845141D01*
X120275000Y-126864966D01*
X120501602Y-126845141D01*
X120721326Y-126786266D01*
X120927480Y-126690134D01*
X121000472Y-126639025D01*
X120275001Y-125913553D01*
X120275000Y-125913553D01*
X119549526Y-126639025D01*
X119549526Y-126639026D01*
X117923471Y-126639026D01*
X117979139Y-126600047D01*
X118140047Y-126439139D01*
X118270568Y-126252734D01*
X118366739Y-126046496D01*
X118425635Y-125826692D01*
X118445468Y-125600000D01*
X118441968Y-125560000D01*
X118970033Y-125560000D01*
X118989858Y-125786602D01*
X119048733Y-126006326D01*
X119144866Y-126212484D01*
X119195972Y-126285471D01*
X119195974Y-126285472D01*
X119921446Y-125560001D01*
X120628553Y-125560001D01*
X121354025Y-126285472D01*
X121405136Y-126212479D01*
X121432342Y-126154135D01*
X121478098Y-126101959D01*
X121544723Y-126082539D01*
X121611348Y-126101958D01*
X121657106Y-126154133D01*
X121684433Y-126212736D01*
X121814953Y-126399140D01*
X121975859Y-126560046D01*
X122162264Y-126690567D01*
X122162265Y-126690567D01*
X122162266Y-126690568D01*
X122368504Y-126786739D01*
X122588308Y-126845635D01*
X122815000Y-126865468D01*
X123041692Y-126845635D01*
X123261496Y-126786739D01*
X123467734Y-126690568D01*
X123654139Y-126560047D01*
X123815047Y-126399139D01*
X123945568Y-126212734D01*
X124041739Y-126006496D01*
X124100635Y-125786692D01*
X124116094Y-125609999D01*
X126169837Y-125609999D01*
X126188450Y-125822744D01*
X126243724Y-126029031D01*
X126333979Y-126222582D01*
X126456471Y-126397520D01*
X126607479Y-126548528D01*
X126782417Y-126671020D01*
X126782418Y-126671020D01*
X126782419Y-126671021D01*
X126975970Y-126761276D01*
X127182253Y-126816549D01*
X127395000Y-126835162D01*
X127607747Y-126816549D01*
X127814030Y-126761276D01*
X128007581Y-126671021D01*
X128182519Y-126548529D01*
X128211048Y-126520000D01*
X138694531Y-126520000D01*
X138714364Y-126746689D01*
X138773261Y-126966497D01*
X138869432Y-127172735D01*
X138999953Y-127359140D01*
X139160859Y-127520046D01*
X139347264Y-127650567D01*
X139347265Y-127650567D01*
X139347266Y-127650568D01*
X139553504Y-127746739D01*
X139773308Y-127805635D01*
X140000000Y-127825468D01*
X140226692Y-127805635D01*
X140446496Y-127746739D01*
X140652734Y-127650568D01*
X140839139Y-127520047D01*
X141000047Y-127359139D01*
X141130568Y-127172734D01*
X141157893Y-127114134D01*
X141203649Y-127061959D01*
X141270274Y-127042539D01*
X141336899Y-127061958D01*
X141382657Y-127114133D01*
X141409866Y-127172482D01*
X141540341Y-127358819D01*
X141701180Y-127519658D01*
X141887519Y-127650134D01*
X142093673Y-127746266D01*
X142289999Y-127798871D01*
X142290000Y-127798872D01*
X142290000Y-126770000D01*
X142790000Y-126770000D01*
X142790000Y-127798871D01*
X142986326Y-127746266D01*
X143192480Y-127650134D01*
X143378819Y-127519658D01*
X143539658Y-127358819D01*
X143670134Y-127172480D01*
X143766266Y-126966326D01*
X143818872Y-126770000D01*
X142790000Y-126770000D01*
X142290000Y-126770000D01*
X142290000Y-125241128D01*
X142790000Y-125241128D01*
X142790000Y-126270000D01*
X143818872Y-126270000D01*
X143818871Y-126269999D01*
X143766266Y-126073673D01*
X143670134Y-125867519D01*
X143539658Y-125681180D01*
X143378819Y-125520341D01*
X143192480Y-125389865D01*
X142986326Y-125293733D01*
X142790000Y-125241128D01*
X142290000Y-125241128D01*
X142289999Y-125241128D01*
X142093673Y-125293733D01*
X141887519Y-125389865D01*
X141701180Y-125520341D01*
X141540341Y-125681180D01*
X141409863Y-125867522D01*
X141382656Y-125925866D01*
X141336899Y-125978041D01*
X141270274Y-125997460D01*
X141203650Y-125978040D01*
X141157893Y-125925865D01*
X141130567Y-125867264D01*
X141000046Y-125680859D01*
X140839140Y-125519953D01*
X140652735Y-125389432D01*
X140446497Y-125293261D01*
X140226689Y-125234364D01*
X140000000Y-125214531D01*
X139773310Y-125234364D01*
X139553502Y-125293261D01*
X139347264Y-125389432D01*
X139160859Y-125519953D01*
X138999953Y-125680859D01*
X138869432Y-125867264D01*
X138773261Y-126073502D01*
X138714364Y-126293310D01*
X138694531Y-126520000D01*
X128211048Y-126520000D01*
X128333529Y-126397519D01*
X128456021Y-126222581D01*
X128546276Y-126029030D01*
X128601549Y-125822747D01*
X128620162Y-125610000D01*
X128601549Y-125397253D01*
X128546276Y-125190970D01*
X128456021Y-124997419D01*
X128420902Y-124947264D01*
X128333528Y-124822479D01*
X128182520Y-124671471D01*
X128007582Y-124548979D01*
X127804198Y-124454139D01*
X127805044Y-124452322D01*
X127762365Y-124427683D01*
X127730270Y-124372094D01*
X127730270Y-124307906D01*
X127762365Y-124252317D01*
X127805044Y-124227677D01*
X127804198Y-124225861D01*
X127865121Y-124197451D01*
X128007581Y-124131021D01*
X128109012Y-124059999D01*
X130639531Y-124059999D01*
X130659364Y-124286689D01*
X130718261Y-124506497D01*
X130814432Y-124712735D01*
X130944953Y-124899140D01*
X131105859Y-125060046D01*
X131292264Y-125190567D01*
X131292265Y-125190567D01*
X131292266Y-125190568D01*
X131498504Y-125286739D01*
X131718308Y-125345635D01*
X131945000Y-125365468D01*
X132171692Y-125345635D01*
X132391496Y-125286739D01*
X132597734Y-125190568D01*
X132784139Y-125060047D01*
X132945047Y-124899139D01*
X133075568Y-124712734D01*
X133171739Y-124506496D01*
X133230635Y-124286692D01*
X133250468Y-124060000D01*
X133250468Y-124059999D01*
X135639531Y-124059999D01*
X135659364Y-124286689D01*
X135718261Y-124506497D01*
X135814432Y-124712735D01*
X135944953Y-124899140D01*
X136105859Y-125060046D01*
X136292264Y-125190567D01*
X136292265Y-125190567D01*
X136292266Y-125190568D01*
X136498504Y-125286739D01*
X136718308Y-125345635D01*
X136945000Y-125365468D01*
X137171692Y-125345635D01*
X137391496Y-125286739D01*
X137597734Y-125190568D01*
X137784139Y-125060047D01*
X137945047Y-124899139D01*
X138075568Y-124712734D01*
X138171739Y-124506496D01*
X138230635Y-124286692D01*
X138250468Y-124060000D01*
X138230635Y-123833308D01*
X138171739Y-123613504D01*
X138075568Y-123407266D01*
X138069878Y-123399140D01*
X137945046Y-123220859D01*
X137784140Y-123059953D01*
X137698516Y-122999999D01*
X138694531Y-122999999D01*
X138714364Y-123226689D01*
X138773261Y-123446497D01*
X138869432Y-123652735D01*
X138999953Y-123839140D01*
X139160859Y-124000046D01*
X139347264Y-124130567D01*
X139347265Y-124130567D01*
X139347266Y-124130568D01*
X139553504Y-124226739D01*
X139773308Y-124285635D01*
X140000000Y-124305468D01*
X140226692Y-124285635D01*
X140446496Y-124226739D01*
X140652734Y-124130568D01*
X140839139Y-124000047D01*
X141000047Y-123839139D01*
X141130568Y-123652734D01*
X141157618Y-123594724D01*
X141203375Y-123542549D01*
X141270000Y-123523129D01*
X141336625Y-123542549D01*
X141382382Y-123594725D01*
X141409431Y-123652733D01*
X141539953Y-123839140D01*
X141700859Y-124000046D01*
X141887264Y-124130567D01*
X141887265Y-124130567D01*
X141887266Y-124130568D01*
X142093504Y-124226739D01*
X142313308Y-124285635D01*
X142540000Y-124305468D01*
X142766692Y-124285635D01*
X142986496Y-124226739D01*
X143192734Y-124130568D01*
X143379139Y-124000047D01*
X143540047Y-123839139D01*
X143670568Y-123652734D01*
X143691489Y-123607869D01*
X144180186Y-123607869D01*
X144186595Y-123667484D01*
X144195205Y-123690567D01*
X144236890Y-123802331D01*
X144323140Y-123917546D01*
X144438355Y-124003796D01*
X144573203Y-124054091D01*
X144632813Y-124060500D01*
X146328558Y-124060499D01*
X146388169Y-124054091D01*
X146523017Y-124003796D01*
X146638232Y-123917546D01*
X146724482Y-123802331D01*
X146774777Y-123667483D01*
X146778548Y-123632405D01*
X146798925Y-123576486D01*
X146843014Y-123536501D01*
X146900655Y-123521667D01*
X146958568Y-123535400D01*
X147003411Y-123574537D01*
X147020637Y-123599138D01*
X147181545Y-123760046D01*
X147367950Y-123890567D01*
X147367951Y-123890567D01*
X147367952Y-123890568D01*
X147574190Y-123986739D01*
X147793994Y-124045635D01*
X148020686Y-124065468D01*
X148247378Y-124045635D01*
X148467182Y-123986739D01*
X148673420Y-123890568D01*
X148859825Y-123760047D01*
X149020733Y-123599139D01*
X149151254Y-123412734D01*
X149247425Y-123206496D01*
X149306321Y-122986692D01*
X149326154Y-122760000D01*
X149306321Y-122533308D01*
X149247425Y-122313504D01*
X149151254Y-122107266D01*
X149126792Y-122072331D01*
X149020732Y-121920859D01*
X148859826Y-121759953D01*
X148673421Y-121629432D01*
X148467183Y-121533261D01*
X148247375Y-121474364D01*
X148020686Y-121454531D01*
X147793996Y-121474364D01*
X147574188Y-121533261D01*
X147367950Y-121629432D01*
X147181545Y-121759953D01*
X147020637Y-121920861D01*
X147003411Y-121945463D01*
X146958568Y-121984600D01*
X146900655Y-121998333D01*
X146843014Y-121983499D01*
X146798925Y-121943514D01*
X146778547Y-121887592D01*
X146774777Y-121852517D01*
X146724482Y-121717669D01*
X146638232Y-121602454D01*
X146523017Y-121516204D01*
X146388169Y-121465909D01*
X146328559Y-121459500D01*
X146328555Y-121459500D01*
X144632816Y-121459500D01*
X144573201Y-121465909D01*
X144438355Y-121516204D01*
X144323140Y-121602454D01*
X144236890Y-121717668D01*
X144186595Y-121852516D01*
X144180186Y-121912130D01*
X144180186Y-123607869D01*
X143691489Y-123607869D01*
X143766739Y-123446496D01*
X143825635Y-123226692D01*
X143845468Y-123000000D01*
X143844303Y-122986689D01*
X143825635Y-122773310D01*
X143825635Y-122773308D01*
X143766739Y-122553504D01*
X143670568Y-122347266D01*
X143658828Y-122330500D01*
X143540046Y-122160859D01*
X143379140Y-121999953D01*
X143192735Y-121869432D01*
X142986497Y-121773261D01*
X142766689Y-121714364D01*
X142540000Y-121694531D01*
X142313310Y-121714364D01*
X142093502Y-121773261D01*
X141887264Y-121869432D01*
X141700859Y-121999953D01*
X141539953Y-122160859D01*
X141409433Y-122347263D01*
X141382382Y-122405275D01*
X141336625Y-122457450D01*
X141270000Y-122476869D01*
X141203375Y-122457450D01*
X141157618Y-122405275D01*
X141137033Y-122361131D01*
X141130568Y-122347266D01*
X141120795Y-122333308D01*
X141000046Y-122160859D01*
X140839140Y-121999953D01*
X140652735Y-121869432D01*
X140446497Y-121773261D01*
X140226689Y-121714364D01*
X140000000Y-121694531D01*
X139773310Y-121714364D01*
X139553502Y-121773261D01*
X139347264Y-121869432D01*
X139160859Y-121999953D01*
X138999953Y-122160859D01*
X138869432Y-122347264D01*
X138773261Y-122553502D01*
X138714364Y-122773310D01*
X138694531Y-122999999D01*
X137698516Y-122999999D01*
X137597735Y-122929432D01*
X137391497Y-122833261D01*
X137171689Y-122774364D01*
X136945000Y-122754531D01*
X136718310Y-122774364D01*
X136498502Y-122833261D01*
X136292264Y-122929432D01*
X136105859Y-123059953D01*
X135944953Y-123220859D01*
X135814432Y-123407264D01*
X135718261Y-123613502D01*
X135659364Y-123833310D01*
X135639531Y-124059999D01*
X133250468Y-124059999D01*
X133230635Y-123833308D01*
X133171739Y-123613504D01*
X133075568Y-123407266D01*
X133069878Y-123399140D01*
X132945046Y-123220859D01*
X132784140Y-123059953D01*
X132597735Y-122929432D01*
X132391497Y-122833261D01*
X132171689Y-122774364D01*
X131945000Y-122754531D01*
X131718310Y-122774364D01*
X131498502Y-122833261D01*
X131292264Y-122929432D01*
X131105859Y-123059953D01*
X130944953Y-123220859D01*
X130814432Y-123407264D01*
X130718261Y-123613502D01*
X130659364Y-123833310D01*
X130639531Y-124059999D01*
X128109012Y-124059999D01*
X128182519Y-124008529D01*
X128333529Y-123857519D01*
X128456021Y-123682581D01*
X128546276Y-123489030D01*
X128601549Y-123282747D01*
X128620162Y-123070000D01*
X128601549Y-122857253D01*
X128546276Y-122650970D01*
X128456021Y-122457419D01*
X128378890Y-122347264D01*
X128333528Y-122282479D01*
X128182520Y-122131471D01*
X128007582Y-122008979D01*
X127804198Y-121914139D01*
X127805044Y-121912322D01*
X127762365Y-121887683D01*
X127730270Y-121832094D01*
X127730270Y-121767906D01*
X127762365Y-121712317D01*
X127805044Y-121687677D01*
X127804198Y-121685861D01*
X127865121Y-121657451D01*
X128007581Y-121591021D01*
X128182519Y-121468529D01*
X128333529Y-121317519D01*
X128456021Y-121142581D01*
X128546276Y-120949030D01*
X128601549Y-120742747D01*
X128620162Y-120530000D01*
X128601549Y-120317253D01*
X128546276Y-120110970D01*
X128456021Y-119917419D01*
X128397588Y-119833968D01*
X128333528Y-119742479D01*
X128182520Y-119591471D01*
X128023322Y-119480000D01*
X131339531Y-119480000D01*
X131359364Y-119706689D01*
X131418261Y-119926497D01*
X131514432Y-120132735D01*
X131644953Y-120319140D01*
X131805859Y-120480046D01*
X131992264Y-120610567D01*
X131992265Y-120610567D01*
X131992266Y-120610568D01*
X132198504Y-120706739D01*
X132418308Y-120765635D01*
X132645000Y-120785468D01*
X132871692Y-120765635D01*
X133091496Y-120706739D01*
X133297734Y-120610568D01*
X133484139Y-120480047D01*
X133645047Y-120319139D01*
X133775568Y-120132734D01*
X133802618Y-120074724D01*
X133848375Y-120022549D01*
X133915000Y-120003129D01*
X133981625Y-120022549D01*
X134027382Y-120074725D01*
X134054431Y-120132733D01*
X134184953Y-120319140D01*
X134345859Y-120480046D01*
X134532264Y-120610567D01*
X134532265Y-120610567D01*
X134532266Y-120610568D01*
X134738504Y-120706739D01*
X134958308Y-120765635D01*
X135185000Y-120785468D01*
X135411692Y-120765635D01*
X135631496Y-120706739D01*
X135837734Y-120610568D01*
X136024139Y-120480047D01*
X136185047Y-120319139D01*
X136315568Y-120132734D01*
X136342618Y-120074724D01*
X136388375Y-120022549D01*
X136455000Y-120003129D01*
X136521625Y-120022549D01*
X136567382Y-120074725D01*
X136594431Y-120132733D01*
X136724953Y-120319140D01*
X136885859Y-120480046D01*
X137072264Y-120610567D01*
X137072265Y-120610567D01*
X137072266Y-120610568D01*
X137278504Y-120706739D01*
X137498308Y-120765635D01*
X137725000Y-120785468D01*
X137951692Y-120765635D01*
X138171496Y-120706739D01*
X138377734Y-120610568D01*
X138564139Y-120480047D01*
X138725047Y-120319139D01*
X138855568Y-120132734D01*
X138882893Y-120074134D01*
X138928649Y-120021959D01*
X138995274Y-120002539D01*
X139061899Y-120021958D01*
X139107657Y-120074133D01*
X139134866Y-120132482D01*
X139265341Y-120318819D01*
X139426180Y-120479658D01*
X139612519Y-120610134D01*
X139818673Y-120706266D01*
X140014999Y-120758871D01*
X140015000Y-120758872D01*
X140015000Y-120758871D01*
X140515000Y-120758871D01*
X140711326Y-120706266D01*
X140917480Y-120610134D01*
X141103819Y-120479658D01*
X141264658Y-120318819D01*
X141395135Y-120132479D01*
X141422342Y-120074135D01*
X141468098Y-120021959D01*
X141534723Y-120002539D01*
X141601348Y-120021958D01*
X141647105Y-120074132D01*
X141674432Y-120132733D01*
X141674433Y-120132736D01*
X141804953Y-120319140D01*
X141965859Y-120480046D01*
X142152264Y-120610567D01*
X142152265Y-120610567D01*
X142152266Y-120610568D01*
X142358504Y-120706739D01*
X142578308Y-120765635D01*
X142805000Y-120785468D01*
X143031692Y-120765635D01*
X143251496Y-120706739D01*
X143457734Y-120610568D01*
X143644139Y-120480047D01*
X143805047Y-120319139D01*
X143935568Y-120132734D01*
X143962618Y-120074724D01*
X144008375Y-120022549D01*
X144075000Y-120003129D01*
X144141625Y-120022549D01*
X144187382Y-120074725D01*
X144214431Y-120132733D01*
X144344953Y-120319140D01*
X144505859Y-120480046D01*
X144692264Y-120610567D01*
X144692265Y-120610567D01*
X144692266Y-120610568D01*
X144898504Y-120706739D01*
X145118308Y-120765635D01*
X145345000Y-120785468D01*
X145571692Y-120765635D01*
X145791496Y-120706739D01*
X145997734Y-120610568D01*
X146184139Y-120480047D01*
X146345047Y-120319139D01*
X146475568Y-120132734D01*
X146502618Y-120074724D01*
X146548375Y-120022549D01*
X146615000Y-120003129D01*
X146681625Y-120022549D01*
X146727382Y-120074725D01*
X146754431Y-120132733D01*
X146884953Y-120319140D01*
X147045859Y-120480046D01*
X147232264Y-120610567D01*
X147232265Y-120610567D01*
X147232266Y-120610568D01*
X147438504Y-120706739D01*
X147658308Y-120765635D01*
X147885000Y-120785468D01*
X148111692Y-120765635D01*
X148331496Y-120706739D01*
X148537734Y-120610568D01*
X148724139Y-120480047D01*
X148885047Y-120319139D01*
X149015568Y-120132734D01*
X149111739Y-119926496D01*
X149170635Y-119706692D01*
X149190468Y-119480000D01*
X149170635Y-119253308D01*
X149111739Y-119033504D01*
X149015568Y-118827266D01*
X148969743Y-118761821D01*
X148885046Y-118640859D01*
X148724140Y-118479953D01*
X148537735Y-118349432D01*
X148331497Y-118253261D01*
X148111689Y-118194364D01*
X147885000Y-118174531D01*
X147658310Y-118194364D01*
X147438502Y-118253261D01*
X147232264Y-118349432D01*
X147045859Y-118479953D01*
X146884953Y-118640859D01*
X146754433Y-118827263D01*
X146727382Y-118885275D01*
X146681625Y-118937450D01*
X146615000Y-118956869D01*
X146548375Y-118937450D01*
X146502618Y-118885275D01*
X146482699Y-118842559D01*
X146475568Y-118827266D01*
X146429744Y-118761822D01*
X146345046Y-118640859D01*
X146184140Y-118479953D01*
X145997735Y-118349432D01*
X145791497Y-118253261D01*
X145571689Y-118194364D01*
X145345000Y-118174531D01*
X145118310Y-118194364D01*
X144898502Y-118253261D01*
X144692264Y-118349432D01*
X144505859Y-118479953D01*
X144344953Y-118640859D01*
X144214433Y-118827263D01*
X144187382Y-118885275D01*
X144141625Y-118937450D01*
X144075000Y-118956869D01*
X144008375Y-118937450D01*
X143962618Y-118885275D01*
X143942699Y-118842559D01*
X143935568Y-118827266D01*
X143889744Y-118761822D01*
X143805046Y-118640859D01*
X143644140Y-118479953D01*
X143457735Y-118349432D01*
X143251497Y-118253261D01*
X143031689Y-118194364D01*
X142805000Y-118174531D01*
X142578310Y-118194364D01*
X142358502Y-118253261D01*
X142152264Y-118349432D01*
X141965859Y-118479953D01*
X141804953Y-118640859D01*
X141674430Y-118827267D01*
X141647105Y-118885866D01*
X141601348Y-118938041D01*
X141534723Y-118957460D01*
X141468099Y-118938040D01*
X141422342Y-118885865D01*
X141395134Y-118827519D01*
X141264658Y-118641180D01*
X141103819Y-118480341D01*
X140917480Y-118349865D01*
X140711326Y-118253733D01*
X140515000Y-118201128D01*
X140515000Y-120758871D01*
X140015000Y-120758871D01*
X140015000Y-118201128D01*
X140014999Y-118201128D01*
X139818673Y-118253733D01*
X139612519Y-118349865D01*
X139426180Y-118480341D01*
X139265341Y-118641180D01*
X139134863Y-118827522D01*
X139107656Y-118885866D01*
X139061899Y-118938041D01*
X138995274Y-118957460D01*
X138928650Y-118938040D01*
X138882893Y-118885865D01*
X138855567Y-118827264D01*
X138725046Y-118640859D01*
X138564140Y-118479953D01*
X138377735Y-118349432D01*
X138171497Y-118253261D01*
X137951689Y-118194364D01*
X137725000Y-118174531D01*
X137498310Y-118194364D01*
X137278502Y-118253261D01*
X137072264Y-118349432D01*
X136885859Y-118479953D01*
X136724953Y-118640859D01*
X136594433Y-118827263D01*
X136567382Y-118885275D01*
X136521625Y-118937450D01*
X136455000Y-118956869D01*
X136388375Y-118937450D01*
X136342618Y-118885275D01*
X136322699Y-118842559D01*
X136315568Y-118827266D01*
X136269744Y-118761822D01*
X136185046Y-118640859D01*
X136024140Y-118479953D01*
X135837735Y-118349432D01*
X135631497Y-118253261D01*
X135411689Y-118194364D01*
X135185000Y-118174531D01*
X134958310Y-118194364D01*
X134738502Y-118253261D01*
X134532264Y-118349432D01*
X134345859Y-118479953D01*
X134184953Y-118640859D01*
X134054433Y-118827263D01*
X134027382Y-118885275D01*
X133981625Y-118937450D01*
X133915000Y-118956869D01*
X133848375Y-118937450D01*
X133802618Y-118885275D01*
X133782699Y-118842559D01*
X133775568Y-118827266D01*
X133729744Y-118761822D01*
X133645046Y-118640859D01*
X133484140Y-118479953D01*
X133297735Y-118349432D01*
X133091497Y-118253261D01*
X132871689Y-118194364D01*
X132645000Y-118174531D01*
X132418310Y-118194364D01*
X132198502Y-118253261D01*
X131992264Y-118349432D01*
X131805859Y-118479953D01*
X131644953Y-118640859D01*
X131514432Y-118827264D01*
X131418261Y-119033502D01*
X131359364Y-119253310D01*
X131339531Y-119480000D01*
X128023322Y-119480000D01*
X128007582Y-119468979D01*
X127814031Y-119378724D01*
X127607744Y-119323450D01*
X127395000Y-119304837D01*
X127182255Y-119323450D01*
X126975968Y-119378724D01*
X126782417Y-119468979D01*
X126607479Y-119591471D01*
X126456471Y-119742479D01*
X126333979Y-119917417D01*
X126243724Y-120110968D01*
X126188450Y-120317255D01*
X126169837Y-120530000D01*
X126188450Y-120742744D01*
X126243724Y-120949031D01*
X126333979Y-121142582D01*
X126456471Y-121317520D01*
X126607479Y-121468528D01*
X126782417Y-121591020D01*
X126985802Y-121685861D01*
X126984955Y-121687676D01*
X127027636Y-121712319D01*
X127059729Y-121767907D01*
X127059729Y-121832093D01*
X127027636Y-121887681D01*
X126984955Y-121912323D01*
X126985802Y-121914139D01*
X126782417Y-122008979D01*
X126607479Y-122131471D01*
X126456471Y-122282479D01*
X126333979Y-122457417D01*
X126243724Y-122650968D01*
X126188450Y-122857255D01*
X126169837Y-123069999D01*
X126188450Y-123282744D01*
X126243724Y-123489031D01*
X126333979Y-123682582D01*
X126456471Y-123857520D01*
X126607479Y-124008528D01*
X126782417Y-124131020D01*
X126985802Y-124225861D01*
X126984955Y-124227676D01*
X127027636Y-124252319D01*
X127059729Y-124307907D01*
X127059729Y-124372093D01*
X127027636Y-124427681D01*
X126984955Y-124452323D01*
X126985802Y-124454139D01*
X126782417Y-124548979D01*
X126607479Y-124671471D01*
X126456471Y-124822479D01*
X126333979Y-124997417D01*
X126243724Y-125190968D01*
X126188450Y-125397255D01*
X126169837Y-125609999D01*
X124116094Y-125609999D01*
X124120468Y-125560000D01*
X124100635Y-125333308D01*
X124041739Y-125113504D01*
X123945568Y-124907266D01*
X123939878Y-124899140D01*
X123815046Y-124720859D01*
X123654140Y-124559953D01*
X123467735Y-124429432D01*
X123261497Y-124333261D01*
X123041689Y-124274364D01*
X122815000Y-124254531D01*
X122588310Y-124274364D01*
X122368502Y-124333261D01*
X122162264Y-124429432D01*
X121975859Y-124559953D01*
X121814953Y-124720859D01*
X121684430Y-124907267D01*
X121657105Y-124965866D01*
X121611348Y-125018041D01*
X121544723Y-125037460D01*
X121478099Y-125018040D01*
X121432342Y-124965865D01*
X121405133Y-124907515D01*
X121354025Y-124834526D01*
X120628553Y-125560000D01*
X120628553Y-125560001D01*
X119921446Y-125560001D01*
X119921446Y-125560000D01*
X119195973Y-124834526D01*
X119195973Y-124834527D01*
X119144865Y-124907516D01*
X119048733Y-125113672D01*
X118989858Y-125333397D01*
X118970033Y-125560000D01*
X118441968Y-125560000D01*
X118425635Y-125373308D01*
X118366739Y-125153504D01*
X118270568Y-124947266D01*
X118242734Y-124907515D01*
X118140046Y-124760859D01*
X117979140Y-124599953D01*
X117809217Y-124480973D01*
X119549526Y-124480973D01*
X120275000Y-125206446D01*
X120275001Y-125206446D01*
X121000472Y-124480974D01*
X121000471Y-124480972D01*
X120927484Y-124429866D01*
X120721326Y-124333733D01*
X120501602Y-124274858D01*
X120275000Y-124255033D01*
X120048397Y-124274858D01*
X119828672Y-124333733D01*
X119622516Y-124429865D01*
X119549527Y-124480973D01*
X119549526Y-124480973D01*
X117809217Y-124480973D01*
X117792735Y-124469432D01*
X117586497Y-124373261D01*
X117366689Y-124314364D01*
X117140000Y-124294531D01*
X116913310Y-124314364D01*
X116693502Y-124373261D01*
X116487264Y-124469432D01*
X116300859Y-124599953D01*
X116139953Y-124760859D01*
X116009433Y-124947263D01*
X115982382Y-125005275D01*
X115936625Y-125057450D01*
X115870000Y-125076869D01*
X115803375Y-125057450D01*
X115757618Y-125005275D01*
X115739241Y-124965866D01*
X115730568Y-124947266D01*
X115696870Y-124899140D01*
X115600046Y-124760859D01*
X115439140Y-124599953D01*
X115252735Y-124469432D01*
X115046497Y-124373261D01*
X114826689Y-124314364D01*
X114600000Y-124294531D01*
X114373310Y-124314364D01*
X114153502Y-124373261D01*
X113947264Y-124469432D01*
X113760859Y-124599953D01*
X113599953Y-124760859D01*
X113469432Y-124947264D01*
X113373261Y-125153502D01*
X113314364Y-125373310D01*
X113294531Y-125600000D01*
X111404121Y-125600000D01*
X111426739Y-125551496D01*
X111485635Y-125331692D01*
X111505468Y-125105000D01*
X111485635Y-124878308D01*
X111426739Y-124658504D01*
X111330568Y-124452266D01*
X111314883Y-124429866D01*
X111200046Y-124265859D01*
X111039140Y-124104953D01*
X110852735Y-123974432D01*
X110646497Y-123878261D01*
X110426689Y-123819364D01*
X110200000Y-123799531D01*
X109973310Y-123819364D01*
X109753502Y-123878261D01*
X109547264Y-123974432D01*
X109360859Y-124104953D01*
X109199953Y-124265859D01*
X109069432Y-124452264D01*
X108973261Y-124658502D01*
X108914364Y-124878310D01*
X108894531Y-125105000D01*
X108914364Y-125331689D01*
X108973261Y-125551497D01*
X109069432Y-125757735D01*
X109199953Y-125944140D01*
X109360859Y-126105046D01*
X109514291Y-126212479D01*
X109547266Y-126235568D01*
X109605273Y-126262617D01*
X109657449Y-126308373D01*
X109676869Y-126374997D01*
X109657451Y-126441622D01*
X109605276Y-126487380D01*
X109547266Y-126514431D01*
X109360859Y-126644953D01*
X109199953Y-126805859D01*
X109069432Y-126992264D01*
X108973261Y-127198502D01*
X108914364Y-127418310D01*
X108894531Y-127645000D01*
X99000500Y-127645000D01*
X99000500Y-122560000D01*
X114689531Y-122560000D01*
X114709364Y-122786689D01*
X114768261Y-123006497D01*
X114864432Y-123212735D01*
X114994953Y-123399140D01*
X115155859Y-123560046D01*
X115342264Y-123690567D01*
X115342265Y-123690567D01*
X115342266Y-123690568D01*
X115548504Y-123786739D01*
X115768308Y-123845635D01*
X115995000Y-123865468D01*
X116221692Y-123845635D01*
X116441496Y-123786739D01*
X116647734Y-123690568D01*
X116834139Y-123560047D01*
X116995047Y-123399139D01*
X117125568Y-123212734D01*
X117221739Y-123006496D01*
X117280635Y-122786692D01*
X117300468Y-122560000D01*
X117298718Y-122540000D01*
X120369837Y-122540000D01*
X120388450Y-122752744D01*
X120443724Y-122959031D01*
X120533979Y-123152582D01*
X120656471Y-123327520D01*
X120807479Y-123478528D01*
X120982417Y-123601020D01*
X120982418Y-123601020D01*
X120982419Y-123601021D01*
X121175970Y-123691276D01*
X121382253Y-123746549D01*
X121595000Y-123765162D01*
X121807747Y-123746549D01*
X122014030Y-123691276D01*
X122207581Y-123601021D01*
X122382519Y-123478529D01*
X122533529Y-123327519D01*
X122656021Y-123152581D01*
X122746276Y-122959030D01*
X122801549Y-122752747D01*
X122820162Y-122540000D01*
X122801549Y-122327253D01*
X122746276Y-122120970D01*
X122656021Y-121927419D01*
X122646722Y-121914139D01*
X122533528Y-121752479D01*
X122382520Y-121601471D01*
X122207582Y-121478979D01*
X122004198Y-121384139D01*
X122005044Y-121382323D01*
X121962353Y-121357669D01*
X121930266Y-121302076D01*
X121930275Y-121237888D01*
X121962378Y-121182304D01*
X122005045Y-121157679D01*
X122004198Y-121155861D01*
X122065121Y-121127451D01*
X122207581Y-121061021D01*
X122382519Y-120938529D01*
X122533529Y-120787519D01*
X122656021Y-120612581D01*
X122746276Y-120419030D01*
X122801549Y-120212747D01*
X122820162Y-120000000D01*
X122801549Y-119787253D01*
X122746276Y-119580970D01*
X122656021Y-119387419D01*
X122623530Y-119341017D01*
X122533528Y-119212479D01*
X122382520Y-119061471D01*
X122207582Y-118938979D01*
X122004198Y-118844139D01*
X122004934Y-118842559D01*
X121998816Y-118839026D01*
X128269526Y-118839026D01*
X128342515Y-118890133D01*
X128548673Y-118986266D01*
X128768397Y-119045141D01*
X128995000Y-119064966D01*
X129221602Y-119045141D01*
X129441326Y-118986266D01*
X129647480Y-118890134D01*
X129720472Y-118839025D01*
X128995001Y-118113553D01*
X128995000Y-118113553D01*
X128269526Y-118839025D01*
X128269526Y-118839026D01*
X121998816Y-118839026D01*
X121961389Y-118817413D01*
X121929300Y-118761822D01*
X121929307Y-118697634D01*
X121961407Y-118642049D01*
X122004782Y-118617012D01*
X122004026Y-118615389D01*
X122207325Y-118520589D01*
X122263030Y-118481583D01*
X121595001Y-117813553D01*
X121595000Y-117813553D01*
X120926967Y-118481583D01*
X120982670Y-118520587D01*
X121185974Y-118615389D01*
X121185217Y-118617011D01*
X121228594Y-118642051D01*
X121260693Y-118697634D01*
X121260699Y-118761821D01*
X121228612Y-118817411D01*
X121185065Y-118842559D01*
X121185802Y-118844139D01*
X120982417Y-118938979D01*
X120807479Y-119061471D01*
X120656471Y-119212479D01*
X120533979Y-119387417D01*
X120443724Y-119580968D01*
X120388450Y-119787255D01*
X120369837Y-119999999D01*
X120388450Y-120212744D01*
X120443724Y-120419031D01*
X120533979Y-120612582D01*
X120656471Y-120787520D01*
X120807479Y-120938528D01*
X120982417Y-121061020D01*
X121185802Y-121155861D01*
X121184954Y-121157678D01*
X121227623Y-121182306D01*
X121259724Y-121237889D01*
X121259733Y-121302075D01*
X121227648Y-121357667D01*
X121184955Y-121382324D01*
X121185802Y-121384139D01*
X120982417Y-121478979D01*
X120807479Y-121601471D01*
X120656471Y-121752479D01*
X120533979Y-121927417D01*
X120443724Y-122120968D01*
X120388450Y-122327255D01*
X120369837Y-122540000D01*
X117298718Y-122540000D01*
X117280635Y-122333308D01*
X117221739Y-122113504D01*
X117125568Y-121907266D01*
X117111792Y-121887592D01*
X116995046Y-121720859D01*
X116834140Y-121559953D01*
X116647735Y-121429432D01*
X116441497Y-121333261D01*
X116221689Y-121274364D01*
X115995000Y-121254531D01*
X115768310Y-121274364D01*
X115548502Y-121333261D01*
X115342264Y-121429432D01*
X115155859Y-121559953D01*
X114994953Y-121720859D01*
X114864432Y-121907264D01*
X114768261Y-122113502D01*
X114709364Y-122333310D01*
X114689531Y-122560000D01*
X99000500Y-122560000D01*
X99000500Y-120035000D01*
X109699538Y-120035000D01*
X109719337Y-120236031D01*
X109778305Y-120430424D01*
X109781772Y-120487887D01*
X109767249Y-120521457D01*
X109710909Y-120672514D01*
X109710909Y-120672517D01*
X109707281Y-120706266D01*
X109704500Y-120732130D01*
X109704500Y-121877869D01*
X109708892Y-121918724D01*
X109710909Y-121937483D01*
X109761204Y-122072331D01*
X109847454Y-122187546D01*
X109962669Y-122273796D01*
X110097517Y-122324091D01*
X110157127Y-122330500D01*
X111752872Y-122330499D01*
X111812483Y-122324091D01*
X111947331Y-122273796D01*
X112062546Y-122187546D01*
X112148796Y-122072331D01*
X112199091Y-121937483D01*
X112205500Y-121877873D01*
X112205499Y-120732128D01*
X112199091Y-120672517D01*
X112148796Y-120537669D01*
X112148795Y-120537668D01*
X112142751Y-120521462D01*
X112128227Y-120487894D01*
X112131693Y-120430424D01*
X112132019Y-120429347D01*
X112132023Y-120429341D01*
X112190662Y-120236033D01*
X112210462Y-120035000D01*
X112190662Y-119833967D01*
X112132023Y-119640659D01*
X112036798Y-119462506D01*
X112036797Y-119462504D01*
X112034348Y-119457923D01*
X112019706Y-119399470D01*
X112034348Y-119341016D01*
X112131558Y-119159149D01*
X112175285Y-119015000D01*
X111292315Y-119015000D01*
X111280161Y-119014403D01*
X111230380Y-119009500D01*
X110679620Y-119009500D01*
X110629839Y-119014403D01*
X110617685Y-119015000D01*
X109734715Y-119015000D01*
X109778442Y-119159152D01*
X109875651Y-119341017D01*
X109890293Y-119399470D01*
X109875651Y-119457923D01*
X109777978Y-119640656D01*
X109719337Y-119833968D01*
X109699538Y-120035000D01*
X99000500Y-120035000D01*
X99000500Y-118639026D01*
X115269526Y-118639026D01*
X115342515Y-118690133D01*
X115548673Y-118786266D01*
X115768397Y-118845141D01*
X115995000Y-118864966D01*
X116221602Y-118845141D01*
X116441326Y-118786266D01*
X116647480Y-118690134D01*
X116720472Y-118639025D01*
X115995001Y-117913553D01*
X115995000Y-117913553D01*
X115269526Y-118639025D01*
X115269526Y-118639026D01*
X99000500Y-118639026D01*
X99000500Y-118515000D01*
X109734715Y-118515000D01*
X110705000Y-118515000D01*
X110705000Y-117740000D01*
X111205000Y-117740000D01*
X111205000Y-118515000D01*
X112175285Y-118515000D01*
X112131558Y-118370849D01*
X112036379Y-118192784D01*
X111908292Y-118036707D01*
X111752215Y-117908620D01*
X111574151Y-117813442D01*
X111380932Y-117754829D01*
X111230361Y-117740000D01*
X111205000Y-117740000D01*
X110705000Y-117740000D01*
X110679639Y-117740000D01*
X110529067Y-117754829D01*
X110335848Y-117813442D01*
X110157784Y-117908620D01*
X110001707Y-118036707D01*
X109873620Y-118192784D01*
X109778441Y-118370849D01*
X109734715Y-118515000D01*
X99000500Y-118515000D01*
X99000500Y-117559999D01*
X114690033Y-117559999D01*
X114709858Y-117786602D01*
X114768733Y-118006326D01*
X114864866Y-118212484D01*
X114915972Y-118285471D01*
X114915974Y-118285472D01*
X115641446Y-117560001D01*
X116348553Y-117560001D01*
X117074025Y-118285472D01*
X117125134Y-118212480D01*
X117221266Y-118006326D01*
X117280141Y-117786602D01*
X117299966Y-117559999D01*
X117291217Y-117460000D01*
X120370339Y-117460000D01*
X120388944Y-117672657D01*
X120444197Y-117878861D01*
X120534410Y-118072326D01*
X120573415Y-118128030D01*
X120573416Y-118128031D01*
X121241447Y-117460001D01*
X121948553Y-117460001D01*
X122616583Y-118128030D01*
X122655589Y-118072325D01*
X122745802Y-117878861D01*
X122777651Y-117760000D01*
X127690033Y-117760000D01*
X127709858Y-117986602D01*
X127768733Y-118206326D01*
X127864866Y-118412484D01*
X127915972Y-118485471D01*
X127915973Y-118485472D01*
X128641446Y-117760000D01*
X128641446Y-117759999D01*
X129348553Y-117759999D01*
X130074025Y-118485472D01*
X130125134Y-118412480D01*
X130221266Y-118206326D01*
X130280141Y-117986602D01*
X130299966Y-117760000D01*
X130280141Y-117533397D01*
X130221266Y-117313673D01*
X130125133Y-117107515D01*
X130074025Y-117034526D01*
X129348553Y-117759998D01*
X129348553Y-117759999D01*
X128641446Y-117759999D01*
X128641446Y-117759998D01*
X127915973Y-117034527D01*
X127864865Y-117107516D01*
X127768733Y-117313672D01*
X127709858Y-117533397D01*
X127690033Y-117760000D01*
X122777651Y-117760000D01*
X122801055Y-117672657D01*
X122819660Y-117460000D01*
X122801055Y-117247342D01*
X122745802Y-117041138D01*
X122655587Y-116847670D01*
X122616583Y-116791967D01*
X121948553Y-117460000D01*
X121948553Y-117460001D01*
X121241447Y-117460001D01*
X121241447Y-117460000D01*
X120573414Y-116791967D01*
X120534411Y-116847672D01*
X120444197Y-117041138D01*
X120388944Y-117247342D01*
X120370339Y-117460000D01*
X117291217Y-117460000D01*
X117280141Y-117333397D01*
X117221266Y-117113673D01*
X117125133Y-116907515D01*
X117074025Y-116834526D01*
X116348553Y-117560000D01*
X116348553Y-117560001D01*
X115641446Y-117560001D01*
X115641446Y-117560000D01*
X114915973Y-116834526D01*
X114915973Y-116834527D01*
X114864865Y-116907516D01*
X114768733Y-117113672D01*
X114709858Y-117333397D01*
X114690033Y-117559999D01*
X99000500Y-117559999D01*
X99000500Y-116480973D01*
X115269526Y-116480973D01*
X115995000Y-117206446D01*
X115995001Y-117206446D01*
X116720472Y-116480974D01*
X116720471Y-116480972D01*
X116659692Y-116438414D01*
X120926967Y-116438414D01*
X121595000Y-117106447D01*
X121595001Y-117106447D01*
X122020474Y-116680973D01*
X128269526Y-116680973D01*
X128995000Y-117406446D01*
X128995001Y-117406446D01*
X129720472Y-116680974D01*
X129720471Y-116680972D01*
X129647484Y-116629866D01*
X129441326Y-116533733D01*
X129221602Y-116474858D01*
X128995000Y-116455033D01*
X128768397Y-116474858D01*
X128548672Y-116533733D01*
X128342516Y-116629865D01*
X128269527Y-116680973D01*
X128269526Y-116680973D01*
X122020474Y-116680973D01*
X122263031Y-116438416D01*
X122263030Y-116438415D01*
X122207326Y-116399410D01*
X122013861Y-116309197D01*
X121807657Y-116253944D01*
X121595000Y-116235339D01*
X121382342Y-116253944D01*
X121176138Y-116309197D01*
X120982672Y-116399411D01*
X120926967Y-116438414D01*
X116659692Y-116438414D01*
X116647484Y-116429866D01*
X116441326Y-116333733D01*
X116221602Y-116274858D01*
X115995000Y-116255033D01*
X115768397Y-116274858D01*
X115548672Y-116333733D01*
X115342516Y-116429865D01*
X115269527Y-116480973D01*
X115269526Y-116480973D01*
X99000500Y-116480973D01*
X99000500Y-111410000D01*
X101489699Y-111410000D01*
X101508865Y-111641299D01*
X101508865Y-111641301D01*
X101508866Y-111641305D01*
X101542173Y-111772830D01*
X101565844Y-111866303D01*
X101609753Y-111966404D01*
X101659076Y-112078849D01*
X101786021Y-112273153D01*
X101880803Y-112376114D01*
X101909575Y-112428865D01*
X101910168Y-112488951D01*
X101882441Y-112542261D01*
X101832906Y-112576276D01*
X101752671Y-112606202D01*
X101637454Y-112692454D01*
X101551204Y-112807668D01*
X101500909Y-112942515D01*
X101500909Y-112942517D01*
X101495790Y-112990134D01*
X101494500Y-113002130D01*
X101494500Y-114897869D01*
X101500909Y-114957483D01*
X101551204Y-115092331D01*
X101637454Y-115207546D01*
X101752669Y-115293796D01*
X101887517Y-115344091D01*
X101947127Y-115350500D01*
X103842872Y-115350499D01*
X103902483Y-115344091D01*
X104037331Y-115293796D01*
X104152546Y-115207546D01*
X104238796Y-115092331D01*
X104289091Y-114957483D01*
X104295500Y-114897873D01*
X104295499Y-113885000D01*
X123120000Y-113885000D01*
X123120000Y-114532824D01*
X123126402Y-114592375D01*
X123176647Y-114727089D01*
X123262811Y-114842188D01*
X123377910Y-114928352D01*
X123512624Y-114978597D01*
X123572176Y-114985000D01*
X124220000Y-114985000D01*
X124220000Y-113885000D01*
X124720000Y-113885000D01*
X124720000Y-114985000D01*
X125367824Y-114985000D01*
X125427375Y-114978597D01*
X125562089Y-114928352D01*
X125677188Y-114842188D01*
X125763352Y-114727089D01*
X125813597Y-114592375D01*
X125820000Y-114532824D01*
X125820000Y-113885000D01*
X124720000Y-113885000D01*
X124220000Y-113885000D01*
X123120000Y-113885000D01*
X104295499Y-113885000D01*
X104295499Y-113002128D01*
X104289091Y-112942517D01*
X104238796Y-112807669D01*
X104152546Y-112692454D01*
X104037331Y-112606204D01*
X103984357Y-112586446D01*
X103957093Y-112576277D01*
X103907558Y-112542261D01*
X103879831Y-112488951D01*
X103880424Y-112428864D01*
X103909196Y-112376114D01*
X104003979Y-112273153D01*
X104130924Y-112078849D01*
X104224157Y-111866300D01*
X104281134Y-111641305D01*
X104300300Y-111410000D01*
X104281134Y-111178695D01*
X104259939Y-111095000D01*
X123114340Y-111095000D01*
X123134936Y-111330407D01*
X123169963Y-111461129D01*
X123196097Y-111558663D01*
X123295965Y-111772830D01*
X123431505Y-111966401D01*
X123431508Y-111966404D01*
X123553818Y-112088714D01*
X123585114Y-112141460D01*
X123587303Y-112202753D01*
X123559850Y-112257597D01*
X123509472Y-112292576D01*
X123377913Y-112341646D01*
X123262811Y-112427811D01*
X123176647Y-112542910D01*
X123126402Y-112677624D01*
X123120000Y-112737176D01*
X123120000Y-113385000D01*
X125820000Y-113385000D01*
X125820000Y-112760000D01*
X127689531Y-112760000D01*
X127709364Y-112986689D01*
X127768261Y-113206497D01*
X127864432Y-113412735D01*
X127994953Y-113599140D01*
X128155859Y-113760046D01*
X128342264Y-113890567D01*
X128342265Y-113890567D01*
X128342266Y-113890568D01*
X128548504Y-113986739D01*
X128768308Y-114045635D01*
X128995000Y-114065468D01*
X129221692Y-114045635D01*
X129441496Y-113986739D01*
X129647734Y-113890568D01*
X129834139Y-113760047D01*
X129995047Y-113599139D01*
X130125568Y-113412734D01*
X130221739Y-113206496D01*
X130280635Y-112986692D01*
X130300468Y-112760000D01*
X130295907Y-112707873D01*
X130288365Y-112621666D01*
X130280635Y-112533308D01*
X130221739Y-112313504D01*
X130125568Y-112107266D01*
X130112577Y-112088713D01*
X129995046Y-111920859D01*
X129934187Y-111860000D01*
X131339531Y-111860000D01*
X131359364Y-112086689D01*
X131418261Y-112306497D01*
X131514432Y-112512735D01*
X131644953Y-112699140D01*
X131805859Y-112860046D01*
X131992264Y-112990567D01*
X131992265Y-112990567D01*
X131992266Y-112990568D01*
X132198504Y-113086739D01*
X132418308Y-113145635D01*
X132645000Y-113165468D01*
X132871692Y-113145635D01*
X133091496Y-113086739D01*
X133297734Y-112990568D01*
X133484139Y-112860047D01*
X133645047Y-112699139D01*
X133775568Y-112512734D01*
X133802893Y-112454134D01*
X133848649Y-112401959D01*
X133915274Y-112382539D01*
X133981899Y-112401958D01*
X134027657Y-112454133D01*
X134054866Y-112512482D01*
X134185341Y-112698819D01*
X134346180Y-112859658D01*
X134532519Y-112990134D01*
X134738673Y-113086266D01*
X134934999Y-113138871D01*
X134935000Y-113138872D01*
X134935000Y-113138871D01*
X135435000Y-113138871D01*
X135631326Y-113086266D01*
X135837480Y-112990134D01*
X136023819Y-112859658D01*
X136184658Y-112698819D01*
X136315135Y-112512479D01*
X136342342Y-112454135D01*
X136388098Y-112401959D01*
X136454723Y-112382539D01*
X136521348Y-112401958D01*
X136567105Y-112454132D01*
X136594432Y-112512733D01*
X136594433Y-112512736D01*
X136724953Y-112699140D01*
X136885859Y-112860046D01*
X137072264Y-112990567D01*
X137072265Y-112990567D01*
X137072266Y-112990568D01*
X137278504Y-113086739D01*
X137498308Y-113145635D01*
X137725000Y-113165468D01*
X137951692Y-113145635D01*
X138171496Y-113086739D01*
X138377734Y-112990568D01*
X138564139Y-112860047D01*
X138725047Y-112699139D01*
X138855568Y-112512734D01*
X138882618Y-112454724D01*
X138928375Y-112402549D01*
X138995000Y-112383129D01*
X139061625Y-112402549D01*
X139107382Y-112454725D01*
X139134431Y-112512733D01*
X139264953Y-112699140D01*
X139425859Y-112860046D01*
X139612264Y-112990567D01*
X139612265Y-112990567D01*
X139612266Y-112990568D01*
X139818504Y-113086739D01*
X140038308Y-113145635D01*
X140265000Y-113165468D01*
X140491692Y-113145635D01*
X140711496Y-113086739D01*
X140917734Y-112990568D01*
X141104139Y-112860047D01*
X141265047Y-112699139D01*
X141395568Y-112512734D01*
X141422618Y-112454724D01*
X141468375Y-112402549D01*
X141535000Y-112383129D01*
X141601625Y-112402549D01*
X141647382Y-112454725D01*
X141674431Y-112512733D01*
X141804953Y-112699140D01*
X141965859Y-112860046D01*
X142152264Y-112990567D01*
X142152265Y-112990567D01*
X142152266Y-112990568D01*
X142358504Y-113086739D01*
X142578308Y-113145635D01*
X142805000Y-113165468D01*
X143031692Y-113145635D01*
X143251496Y-113086739D01*
X143457734Y-112990568D01*
X143644139Y-112860047D01*
X143805047Y-112699139D01*
X143935568Y-112512734D01*
X143962618Y-112454724D01*
X144008375Y-112402549D01*
X144075000Y-112383129D01*
X144141625Y-112402549D01*
X144187382Y-112454725D01*
X144214431Y-112512733D01*
X144344953Y-112699140D01*
X144505859Y-112860046D01*
X144692264Y-112990567D01*
X144692265Y-112990567D01*
X144692266Y-112990568D01*
X144898504Y-113086739D01*
X145118308Y-113145635D01*
X145345000Y-113165468D01*
X145571692Y-113145635D01*
X145791496Y-113086739D01*
X145997734Y-112990568D01*
X146184139Y-112860047D01*
X146345047Y-112699139D01*
X146362273Y-112674536D01*
X146407113Y-112635400D01*
X146465027Y-112621666D01*
X146522669Y-112636499D01*
X146566758Y-112676483D01*
X146587138Y-112732405D01*
X146590909Y-112767483D01*
X146641204Y-112902331D01*
X146727454Y-113017546D01*
X146842669Y-113103796D01*
X146977517Y-113154091D01*
X147037127Y-113160500D01*
X148732872Y-113160499D01*
X148792483Y-113154091D01*
X148927331Y-113103796D01*
X149042546Y-113017546D01*
X149128796Y-112902331D01*
X149179091Y-112767483D01*
X149185500Y-112707873D01*
X149185499Y-111012128D01*
X149179091Y-110952517D01*
X149128796Y-110817669D01*
X149042546Y-110702454D01*
X148927331Y-110616204D01*
X148792483Y-110565909D01*
X148732873Y-110559500D01*
X148732869Y-110559500D01*
X147037130Y-110559500D01*
X146977515Y-110565909D01*
X146842669Y-110616204D01*
X146727454Y-110702454D01*
X146641204Y-110817668D01*
X146590909Y-110952516D01*
X146587138Y-110987593D01*
X146566759Y-111043515D01*
X146522670Y-111083498D01*
X146465029Y-111098332D01*
X146407116Y-111084599D01*
X146362273Y-111045462D01*
X146345044Y-111020857D01*
X146184140Y-110859953D01*
X145997735Y-110729432D01*
X145791497Y-110633261D01*
X145571689Y-110574364D01*
X145345000Y-110554531D01*
X145118310Y-110574364D01*
X144898502Y-110633261D01*
X144692264Y-110729432D01*
X144505859Y-110859953D01*
X144344953Y-111020859D01*
X144214433Y-111207263D01*
X144187382Y-111265275D01*
X144141625Y-111317450D01*
X144075000Y-111336869D01*
X144008375Y-111317450D01*
X143962618Y-111265275D01*
X143935687Y-111207522D01*
X143935568Y-111207266D01*
X143915563Y-111178695D01*
X143805046Y-111020859D01*
X143644140Y-110859953D01*
X143457735Y-110729432D01*
X143251497Y-110633261D01*
X143031689Y-110574364D01*
X142805000Y-110554531D01*
X142578310Y-110574364D01*
X142358502Y-110633261D01*
X142152264Y-110729432D01*
X141965859Y-110859953D01*
X141804953Y-111020859D01*
X141674433Y-111207263D01*
X141647382Y-111265275D01*
X141601625Y-111317450D01*
X141535000Y-111336869D01*
X141468375Y-111317450D01*
X141422618Y-111265275D01*
X141395687Y-111207522D01*
X141395568Y-111207266D01*
X141375563Y-111178695D01*
X141265046Y-111020859D01*
X141104140Y-110859953D01*
X140917735Y-110729432D01*
X140711497Y-110633261D01*
X140491689Y-110574364D01*
X140265000Y-110554531D01*
X140038310Y-110574364D01*
X139818502Y-110633261D01*
X139612264Y-110729432D01*
X139425859Y-110859953D01*
X139264953Y-111020859D01*
X139134433Y-111207263D01*
X139107382Y-111265275D01*
X139061625Y-111317450D01*
X138995000Y-111336869D01*
X138928375Y-111317450D01*
X138882618Y-111265275D01*
X138855687Y-111207522D01*
X138855568Y-111207266D01*
X138835563Y-111178695D01*
X138725046Y-111020859D01*
X138564140Y-110859953D01*
X138377735Y-110729432D01*
X138171497Y-110633261D01*
X137951689Y-110574364D01*
X137725000Y-110554531D01*
X137498310Y-110574364D01*
X137278502Y-110633261D01*
X137072264Y-110729432D01*
X136885859Y-110859953D01*
X136724953Y-111020859D01*
X136594430Y-111207267D01*
X136567105Y-111265866D01*
X136521348Y-111318041D01*
X136454723Y-111337460D01*
X136388099Y-111318040D01*
X136342342Y-111265865D01*
X136315134Y-111207519D01*
X136184658Y-111021180D01*
X136023819Y-110860341D01*
X135837480Y-110729865D01*
X135631326Y-110633733D01*
X135435000Y-110581128D01*
X135435000Y-113138871D01*
X134935000Y-113138871D01*
X134935000Y-110581128D01*
X134934999Y-110581128D01*
X134738673Y-110633733D01*
X134532519Y-110729865D01*
X134346180Y-110860341D01*
X134185341Y-111021180D01*
X134054863Y-111207522D01*
X134027656Y-111265866D01*
X133981899Y-111318041D01*
X133915274Y-111337460D01*
X133848650Y-111318040D01*
X133802893Y-111265865D01*
X133775567Y-111207264D01*
X133645046Y-111020859D01*
X133484140Y-110859953D01*
X133297735Y-110729432D01*
X133091497Y-110633261D01*
X132871689Y-110574364D01*
X132645000Y-110554531D01*
X132418310Y-110574364D01*
X132198502Y-110633261D01*
X131992264Y-110729432D01*
X131805859Y-110859953D01*
X131644953Y-111020859D01*
X131514432Y-111207264D01*
X131418261Y-111413502D01*
X131359364Y-111633310D01*
X131339531Y-111860000D01*
X129934187Y-111860000D01*
X129834140Y-111759953D01*
X129647735Y-111629432D01*
X129441497Y-111533261D01*
X129221689Y-111474364D01*
X128995000Y-111454531D01*
X128768310Y-111474364D01*
X128548502Y-111533261D01*
X128342264Y-111629432D01*
X128155859Y-111759953D01*
X127994953Y-111920859D01*
X127864432Y-112107264D01*
X127768261Y-112313502D01*
X127709364Y-112533310D01*
X127689531Y-112760000D01*
X125820000Y-112760000D01*
X125820000Y-112737176D01*
X125813597Y-112677624D01*
X125763352Y-112542910D01*
X125677188Y-112427811D01*
X125562088Y-112341647D01*
X125430528Y-112292577D01*
X125380149Y-112257597D01*
X125352696Y-112202752D01*
X125354885Y-112141460D01*
X125386178Y-112088717D01*
X125508495Y-111966401D01*
X125644035Y-111772830D01*
X125743903Y-111558663D01*
X125805063Y-111330408D01*
X125825659Y-111095000D01*
X125818408Y-111012128D01*
X125805063Y-110859592D01*
X125770187Y-110729432D01*
X125743903Y-110631337D01*
X125644035Y-110417171D01*
X125508495Y-110223599D01*
X125341401Y-110056505D01*
X125147830Y-109920965D01*
X124933663Y-109821097D01*
X124872501Y-109804709D01*
X124705407Y-109759936D01*
X124470000Y-109739340D01*
X124234592Y-109759936D01*
X124006336Y-109821097D01*
X123792170Y-109920965D01*
X123598598Y-110056505D01*
X123431505Y-110223598D01*
X123295965Y-110417170D01*
X123196097Y-110631336D01*
X123134936Y-110859592D01*
X123114340Y-111095000D01*
X104259939Y-111095000D01*
X104224157Y-110953700D01*
X104130924Y-110741151D01*
X104003979Y-110546847D01*
X103846784Y-110376087D01*
X103663626Y-110233530D01*
X103459503Y-110123064D01*
X103459499Y-110123062D01*
X103459498Y-110123062D01*
X103239984Y-110047702D01*
X103068281Y-110019050D01*
X103011049Y-110009500D01*
X102778951Y-110009500D01*
X102733164Y-110017140D01*
X102550015Y-110047702D01*
X102330501Y-110123062D01*
X102126372Y-110233531D01*
X101943215Y-110376087D01*
X101786020Y-110546848D01*
X101659076Y-110741150D01*
X101565844Y-110953696D01*
X101565842Y-110953700D01*
X101565843Y-110953700D01*
X101532974Y-111083498D01*
X101508865Y-111178700D01*
X101489699Y-111410000D01*
X99000500Y-111410000D01*
X99000500Y-106244999D01*
X125389531Y-106244999D01*
X125409364Y-106471689D01*
X125468261Y-106691497D01*
X125564432Y-106897735D01*
X125694953Y-107084140D01*
X125855859Y-107245046D01*
X126042264Y-107375567D01*
X126042265Y-107375567D01*
X126042266Y-107375568D01*
X126248504Y-107471739D01*
X126468308Y-107530635D01*
X126695000Y-107550468D01*
X126921692Y-107530635D01*
X127141496Y-107471739D01*
X127347734Y-107375568D01*
X127534139Y-107245047D01*
X127695047Y-107084139D01*
X127825568Y-106897734D01*
X127921739Y-106691496D01*
X127980635Y-106471692D01*
X127981658Y-106460000D01*
X130944356Y-106460000D01*
X130964891Y-106707816D01*
X130964891Y-106707819D01*
X130964892Y-106707821D01*
X131025937Y-106948881D01*
X131070960Y-107051523D01*
X131125825Y-107176604D01*
X131125827Y-107176607D01*
X131261836Y-107384785D01*
X131430256Y-107567738D01*
X131430259Y-107567740D01*
X131626485Y-107720470D01*
X131626487Y-107720471D01*
X131626491Y-107720474D01*
X131845190Y-107838828D01*
X132080386Y-107919571D01*
X132325665Y-107960500D01*
X132574335Y-107960500D01*
X132819614Y-107919571D01*
X133054810Y-107838828D01*
X133273509Y-107720474D01*
X133320872Y-107683610D01*
X141579942Y-107683610D01*
X141626766Y-107720055D01*
X141845393Y-107838368D01*
X142080506Y-107919083D01*
X142325707Y-107960000D01*
X142574293Y-107960000D01*
X142819493Y-107919083D01*
X143054606Y-107838368D01*
X143273233Y-107720053D01*
X143320056Y-107683609D01*
X142450000Y-106813553D01*
X141579942Y-107683609D01*
X141579942Y-107683610D01*
X133320872Y-107683610D01*
X133469744Y-107567738D01*
X133638164Y-107384785D01*
X133774173Y-107176607D01*
X133874063Y-106948881D01*
X133935108Y-106707821D01*
X133955643Y-106460000D01*
X133955643Y-106459999D01*
X140944858Y-106459999D01*
X140965386Y-106707732D01*
X141026413Y-106948721D01*
X141126268Y-107176370D01*
X141226563Y-107329882D01*
X141226564Y-107329882D01*
X142096447Y-106460001D01*
X142803553Y-106460001D01*
X143673434Y-107329882D01*
X143773730Y-107176369D01*
X143873586Y-106948721D01*
X143892255Y-106874999D01*
X145989531Y-106874999D01*
X146009364Y-107101689D01*
X146068261Y-107321497D01*
X146164432Y-107527735D01*
X146294953Y-107714140D01*
X146455859Y-107875046D01*
X146642264Y-108005567D01*
X146642265Y-108005567D01*
X146642266Y-108005568D01*
X146848504Y-108101739D01*
X147068308Y-108160635D01*
X147295000Y-108180468D01*
X147521692Y-108160635D01*
X147741496Y-108101739D01*
X147947734Y-108005568D01*
X148134139Y-107875047D01*
X148295047Y-107714139D01*
X148425568Y-107527734D01*
X148521739Y-107321496D01*
X148580635Y-107101692D01*
X148600468Y-106875000D01*
X148592157Y-106780000D01*
X150099531Y-106780000D01*
X150119364Y-107006689D01*
X150178261Y-107226497D01*
X150274432Y-107432735D01*
X150404953Y-107619140D01*
X150565859Y-107780046D01*
X150752264Y-107910567D01*
X150752265Y-107910567D01*
X150752266Y-107910568D01*
X150958504Y-108006739D01*
X151178308Y-108065635D01*
X151405000Y-108085468D01*
X151631692Y-108065635D01*
X151851496Y-108006739D01*
X152057734Y-107910568D01*
X152244139Y-107780047D01*
X152405047Y-107619139D01*
X152535568Y-107432734D01*
X152631739Y-107226496D01*
X152690635Y-107006692D01*
X152710468Y-106780000D01*
X152690635Y-106553308D01*
X152631739Y-106333504D01*
X152535568Y-106127266D01*
X152471566Y-106035861D01*
X152405046Y-105940859D01*
X152244140Y-105779953D01*
X152057733Y-105649431D01*
X151999725Y-105622382D01*
X151947549Y-105576625D01*
X151928129Y-105510000D01*
X151947549Y-105443375D01*
X151999725Y-105397618D01*
X152057734Y-105370568D01*
X152244139Y-105240047D01*
X152405047Y-105079139D01*
X152535568Y-104892734D01*
X152631739Y-104686496D01*
X152690635Y-104466692D01*
X152710468Y-104240000D01*
X152690635Y-104013308D01*
X152631739Y-103793504D01*
X152535568Y-103587266D01*
X152471566Y-103495861D01*
X152405046Y-103400859D01*
X152244140Y-103239953D01*
X152057735Y-103109432D01*
X151851497Y-103013261D01*
X151631689Y-102954364D01*
X151405000Y-102934531D01*
X151178310Y-102954364D01*
X150958502Y-103013261D01*
X150752264Y-103109432D01*
X150565859Y-103239953D01*
X150404953Y-103400859D01*
X150274432Y-103587264D01*
X150178261Y-103793502D01*
X150119364Y-104013310D01*
X150099531Y-104240000D01*
X150119364Y-104466689D01*
X150178261Y-104686497D01*
X150274432Y-104892735D01*
X150404953Y-105079140D01*
X150565859Y-105240046D01*
X150701535Y-105335046D01*
X150752266Y-105370568D01*
X150810275Y-105397618D01*
X150862450Y-105443375D01*
X150881869Y-105510000D01*
X150862450Y-105576625D01*
X150810275Y-105622382D01*
X150752263Y-105649433D01*
X150565859Y-105779953D01*
X150404953Y-105940859D01*
X150274432Y-106127264D01*
X150178261Y-106333502D01*
X150119364Y-106553310D01*
X150099531Y-106780000D01*
X148592157Y-106780000D01*
X148580635Y-106648308D01*
X148521739Y-106428504D01*
X148425568Y-106222266D01*
X148359047Y-106127264D01*
X148295046Y-106035859D01*
X148134140Y-105874953D01*
X147947733Y-105744431D01*
X147889725Y-105717382D01*
X147837549Y-105671625D01*
X147818129Y-105605000D01*
X147837549Y-105538375D01*
X147889725Y-105492618D01*
X147947734Y-105465568D01*
X148134139Y-105335047D01*
X148295047Y-105174139D01*
X148425568Y-104987734D01*
X148521739Y-104781496D01*
X148580635Y-104561692D01*
X148600468Y-104335000D01*
X148580635Y-104108308D01*
X148521739Y-103888504D01*
X148425568Y-103682266D01*
X148359047Y-103587264D01*
X148295046Y-103495859D01*
X148134140Y-103334953D01*
X147947735Y-103204432D01*
X147741497Y-103108261D01*
X147521689Y-103049364D01*
X147295000Y-103029531D01*
X147068310Y-103049364D01*
X146848502Y-103108261D01*
X146642264Y-103204432D01*
X146455859Y-103334953D01*
X146294953Y-103495859D01*
X146164432Y-103682264D01*
X146068261Y-103888502D01*
X146009364Y-104108310D01*
X145989531Y-104334999D01*
X146009364Y-104561689D01*
X146068261Y-104781497D01*
X146164432Y-104987735D01*
X146294953Y-105174140D01*
X146455859Y-105335046D01*
X146610571Y-105443375D01*
X146642266Y-105465568D01*
X146700275Y-105492618D01*
X146752450Y-105538375D01*
X146771869Y-105605000D01*
X146752450Y-105671625D01*
X146700275Y-105717382D01*
X146642263Y-105744433D01*
X146455859Y-105874953D01*
X146294953Y-106035859D01*
X146164432Y-106222264D01*
X146068261Y-106428502D01*
X146009364Y-106648310D01*
X145989531Y-106874999D01*
X143892255Y-106874999D01*
X143934613Y-106707732D01*
X143955141Y-106459999D01*
X143934613Y-106212267D01*
X143873586Y-105971278D01*
X143773730Y-105743630D01*
X143673434Y-105590116D01*
X142803553Y-106460000D01*
X142803553Y-106460001D01*
X142096447Y-106460001D01*
X142096447Y-106460000D01*
X141226564Y-105590116D01*
X141126266Y-105743634D01*
X141026413Y-105971278D01*
X140965386Y-106212267D01*
X140944858Y-106459999D01*
X133955643Y-106459999D01*
X133935108Y-106212179D01*
X133874063Y-105971119D01*
X133774173Y-105743393D01*
X133638164Y-105535215D01*
X133469744Y-105352262D01*
X133331874Y-105244953D01*
X133320872Y-105236390D01*
X141579942Y-105236390D01*
X142450000Y-106106447D01*
X142450001Y-106106447D01*
X143320057Y-105236390D01*
X143320056Y-105236388D01*
X143273235Y-105199947D01*
X143054606Y-105081631D01*
X142819493Y-105000916D01*
X142574293Y-104960000D01*
X142325707Y-104960000D01*
X142080506Y-105000916D01*
X141845393Y-105081631D01*
X141626764Y-105199946D01*
X141579942Y-105236388D01*
X141579942Y-105236390D01*
X133320872Y-105236390D01*
X133273514Y-105199529D01*
X133273510Y-105199526D01*
X133273509Y-105199526D01*
X133054810Y-105081172D01*
X133054806Y-105081170D01*
X133054805Y-105081170D01*
X132819615Y-105000429D01*
X132574335Y-104959500D01*
X132325665Y-104959500D01*
X132080384Y-105000429D01*
X131845194Y-105081170D01*
X131626485Y-105199529D01*
X131430259Y-105352259D01*
X131430256Y-105352261D01*
X131430256Y-105352262D01*
X131261836Y-105535215D01*
X131250046Y-105553261D01*
X131125825Y-105743395D01*
X131025938Y-105971117D01*
X130964891Y-106212183D01*
X130944356Y-106460000D01*
X127981658Y-106460000D01*
X128000468Y-106245000D01*
X127980635Y-106018308D01*
X127921739Y-105798504D01*
X127825568Y-105592266D01*
X127814616Y-105576625D01*
X127695046Y-105405859D01*
X127534140Y-105244953D01*
X127347732Y-105114430D01*
X127289724Y-105087380D01*
X127237549Y-105041623D01*
X127218130Y-104974997D01*
X127237550Y-104908373D01*
X127289721Y-104862619D01*
X127347734Y-104835568D01*
X127534139Y-104705047D01*
X127695047Y-104544139D01*
X127825568Y-104357734D01*
X127921739Y-104151496D01*
X127980635Y-103931692D01*
X128000468Y-103705000D01*
X127980635Y-103478308D01*
X127921739Y-103258504D01*
X127825568Y-103052266D01*
X127695047Y-102865861D01*
X127695046Y-102865859D01*
X127534140Y-102704953D01*
X127347735Y-102574432D01*
X127141497Y-102478261D01*
X126921689Y-102419364D01*
X126695000Y-102399531D01*
X126468310Y-102419364D01*
X126248502Y-102478261D01*
X126042264Y-102574432D01*
X125855859Y-102704953D01*
X125694953Y-102865859D01*
X125564432Y-103052264D01*
X125468261Y-103258502D01*
X125409364Y-103478310D01*
X125389531Y-103704999D01*
X125409364Y-103931689D01*
X125468261Y-104151497D01*
X125564432Y-104357735D01*
X125694953Y-104544140D01*
X125855859Y-104705046D01*
X125965042Y-104781496D01*
X126042266Y-104835568D01*
X126100273Y-104862617D01*
X126152449Y-104908373D01*
X126171869Y-104974997D01*
X126152451Y-105041622D01*
X126100276Y-105087380D01*
X126042266Y-105114431D01*
X125855859Y-105244953D01*
X125694953Y-105405859D01*
X125564432Y-105592264D01*
X125468261Y-105798502D01*
X125409364Y-106018310D01*
X125389531Y-106244999D01*
X99000500Y-106244999D01*
X99000500Y-100799999D01*
X130894356Y-100799999D01*
X130914891Y-101047816D01*
X130914891Y-101047819D01*
X130914892Y-101047821D01*
X130975937Y-101288881D01*
X131020960Y-101391523D01*
X131075825Y-101516604D01*
X131075827Y-101516607D01*
X131211836Y-101724785D01*
X131380256Y-101907738D01*
X131380259Y-101907740D01*
X131576485Y-102060470D01*
X131576487Y-102060471D01*
X131576491Y-102060474D01*
X131795190Y-102178828D01*
X132030386Y-102259571D01*
X132275665Y-102300500D01*
X132524335Y-102300500D01*
X132769614Y-102259571D01*
X133004810Y-102178828D01*
X133223509Y-102060474D01*
X133419744Y-101907738D01*
X133588164Y-101724785D01*
X133724173Y-101516607D01*
X133824063Y-101288881D01*
X133885108Y-101047821D01*
X133905643Y-100800000D01*
X133905643Y-100799999D01*
X140894356Y-100799999D01*
X140914891Y-101047816D01*
X140914891Y-101047819D01*
X140914892Y-101047821D01*
X140975937Y-101288881D01*
X141020960Y-101391523D01*
X141075825Y-101516604D01*
X141075827Y-101516607D01*
X141211836Y-101724785D01*
X141380256Y-101907738D01*
X141380259Y-101907740D01*
X141576485Y-102060470D01*
X141576487Y-102060471D01*
X141576491Y-102060474D01*
X141795190Y-102178828D01*
X142030386Y-102259571D01*
X142275665Y-102300500D01*
X142524335Y-102300500D01*
X142769614Y-102259571D01*
X143004810Y-102178828D01*
X143223509Y-102060474D01*
X143419744Y-101907738D01*
X143588164Y-101724785D01*
X143724173Y-101516607D01*
X143824063Y-101288881D01*
X143885108Y-101047821D01*
X143905643Y-100800000D01*
X143885108Y-100552179D01*
X143824063Y-100311119D01*
X143724173Y-100083393D01*
X143588164Y-99875215D01*
X143419744Y-99692262D01*
X143397612Y-99675036D01*
X143223514Y-99539529D01*
X143223510Y-99539526D01*
X143223509Y-99539526D01*
X143004810Y-99421172D01*
X143004806Y-99421170D01*
X143004805Y-99421170D01*
X142769615Y-99340429D01*
X142524335Y-99299500D01*
X142275665Y-99299500D01*
X142030384Y-99340429D01*
X141795194Y-99421170D01*
X141576485Y-99539529D01*
X141380259Y-99692259D01*
X141211837Y-99875214D01*
X141075825Y-100083395D01*
X140975938Y-100311117D01*
X140914891Y-100552183D01*
X140894356Y-100799999D01*
X133905643Y-100799999D01*
X133885108Y-100552179D01*
X133824063Y-100311119D01*
X133724173Y-100083393D01*
X133588164Y-99875215D01*
X133419744Y-99692262D01*
X133397612Y-99675036D01*
X133223514Y-99539529D01*
X133223510Y-99539526D01*
X133223509Y-99539526D01*
X133004810Y-99421172D01*
X133004806Y-99421170D01*
X133004805Y-99421170D01*
X132769615Y-99340429D01*
X132524335Y-99299500D01*
X132275665Y-99299500D01*
X132030384Y-99340429D01*
X131795194Y-99421170D01*
X131576485Y-99539529D01*
X131380259Y-99692259D01*
X131211837Y-99875214D01*
X131075825Y-100083395D01*
X130975938Y-100311117D01*
X130914891Y-100552183D01*
X130894356Y-100799999D01*
X99000500Y-100799999D01*
X99000500Y-98457869D01*
X147129500Y-98457869D01*
X147131455Y-98476053D01*
X147135909Y-98517483D01*
X147186204Y-98652331D01*
X147272454Y-98767546D01*
X147387669Y-98853796D01*
X147522517Y-98904091D01*
X147582127Y-98910500D01*
X149377872Y-98910499D01*
X149437483Y-98904091D01*
X149572331Y-98853796D01*
X149687546Y-98767546D01*
X149773796Y-98652331D01*
X149823003Y-98520398D01*
X149857981Y-98470021D01*
X149912826Y-98442568D01*
X149974119Y-98444757D01*
X150026865Y-98476053D01*
X150148918Y-98598106D01*
X150342423Y-98733600D01*
X150556507Y-98833430D01*
X150769999Y-98890635D01*
X150770000Y-98890636D01*
X150770000Y-97810000D01*
X151270000Y-97810000D01*
X151270000Y-98890635D01*
X151483492Y-98833430D01*
X151697576Y-98733600D01*
X151891081Y-98598106D01*
X152058106Y-98431081D01*
X152193600Y-98237576D01*
X152293430Y-98023492D01*
X152350636Y-97810000D01*
X151270000Y-97810000D01*
X150770000Y-97810000D01*
X150770000Y-96229364D01*
X151270000Y-96229364D01*
X151270000Y-97310000D01*
X152350636Y-97310000D01*
X152350635Y-97309999D01*
X152293430Y-97096507D01*
X152193599Y-96882421D01*
X152058109Y-96688921D01*
X151891081Y-96521893D01*
X151697576Y-96386399D01*
X151483492Y-96286569D01*
X151270000Y-96229364D01*
X150770000Y-96229364D01*
X150769999Y-96229364D01*
X150556507Y-96286569D01*
X150342421Y-96386400D01*
X150148924Y-96521888D01*
X150026865Y-96643947D01*
X149974118Y-96675242D01*
X149912825Y-96677431D01*
X149857981Y-96649978D01*
X149823002Y-96599598D01*
X149799083Y-96535468D01*
X149773796Y-96467669D01*
X149687546Y-96352454D01*
X149572331Y-96266204D01*
X149437483Y-96215909D01*
X149377873Y-96209500D01*
X149377869Y-96209500D01*
X147582130Y-96209500D01*
X147522515Y-96215909D01*
X147387669Y-96266204D01*
X147272454Y-96352454D01*
X147186204Y-96467668D01*
X147135909Y-96602516D01*
X147129500Y-96662130D01*
X147129500Y-98457869D01*
X99000500Y-98457869D01*
X99000500Y-95230000D01*
X126344531Y-95230000D01*
X126364364Y-95456689D01*
X126423261Y-95676497D01*
X126519432Y-95882735D01*
X126649953Y-96069140D01*
X126810859Y-96230046D01*
X126997264Y-96360567D01*
X126997265Y-96360567D01*
X126997266Y-96360568D01*
X127203504Y-96456739D01*
X127423308Y-96515635D01*
X127650000Y-96535468D01*
X127876692Y-96515635D01*
X128096496Y-96456739D01*
X128302734Y-96360568D01*
X128489139Y-96230047D01*
X128650047Y-96069139D01*
X128780568Y-95882734D01*
X128807618Y-95824724D01*
X128853375Y-95772549D01*
X128920000Y-95753129D01*
X128986625Y-95772549D01*
X129032382Y-95824725D01*
X129059431Y-95882733D01*
X129189953Y-96069140D01*
X129350859Y-96230046D01*
X129537264Y-96360567D01*
X129537265Y-96360567D01*
X129537266Y-96360568D01*
X129743504Y-96456739D01*
X129963308Y-96515635D01*
X130190000Y-96535468D01*
X130416692Y-96515635D01*
X130636496Y-96456739D01*
X130842734Y-96360568D01*
X131029139Y-96230047D01*
X131190047Y-96069139D01*
X131320568Y-95882734D01*
X131416739Y-95676496D01*
X131475635Y-95456692D01*
X131480595Y-95400000D01*
X131954531Y-95400000D01*
X131974364Y-95626689D01*
X132033261Y-95846497D01*
X132129432Y-96052735D01*
X132259953Y-96239140D01*
X132420859Y-96400046D01*
X132607264Y-96530567D01*
X132607265Y-96530567D01*
X132607266Y-96530568D01*
X132813504Y-96626739D01*
X133033308Y-96685635D01*
X133260000Y-96705468D01*
X133486692Y-96685635D01*
X133706496Y-96626739D01*
X133912734Y-96530568D01*
X134099139Y-96400047D01*
X134260047Y-96239139D01*
X134390568Y-96052734D01*
X134417893Y-95994134D01*
X134463649Y-95941959D01*
X134530274Y-95922539D01*
X134596899Y-95941958D01*
X134642657Y-95994133D01*
X134669866Y-96052482D01*
X134800341Y-96238819D01*
X134961180Y-96399658D01*
X135147519Y-96530134D01*
X135353673Y-96626266D01*
X135549999Y-96678871D01*
X135550000Y-96678872D01*
X135550000Y-95650000D01*
X136050000Y-95650000D01*
X136050000Y-96678871D01*
X136246326Y-96626266D01*
X136452480Y-96530134D01*
X136638819Y-96399658D01*
X136799658Y-96238819D01*
X136930134Y-96052480D01*
X137026266Y-95846326D01*
X137078872Y-95650000D01*
X136050000Y-95650000D01*
X135550000Y-95650000D01*
X135550000Y-94121128D01*
X136050000Y-94121128D01*
X136050000Y-95150000D01*
X137078872Y-95150000D01*
X137078871Y-95149999D01*
X137026266Y-94953673D01*
X136930134Y-94747519D01*
X136799658Y-94561180D01*
X136638819Y-94400341D01*
X136452480Y-94269865D01*
X136246326Y-94173733D01*
X136050000Y-94121128D01*
X135550000Y-94121128D01*
X135549999Y-94121128D01*
X135353673Y-94173733D01*
X135147519Y-94269865D01*
X134961180Y-94400341D01*
X134800341Y-94561180D01*
X134669863Y-94747522D01*
X134642656Y-94805866D01*
X134596899Y-94858041D01*
X134530274Y-94877460D01*
X134463650Y-94858040D01*
X134417893Y-94805865D01*
X134390567Y-94747264D01*
X134260046Y-94560859D01*
X134099140Y-94399953D01*
X133912735Y-94269432D01*
X133706497Y-94173261D01*
X133486689Y-94114364D01*
X133260000Y-94094531D01*
X133033310Y-94114364D01*
X132813502Y-94173261D01*
X132607264Y-94269432D01*
X132420859Y-94399953D01*
X132259953Y-94560859D01*
X132129432Y-94747264D01*
X132033261Y-94953502D01*
X131974364Y-95173310D01*
X131954531Y-95400000D01*
X131480595Y-95400000D01*
X131495468Y-95230000D01*
X131475635Y-95003308D01*
X131416739Y-94783504D01*
X131320568Y-94577266D01*
X131309081Y-94560861D01*
X131190046Y-94390859D01*
X131029140Y-94229953D01*
X130842735Y-94099432D01*
X130636497Y-94003261D01*
X130416689Y-93944364D01*
X130190000Y-93924531D01*
X129963310Y-93944364D01*
X129743502Y-94003261D01*
X129537264Y-94099432D01*
X129350859Y-94229953D01*
X129189953Y-94390859D01*
X129059433Y-94577263D01*
X129032382Y-94635275D01*
X128986625Y-94687450D01*
X128920000Y-94706869D01*
X128853375Y-94687450D01*
X128807618Y-94635275D01*
X128780568Y-94577266D01*
X128656685Y-94400341D01*
X128650046Y-94390859D01*
X128489140Y-94229953D01*
X128302735Y-94099432D01*
X128096497Y-94003261D01*
X127876689Y-93944364D01*
X127650000Y-93924531D01*
X127423310Y-93944364D01*
X127203502Y-94003261D01*
X126997264Y-94099432D01*
X126810859Y-94229953D01*
X126649953Y-94390859D01*
X126519432Y-94577264D01*
X126423261Y-94783502D01*
X126364364Y-95003310D01*
X126344531Y-95230000D01*
X99000500Y-95230000D01*
X99000500Y-91090000D01*
X121950000Y-91090000D01*
X121950000Y-91737824D01*
X121956402Y-91797375D01*
X122006647Y-91932089D01*
X122092811Y-92047188D01*
X122207910Y-92133352D01*
X122342624Y-92183597D01*
X122402176Y-92190000D01*
X123050000Y-92190000D01*
X123050000Y-91090000D01*
X123550000Y-91090000D01*
X123550000Y-92190000D01*
X124197824Y-92190000D01*
X124257375Y-92183597D01*
X124392089Y-92133352D01*
X124507188Y-92047188D01*
X124564972Y-91970000D01*
X126139531Y-91970000D01*
X126159364Y-92196689D01*
X126218261Y-92416497D01*
X126314432Y-92622735D01*
X126444953Y-92809140D01*
X126605859Y-92970046D01*
X126792264Y-93100567D01*
X126792265Y-93100567D01*
X126792266Y-93100568D01*
X126998504Y-93196739D01*
X127218308Y-93255635D01*
X127369436Y-93268857D01*
X127444999Y-93275468D01*
X127444999Y-93275467D01*
X127445000Y-93275468D01*
X127671692Y-93255635D01*
X127891496Y-93196739D01*
X128097734Y-93100568D01*
X128171344Y-93049026D01*
X131719526Y-93049026D01*
X131792515Y-93100133D01*
X131998673Y-93196266D01*
X132218397Y-93255141D01*
X132445000Y-93274966D01*
X132671602Y-93255141D01*
X132891326Y-93196266D01*
X133097480Y-93100134D01*
X133170472Y-93049025D01*
X132445001Y-92323553D01*
X132445000Y-92323553D01*
X131719526Y-93049025D01*
X131719526Y-93049026D01*
X128171344Y-93049026D01*
X128284139Y-92970047D01*
X128445047Y-92809139D01*
X128575568Y-92622734D01*
X128671739Y-92416496D01*
X128730635Y-92196692D01*
X128750468Y-91970000D01*
X131140033Y-91970000D01*
X131159858Y-92196602D01*
X131218733Y-92416326D01*
X131314866Y-92622484D01*
X131365972Y-92695471D01*
X131365974Y-92695472D01*
X132091446Y-91970001D01*
X132798553Y-91970001D01*
X133524025Y-92695472D01*
X133575134Y-92622480D01*
X133671266Y-92416326D01*
X133730141Y-92196602D01*
X133749966Y-91970000D01*
X133730141Y-91743397D01*
X133671266Y-91523673D01*
X133575133Y-91317515D01*
X133524025Y-91244526D01*
X132798553Y-91970000D01*
X132798553Y-91970001D01*
X132091446Y-91970001D01*
X132091446Y-91970000D01*
X131365973Y-91244526D01*
X131365973Y-91244527D01*
X131314865Y-91317516D01*
X131218733Y-91523672D01*
X131159858Y-91743397D01*
X131140033Y-91970000D01*
X128750468Y-91970000D01*
X128730635Y-91743308D01*
X128671739Y-91523504D01*
X128575568Y-91317266D01*
X128554098Y-91286604D01*
X128445046Y-91130859D01*
X128284140Y-90969953D01*
X128171344Y-90890973D01*
X131719526Y-90890973D01*
X132445000Y-91616446D01*
X132445001Y-91616446D01*
X133170472Y-90890974D01*
X133170471Y-90890972D01*
X133097484Y-90839866D01*
X132891326Y-90743733D01*
X132671602Y-90684858D01*
X132445000Y-90665033D01*
X132218397Y-90684858D01*
X131998672Y-90743733D01*
X131792516Y-90839865D01*
X131719527Y-90890973D01*
X131719526Y-90890973D01*
X128171344Y-90890973D01*
X128097735Y-90839432D01*
X127891497Y-90743261D01*
X127671689Y-90684364D01*
X127444999Y-90664531D01*
X127218310Y-90684364D01*
X126998502Y-90743261D01*
X126792264Y-90839432D01*
X126605859Y-90969953D01*
X126444953Y-91130859D01*
X126314432Y-91317264D01*
X126218261Y-91523502D01*
X126159364Y-91743310D01*
X126139531Y-91970000D01*
X124564972Y-91970000D01*
X124593352Y-91932089D01*
X124643597Y-91797375D01*
X124650000Y-91737824D01*
X124650000Y-91090000D01*
X123550000Y-91090000D01*
X123050000Y-91090000D01*
X121950000Y-91090000D01*
X99000500Y-91090000D01*
X99000500Y-88300000D01*
X121944340Y-88300000D01*
X121964936Y-88535407D01*
X122009709Y-88702501D01*
X122026097Y-88763663D01*
X122125965Y-88977830D01*
X122261505Y-89171401D01*
X122261507Y-89171403D01*
X122261508Y-89171404D01*
X122383818Y-89293714D01*
X122415114Y-89346460D01*
X122417303Y-89407753D01*
X122389850Y-89462597D01*
X122339472Y-89497576D01*
X122207913Y-89546646D01*
X122092811Y-89632811D01*
X122006647Y-89747910D01*
X121956402Y-89882624D01*
X121950000Y-89942176D01*
X121950000Y-90590000D01*
X124650000Y-90590000D01*
X124650000Y-90570000D01*
X136659356Y-90570000D01*
X136679891Y-90817816D01*
X136679891Y-90817819D01*
X136679892Y-90817821D01*
X136740937Y-91058881D01*
X136785960Y-91161523D01*
X136840825Y-91286604D01*
X136840827Y-91286607D01*
X136976836Y-91494785D01*
X137145256Y-91677738D01*
X137145259Y-91677740D01*
X137341485Y-91830470D01*
X137341487Y-91830471D01*
X137341491Y-91830474D01*
X137560190Y-91948828D01*
X137795386Y-92029571D01*
X138040665Y-92070500D01*
X138289335Y-92070500D01*
X138534614Y-92029571D01*
X138769810Y-91948828D01*
X138988509Y-91830474D01*
X139184744Y-91677738D01*
X139353164Y-91494785D01*
X139489173Y-91286607D01*
X139589063Y-91058881D01*
X139650108Y-90817821D01*
X139670643Y-90570000D01*
X146659356Y-90570000D01*
X146679891Y-90817816D01*
X146679891Y-90817819D01*
X146679892Y-90817821D01*
X146740937Y-91058881D01*
X146785960Y-91161523D01*
X146840825Y-91286604D01*
X146840827Y-91286607D01*
X146976836Y-91494785D01*
X147145256Y-91677738D01*
X147145259Y-91677740D01*
X147341485Y-91830470D01*
X147341487Y-91830471D01*
X147341491Y-91830474D01*
X147560190Y-91948828D01*
X147795386Y-92029571D01*
X148040665Y-92070500D01*
X148289335Y-92070500D01*
X148534614Y-92029571D01*
X148769810Y-91948828D01*
X148988509Y-91830474D01*
X149184744Y-91677738D01*
X149353164Y-91494785D01*
X149489173Y-91286607D01*
X149589063Y-91058881D01*
X149650108Y-90817821D01*
X149670643Y-90570000D01*
X149650108Y-90322179D01*
X149589063Y-90081119D01*
X149489173Y-89853393D01*
X149353164Y-89645215D01*
X149184744Y-89462262D01*
X149114710Y-89407752D01*
X148988514Y-89309529D01*
X148988510Y-89309526D01*
X148988509Y-89309526D01*
X148769810Y-89191172D01*
X148769806Y-89191170D01*
X148769805Y-89191170D01*
X148534615Y-89110429D01*
X148289335Y-89069500D01*
X148040665Y-89069500D01*
X147795384Y-89110429D01*
X147560194Y-89191170D01*
X147341485Y-89309529D01*
X147145259Y-89462259D01*
X146976837Y-89645214D01*
X146840825Y-89853395D01*
X146740938Y-90081117D01*
X146679891Y-90322183D01*
X146659356Y-90570000D01*
X139670643Y-90570000D01*
X139650108Y-90322179D01*
X139589063Y-90081119D01*
X139489173Y-89853393D01*
X139353164Y-89645215D01*
X139184744Y-89462262D01*
X139114710Y-89407752D01*
X138988514Y-89309529D01*
X138988510Y-89309526D01*
X138988509Y-89309526D01*
X138769810Y-89191172D01*
X138769806Y-89191170D01*
X138769805Y-89191170D01*
X138534615Y-89110429D01*
X138289335Y-89069500D01*
X138040665Y-89069500D01*
X137795384Y-89110429D01*
X137560194Y-89191170D01*
X137341485Y-89309529D01*
X137145259Y-89462259D01*
X136976837Y-89645214D01*
X136840825Y-89853395D01*
X136740938Y-90081117D01*
X136679891Y-90322183D01*
X136659356Y-90570000D01*
X124650000Y-90570000D01*
X124650000Y-89942176D01*
X124643597Y-89882624D01*
X124593352Y-89747910D01*
X124507188Y-89632811D01*
X124392088Y-89546647D01*
X124260528Y-89497577D01*
X124210149Y-89462597D01*
X124182696Y-89407752D01*
X124184885Y-89346460D01*
X124216178Y-89293717D01*
X124338495Y-89171401D01*
X124474035Y-88977830D01*
X124573903Y-88763663D01*
X124635063Y-88535408D01*
X124655659Y-88300000D01*
X124635063Y-88064592D01*
X124573903Y-87836337D01*
X124474035Y-87622171D01*
X124386998Y-87497869D01*
X126374500Y-87497869D01*
X126376455Y-87516053D01*
X126380909Y-87557483D01*
X126431204Y-87692331D01*
X126517454Y-87807546D01*
X126632669Y-87893796D01*
X126767517Y-87944091D01*
X126827127Y-87950500D01*
X128622872Y-87950499D01*
X128682483Y-87944091D01*
X128817331Y-87893796D01*
X128932546Y-87807546D01*
X129018796Y-87692331D01*
X129068003Y-87560398D01*
X129102981Y-87510021D01*
X129157826Y-87482568D01*
X129219119Y-87484757D01*
X129271865Y-87516053D01*
X129393918Y-87638106D01*
X129587423Y-87773600D01*
X129801507Y-87873430D01*
X130014999Y-87930635D01*
X130015000Y-87930636D01*
X130015000Y-86850000D01*
X130515000Y-86850000D01*
X130515000Y-87930635D01*
X130728492Y-87873430D01*
X130942576Y-87773600D01*
X131136081Y-87638106D01*
X131303106Y-87471081D01*
X131438600Y-87277576D01*
X131538430Y-87063492D01*
X131595636Y-86850000D01*
X130515000Y-86850000D01*
X130015000Y-86850000D01*
X130015000Y-85269364D01*
X130515000Y-85269364D01*
X130515000Y-86350000D01*
X131595636Y-86350000D01*
X131595635Y-86349999D01*
X131538430Y-86136507D01*
X131438599Y-85922421D01*
X131303109Y-85728921D01*
X131136081Y-85561893D01*
X130942576Y-85426399D01*
X130728492Y-85326569D01*
X130515000Y-85269364D01*
X130015000Y-85269364D01*
X130014999Y-85269364D01*
X129801507Y-85326569D01*
X129587421Y-85426400D01*
X129393924Y-85561888D01*
X129271865Y-85683947D01*
X129219118Y-85715242D01*
X129157825Y-85717431D01*
X129102981Y-85689978D01*
X129068002Y-85639598D01*
X129027311Y-85530500D01*
X129018796Y-85507669D01*
X128932546Y-85392454D01*
X128817331Y-85306204D01*
X128682483Y-85255909D01*
X128622873Y-85249500D01*
X128622869Y-85249500D01*
X126827130Y-85249500D01*
X126767515Y-85255909D01*
X126632669Y-85306204D01*
X126517454Y-85392454D01*
X126431204Y-85507668D01*
X126380909Y-85642516D01*
X126374500Y-85702130D01*
X126374500Y-87497869D01*
X124386998Y-87497869D01*
X124338495Y-87428599D01*
X124171401Y-87261505D01*
X123985839Y-87131573D01*
X123946975Y-87087257D01*
X123932964Y-87030000D01*
X123946975Y-86972743D01*
X123985839Y-86928426D01*
X124171401Y-86798495D01*
X124338495Y-86631401D01*
X124474035Y-86437830D01*
X124573903Y-86223663D01*
X124635063Y-85995408D01*
X124655659Y-85760000D01*
X124638326Y-85561893D01*
X124635063Y-85524592D01*
X124635062Y-85524591D01*
X124573903Y-85296337D01*
X124474035Y-85082171D01*
X124338495Y-84888599D01*
X124171401Y-84721505D01*
X123977830Y-84585965D01*
X123763663Y-84486097D01*
X123702501Y-84469709D01*
X123535407Y-84424936D01*
X123299999Y-84404340D01*
X123064592Y-84424936D01*
X122836336Y-84486097D01*
X122622170Y-84585965D01*
X122428598Y-84721505D01*
X122261505Y-84888598D01*
X122125965Y-85082170D01*
X122026097Y-85296336D01*
X121964936Y-85524592D01*
X121944340Y-85759999D01*
X121964936Y-85995407D01*
X122002744Y-86136507D01*
X122026097Y-86223663D01*
X122125965Y-86437830D01*
X122261505Y-86631401D01*
X122428599Y-86798495D01*
X122614160Y-86928426D01*
X122653024Y-86972743D01*
X122667035Y-87030000D01*
X122653024Y-87087257D01*
X122614159Y-87131575D01*
X122428595Y-87261508D01*
X122261505Y-87428598D01*
X122125965Y-87622170D01*
X122026097Y-87836336D01*
X121964936Y-88064592D01*
X121944340Y-88300000D01*
X99000500Y-88300000D01*
X99000500Y-84029999D01*
X136659356Y-84029999D01*
X136679891Y-84277816D01*
X136679891Y-84277819D01*
X136679892Y-84277821D01*
X136740937Y-84518881D01*
X136770363Y-84585965D01*
X136840825Y-84746604D01*
X136840827Y-84746607D01*
X136976836Y-84954785D01*
X137145256Y-85137738D01*
X137145259Y-85137740D01*
X137341485Y-85290470D01*
X137341487Y-85290471D01*
X137341491Y-85290474D01*
X137560190Y-85408828D01*
X137795386Y-85489571D01*
X138040665Y-85530500D01*
X138289335Y-85530500D01*
X138534614Y-85489571D01*
X138769810Y-85408828D01*
X138988509Y-85290474D01*
X139184744Y-85137738D01*
X139353164Y-84954785D01*
X139489173Y-84746607D01*
X139589063Y-84518881D01*
X139650108Y-84277821D01*
X139670643Y-84030000D01*
X139670643Y-84029999D01*
X146659356Y-84029999D01*
X146679891Y-84277816D01*
X146679891Y-84277819D01*
X146679892Y-84277821D01*
X146740937Y-84518881D01*
X146770363Y-84585965D01*
X146840825Y-84746604D01*
X146840827Y-84746607D01*
X146976836Y-84954785D01*
X147145256Y-85137738D01*
X147145259Y-85137740D01*
X147341485Y-85290470D01*
X147341487Y-85290471D01*
X147341491Y-85290474D01*
X147560190Y-85408828D01*
X147795386Y-85489571D01*
X148040665Y-85530500D01*
X148289335Y-85530500D01*
X148534614Y-85489571D01*
X148769810Y-85408828D01*
X148988509Y-85290474D01*
X149184744Y-85137738D01*
X149353164Y-84954785D01*
X149489173Y-84746607D01*
X149589063Y-84518881D01*
X149650108Y-84277821D01*
X149670643Y-84030000D01*
X149650108Y-83782179D01*
X149589063Y-83541119D01*
X149489173Y-83313393D01*
X149353164Y-83105215D01*
X149184744Y-82922262D01*
X149162612Y-82905036D01*
X148988514Y-82769529D01*
X148988510Y-82769526D01*
X148988509Y-82769526D01*
X148769810Y-82651172D01*
X148769806Y-82651170D01*
X148769805Y-82651170D01*
X148534615Y-82570429D01*
X148289335Y-82529500D01*
X148040665Y-82529500D01*
X147795384Y-82570429D01*
X147560194Y-82651170D01*
X147341485Y-82769529D01*
X147145259Y-82922259D01*
X146976837Y-83105214D01*
X146840825Y-83313395D01*
X146740938Y-83541117D01*
X146679891Y-83782183D01*
X146659356Y-84029999D01*
X139670643Y-84029999D01*
X139650108Y-83782179D01*
X139589063Y-83541119D01*
X139489173Y-83313393D01*
X139353164Y-83105215D01*
X139184744Y-82922262D01*
X139162612Y-82905036D01*
X138988514Y-82769529D01*
X138988510Y-82769526D01*
X138988509Y-82769526D01*
X138769810Y-82651172D01*
X138769806Y-82651170D01*
X138769805Y-82651170D01*
X138534615Y-82570429D01*
X138289335Y-82529500D01*
X138040665Y-82529500D01*
X137795384Y-82570429D01*
X137560194Y-82651170D01*
X137341485Y-82769529D01*
X137145259Y-82922259D01*
X136976837Y-83105214D01*
X136840825Y-83313395D01*
X136740938Y-83541117D01*
X136679891Y-83782183D01*
X136659356Y-84029999D01*
X99000500Y-84029999D01*
X99000500Y-81050000D01*
X113994531Y-81050000D01*
X114014364Y-81276689D01*
X114073261Y-81496497D01*
X114169432Y-81702735D01*
X114299953Y-81889140D01*
X114460859Y-82050046D01*
X114647264Y-82180567D01*
X114647265Y-82180567D01*
X114647266Y-82180568D01*
X114853504Y-82276739D01*
X115073308Y-82335635D01*
X115224435Y-82348856D01*
X115299999Y-82355468D01*
X115299999Y-82355467D01*
X115300000Y-82355468D01*
X115526692Y-82335635D01*
X115746496Y-82276739D01*
X115952734Y-82180568D01*
X116026344Y-82129026D01*
X119574526Y-82129026D01*
X119647515Y-82180133D01*
X119853673Y-82276266D01*
X120073397Y-82335141D01*
X120300000Y-82354966D01*
X120526602Y-82335141D01*
X120746326Y-82276266D01*
X120952480Y-82180134D01*
X121025472Y-82129025D01*
X120744316Y-81847869D01*
X126517120Y-81847869D01*
X126521557Y-81889139D01*
X126523529Y-81907483D01*
X126573824Y-82042331D01*
X126660074Y-82157546D01*
X126775289Y-82243796D01*
X126910137Y-82294091D01*
X126969747Y-82300500D01*
X128665492Y-82300499D01*
X128725103Y-82294091D01*
X128859951Y-82243796D01*
X128975166Y-82157546D01*
X129033946Y-82079026D01*
X129592146Y-82079026D01*
X129665135Y-82130133D01*
X129871293Y-82226266D01*
X130091017Y-82285141D01*
X130317620Y-82304966D01*
X130544222Y-82285141D01*
X130763946Y-82226266D01*
X130970100Y-82130134D01*
X131043092Y-82079025D01*
X130317621Y-81353553D01*
X130317620Y-81353553D01*
X129592146Y-82079025D01*
X129592146Y-82079026D01*
X129033946Y-82079026D01*
X129061416Y-82042331D01*
X129111711Y-81907483D01*
X129118120Y-81847873D01*
X129118119Y-81847868D01*
X129118830Y-81841265D01*
X129120620Y-81841457D01*
X129136571Y-81785173D01*
X129186460Y-81739448D01*
X129233650Y-81730415D01*
X129964066Y-81000000D01*
X129964066Y-80999999D01*
X130671173Y-80999999D01*
X131396645Y-81725472D01*
X131447754Y-81652480D01*
X131543886Y-81446326D01*
X131602761Y-81226602D01*
X131622586Y-80999999D01*
X131602761Y-80773397D01*
X131543886Y-80553673D01*
X131447753Y-80347515D01*
X131396645Y-80274526D01*
X130671173Y-80999998D01*
X130671173Y-80999999D01*
X129964066Y-80999999D01*
X129964066Y-80999998D01*
X129233650Y-80269584D01*
X129186469Y-80260556D01*
X129136581Y-80214843D01*
X129120614Y-80158543D01*
X129118829Y-80158735D01*
X129118119Y-80152127D01*
X129111711Y-80092517D01*
X129061416Y-79957669D01*
X129033945Y-79920973D01*
X129592146Y-79920973D01*
X130317620Y-80646446D01*
X130317621Y-80646446D01*
X130897080Y-80066986D01*
X151686564Y-80066986D01*
X151911476Y-80230395D01*
X152176110Y-80375878D01*
X152456892Y-80487048D01*
X152749393Y-80562149D01*
X153049004Y-80600000D01*
X153350996Y-80600000D01*
X153650606Y-80562149D01*
X153943107Y-80487048D01*
X154223889Y-80375878D01*
X154488523Y-80230395D01*
X154713433Y-80066986D01*
X154713434Y-80066986D01*
X153200000Y-78553553D01*
X151686564Y-80066986D01*
X130897080Y-80066986D01*
X131043092Y-79920974D01*
X131043091Y-79920972D01*
X130970104Y-79869866D01*
X130763946Y-79773733D01*
X130544222Y-79714858D01*
X130317620Y-79695033D01*
X130091017Y-79714858D01*
X129871292Y-79773733D01*
X129665136Y-79869865D01*
X129592147Y-79920973D01*
X129592146Y-79920973D01*
X129033945Y-79920973D01*
X128975166Y-79842454D01*
X128859951Y-79756204D01*
X128725103Y-79705909D01*
X128665493Y-79699500D01*
X128665489Y-79699500D01*
X126969750Y-79699500D01*
X126910135Y-79705909D01*
X126775289Y-79756204D01*
X126660074Y-79842454D01*
X126573824Y-79957668D01*
X126523529Y-80092516D01*
X126517120Y-80152130D01*
X126517120Y-81847869D01*
X120744316Y-81847869D01*
X120300001Y-81403553D01*
X120300000Y-81403553D01*
X119574526Y-82129025D01*
X119574526Y-82129026D01*
X116026344Y-82129026D01*
X116139139Y-82050047D01*
X116300047Y-81889139D01*
X116430568Y-81702734D01*
X116526739Y-81496496D01*
X116585635Y-81276692D01*
X116605468Y-81050000D01*
X116605468Y-81049999D01*
X118995033Y-81049999D01*
X119014858Y-81276602D01*
X119073733Y-81496326D01*
X119169866Y-81702484D01*
X119220972Y-81775471D01*
X119220973Y-81775472D01*
X119946446Y-81050000D01*
X119946446Y-81049999D01*
X120653553Y-81049999D01*
X121379025Y-81775472D01*
X121430134Y-81702480D01*
X121526266Y-81496326D01*
X121585141Y-81276602D01*
X121604966Y-81049999D01*
X121585141Y-80823397D01*
X121526266Y-80603673D01*
X121430133Y-80397515D01*
X121379025Y-80324526D01*
X120653553Y-81049998D01*
X120653553Y-81049999D01*
X119946446Y-81049999D01*
X119946446Y-81049998D01*
X119220973Y-80324527D01*
X119169865Y-80397516D01*
X119073733Y-80603672D01*
X119014858Y-80823397D01*
X118995033Y-81049999D01*
X116605468Y-81049999D01*
X116585635Y-80823308D01*
X116526739Y-80603504D01*
X116430568Y-80397266D01*
X116395732Y-80347515D01*
X116300046Y-80210859D01*
X116139140Y-80049953D01*
X116026344Y-79970973D01*
X119574526Y-79970973D01*
X120300000Y-80696446D01*
X120300001Y-80696446D01*
X121025472Y-79970974D01*
X121025471Y-79970972D01*
X120952484Y-79919866D01*
X120746326Y-79823733D01*
X120526602Y-79764858D01*
X120300000Y-79745033D01*
X120073397Y-79764858D01*
X119853672Y-79823733D01*
X119647516Y-79919865D01*
X119574527Y-79970973D01*
X119574526Y-79970973D01*
X116026344Y-79970973D01*
X115952735Y-79919432D01*
X115746497Y-79823261D01*
X115526689Y-79764364D01*
X115299999Y-79744531D01*
X115073310Y-79764364D01*
X114853502Y-79823261D01*
X114647264Y-79919432D01*
X114460859Y-80049953D01*
X114299953Y-80210859D01*
X114169432Y-80397264D01*
X114073261Y-80603502D01*
X114014364Y-80823310D01*
X113994531Y-81050000D01*
X99000500Y-81050000D01*
X99000500Y-80266986D01*
X99686564Y-80266986D01*
X99911476Y-80430395D01*
X100176110Y-80575878D01*
X100456892Y-80687048D01*
X100749393Y-80762149D01*
X101049004Y-80800000D01*
X101350996Y-80800000D01*
X101650606Y-80762149D01*
X101943107Y-80687048D01*
X102223889Y-80575878D01*
X102488523Y-80430395D01*
X102713433Y-80266986D01*
X102713434Y-80266986D01*
X101200000Y-78753553D01*
X99686564Y-80266986D01*
X99000500Y-80266986D01*
X99000500Y-79840013D01*
X99016597Y-79778915D01*
X99060710Y-79733680D01*
X99121384Y-79716052D01*
X99182867Y-79730609D01*
X99229197Y-79773571D01*
X99254521Y-79813475D01*
X99335312Y-79911134D01*
X100846447Y-78400001D01*
X101553553Y-78400001D01*
X103064686Y-79911133D01*
X103145481Y-79813471D01*
X103307291Y-79558498D01*
X103435875Y-79285243D01*
X103529195Y-78998036D01*
X103585783Y-78701389D01*
X103604745Y-78400000D01*
X103592162Y-78200000D01*
X150795254Y-78200000D01*
X150814216Y-78501389D01*
X150870804Y-78798036D01*
X150964124Y-79085243D01*
X151092708Y-79358498D01*
X151254521Y-79613475D01*
X151335312Y-79711134D01*
X152846447Y-78200001D01*
X152846447Y-78199999D01*
X151335312Y-76688864D01*
X151254517Y-76786530D01*
X151092708Y-77041501D01*
X150964124Y-77314756D01*
X150870804Y-77601963D01*
X150814216Y-77898610D01*
X150795254Y-78200000D01*
X103592162Y-78200000D01*
X103585783Y-78098610D01*
X103529195Y-77801963D01*
X103435875Y-77514756D01*
X103307291Y-77241501D01*
X103145478Y-76986524D01*
X103064686Y-76888864D01*
X101553553Y-78400000D01*
X101553553Y-78400001D01*
X100846447Y-78400001D01*
X100846447Y-78399999D01*
X99335312Y-76888864D01*
X99254517Y-76986529D01*
X99229197Y-77026429D01*
X99182868Y-77069391D01*
X99121384Y-77083948D01*
X99060710Y-77066320D01*
X99016597Y-77021085D01*
X99000500Y-76959987D01*
X99000500Y-76324500D01*
X99017113Y-76262500D01*
X99062500Y-76217113D01*
X99124500Y-76200500D01*
X99762595Y-76200500D01*
X99822332Y-76215838D01*
G37*
%TD.AperFunction*%
%TD*%
M02*
