%TF.GenerationSoftware,KiCad,Pcbnew,7.0.1*%
%TF.CreationDate,2023-04-15T20:00:27+02:00*%
%TF.ProjectId,weit_generator,77656974-5f67-4656-9e65-7261746f722e,rev?*%
%TF.SameCoordinates,Original*%
%TF.FileFunction,Soldermask,Top*%
%TF.FilePolarity,Negative*%
%FSLAX46Y46*%
G04 Gerber Fmt 4.6, Leading zero omitted, Abs format (unit mm)*
G04 Created by KiCad (PCBNEW 7.0.1) date 2023-04-15 20:00:27*
%MOMM*%
%LPD*%
G01*
G04 APERTURE LIST*
G04 Aperture macros list*
%AMRoundRect*
0 Rectangle with rounded corners*
0 $1 Rounding radius*
0 $2 $3 $4 $5 $6 $7 $8 $9 X,Y pos of 4 corners*
0 Add a 4 corners polygon primitive as box body*
4,1,4,$2,$3,$4,$5,$6,$7,$8,$9,$2,$3,0*
0 Add four circle primitives for the rounded corners*
1,1,$1+$1,$2,$3*
1,1,$1+$1,$4,$5*
1,1,$1+$1,$6,$7*
1,1,$1+$1,$8,$9*
0 Add four rect primitives between the rounded corners*
20,1,$1+$1,$2,$3,$4,$5,0*
20,1,$1+$1,$4,$5,$6,$7,0*
20,1,$1+$1,$6,$7,$8,$9,0*
20,1,$1+$1,$8,$9,$2,$3,0*%
G04 Aperture macros list end*
%ADD10C,3.800000*%
%ADD11C,2.000000*%
%ADD12C,1.600000*%
%ADD13O,1.600000X1.600000*%
%ADD14R,1.700000X1.700000*%
%ADD15O,1.700000X1.700000*%
%ADD16RoundRect,0.250000X-0.450000X0.350000X-0.450000X-0.350000X0.450000X-0.350000X0.450000X0.350000X0*%
%ADD17R,1.800000X1.800000*%
%ADD18C,1.800000*%
%ADD19C,1.440000*%
%ADD20R,1.600000X1.600000*%
%ADD21RoundRect,0.150000X0.150000X-0.875000X0.150000X0.875000X-0.150000X0.875000X-0.150000X-0.875000X0*%
%ADD22R,1.600000X1.500000*%
%ADD23R,1.050000X1.500000*%
%ADD24O,1.050000X1.500000*%
%ADD25R,1.500000X1.050000*%
%ADD26O,1.500000X1.050000*%
G04 APERTURE END LIST*
D10*
%TO.C,*%
X101200000Y-78400000D03*
%TD*%
%TO.C,*%
X153200000Y-78200000D03*
%TD*%
%TO.C,*%
X153200000Y-133800000D03*
%TD*%
%TO.C,REF\u002A\u002A*%
X101000000Y-133600000D03*
%TD*%
D11*
%TO.C,C7*%
X142400000Y-100800000D03*
X132400000Y-100800000D03*
%TD*%
D12*
%TO.C,R15*%
X126695000Y-106245000D03*
D13*
X126695000Y-103705000D03*
%TD*%
D12*
%TO.C,C10*%
X115995000Y-122560000D03*
X115995000Y-117560000D03*
%TD*%
D14*
%TO.C,J1*%
X127725000Y-86600000D03*
D15*
X130265000Y-86600000D03*
%TD*%
D16*
%TO.C,R18*%
X119800000Y-99800000D03*
X119800000Y-101800000D03*
%TD*%
D12*
%TO.C,R19*%
X127650000Y-95230000D03*
D13*
X130190000Y-95230000D03*
%TD*%
D14*
%TO.C,J3*%
X148480000Y-97560000D03*
D15*
X151020000Y-97560000D03*
%TD*%
D12*
%TO.C,R26*%
X114600000Y-125600000D03*
D13*
X117140000Y-125600000D03*
%TD*%
D14*
%TO.C,R20*%
X124470000Y-113635000D03*
D15*
X124470000Y-111095000D03*
%TD*%
D16*
%TO.C,R7*%
X113800000Y-104800000D03*
X113800000Y-106800000D03*
%TD*%
D12*
%TO.C,C9*%
X136945000Y-124060000D03*
X131945000Y-124060000D03*
%TD*%
D16*
%TO.C,R9*%
X110800000Y-99800000D03*
X110800000Y-101800000D03*
%TD*%
D11*
%TO.C,C13*%
X149400000Y-130800000D03*
X139400000Y-130800000D03*
%TD*%
D17*
%TO.C,D1*%
X102895000Y-113950000D03*
D18*
X102895000Y-111410000D03*
%TD*%
D16*
%TO.C,R10*%
X113800000Y-99800000D03*
X113800000Y-101800000D03*
%TD*%
D12*
%TO.C,R24*%
X110200000Y-127645000D03*
D13*
X110200000Y-125105000D03*
%TD*%
D12*
%TO.C,R25*%
X135600000Y-130645000D03*
D13*
X135600000Y-128105000D03*
%TD*%
D16*
%TO.C,R8*%
X104800000Y-104800000D03*
X104800000Y-106800000D03*
%TD*%
%TO.C,R5*%
X110800000Y-104800000D03*
X110800000Y-106800000D03*
%TD*%
D12*
%TO.C,R17*%
X133260000Y-95400000D03*
D13*
X135800000Y-95400000D03*
%TD*%
D12*
%TO.C,R21*%
X147295000Y-106875000D03*
D13*
X147295000Y-104335000D03*
%TD*%
D16*
%TO.C,R23*%
X105995000Y-119185000D03*
X105995000Y-121185000D03*
%TD*%
%TO.C,R12*%
X119800000Y-104800000D03*
X119800000Y-106800000D03*
%TD*%
D11*
%TO.C,C8*%
X142450000Y-106460000D03*
X132450000Y-106460000D03*
%TD*%
D16*
%TO.C,R13*%
X116800000Y-104800000D03*
X116800000Y-106800000D03*
%TD*%
D12*
%TO.C,C3*%
X115300000Y-81050000D03*
X120300000Y-81050000D03*
%TD*%
D11*
%TO.C,C4*%
X138165000Y-90570000D03*
X148165000Y-90570000D03*
%TD*%
D14*
%TO.C,J2*%
X123300000Y-90840000D03*
D15*
X123300000Y-88300000D03*
X123300000Y-85760000D03*
%TD*%
D19*
%TO.C,RV2*%
X127395000Y-125610000D03*
X127395000Y-123070000D03*
X127395000Y-120530000D03*
%TD*%
D11*
%TO.C,TP3*%
X147275000Y-126850000D03*
%TD*%
D16*
%TO.C,R14*%
X122800000Y-104800000D03*
X122800000Y-106800000D03*
%TD*%
%TO.C,R11*%
X122800000Y-99800000D03*
X122800000Y-101800000D03*
%TD*%
D12*
%TO.C,R27*%
X120275000Y-125560000D03*
D13*
X122815000Y-125560000D03*
%TD*%
D16*
%TO.C,R6*%
X107800000Y-99800000D03*
X107800000Y-101800000D03*
%TD*%
%TO.C,R16*%
X116800000Y-99800000D03*
X116800000Y-101800000D03*
%TD*%
%TO.C,R4*%
X101800000Y-104800000D03*
X101800000Y-106800000D03*
%TD*%
%TO.C,R3*%
X101800000Y-99800000D03*
X101800000Y-101800000D03*
%TD*%
D20*
%TO.C,C12*%
X130200000Y-129217621D03*
D12*
X130200000Y-131717621D03*
%TD*%
%TO.C,C5*%
X127445000Y-91970000D03*
X132445000Y-91970000D03*
%TD*%
D21*
%TO.C,U1*%
X101760000Y-93800000D03*
X103030000Y-93800000D03*
X104300000Y-93800000D03*
X105570000Y-93800000D03*
X106840000Y-93800000D03*
X108110000Y-93800000D03*
X109380000Y-93800000D03*
X110650000Y-93800000D03*
X111920000Y-93800000D03*
X113190000Y-93800000D03*
X114460000Y-93800000D03*
X115730000Y-93800000D03*
X117000000Y-93800000D03*
X118270000Y-93800000D03*
X118270000Y-84500000D03*
X117000000Y-84500000D03*
X115730000Y-84500000D03*
X114460000Y-84500000D03*
X113190000Y-84500000D03*
X111920000Y-84500000D03*
X110650000Y-84500000D03*
X109380000Y-84500000D03*
X108110000Y-84500000D03*
X106840000Y-84500000D03*
X105570000Y-84500000D03*
X104300000Y-84500000D03*
X103030000Y-84500000D03*
X101760000Y-84500000D03*
%TD*%
D20*
%TO.C,U2*%
X147885000Y-111860000D03*
D13*
X145345000Y-111860000D03*
X142805000Y-111860000D03*
X140265000Y-111860000D03*
X137725000Y-111860000D03*
X135185000Y-111860000D03*
X132645000Y-111860000D03*
X132645000Y-119480000D03*
X135185000Y-119480000D03*
X137725000Y-119480000D03*
X140265000Y-119480000D03*
X142805000Y-119480000D03*
X145345000Y-119480000D03*
X147885000Y-119480000D03*
%TD*%
D16*
%TO.C,R2*%
X107800000Y-104800000D03*
X107800000Y-106800000D03*
%TD*%
D11*
%TO.C,TP1*%
X126575000Y-99590000D03*
%TD*%
D12*
%TO.C,R28*%
X140000000Y-123000000D03*
D13*
X142540000Y-123000000D03*
%TD*%
D20*
%TO.C,C11*%
X121400000Y-129217621D03*
D12*
X121400000Y-131717621D03*
%TD*%
D16*
%TO.C,R1*%
X104800000Y-99800000D03*
X104800000Y-101800000D03*
%TD*%
D20*
%TO.C,C2*%
X127817620Y-81000000D03*
D12*
X130317620Y-81000000D03*
%TD*%
D11*
%TO.C,TP2*%
X125800000Y-134000000D03*
%TD*%
D22*
%TO.C,X1*%
X111890000Y-78255000D03*
X109350000Y-78255000D03*
X109350000Y-80455000D03*
X111890000Y-80455000D03*
%TD*%
D12*
%TO.C,C6*%
X128995000Y-112760000D03*
X128995000Y-117760000D03*
%TD*%
D20*
%TO.C,D2*%
X145480686Y-122760000D03*
D13*
X148020686Y-122760000D03*
%TD*%
D12*
%TO.C,R29*%
X140000000Y-126520000D03*
D13*
X142540000Y-126520000D03*
%TD*%
D12*
%TO.C,R22*%
X151405000Y-106780000D03*
D13*
X151405000Y-104240000D03*
%TD*%
D23*
%TO.C,Q1*%
X113460000Y-130200000D03*
D24*
X114730000Y-130200000D03*
X116000000Y-130200000D03*
%TD*%
D19*
%TO.C,RV1*%
X121595000Y-117460000D03*
X121595000Y-120000000D03*
X121595000Y-122540000D03*
%TD*%
D25*
%TO.C,U3*%
X110955000Y-121305000D03*
D26*
X110955000Y-120035000D03*
X110955000Y-118765000D03*
%TD*%
D11*
%TO.C,C1*%
X138165000Y-84030000D03*
X148165000Y-84030000D03*
%TD*%
M02*
