%TF.GenerationSoftware,KiCad,Pcbnew,7.0.1*%
%TF.CreationDate,2023-04-15T09:26:22+02:00*%
%TF.ProjectId,weit_generator,77656974-5f67-4656-9e65-7261746f722e,rev?*%
%TF.SameCoordinates,Original*%
%TF.FileFunction,Soldermask,Bot*%
%TF.FilePolarity,Negative*%
%FSLAX46Y46*%
G04 Gerber Fmt 4.6, Leading zero omitted, Abs format (unit mm)*
G04 Created by KiCad (PCBNEW 7.0.1) date 2023-04-15 09:26:22*
%MOMM*%
%LPD*%
G01*
G04 APERTURE LIST*
%ADD10C,3.500000*%
%ADD11C,1.440000*%
%ADD12C,1.600000*%
%ADD13O,1.600000X1.600000*%
%ADD14R,1.700000X1.700000*%
%ADD15O,1.700000X1.700000*%
%ADD16C,2.000000*%
%ADD17R,1.800000X1.800000*%
%ADD18C,1.800000*%
%ADD19R,1.600000X1.600000*%
%ADD20R,1.050000X1.500000*%
%ADD21O,1.050000X1.500000*%
%ADD22R,1.500000X1.050000*%
%ADD23O,1.500000X1.050000*%
G04 APERTURE END LIST*
D10*
%TO.C,REF\u002A\u002A*%
X153400000Y-133800000D03*
%TD*%
%TO.C,REF\u002A\u002A*%
X153200000Y-77800000D03*
%TD*%
%TO.C,REF\u002A\u002A*%
X101000000Y-77800000D03*
%TD*%
%TO.C,REF\u002A\u002A*%
X100800000Y-133800000D03*
%TD*%
D11*
%TO.C,RV2*%
X127395000Y-125610000D03*
X127395000Y-123070000D03*
X127395000Y-120530000D03*
%TD*%
D12*
%TO.C,R2*%
X126695000Y-106245000D03*
D13*
X126695000Y-103705000D03*
%TD*%
D12*
%TO.C,C2*%
X115995000Y-122560000D03*
X115995000Y-117560000D03*
%TD*%
D14*
%TO.C,J1*%
X127725000Y-86600000D03*
D15*
X130265000Y-86600000D03*
%TD*%
D12*
%TO.C,R20*%
X127650000Y-95230000D03*
D13*
X130190000Y-95230000D03*
%TD*%
D14*
%TO.C,J3*%
X148480000Y-97560000D03*
D15*
X151020000Y-97560000D03*
%TD*%
D13*
%TO.C,R28*%
X117140000Y-125600000D03*
D12*
X114600000Y-125600000D03*
%TD*%
D16*
%TO.C,C8*%
X132450000Y-101360000D03*
X142450000Y-101360000D03*
%TD*%
D14*
%TO.C,R3*%
X124470000Y-113635000D03*
D15*
X124470000Y-111095000D03*
%TD*%
D12*
%TO.C,C11*%
X136945000Y-124060000D03*
X131945000Y-124060000D03*
%TD*%
D16*
%TO.C,C10*%
X150395000Y-131260000D03*
X140395000Y-131260000D03*
%TD*%
D17*
%TO.C,D1*%
X102895000Y-113950000D03*
D18*
X102895000Y-111410000D03*
%TD*%
D12*
%TO.C,R29*%
X110200000Y-127645000D03*
D13*
X110200000Y-125105000D03*
%TD*%
D12*
%TO.C,R26*%
X136745000Y-130755000D03*
D13*
X136745000Y-128215000D03*
%TD*%
D12*
%TO.C,R21*%
X132755000Y-96800000D03*
D13*
X135295000Y-96800000D03*
%TD*%
D12*
%TO.C,R22*%
X147295000Y-106875000D03*
D13*
X147295000Y-104335000D03*
%TD*%
D16*
%TO.C,C9*%
X142450000Y-106460000D03*
X132450000Y-106460000D03*
%TD*%
D12*
%TO.C,C3*%
X115300000Y-81050000D03*
X120300000Y-81050000D03*
%TD*%
D16*
%TO.C,C7*%
X138165000Y-90570000D03*
X148165000Y-90570000D03*
%TD*%
D14*
%TO.C,J2*%
X123300000Y-90840000D03*
D15*
X123300000Y-88300000D03*
X123300000Y-85760000D03*
%TD*%
D12*
%TO.C,R27*%
X120275000Y-125560000D03*
D13*
X122815000Y-125560000D03*
%TD*%
D12*
%TO.C,C12*%
X131400000Y-131727621D03*
D19*
X131400000Y-129227621D03*
%TD*%
D12*
%TO.C,C4*%
X127445000Y-91970000D03*
X132445000Y-91970000D03*
%TD*%
D19*
%TO.C,U1*%
X147885000Y-111860000D03*
D13*
X145345000Y-111860000D03*
X142805000Y-111860000D03*
X140265000Y-111860000D03*
X137725000Y-111860000D03*
X135185000Y-111860000D03*
X132645000Y-111860000D03*
X132645000Y-119480000D03*
X135185000Y-119480000D03*
X137725000Y-119480000D03*
X140265000Y-119480000D03*
X142805000Y-119480000D03*
X145345000Y-119480000D03*
X147885000Y-119480000D03*
%TD*%
D12*
%TO.C,R24*%
X140000000Y-123000000D03*
D13*
X142540000Y-123000000D03*
%TD*%
D19*
%TO.C,C13*%
X121400000Y-129217621D03*
D12*
X121400000Y-131717621D03*
%TD*%
D19*
%TO.C,C1*%
X127817620Y-81000000D03*
D12*
X130317620Y-81000000D03*
%TD*%
%TO.C,C5*%
X128995000Y-112760000D03*
X128995000Y-117760000D03*
%TD*%
D19*
%TO.C,D2*%
X145480686Y-122760000D03*
D13*
X148020686Y-122760000D03*
%TD*%
D12*
%TO.C,R25*%
X140000000Y-126520000D03*
D13*
X142540000Y-126520000D03*
%TD*%
D12*
%TO.C,R23*%
X151405000Y-106780000D03*
D13*
X151405000Y-104240000D03*
%TD*%
D20*
%TO.C,Q1*%
X113460000Y-130200000D03*
D21*
X114730000Y-130200000D03*
X116000000Y-130200000D03*
%TD*%
D11*
%TO.C,RV1*%
X121595000Y-117460000D03*
X121595000Y-120000000D03*
X121595000Y-122540000D03*
%TD*%
D22*
%TO.C,U3*%
X110955000Y-121305000D03*
D23*
X110955000Y-120035000D03*
X110955000Y-118765000D03*
%TD*%
D16*
%TO.C,C6*%
X148165000Y-84030000D03*
X138165000Y-84030000D03*
%TD*%
M02*
